<svg xmlns="http://www.w3.org/2000/svg" viewBox="0 0 144.89 61.64"><defs><style>.cls-1{fill:#008fc0;fill-rule:evenodd;}</style></defs><g id="图层_2" data-name="图层 2"><g id="图层_1-2" data-name="图层 1"><path class="cls-1" d="M39.53,13.36l1.11,8.36-.78.09-1.34-8.65c-2.44-.47-4.74-.8-6.86-1l2,12.18a1,1,0,0,0,1,.86H52.51v-5l-1-1H69.13v-.56H56.73c-2.5-1-5-1.91-7.39-2.69l.5,5.09h-.7l-.68-5.35c-3.17-1-6.05-1.72-8.93-2.32ZM60.79,27.78H41.54L29.27,34.57H0l3.56-.86V30.79h8.88v-.51h-2.1V25.19H21l-2.62-11.9A9,9,0,0,0,16,14.77c-.85.74-.77,1.2-.53,2.25l1.71,7.33h-.81l-1.67-6.3c-2.14-.5-7.75-2.66-7.39-5.31q.2-1.5,4.72-3.2C18.84,7,30.79,4.41,33.18,3.93A227,227,0,0,1,66,.13s3-.22,8.07-.09A155.87,155.87,0,0,1,92.24,1.6a164.38,164.38,0,0,1,21.63,4.61c2.53.72,6,1.79,9.68,3.05,2.43.84,6.48,2.21,10,3.84,1.55.71,6.91,3.25,6.93,5.3,0,1.85-4.58,3.24-9,3.69a69.35,69.35,0,0,1-10.27.16c-12.83-.7-31-4.67-42.91-7.1l-1.14-.24c14.79,3.73,29,8.36,45.56,9v3.47H117L116,28h28.91a76.81,76.81,0,0,0-14.79,5.75c-10.24-2.3-22.78-3.28-33.07-3.45V24.12h-29c-2.44-1.38-4.89-2.62-7.33-3.74H55.36v4.81H95.74v3.93L83.66,33.21c7.08.35,32.49,3,46,6.47,5.45,1.42,7.58,3,7.65,4.55.2,4.28-14.12,8.29-29,11.07-13.12,2.45-26.6,3.91-31.7,4.39-14.12,1.3-29.17,1.89-45.43,2,10.55-1.19,53-10.28,52.68-19.26-.25-7.53-26.55-7.68-33.39-8ZM42.84,7.09A43.37,43.37,0,0,1,58.27,1.24c-13.33,1.48-19,3.67-25.12,5.27A83.38,83.38,0,0,1,47.44,2.12C35.68,3.74,20.36,7.41,12.33,10.57,17.87,9,24.92,8.51,30.73,8.52a196.15,196.15,0,0,1,26,2.19C64.42,11.8,71.89,13,77.56,14.08c11.66,2.16,29.52,5.4,42.12,6,2.19.1,11.81.09,16.3-1.13,2.23-.6,2.39-1.5,1.71-2.39-1.25-1.65-5.38-3.4-7.39-4.23C124.69,10,118,8.07,112.13,6.3A87.13,87.13,0,0,1,133,16.4,130.11,130.11,0,0,0,94.12,2.85c11.3,3,22.06,7.77,30.22,15A120.7,120.7,0,0,0,104.85,7.73a133.92,133.92,0,0,0-19.8-6.24c8.59,2.67,17.41,6.78,23.57,13.41C97.45,6.3,84.32,1,70.1,1.12a72.28,72.28,0,0,0-27.26,6Zm-12.19,5c-1.28-.1-2.49-.16-3.62-.17-.76,0-1.48,0-2.15,0l2.49,13.25h5.69ZM23.89,12a20.46,20.46,0,0,0-4.56.92l2.43,12.26h4.79Zm-12.24-.17c3-1.25,7.82-1.81,12.55-2A147.24,147.24,0,0,1,57,12.24c-12-1.35-25-2.81-36.74-1.51-1.32.14-3.08.26-4.87.62-2.33.47-4.68,1.29-5.92,2.41,0-.74,1.32-1.57,2.14-1.92"/></g></g></svg>