<svg xmlns="http://www.w3.org/2000/svg" viewBox="0 0 217.81 93.7"><defs><style>.cls-1{fill:#008fc0;fill-rule:evenodd;}</style></defs><g id="图层_2" data-name="图层 2"><g id="图层_1-2" data-name="图层 1"><path class="cls-1" d="M102.48,50.6c-.71.3-1.82,1-1.85,1.66a11.69,11.69,0,0,1,5.12-2.08c1.55-.31,3.07-.42,4.22-.54,10.18-1.13,21.38.14,31.8,1.3a127.44,127.44,0,0,0-28.43-2.08c-4.1.17-8.28.66-10.86,1.74ZM117.87,6l-3.77,9.17h4.68V12.75h-3.29l.24-.56h3.61v3h5.44l2.93-5.65A75.79,75.79,0,0,0,117.87,6ZM99.47,63.26V56.14l-.62-.45a8.44,8.44,0,0,1-1.47-1.38L92.75,63h-.33l-5-9.39-5,9.39h-.33l-4.86-9.13h-.28L72.08,63h-.33l-5-9.39-5,9.39h-.33l-5-9.39-5,9.39-.25-.13H46.41V72.4h-.8l-.82,0c-17.38,1-25.91,5.09-25.94,5.11l-.1,0v1.45H14V77.58a51.1,51.1,0,0,1,6.49-2.5c2.24-.7,4.49-1.26,6.68-1.73L28.69,73a.11.11,0,1,0,0-.22L27.11,73c-13.9,1.6-21.75,4.55-21.77,4.56l-.13,0v1.47H.56V77.91a101.21,101.21,0,0,1,20.35-5.08c1.13-.16,2.22-.34,3.36-.46,6.49-.65,12.63-.59,19.25-.78l1.61,0V63.07H40.51v8.18H39.23V63.07H34.6v8.26l-1.28,0V63.07H28.69v8.51l-1.28.08V63.07H22.78V72h0l-1.94.26h-.1V18.7H51v5.74H52.2v1.37H51v4.06H52.2v1.37H51v2.93H52.2v1.37H51v2.93H52.2v1.38H51v2.93H52.2v1.37H51v2.93H52.2v1.37H51v2.93H52.2v1.38H51v2.92H52.2v1.38H51v4.4h.84l2.54-4.77V9.47c-1,.17-1.93.36-2.89.56V9.72H51V13h0v4.88h-.38V10.21l-.85.18-2.13-7c3.73-.71,7.53-1.28,11.27-1.71q.42,3.5.83,7l-.73.1V8.38h-.49V56.72l3.09,5.81.29-.55V19a.6.6,0,0,0,.18-.07.52.52,0,0,0,.2-.19V61.27l3.38-6.35V20a1,1,0,0,0,.23-.06.77.77,0,0,0,.15-.1V54.21l.57-1.08h.33l2.48,4.66V18.56a1.05,1.05,0,0,0,.38-.27v40.2l2.14,4,1.24-2.33V17.79l.24-.15.14-.09v42l3.38-6.36V17.92l.38-.06V53.21l3.38,6.35V20.15c.26-.07.32-.34.3-.71a.08.08,0,0,0,0,0l.07,0V60.27l1.2,2.26,2.18-4.1V19.1l.38-.11V57.72l2.44-4.59h.33l.61,1.14V18.8l.35-.05h0V55L92,61.33v-41a1.28,1.28,0,0,0,.36-.07h0V62l.25.49,3.13-5.87V8.38h-.49v.34l-.74-.1.83-7c3.74.43,7.55,1,11.28,1.71l-2.13,7.05-.86-.18v.38h0v7.27h-.37V9.72h-.49V10c-1-.2-1.93-.39-2.9-.56v.38h0V47.33c.73-.36,1.47-.65,2.11-.89l1.28-.46V44.15H102V42.78h1.24V39.85H102V38.47h1.24V35.54H102V34.17h1.24V31.24H102V29.87h1.24V25.81H102V24.44h1.24V18.7h30.24V39.47l.56-.07V18.13H119.34V16h6.08l3.51-7.06-.28-.12c-1.15-.53-2.37-1-3.56-1.42a101.29,101.29,0,0,0-10.07-3A157.76,157.76,0,0,0,77.1,0,157.7,157.7,0,0,0,39.18,4.37a100.68,100.68,0,0,0-10.08,3c-1.19.43-2.41.89-3.56,1.42L25.11,9l3.67,7h6.07v2.14H20.16V72.37a101.23,101.23,0,0,0-20,5.08L0,77.52v2.09H133.86c3.91,0,1.74-2.06-.66-2.92-3.29-1.19-10.41-3.27-21.45-4.1H95.58s0,0,0,0,0,0,0,0c3.86,1.54,8.36,5.06,10,6.39H99.61a48.55,48.55,0,0,0-7.35-6.46H61.94a48.55,48.55,0,0,0-7.35,6.46H48.66c1.62-1.33,6.11-4.85,10-6.39,0,0,0,0,0,0s0,0,0,0H51v-7h1.35v6.53H61V65.61h1.54v6.53h8.65V65.61h1.54v6.53h8.65V65.61H83v6.53h8.64v-7H51.08l-3.85-1.87ZM36.33,6q1.88,4.59,3.77,9.17H35.42V12.75H38.7l-.23-.56H34.85v3H29.41L26.48,9.51A75.94,75.94,0,0,1,36.33,6Zm.54-.16c3.26-.92,6.69-1.71,10.18-2.39l2.13,7.08-1.48.34V10.5h-.49V11h0v6.89h-.38V11.07c-1,.23-1.93.48-2.89.74v-.28h-.49v6.33h-.56v-2.7H40.71l-1-2.41h3.17v-.56H39.48L36.87,5.83ZM59.44,1.56c4-.45,8-.75,11.71-.89l.24,6.89-1.13.05V7.29h-.49v5.09a1,1,0,0,0-.38,0V7.66c-1,.06-1.93.13-2.89.21V7.6H66v10l-.38.25V7.94c-1,.09-1.93.19-2.89.3V8h-.49V12a1,1,0,0,0-.38-.16V8.34l-1.6.2q-.41-3.48-.83-7ZM71.71.65h.06C73.55.59,75.32.56,77.1.56s3.55,0,5.32.08h.06l-.23,6.88-1.2,0v4.22a.66.66,0,0,0-.38-.11V7.1h-.49v.37c-1,0-1.93,0-2.89,0V16a1.73,1.73,0,0,1-.28.19l-.1.06V7.43c-1,0-1.93,0-2.89,0V7.1h-.49v6a2.48,2.48,0,0,1-.38,0V7.49l-1.2,0L71.71.65Zm11.34,0c3.71.14,7.67.44,11.7.89l-.83,7-1.59-.2v3.14h-.12l-.08,0a1.18,1.18,0,0,0-.18.11V8h-.49v.29c-1-.11-1.93-.21-2.89-.3v9l-.38-.21V7.6H87.7v.27c-1-.08-1.93-.15-2.89-.21v4.81l0,0,0,.09a.92.92,0,0,0-.16.7,1,1,0,0,0,.24.78v1.57a2.26,2.26,0,0,0-.3.17l-.08,0V7.29h-.49v.32l-1.13-.05Zm24.1,2.77c3.49.68,6.92,1.47,10.17,2.39l-2.61,6.36h-3.4v.56h3.17l-1,2.41h-2.18v2.7h-.56V11.53h-.5v.28c-1-.26-1.92-.51-2.89-.74v.38h0v6.41H107V10.5h-.5v.36L105,10.52ZM90.83,15h0a2.61,2.61,0,0,0,.72-.1.81.81,0,0,0,0-.38c-.1-.25-.58-.82-.9-.83l-.05,0a1.13,1.13,0,0,0,.31.92,1.21,1.21,0,0,0-.08.34Zm-27,2.31,0-.09c.12-.31.34-.61.45-.9A1.89,1.89,0,0,1,64.4,16c.17-.24.66-.29.76-.58a.44.44,0,0,0-.1-.44c-.06,0-.16,0-.19-.08s.11-.35.15-.43c.25-.49,0-1.47-.5-1.47-.12.07-.33.21-.36.37s0,.24,0,.36c-.12.37-.27.82-.41,1.18a3.8,3.8,0,0,1-.24.62,1.65,1.65,0,0,1-.48.43l-.13.06a.52.52,0,0,0,0,.11.47.47,0,0,0,.26.07c.09.16-.05.32-.1.46-.14.37-.67,1.22-.2,1.56a.41.41,0,0,0,.36.05l.53-.21c.33-.09.9-.1,1-.44a.27.27,0,0,0-.06-.21c-.25-.38-.47,0-.77-.06ZM68,16.87a.24.24,0,0,0-.24-.13l-.12,0c-.18.09-.12.44-.29.53l-.17,0c-.13.06-.3.14-.44.22-.35.2-.67.47-1,.68l-.36.19-.18.16c-.1.06-.23.05-.3.13a.57.57,0,0,0,.81.62,3.62,3.62,0,0,0,.65-.84c.09,0,.18,0,.31,0a2.1,2.1,0,0,1,.76-.07c.19,0,.48.1.56,0s0-.67,0-.94.11-.4,0-.53ZM66.93,18c-.11-.09.35-.38.44-.43.3,0-.24.52-.44.43ZM69.27,17c-.16-.21-.25-.48-.62-.47l-.06.05a1.13,1.13,0,0,0,0,.41c0,.13-.06.23,0,.33l.09.14a1.09,1.09,0,0,0,.42.54c.28,0,.62-.26.49-.59a2.14,2.14,0,0,0-.29-.41ZM61.63,12.2c-.29.17-.13.49-.07.76s0,.32,0,.49a9.49,9.49,0,0,0-.22,2.25c0,.24,0,.47,0,.71a4,4,0,0,1,0,1c-.06.21-.29.29-.4.44a4,4,0,0,1-.9.88c-.34.24-.69.44-.76.94.08.13.1.13.26.18s.14.13.28.1c.32-.08.85-.82,1-1.1.08-.12.09-.29.17-.4s.23-.47.42-.41.21.38.44.26.18-.44.14-.64-.13-.49-.17-.77,0-.26,0-.42,0-.22,0-.33a11.45,11.45,0,0,1,.29-1.66c.13-.4.36-.75.45-1.16,0-.14,0-.23-.08-.32-.11-.4-.35-.83-.86-.83ZM60.1,17.27c.06.43-.41.8-.29,1.13l.17,0a2.42,2.42,0,0,0,.36-.42c0-.07,0-.14.12-.2.25-.2.56-.32.71-.62s-.58-.67-1-.66l-.39.11c-.25.41.25.32.3.64Zm9.83-4.49c-.45-.19-.74.26-1,.16s-.12-.21-.25-.25l-.52,0a1.2,1.2,0,0,0-.44-.07.33.33,0,0,0-.16.15c0,.44.36.43.5.71a.13.13,0,0,1,0,.06,2.65,2.65,0,0,1-.39.26c-.16.11-.33.27-.5.37s-.42.16-.51.36a.19.19,0,0,0,0,.08.66.66,0,0,0,.25.13,4.48,4.48,0,0,0,.88-.2c.14-.07.24-.24.35-.34a3.89,3.89,0,0,1,.72-.42c.22-.11.35-.33.64-.4l.27.05c.09-.08.38-.3.3-.49s-.08-.1-.17-.13Zm-1.08,2.38a1.46,1.46,0,0,1,.53-.64c.14-.23-.1-.49-.33-.49s-.25.21-.4.29l-.93.54c-.12.07-.44.17-.5.27v.06c.36.22.58-.17.92-.15.08.11,0,.26-.09.33a3.48,3.48,0,0,0-.8.78h0l-.17-.26c-.08-.1-.18-.14-.24-.27s-.39,0-.46.13a5.07,5.07,0,0,0,.27.68l.06.26.33.16c.23,0,.24-.15.34-.3s.2,0,.31-.06l.35-.25.42-.19a1.52,1.52,0,0,0,.42-.6c0-.11,0-.17,0-.29Zm6.59.17-.16.12c-.14.08-.31.13-.44.21l-1,.42h0a1.88,1.88,0,0,1,.23-.6c.09-.2.19-.39.29-.59a3.58,3.58,0,0,0,.54-.89c.1-.33-.49-.66-.81-.66a2.6,2.6,0,0,1-1.08.14h-.44l-.27.14c-.15.25.56,1,.94.93.22,0,.32-.28.49-.37h.06c.07.16-.08.34-.13.46a5.28,5.28,0,0,0-.28,1.17c0,.15-.1.34,0,.46s-.58.32-.76.41a13.64,13.64,0,0,1-1.39.64c-.29.1-.85.23-1,.46a.72.72,0,0,0,1,.5c.67-.41,1.37-.8,2-1.23.18-.11.59-.47.82-.47h0v0a1.2,1.2,0,0,0-.23.22.13.13,0,0,0,.07.06c.3-.14.64-.32,1-.44l.3-.05a2,2,0,0,0,1-.54.62.62,0,0,0-.66-.52Zm13,2a2.73,2.73,0,0,0-.76-.41c-.15-.06-.19-.17-.45-.17l-.19.05c-.18.29.12.46.24.64s.09.32.17.49.62.29,1,.22c.15-.22.15-.25.08-.52a.66.66,0,0,0-.08-.3Zm5.18,0c-.06,0-.11-.1-.21-.07-.26.07-.46.49-.8.4-.11-.21.23-.33.16-.61s-.56-.32-.89-.35l0,0c-.2.52.19.4.31.64s-.09.25-.12.36,0,.19,0,.25c-.19.13-.41.21-.61.34l-.12.1c-.18.08-.45,0-.58.17v0a1,1,0,0,0,.92.21l.51-.25s0,0,0,.05,0,.19,0,.26c-.21.73-.82.09-1.32.31v0c0,.34,1,.62,1.35.46s.75-.44.66-.88c0-.17-.14-.39-.17-.53a.3.3,0,0,1,.17-.14h0c0,.09-.06.12-.08.21.15,0,.21-.12.3-.18a2.92,2.92,0,0,1,.37-.24,2.36,2.36,0,0,0,.51-.2c.06-.25-.15-.33-.33-.41Zm.41-2.91c-.18.09-.15.35-.44.36h0c-.06-.28.23-.51.35-.69l.12-.23.12-.09,0-.13a2.69,2.69,0,0,0,.39-.6.85.85,0,0,0-.06-.46,1,1,0,0,0-.68,0l-.11.28.12.2c0,.15-.08.26-.12.34a6.73,6.73,0,0,1-.45.89l0,0a1,1,0,0,1,0-.46c0-.11-.28-.15-.3-.21a.74.74,0,0,0,0-.14.32.32,0,0,0-.27-.45.16.16,0,0,1,0-.11c.27-.26.34-.56,0-.82a.55.55,0,0,0-.43-.17s-.11,0-.14.1.13.23.09.38a3.29,3.29,0,0,1-.27.57c-.11.15-.46.1-.6.28a.07.07,0,0,1,0,.05c.08.11.25.1.31.2v0c-.06.14-.21.22-.3.34v.1l0,0h.09l.31-.19.27-.08c.07-.05.06-.12.16-.14h0c.07.15-.12.47-.2.57a2.81,2.81,0,0,0-.45.05.52.52,0,0,0,0,.25c.08,0,.19.06.23.15s-.33.6-.36.82l0,0c.19.07.72-.41.8-.53.32,0,.36,0,.55-.12h0c.07.06.17.15.13.28s-.32.2-.48.28-1.15.75-1.51.65a3.07,3.07,0,0,1,0-.34c-.11-.34-.4-.9-.82-.9-.14.14.06.3.09.45.15.6,0,.68.58.87a.17.17,0,0,1,0,.12c-.06,0-.16.07-.2.13v.06a1.32,1.32,0,0,0,.84.07c.38-.28.74-.56,1.16-.82l.27-.18H93c.13-.06.37-.29.53-.25l0,0c-.06.47-1.07,1-1.39,1.32v.05h0a3,3,0,0,0,.88-.37l.49-.1a2.69,2.69,0,0,0,1.11-1c0-.07.16-.1.2-.19.13-.3-.49-.69-.82-.52Zm-1.28.09-.1-.06a.38.38,0,0,1,.14-.43h.05c.11.16.07.43-.09.49Zm-3.15,2.22-.19.12a1.84,1.84,0,0,1,0,.25c-.08.19-.33.48-.25.73s.36.36.55.31c.35-.16.55-1.42-.06-1.41Zm-6.46-3.31c-.14-.23-.39-.21-.64-.12a2.24,2.24,0,0,0-.39.27c-.27.17-.56.32-.83.48-.11.06-.51.33-.57.22a.63.63,0,0,1,.1-.5l.31-.09a2.55,2.55,0,0,0,1.22-1,.75.75,0,0,0-.71-.42,1.56,1.56,0,0,0-.59.33c-.21,0,0-.54-.46-.55a.76.76,0,0,0-.16.69,1.11,1.11,0,0,0,0,.17c0,.16-.27.34-.38.45H80c-.14-.31-.13-.75-.59-.59-.07.12,0,.21,0,.38l-.12.29c0,.11,0,.24,0,.32-.17.26-.67.24-.94.41-.07.28.39.57.69.52.14,0,.19-.11.31-.13s.24.28.47.23.14-.08.26-.09h0s0,.05,0,.1a5,5,0,0,1-.93.51c-.4.24-.85.46-1.24.71-.24.16-.47.38-.72.54s-.94.43-.86.76a.22.22,0,0,1,0,.08,1.23,1.23,0,0,0,.43,0l.55-.09c.39-.15.59-.5.9-.72l.46-.31c.15-.1.29-.32.52-.33l0,0c-.07.26-.2.4,0,.66.33.07.38-.3.56-.44a2.14,2.14,0,0,1,.39-.24c.07,0,.11-.07.2-.05l0,0c0,.08-.14.08-.21.11,0,.3-.13.43-.36.53s-.19.05-.24.15v.06c.17.18.24.06.41.16a.1.1,0,0,1,.05.06.29.29,0,0,1,0,.09c0,.07-.25.07-.32.1-.1.29.22.29.31.47a.17.17,0,0,1,0,.07c-.06.06-.27.14-.3.21s.38.36.16.6a4.69,4.69,0,0,1-1,.34c-.1,0-.18-.05-.26,0-.41.25.27.76.51.78.17-.15.1-.42.3-.52a1.4,1.4,0,0,1,.63.29l.17.18c.47.09.19-.35.3-.58a2.79,2.79,0,0,1,.93-.46c.2-.34-.22-.66-.44-.74-.24.12-.15.63-.41.76h-.07l0,0a2.27,2.27,0,0,1,.23-1.17c.07-.17.27-.41.23-.65l-.06-.3c0-.07-.14,0-.2-.09l-.17-.3h0c.06,0,.07,0,.13,0l.06-.05c0-.14-.06-.25,0-.36s.1-.07.15-.11a2.75,2.75,0,0,0,.77-.66.46.46,0,0,0-.61-.31c-.08,0-.09.1-.21.14h0v0a3.08,3.08,0,0,1,.77-.44l.21,0,.4-.18c.21-.06.31,0,.5-.1s.49-.26.35-.52Zm-1.86-.7h0c.08.18-.31.45-.4.56h-.06c-.2-.33.26-.45.43-.56Zm-1.2,6.21a.39.39,0,0,1-.34.09l-.07-.09c0-.17.16-.22.27-.31h.09a.47.47,0,0,1,0,.3ZM80,13.67c0-.09.16-.13.24-.18h0c.07.12-.07.26-.16.32h-.1a.14.14,0,0,1,0-.14Zm.06.56,0,0,0,0a.52.52,0,0,0,0-.11l0,0h.06c0,.05,0,.11,0,.14Zm-.16,1.41s-.05,0-.07-.06c-.09-.32.42-.63.64-.7s.15,0,.29-.05.08,0,.09.06-.79.68-.95.75Zm7.81-1.35a.38.38,0,0,0-.53-.11c-.27.17-.39.5-.68.66-.07,0-.15.18-.27.11s0-.28,0-.42a4.68,4.68,0,0,0,0-1c-.06-.29-.83-.77-1.12-.82a.2.2,0,0,0-.08,0c-.31.52.06.72.22,1.09a5.05,5.05,0,0,1,.13,1.77c-.08.16-.52.36-.69.47a7.72,7.72,0,0,1-1.25.73l-.56.22c-.13,0-.23,0-.33.05-.13.63.15.88.76.68a2.7,2.7,0,0,0,.94-.69,5.29,5.29,0,0,1,.93-.68h.07c.11.18,0,.47-.12.64a2.07,2.07,0,0,1-1.2,1.1c-.27.09-.68,0-.79.24l0,.07a2.43,2.43,0,0,0,.85,0l.21,0a2,2,0,0,0,1.45-1,1.67,1.67,0,0,0,.25-.43c.08-.36.12-.68.22-1,0-.11,0-.26,0-.34a1.41,1.41,0,0,1,.5-.35l.3-.25c.14-.1.3-.18.43-.28s.39-.28.3-.54ZM58.11,56l-1.53-2.89h-.33L54.73,56V9.4h0V9h.49v.33c1-.17,1.93-.33,2.89-.47V56Zm39-2-1.06,2V8.85c1,.14,1.93.3,2.9.47V9h.49V47.53c-1.5.8-2.87,1.92-3.09,3.54A4.1,4.1,0,0,0,97.14,54ZM69.77,14.78a.65.65,0,0,1-.09.23l-.06.11-.11,0a.64.64,0,0,0-.12.12v1.23l.16.23.22.27ZM96.08,57.5l-.37.71v4.67h.37Zm-7.51-1-.38-.71v7.06h.38Zm-3.76,2.74-.38.71v2.9h.38Zm-3.76,2.55-.38-.71v1.77h.38Zm-3.76-7.07-.21-.38-.17.32v8.19h.38Zm-3.76,6.3-.38.7v1.13h.38Zm-3.76-1-.38-.7v3.54h.38ZM66,55.76l-.38.7v6.42H66Zm-3.76,7.06,0,.06h0Zm-3.76-4.55-.38-.71v5.32h.38Zm-3.76-.74-.38.71v4.64h.38ZM52.2,62.27l-.32.61h.32ZM46.41,21.43H44.79v6h1.62Zm-2,0H42.81v6h1.63Zm-2,0H40.84v6h1.62Zm-2,0H38.86v6h1.63ZM46.41,59H43.23v2.3h3.18ZM31.08,59H27.89v2.3h3.19V59Zm5.11,0H33v2.3h3.18V59Zm5.11,0H38.12v2.3H41.3V59ZM26,59H22.78v2.3H26Zm.52-3.81H22.78v2.3h3.71Zm0-4.3H22.78v2.3h3.71Zm0-4.3H22.78v2.3h3.71Zm0-4.31H22.78v2.3h3.71Zm0-4.3H22.78v2.3h3.71Zm0-4.3H22.78V36h3.71Zm10,21.51H28.9v2.3h7.55Zm0-4.3H28.9v2.3h7.55Zm0-4.3H28.9v2.3h7.55Zm0-4.31H28.9v2.3h7.55Zm0-4.3H28.9v2.3h7.55Zm0-4.3H28.9V36h7.55Zm10,21.51H38.86v2.3h7.55Zm0-4.3H38.86v2.3h7.55Zm0-4.3H38.86v2.3h7.55Zm0-4.31H38.86v2.3h7.55Zm0-4.3H38.86v2.3h7.55Zm0-4.3H38.86V36h7.55ZM26.49,29.4H22.78v2.31h3.71Zm10,0H28.9v2.31h7.55Zm10,0H38.86v2.31h7.55Zm-19.92-8H24.81v6h1.68Zm-2,0H22.78v6h1.68Zm12,0H34.83v6h1.62Zm-2,0H32.85v6h1.63Zm-2,0H30.87v6H32.5Zm-2,0H28.9v6h1.62Zm77.26,0h1.63v6h-1.63Zm2,0h1.62v6h-1.62Zm2,0h1.63v6h-1.63Zm2,0h1.62v6h-1.62Zm14,16.58h3.7v1.71c-1.23.16-2.47.33-3.7.52Zm0-4.3h3.7V36h-3.7Zm-10,4.3h7.55v2.3h-7.55Zm0-4.3h7.55V36h-7.55Zm-10,8.6h7.55v.33c-2.08.49-4.17,1-6.21,1.57l-1.34.37Zm0-4.3h7.55v2.3h-7.55Zm0-4.3h7.55V36h-7.55Zm19.93-4.31h3.7v2.31h-3.7Zm-10,0h7.55v2.31h-7.55Zm-10,0h7.55v2.31h-7.55Zm19.93-8h1.68v6h-1.68Zm2,0h1.67v6h-1.67Zm-12,0h1.62v6h-1.62Zm2,0h1.63v6h-1.63Zm2,0h1.62v6H121.7Zm2,0h1.63v6h-1.63ZM113.08,50.75l2.29,11.41h-4.14l-2.1-10.61a16.66,16.66,0,0,1,4-.8Zm5.84,0L121,62.16h-4.92l-2.16-11.48c.58,0,1.2,0,1.87,0q1.45,0,3.12.15Zm10.56-4.3a62.32,62.32,0,0,1,23.59-5.17c12.31-.14,23.67,4.48,33.34,11.93-5.33-5.74-13-9.29-20.4-11.61A115.74,115.74,0,0,1,183.15,47,106.16,106.16,0,0,1,200,55.76c-7.07-6.22-16.38-10.34-26.16-12.94a112.9,112.9,0,0,1,33.67,11.72,75.11,75.11,0,0,0-18.08-8.73c5.1,1.53,10.87,3.22,15.73,5.23,1.74.72,5.31,2.24,6.39,3.66.59.78.45,1.56-1.47,2.07-3.89,1.06-12.22,1.07-14.11,1-10.91-.53-26.37-3.34-36.46-5.2-4.91-.9-11.37-2-18-2.92A171.32,171.32,0,0,0,119,47.73a62.36,62.36,0,0,0-15.92,1.77c7-2.73,20.21-5.91,30.39-7.32A74.68,74.68,0,0,0,121.09,46c5.29-1.38,10.2-3.28,21.74-4.55a37.47,37.47,0,0,0-13.35,5.06ZM145,64.39l-8.94,5.77c5.92.23,28.69.35,28.91,6.87.26,7.78-36.47,15.64-45.6,16.67,14.07,0,27.1-.56,39.32-1.69,4.41-.41,16.08-1.67,27.43-3.8,12.86-2.4,25.26-5.87,25.08-9.57-.06-1.35-1.91-2.72-6.62-3.94-11.66-3-33.65-5.3-39.79-5.6l10.46-3.55V62.16H140.31V58H145q3.17,1.45,6.35,3.24h25.06v5.32c8.91.15,19.76,1,28.62,3a66.64,66.64,0,0,1,12.81-5h-25l.85-.54h5V61c-14.33-.52-26.63-4.53-39.43-7.75l1,.2c10.28,2.11,26,5.55,37.13,6.15a60.06,60.06,0,0,0,8.9-.14c3.85-.39,7.83-1.59,7.81-3.2,0-1.76-4.65-4-6-4.58-3.08-1.41-6.59-2.6-8.69-3.32-3.18-1.09-6.19-2-8.38-2.65a142.06,142.06,0,0,0-18.72-4,133.85,133.85,0,0,0-15.75-1.35c-4.42-.11-7,.07-7,.07a198.38,198.38,0,0,0-28.38,3.29c-2.08.42-12.41,2.64-18.35,4.86q-3.92,1.47-4.09,2.77c-.31,2.29,4.55,4.16,6.4,4.6l1.44,5.45h.7l-1.47-6.34c-.22-.91-.28-1.32.45-2a8.42,8.42,0,0,1,2.13-1.28l2.27,10.31h-9.25v4.4h1.81V67H95.48v3.27h22.26l10.61-5.88Zm-18.4-12.47a79.7,79.7,0,0,1,7.73,2l.59,4.63h.61l-.43-4.4c2.08.67,4.22,1.44,6.39,2.33h11.15V57H137l.89.89v4.3H122.42a.88.88,0,0,1-.87-.75L119.8,50.87c1.83.18,3.82.47,5.93.87l1.17,7.49.68-.08Z"/></g></g></svg>