<svg xmlns="http://www.w3.org/2000/svg" viewBox="0 0 46.28 23.89"><defs><style>.cls-1{fill:#0095c1;fill-rule:evenodd;}</style></defs><g id="图层_2" data-name="图层 2"><g id="图层_1-2" data-name="图层 1"><path class="cls-1" d="M35.38,1.8,34.24,4.55h1.41V3.83h-1l.07-.17h1.09v.89h1.63l.88-1.7a23.05,23.05,0,0,0-2.95-1ZM10.9,1.8c.38.91.76,1.83,1.13,2.75h-1.4V3.83h1l-.06-.17H10.46v.89H8.83L8,2.85a23.05,23.05,0,0,1,3-1Zm.17-.05c1-.28,2-.51,3-.72.21.71.43,1.42.64,2.13l-.44.1V3.15h-.15V5.36h-.11v-2l-.87.22V3.46H13v1.9h-.17V4.55h-.65l-.3-.72h.95V3.66h-1l-.78-1.91ZM14.29,1C15.41.79,16.55.62,17.67.49c.09.7.17,1.4.25,2.1l-.22,0v-.1h-.15V17l.93,1.75.09-.17V5.71l.05,0,.06-.06V18.39l1-1.91V6l.07,0,0,0V16.27L20,16h.1l.75,1.39V5.57l.11-.08V17.56l.64,1.21.38-.7V5.34l.07,0,0,0V17.86l1-1.91V5.38l.12,0V16l1,1.91V6.05c.08,0,.1-.1.09-.22h0V18.09l.36.68.66-1.23V5.73l.11,0V17.32L26.19,16h.1l.18.34V5.64h.11V16.5l1,1.91V6.1l.1,0h0V18.62l.08.15L28.73,17V2.52h-.15v.1l-.22,0,.25-2.1C29.73.62,30.87.79,32,1l-.64,2.12-.25-.06v2.3H31v-2h0v-.4h-.15V3L30,2.84V3h0V17l.75,1.41H31V17.12h-.37v-.41H31v-.88h-.37v-.41H31v-.88h-.37v-.41H31v-.88h-.37v-.41H31V12h-.37v-.41H31v-.88h-.37v-.41H31V9.38h-.37V9H31V7.75h-.37V7.33H31V5.61h9.08V21.7h0l-.58-.08h0V18.93H38.05v2.58l-.38,0V18.93H36.28v2.49h-.39V18.93H34.51v2.46h-.39V18.93H32.73v2.55h.49c2,.05,3.83,0,5.77.23l1,.14a29.93,29.93,0,0,1,6.1,1.52v.34h-1.4v-.43l0,0a31,31,0,0,0-6.54-1.37l-.46,0,0,0,0,0,.46.09c.65.14,1.33.32,2,.53a14,14,0,0,1,1.95.75v.43H40.65v-.43l0,0a22.43,22.43,0,0,0-7.78-1.53h-.49V18.87H30.92l-.08,0-1.5-2.82-1.5,2.82h-.1l-1.5-2.82-1.5,2.82h-.1l-1.46-2.74h-.09l-1.46,2.74h-.1L20,16.09l-1.5,2.82h-.1l-1.5-2.82-1.5,2.82-.08,0H13.93v2.86h-.49a22.43,22.43,0,0,0-7.78,1.53l0,0v.43H4.2v-.43a14,14,0,0,1,2-.75c.67-.21,1.35-.39,2-.53l.46-.09,0,0,0,0-.46,0A31,31,0,0,0,1.6,23.27l0,0v.43H.17v-.34a29.76,29.76,0,0,1,6.1-1.52l1-.14c1.94-.2,3.78-.18,5.77-.23h.49V18.93H12.16v2.45h-.39V18.93H10.38v2.48H10V18.93H8.61v2.55l-.38,0V18.93H6.84v2.68h0l-.58.08h0V5.61H15.3V7.33h.37v.42H15.3V9h.37v.42H15.3v.88h.37v.41H15.3v.88h.37V12H15.3v.88h.37v.41H15.3v.88h.37v.41H15.3v.88h.37v.41H15.3v.88h.37v.41H15.3v1.32h.25L16.31,17V2.84L15.45,3V2.92H15.3V5.36h-.12V3.06l-.25.06c-.22-.71-.43-1.41-.64-2.12ZM17.84.47C19.05.33,20.24.24,21.35.2c0,.69,0,1.38.07,2.07h-.33V2.19h-.15V3.71l-.11,0V2.3L20,2.36V2.28h-.15v3l-.11.08v-3l-.87.09V2.39h-.15V3.61l-.11,0V2.5l-.48.06c-.08-.69-.17-1.39-.25-2.09ZM21.52.19h0l1.6,0,1.6,0h0l-.08,2.07h-.36V3.51l-.11,0V2.13h-.15v.11H23.2V4.79l-.09.06,0,0V2.23h-.87V2.13h-.14v1.8H22V2.25h-.37c0-.69,0-1.38-.07-2.07ZM23.14,0A47.38,47.38,0,0,0,11.76,1.31c-1,.26-2,.55-3,.91-.35.13-.72.27-1.06.42l-.13.06,1.1,2.1h1.82v.64H6.05V21.72a30.25,30.25,0,0,0-6,1.52l-.06,0v.62H46.28v-.62l-.06,0a30.25,30.25,0,0,0-6-1.52V5.44H35.82V4.8h1.82L38.7,2.68l-.09,0c-.34-.15-.71-.29-1.06-.42-1-.36-2-.65-3-.91A47.38,47.38,0,0,0,23.14,0Zm1.79.2c1.11,0,2.3.13,3.51.27l-.25,2.09-.48-.06v.94h-.06l0,0V2.39h-.15v.08l-.87-.09V5.07L26.47,5V2.28h-.15v.08l-.87-.06V3.74h0l0,0L25.38,4a.3.3,0,0,0,.07.23v.47l-.09,0,0,0V2.19h-.15v.09h-.34ZM32.16,1c1.05.21,2.08.44,3.05.72l-.78,1.91h-1v.17h1l-.3.72h-.65v.81h-.17V3.46h-.15v.08l-.87-.22v2h-.11V3.15H32v.11l-.44-.1Zm-4.9,3.48h0l.22,0V4.37c0-.08-.18-.25-.27-.25h0a.35.35,0,0,0,.1.27l0,.11Zm-8.09.69v0c0-.09.1-.18.14-.27l0-.1.23-.18,0-.13-.06,0,0-.13c.08-.15,0-.44-.14-.44L19.26,4v.1c0,.12-.08.25-.12.36l-.07.18-.15.14h0v0l.08,0,0,.13c-.05.12-.2.37-.06.47l.1,0,.16-.06c.1,0,.27,0,.3-.14l0-.06c-.07-.11-.14,0-.23,0Zm1.25-.14-.07,0h0l-.09.16h0L20,5.27c-.11.06-.2.14-.3.2l-.11.06-.05,0-.1,0a.17.17,0,0,0,.25.18l.19-.25H20l.22,0,.17,0V5.06Zm-.33.35.13-.13c.09,0-.07.16-.13.13Zm.7-.32c-.05-.07-.08-.15-.19-.15v.24l0,.05.13.16c.09,0,.19-.08.15-.18l-.09-.12ZM18.5,3.66l0,.23V4a2.42,2.42,0,0,0-.07.67v.21l0,.31-.12.14a1.33,1.33,0,0,1-.27.26c-.11.07-.21.13-.23.28l.08.06L18,6c.1,0,.25-.24.3-.32l0-.12.13-.13.13.08,0-.19-.05-.23V4.85a4,4,0,0,1,.08-.5A3.45,3.45,0,0,0,18.78,4l0-.1c0-.12-.11-.25-.26-.25ZM18,5.18c0,.13-.12.24-.09.34H18l.11-.13,0-.06c.07-.06.16-.1.21-.19S18.18,5,18.06,5L18,5c-.08.12.07.1.09.19ZM21,3.84c-.14-.06-.22.07-.29,0l-.08-.07h-.15l-.14,0,0,0c0,.14.1.13.15.22h0l-.12.08-.15.11L20,4.35v0l.07,0,.27-.06.1-.1.22-.12L20.87,4H21L21,3.87l-.05,0Zm-.33.71.16-.19-.09-.15-.13.09-.28.16-.14.08v0c.11.07.18,0,.28,0l0,.1a1.09,1.09,0,0,0-.24.24h0l-.06-.08-.07-.08-.13,0,.07.2L20,5l.1,0,.1-.09.1,0,.1-.08.13,0,.12-.18V4.55Zm2,0-.05,0-.13.06-.3.13h0l.06-.18.09-.17a1.07,1.07,0,0,0,.16-.27c0-.1-.14-.2-.24-.2a.8.8,0,0,1-.32,0h-.13l-.09,0c0,.08.17.31.29.28l.14-.11h0l0,.14a1.64,1.64,0,0,0-.08.35v.14L21.78,5a3.17,3.17,0,0,1-.42.19l-.29.14a.21.21,0,0,0,.29.15L22,5.11,22.21,5h0l-.07.07,0,0,.29-.14h.09a.68.68,0,0,0,.29-.16l-.2-.16Zm3.91.58-.22-.12-.14,0-.06,0,.08.19.05.15c0,.08.18.08.29.06l0-.15,0-.1Zm1.56,0-.07,0c-.07,0-.13.15-.24.12l.05-.18c0-.09-.17-.1-.27-.11h0c-.06.16.06.12.09.19l0,.11v.08l-.18.1,0,0-.17,0h0a.29.29,0,0,0,.27.06l.16-.07h0v.08c-.06.22-.25,0-.4.09h0c0,.1.28.19.4.14s.23-.13.2-.26l-.05-.16.05,0h0l0,.06.09-.06.11-.07.16-.06-.1-.12Zm.12-.88-.13.11h0l.11-.2,0-.08,0,0v0l.11-.18V3.75h-.21l0,.09,0,.06,0,.1a1.15,1.15,0,0,1-.14.27h0V4.12l-.09-.06V4l-.08-.14v0c.08-.08.1-.17,0-.24l-.12-.06-.05,0,0,.12-.08.17L27.43,4V4l.09.06h0l-.09.1v0h0l.09,0,.09,0,.05,0h0l-.06.17-.14,0v.07l.07,0-.11.24h0l.24-.16a.2.2,0,0,0,.16,0h0l0,.09-.15.08c-.09,0-.34.23-.45.2l0-.11c0-.1-.12-.26-.24-.27l0,.14c0,.18,0,.2.17.26v0l-.06,0v0l.26,0a3.07,3.07,0,0,1,.35-.24l.08-.06h0l.15-.07h0c0,.14-.32.29-.42.39V5h0a1.09,1.09,0,0,0,.27-.11l.14,0a.78.78,0,0,0,.34-.31l.06-.06c0-.09-.15-.21-.25-.16Zm-.38,0,0,0,0-.12h0l0,.14ZM26.9,5l0,0,0,.07-.08.22.17.09c.1,0,.17-.42,0-.42ZM25,4l-.19,0-.12.08-.25.15-.17.06,0-.15.1,0a.76.76,0,0,0,.36-.3l-.21-.12-.18.09c-.06,0,0-.16-.14-.16s-.05.11-.05.21v.05L24,4h0c0-.1,0-.22-.18-.18v.12l0,.08v.1l-.28.12c0,.08.12.17.21.16l.09,0,.14.07.08,0h0v0l-.28.16c-.12.07-.26.13-.37.21l-.22.16c-.06,0-.28.13-.26.23l0,0h.12l.17,0c.12,0,.18-.15.27-.21l.14-.09.16-.1h0V5c.09,0,.11-.09.16-.14l.12-.07h.07l-.06,0L24,4.94l-.07,0V5l.12,0,0,0v0l-.1,0,.1.14v0L24,5.35l.05.18-.29.1h-.08c-.12.08.08.23.16.23l.09-.15.19.09,0,0c.15,0,.06-.11.1-.17l.27-.14c.07-.1-.06-.2-.13-.23l-.12.23h0a.68.68,0,0,1,.07-.36L24.34,5l0-.09-.06,0-.05-.08h0l0,0v-.1l.05,0,.23-.19-.19-.1-.06,0h0l.23-.13h.07l.12-.06.15,0L25,4ZM24.4,3.8h0L24.29,4h0c-.06-.09.08-.13.13-.16ZM24,5.66l-.1,0,0,0L24,5.57h0v.09ZM24,4.1l.07,0h0l0,.1h0V4.1Zm0,.17h0v0h0v0ZM24,4.69h0c0-.1.13-.19.19-.21l.09,0,0,0L24,4.69Zm2.34-.4-.16,0-.2.19-.08,0V4.36a1.5,1.5,0,0,0,0-.3l-.33-.24h0c-.09.16,0,.22.07.33l0,.53-.21.14a2.77,2.77,0,0,1-.37.22l-.17.06-.1,0c0,.19,0,.27.23.2a.8.8,0,0,0,.28-.2l.28-.21h0l0,.2a.62.62,0,0,1-.36.33L25,5.52v0h.32a.59.59,0,0,0,.44-.29l.07-.13c0-.11,0-.21.07-.3V4.71l.16-.1.08-.07.13-.09.09-.16ZM17.44,16.81,17,16h-.1l-.45.85v-14h0V2.7h.14v.1l.87-.15V16.81Zm12.41,0L29.39,16h-.1l-.45.84V2.65l.87.15V2.7h.14V16.82ZM20.94,4.44l0,.07,0,0h0l0,0V5l.05.06.06.08ZM14.18,19l1.15.56H31L32.1,19Zm16.52-.12-.09-.16v.16ZM30,17.5l-.12-.21v1.58H30Zm-1.13-.24-.11.21v1.4h.11ZM26.58,17l-.11-.22v2.12h.11Zm-1.13.82-.11.21v.87h.11Zm-1.13.76-.11-.21v.53h.11ZM23.2,16.43l-.07-.11-.05.1v2.45h.12Zm-1.13,1.89-.11.21v.34h.11ZM20.94,18l-.11-.21v1.06h.11Zm-1.13-1.29L19.7,17v1.92h.11Zm-1.13,2.12v0h0Zm-1.13-1.36-.11-.21v1.59h.11Zm-1.12-.22-.12.21v1.39h.12Zm-.76,1.42-.1.18h.1Zm7.47,3h-1.3v-2h-.46v2h-2.6v-2h-.46v2h-2.6v-2h-.4v2.1H17.6a13.85,13.85,0,0,0-3,1.91h1.78a14.23,14.23,0,0,1,2.21-1.93h9.1a13.87,13.87,0,0,1,2.2,1.93h1.79a13.85,13.85,0,0,0-3-1.91H31v-2.1h-.41v2H28v-2H27.5v2H24.9v-2h-.46v2ZM13.93,6.43h-.49V8.24h.49Zm-.59,0h-.49V8.24h.49Zm-.6,0h-.48V8.24h.48Zm-.59,0h-.49V8.24h.49Zm1.78,11.29H13v.69h1Zm-4.6,0h-1v.69h1v-.69Zm1.53,0H9.91v.69h.95v-.69Zm1.54,0h-1v.69h1v-.69Zm-4.61,0h-1v.69h1ZM8,16.57H6.84v.69H8Zm0-1.29H6.84V16H8ZM8,14H6.84v.69H8ZM8,12.7H6.84v.69H8Zm0-1.29H6.84v.69H8Zm0-1.29H6.84v.69H8Zm3,6.45H8.67v.69h2.27Zm0-1.29H8.67V16h2.27Zm0-1.29H8.67v.69h2.27Zm0-1.29H8.67v.69h2.27Zm0-1.29H8.67v.69h2.27Zm0-1.29H8.67v.69h2.27Zm3,6.45H11.66v.69h2.27Zm0-1.29H11.66V16h2.27Zm0-1.29H11.66v.69h2.27Zm0-1.29H11.66v.69h2.27Zm0-1.29H11.66v.69h2.27Zm0-1.29H11.66v.69h2.27ZM8,8.83H6.84v.69H8Zm3,0H8.67v.69h2.27Zm3,0H11.66v.69h2.27ZM8,6.43h-.5V8.24H8Zm-.61,0h-.5V8.24h.5Zm3.6,0h-.49V8.24h.49Zm-.59,0H9.86V8.24h.49Zm-.6,0H9.27V8.24h.48Zm-.59,0H8.67V8.24h.49Zm23.19,0h.49V8.24h-.49Zm.59,0h.49V8.24h-.49Zm.6,0H34V8.24h-.48Zm.59,0h.48V8.24h-.48ZM32.35,17.72h.95v.69h-.95Zm4.6,0h1v.69H37v-.69Zm-1.53,0h.95v.69h-.95v-.69Zm-1.54,0h1v.69h-1v-.69Zm4.61,0h.95v.69h-.95Zm-.16-1.15h1.11v.69H38.33Zm0-1.29h1.11V16H38.33Zm0-1.29h1.11v.69H38.33Zm0-1.29h1.11v.69H38.33Zm0-1.29h1.11v.69H38.33Zm0-1.29h1.11v.69H38.33Zm-3,6.45h2.27v.69H35.34Zm0-1.29h2.27V16H35.34Zm0-1.29h2.27v.69H35.34Zm0-1.29h2.27v.69H35.34Zm0-1.29h2.27v.69H35.34Zm0-1.29h2.27v.69H35.34Zm-3,6.45h2.26v.69H32.35Zm0-1.29h2.26V16H32.35Zm0-1.29h2.26v.69H32.35Zm0-1.29h2.26v.69H32.35Zm0-1.29h2.26v.69H32.35Zm0-1.29h2.26v.69H32.35Zm6-1.29h1.11v.69H38.33Zm-3,0h2.27v.69H35.34Zm-3,0h2.26v.69H32.35Zm6-2.4h.5V8.24h-.5Zm.61,0h.5V8.24h-.5Zm-3.6,0h.49V8.24h-.49Zm.59,0h.49V8.24h-.49Zm.59,0H37V8.24h-.49Zm.6,0h.49V8.24h-.49Z"/></g></g></svg>