<svg xmlns="http://www.w3.org/2000/svg" viewBox="0 0 292.19 90.33"><defs><style>.cls-1{fill:#008fc0;fill-rule:evenodd;}</style></defs><g id="图层_2" data-name="图层 2"><g id="图层_1-2" data-name="图层 1"><path class="cls-1" d="M45.16,0A45.17,45.17,0,1,1,0,45.16,45.16,45.16,0,0,1,45.16,0Zm19.1,63.74h0a3.49,3.49,0,0,0,1-.14,1,1,0,0,0,0-.55c-.14-.35-.83-1.16-1.28-1.18l-.07.06a1.68,1.68,0,0,0,.44,1.31,2.35,2.35,0,0,0-.11.49ZM25.89,67l0-.13c.18-.44.49-.86.65-1.28a2.11,2.11,0,0,1,.15-.5c.24-.35.94-.42,1.08-.84a.6.6,0,0,0-.14-.62c-.09,0-.22,0-.27-.11s.15-.51.21-.62c.35-.69.07-2.09-.7-2.09a1,1,0,0,0-.52.54c0,.16,0,.33,0,.5-.17.53-.39,1.16-.59,1.68a4.6,4.6,0,0,1-.34.88,2.28,2.28,0,0,1-.69.62l-.18.08,0,.16a.67.67,0,0,0,.37.1c.13.22-.07.45-.14.65-.2.53-1,1.73-.29,2.22a.58.58,0,0,0,.52.07l.75-.29c.47-.14,1.28-.15,1.39-.63a.37.37,0,0,0-.08-.3c-.35-.54-.66,0-1.1-.09Zm5.93-.65a.34.34,0,0,0-.35-.19l-.17,0c-.25.13-.17.62-.42.75l-.23,0c-.19.09-.42.2-.63.32-.5.28-.95.66-1.44,1l-.5.27-.26.23c-.14.08-.33.08-.43.19a.82.82,0,0,0,1.15.88,5.06,5.06,0,0,0,.93-1.2c.12-.06.26,0,.44,0A2.89,2.89,0,0,1,31,68.51c.29,0,.7.15.81-.05.22-.38,0-.95,0-1.34,0-.23.15-.57.06-.75ZM30.25,68c-.16-.14.5-.55.62-.62.43,0-.33.74-.62.62Zm3.32-1.54c-.22-.3-.35-.68-.87-.68l-.09.07a1.67,1.67,0,0,0,0,.59c0,.19-.08.32,0,.46l.13.2a1.53,1.53,0,0,0,.6.78c.4,0,.88-.38.69-.85a2.4,2.4,0,0,0-.42-.57ZM22.71,59.73c-.42.23-.19.68-.1,1.07l-.05.69a13.76,13.76,0,0,0-.32,3.21c0,.34,0,.67,0,1a5.64,5.64,0,0,1,.08,1.47c-.09.3-.42.41-.58.63a5.24,5.24,0,0,1-1.28,1.25c-.48.34-1,.62-1.08,1.34.12.18.14.17.37.26s.2.17.41.13c.45-.1,1.2-1.17,1.44-1.56.1-.17.12-.42.23-.57s.32-.66.6-.59.3.55.62.37.26-.62.2-.9-.18-.71-.24-1.1c0-.23.06-.37,0-.6s0-.31-.05-.46A17.67,17.67,0,0,1,23.4,63c.19-.57.52-1.07.65-1.64.05-.21-.08-.33-.11-.46-.17-.57-.51-1.19-1.23-1.18Zm-2.18,7.2c.08.62-.58,1.14-.41,1.61l.23,0a2.66,2.66,0,0,0,.52-.59c.07-.1.08-.21.17-.29.37-.28.79-.46,1-.89,0-.54-.83-.94-1.39-.93l-.55.16c-.35.58.36.45.42.9Zm14-6.38c-.64-.27-1.05.37-1.38.23-.15-.09-.17-.3-.36-.36l-.73-.05a2.77,2.77,0,0,0-.63-.1.49.49,0,0,0-.23.22c.06.63.51.61.72,1,0,0,0,.06,0,.09a3.67,3.67,0,0,1-.56.38c-.23.15-.46.38-.71.53s-.6.22-.73.5v.12a.94.94,0,0,0,.36.18A6.09,6.09,0,0,0,31.52,63c.2-.09.34-.34.5-.48a4.64,4.64,0,0,1,1-.6c.32-.16.5-.47.91-.56l.39.07c.12-.12.54-.44.43-.71-.05-.12-.13-.13-.25-.18ZM33,63.94a2.14,2.14,0,0,1,.75-.92c.2-.32-.14-.69-.46-.69a5.26,5.26,0,0,0-.57.42l-1.33.76c-.16.09-.62.25-.7.39l0,.08c.51.32.82-.24,1.31-.21.11.15,0,.36-.13.46a4.62,4.62,0,0,0-1.13,1.12h0c-.08-.12-.16-.25-.25-.37s-.25-.2-.34-.39c-.29,0-.55,0-.65.18a5.93,5.93,0,0,0,.38,1c0,.12.05.25.08.37l.48.23c.32,0,.34-.21.47-.43s.3,0,.45-.09l.5-.35.59-.26a2.13,2.13,0,0,0,.6-.87c.06-.14,0-.23,0-.4Zm9.38.23-.23.17c-.2.13-.44.2-.63.31l-1.44.6,0,0c-.05-.11.24-.7.32-.86l.41-.83a4.89,4.89,0,0,0,.77-1.27c.14-.48-.69-.94-1.16-.93a3.79,3.79,0,0,1-1.53.18h-.62l-.39.2c-.21.37.8,1.43,1.34,1.33.31-.06.46-.39.7-.52H40c.09.22-.12.48-.19.64a7.72,7.72,0,0,0-.4,1.67c0,.21-.15.49,0,.65,0,.29-.82.46-1.08.59a20.09,20.09,0,0,1-2,.91c-.41.15-1.21.33-1.4.66a1,1,0,0,0,1.38.7c1-.58,2-1.13,2.91-1.74.25-.16.85-.67,1.17-.67h0v0a2.42,2.42,0,0,0-.32.32c0,.06,0,.06.09.09.44-.21.92-.46,1.38-.64l.43-.07a2.91,2.91,0,0,0,1.37-.76c.05-.32-.52-.85-.94-.75ZM60.91,67a4.24,4.24,0,0,0-1.08-.58c-.23-.09-.29-.25-.65-.24l-.27.07c-.26.41.17.66.34.91s.12.45.25.7.87.4,1.41.3c.2-.31.2-.34.11-.73a1.29,1.29,0,0,0-.11-.43Zm7.36,0c-.08,0-.16-.14-.3-.1-.36.1-.65.7-1.14.57-.15-.29.33-.46.23-.86s-.79-.46-1.26-.5l-.07,0c-.28.74.27.57.44.91,0,.15-.14.35-.17.51s0,.27,0,.36c-.28.18-.59.3-.88.48l-.16.14c-.26.12-.64.06-.83.25v0a1.54,1.54,0,0,0,1.31.31l.73-.36s0,0,.07.07,0,.27-.07.37c-.3,1-1.17.13-1.88.43l0,0c0,.48,1.36.88,1.93.66.38-.15,1.07-.63.94-1.25-.06-.26-.2-.56-.25-.77a.51.51,0,0,1,.25-.2h.07c0,.14-.09.17-.12.31.21,0,.31-.17.44-.26A2.48,2.48,0,0,1,68,67.8a4.56,4.56,0,0,0,.74-.29c.08-.36-.22-.48-.48-.59Zm.59-4.14c-.25.13-.22.49-.63.51h0c-.09-.39.33-.73.5-1l.18-.33.15-.13c0-.06,0-.12,0-.19a3.58,3.58,0,0,0,.56-.85c.08-.27,0-.45-.09-.66a1.49,1.49,0,0,0-1,0l-.16.39c.06.1.12.19.17.29s-.12.37-.17.49a8.77,8.77,0,0,1-.65,1.26l0,0a1.47,1.47,0,0,1,0-.66c-.08-.16-.41-.21-.43-.3l.06-.19a.46.46,0,0,0-.39-.64.24.24,0,0,1,0-.16c.38-.37.48-.8,0-1.17a.8.8,0,0,0-.61-.24c-.08,0-.16.06-.2.14-.09.24.18.33.13.55a5.36,5.36,0,0,1-.39.8c-.16.21-.65.15-.85.41v.07c.1.15.35.13.43.29v0c-.08.2-.29.33-.42.49v.14l0,0h.13l.44-.27.39-.12c.1-.07.08-.17.23-.2h0c.1.22-.18.67-.29.82a4.18,4.18,0,0,0-.65.07.82.82,0,0,0,0,.35c.12.06.27.09.33.21.1.33-.47.86-.52,1.17l.06,0c.28.11,1-.59,1.15-.75.45,0,.51,0,.78-.17h.07c.09.08.24.22.19.4s-.46.28-.69.39c-.42.19-1.64,1.06-2.15.93a3.4,3.4,0,0,1-.07-.49c-.15-.48-.58-1.27-1.17-1.28-.19.2.08.43.13.65.21.85-.06,1,.82,1.24,0,.06,0,.1,0,.17s-.23.09-.28.17l0,.09a1.87,1.87,0,0,0,1.2.1c.54-.39,1.06-.8,1.65-1.17l.39-.25.19,0c.18-.08.52-.41.74-.34l.06,0c-.09.67-1.51,1.4-2,1.87v.09a5.12,5.12,0,0,0,1.26-.52l.69-.15a3.84,3.84,0,0,0,1.58-1.46c.08-.11.23-.15.29-.28.17-.42-.7-1-1.17-.74ZM67,62.9l-.14-.08a.55.55,0,0,1,.2-.61h.07c.16.24.1.61-.13.69Zm-4.48,3.17-.26.17c0,.12,0,.24-.07.36-.12.27-.47.68-.36,1,.08.17.51.51.77.43.5-.22.8-2-.08-2Zm-9.2-4.7c-.18-.34-.55-.31-.9-.18a2.81,2.81,0,0,0-.55.38c-.38.25-.8.46-1.19.69-.15.08-.72.47-.81.31a.94.94,0,0,1,.15-.72l.44-.13a3.55,3.55,0,0,0,1.73-1.43,1.06,1.06,0,0,0-1-.59,2.17,2.17,0,0,0-.83.46c-.3,0,0-.77-.67-.78a1.13,1.13,0,0,0-.23,1l0,.24c0,.24-.37.49-.53.65h-.1c-.2-.46-.19-1.07-.85-.85-.09.17.06.31,0,.54s-.1.28-.16.42,0,.34,0,.45c-.25.37-1,.34-1.34.59-.1.38.55.8,1,.73.2,0,.26-.15.44-.19.17.12.33.4.66.33.15,0,.21-.11.38-.12h0s.06.07,0,.14a7,7,0,0,1-1.32.73c-.58.33-1.21.65-1.77,1-.35.22-.67.54-1,.76s-1.34.62-1.23,1.08l.08.12a1.35,1.35,0,0,0,.6,0l.79-.13c.55-.21.84-.71,1.28-1l.65-.43c.22-.15.41-.46.75-.47l0,0c-.11.37-.29.57,0,.93.47.1.53-.41.79-.62a3.09,3.09,0,0,1,.56-.34c.09,0,.15-.1.28-.07l.07,0c0,.12-.19.12-.29.16a.82.82,0,0,1-.52.75c-.15.07-.27.07-.34.21l0,.09c.25.26.34.08.59.23,0,0,0,0,.07.09s0,.08,0,.13-.36.1-.47.14c-.14.41.32.4.45.66,0,0,0,.07,0,.1s-.39.2-.44.3c-.11.28.55.51.23.85a7.17,7.17,0,0,1-1.36.49c-.14,0-.26-.07-.38,0-.57.36.39,1.08.74,1.11.23-.22.14-.59.41-.75a2.24,2.24,0,0,1,.91.42c.08.08.15.17.23.26.67.13.27-.5.43-.82a3.61,3.61,0,0,1,1.33-.66c.28-.48-.32-.94-.62-1.05-.35.17-.22.89-.59,1.07l-.1,0,0,0A3.25,3.25,0,0,1,50.07,67c.1-.24.39-.59.34-.92l-.09-.44c-.06-.08-.2-.06-.29-.12l-.24-.42v0c.08,0,.1,0,.18,0l.09-.08c0-.2-.09-.35,0-.51a.6.6,0,0,1,.22-.16c.32-.24.91-.58,1.09-.94a.64.64,0,0,0-.86-.44c-.11,0-.14.14-.3.2h0v-.07a4.34,4.34,0,0,1,1.09-.62l.3,0,.57-.26c.3-.09.44,0,.72-.14s.69-.37.48-.73Zm-2.64-1h0c.12.26-.43.64-.56.8H50.1c-.29-.47.38-.64.61-.8ZM49,69.21a.6.6,0,0,1-.49.12l-.1-.12c0-.25.23-.33.39-.45h.13a.81.81,0,0,1,.07.44Zm-.12-7.4c.07-.13.23-.18.35-.26h0c.11.19-.09.38-.21.46h-.15a.2.2,0,0,1,0-.2Zm.09.81s0,0,0,0,0,0,0,0a.78.78,0,0,0,0-.16l0-.06.09,0a.27.27,0,0,1,0,.2Zm-.23,2c-.06,0-.07,0-.1-.09-.12-.45.6-.9.91-1s.22.05.41-.07.11,0,.13.08-1.12,1-1.35,1.07ZM59.86,62.7a.54.54,0,0,0-.75-.16c-.38.25-.55.71-1,.94-.1.06-.21.26-.38.16s0-.41,0-.61a7.38,7.38,0,0,0,0-1.41c-.08-.4-1.18-1.09-1.6-1.16l-.11.06c-.44.74.09,1,.31,1.55a7.17,7.17,0,0,1,.19,2.52c-.11.23-.74.52-1,.67a11.2,11.2,0,0,1-1.78,1l-.79.32c-.2,0-.34,0-.48.07-.19.89.22,1.25,1.08,1a3.67,3.67,0,0,0,1.34-1,7,7,0,0,1,1.32-1h.1c.16.26,0,.67-.17.92a2.89,2.89,0,0,1-1.7,1.55c-.38.13-1,0-1.13.35a.42.42,0,0,0,0,.1,3.78,3.78,0,0,0,1.21,0l.3,0A2.78,2.78,0,0,0,57,67.25a2.62,2.62,0,0,0,.35-.61c.12-.51.17-1,.31-1.43,0-.16,0-.38.07-.49a2.19,2.19,0,0,1,.72-.51l.42-.34c.21-.15.43-.26.62-.4s.55-.4.42-.77ZM36.15,39.43h9.68l0-1.52H36.17Zm0,8.8h9.68l0-1.52H36.17ZM28,30.62l29.11-.05A6,6,0,0,1,60,41.82a6,6,0,0,1,4.31,4.74,5.94,5.94,0,0,1-5.52,6.95H27.87l.06-3.18,22.56,0c4.57-.44,3.73-5.73,0-5.85L28,44.56l0-3,22.29.08a4.36,4.36,0,0,0,3.39-5.71H36.11V34.74l16.77,0A5.35,5.35,0,0,0,49,33.42h-21ZM45.16,2.9A42.25,42.25,0,1,1,15.28,15.28,42.14,42.14,0,0,1,45.16,2.9ZM73.85,16.48A40.55,40.55,0,1,0,85.74,45.16,40.41,40.41,0,0,0,73.85,16.48Zm-33.92,60h-.41V72.85h-.69v-.34h1.1Zm3.16-1.72a.9.9,0,0,0,.68-.28.94.94,0,0,0,.28-.69,1,1,0,0,0-.28-.7.9.9,0,0,0-.68-.29.83.83,0,0,0-.65.28,1,1,0,0,0-.26.7,1,1,0,0,0,.26.71.86.86,0,0,0,.65.27ZM43,76.46h-.48L43.44,75l-.24,0-.19,0a1.18,1.18,0,0,1-.89-.38,1.33,1.33,0,0,1-.35-.94,1.3,1.3,0,0,1,1.35-1.34,1.26,1.26,0,0,1,1,.38,1.19,1.19,0,0,1,.38.92A2.42,2.42,0,0,1,44,75a.72.72,0,0,1-.07.11Zm3.58-2.24a.91.91,0,0,0-.68.29.93.93,0,0,0-.27.69,1,1,0,0,0,.28.71.91.91,0,0,0,.68.28.85.85,0,0,0,.65-.28,1.09,1.09,0,0,0,0-1.41.87.87,0,0,0-.66-.28Zm.1-1.71h.48l-.92,1.43.23,0h.19a1.16,1.16,0,0,1,.89.37,1.43,1.43,0,0,1,0,1.91,1.33,1.33,0,0,1-1,.38,1.3,1.3,0,0,1-.95-.38,1.26,1.26,0,0,1-.38-.92A2.51,2.51,0,0,1,45.71,74a.9.9,0,0,0,.07-.11Zm2.38,2.65a1.07,1.07,0,0,0,.25.76,1,1,0,0,0,1.4,0,1,1,0,0,0,.25-.75V73.81a1.07,1.07,0,0,0-.25-.76,1,1,0,0,0-1.4,0,1.1,1.1,0,0,0-.25.77Zm-.38-.09V73.9a2.58,2.58,0,0,1,0-.57,1.41,1.41,0,0,1,.18-.37,1.29,1.29,0,0,1,.48-.39,1.44,1.44,0,0,1,.62-.14,1.29,1.29,0,0,1,1,.38,1.52,1.52,0,0,1,.36,1.07v1.21a2.58,2.58,0,0,1-.05.53,1.14,1.14,0,0,1-.17.37,1.18,1.18,0,0,1-.48.4,1.37,1.37,0,0,1-.64.15,1.44,1.44,0,0,1-.62-.14,1.23,1.23,0,0,1-.48-.4,1,1,0,0,1-.18-.37,2.75,2.75,0,0,1,0-.56Zm-35-14.29c.11-.05.17-.09.19-.13a.3.3,0,0,0-.05-.19l0-.1a1.85,1.85,0,0,0-.6-.84.91.91,0,0,0-1.24.51,1.55,1.55,0,0,0,.17.9c.1.21.17.33.23.36s.15,0,.29,0Zm1.89-.85a.27.27,0,0,0,.19-.17.83.83,0,0,0-.11-.42l-.06-.12a1.4,1.4,0,0,0-.58-.7.87.87,0,0,0-.77,0,.83.83,0,0,0-.52.59,1.57,1.57,0,0,0,.18,1l.1.23c0,.11.09.17.13.19a.33.33,0,0,0,.19,0Zm1.05,1-.12,0c-.11-.23-.21-.37-.32-.41a.57.57,0,0,0-.46.06L13,61.81q-.31.13-.36.3a.83.83,0,0,0,.08.52l-.11.06-.85-1.91a2.08,2.08,0,0,1-.23-1.2.87.87,0,0,1,.54-.7.94.94,0,0,1,.64,0,1.38,1.38,0,0,1,.6.43,1.48,1.48,0,0,1,0-.87,1,1,0,0,1,.52-.53,1.05,1.05,0,0,1,1.05.05,2.58,2.58,0,0,1,.87,1.2Zm-1.9-4.2-.13,0a.82.82,0,0,0-.25-.45.64.64,0,0,0-.48,0l-2.8.8a.64.64,0,0,0-.4.25.86.86,0,0,0,0,.53l-.12,0-1-3.57L10.4,54l0,.12a.84.84,0,0,0-.47.4,1.08,1.08,0,0,0,0,.66l.31,1.06a.44.44,0,0,0,.11.23c.05,0,.13,0,.27,0l1.12-.33a.26.26,0,0,0,.16-.08.28.28,0,0,0,0-.17l-.24-.84a1.16,1.16,0,0,0-.3-.6.65.65,0,0,0-.51,0l0-.13,1.43-.41,0,.13a.65.65,0,0,0-.43.31A1.08,1.08,0,0,0,12,55l.24.83c0,.08.05.13.08.15a.23.23,0,0,0,.18,0l1.25-.36a.55.55,0,0,0,.28-.14.38.38,0,0,0,0-.26l-.28-1a1.68,1.68,0,0,0-.41-.8,1.41,1.41,0,0,0-.79-.28l0-.13,1.12,0Zm-1.33-4.59-.13,0a.83.83,0,0,0-.2-.48.62.62,0,0,0-.48-.06l-2.87.46a.58.58,0,0,0-.43.2.79.79,0,0,0-.05.52l-.13,0-.31-2,.13,0a.83.83,0,0,0,.21.48.65.65,0,0,0,.47.06l2.87-.46a.56.56,0,0,0,.43-.2.79.79,0,0,0,.05-.52l.13,0Zm-5-4.73h.13a.75.75,0,0,0,.17.49.7.7,0,0,0,.51.09l2.32-.16a1.5,1.5,0,0,1,1,.22,1,1,0,0,1,.41.82.93.93,0,0,1-.13.57.48.48,0,0,1-.4.25.24.24,0,0,1-.2-.07.31.31,0,0,1-.09-.2.43.43,0,0,1,.06-.22.47.47,0,0,1,.2-.16.05.05,0,0,1,0,0c.18-.09.26-.19.26-.29a.27.27,0,0,0-.11-.21.44.44,0,0,0-.29,0l-3,.21c-.26,0-.43.07-.5.17a.73.73,0,0,0-.09.52H8.52Zm4.26-1h-.13a.79.79,0,0,0-.13-.5.6.6,0,0,0-.46-.13H9a.59.59,0,0,0-.45.13.77.77,0,0,0-.13.5H8.29v-2h.14a.8.8,0,0,0,.13.51.59.59,0,0,0,.45.13h2.91a.6.6,0,0,0,.46-.13.85.85,0,0,0,.13-.51h.13Zm-.7-3.64a.61.61,0,0,0,.48-.05.91.91,0,0,0,.2-.49l.13,0-.22,1.55-.13,0a.9.9,0,0,0-.06-.52c-.05-.09-.2-.15-.44-.18l-3-.43a1.06,1.06,0,0,0-.35.23.65.65,0,0,0-.17.34l-.13,0,.15-1.11L11.8,40l-2.33-.33A.65.65,0,0,0,9,39.7a1,1,0,0,0-.2.48l-.13,0,.22-1.54.13,0a.86.86,0,0,0,.06.51c0,.09.2.15.44.19l3.58.5,0,.13L9.2,42.39ZM14,34.39a3.38,3.38,0,0,1,.13.94,3.26,3.26,0,0,1-.14.92,2.43,2.43,0,0,1-1.09,1.47,2.11,2.11,0,0,1-1.73.16,2.26,2.26,0,0,1-1.4-1.13,2.42,2.42,0,0,1-.12-1.84,2.62,2.62,0,0,1,.37-.75,3,3,0,0,0,.26-.39.14.14,0,0,0,0-.14.36.36,0,0,0-.14-.13l0-.11,1.3.33,0,.13a2,2,0,0,0-1,.29,1.49,1.49,0,0,0-.51.78,1.56,1.56,0,0,0,.17,1.35,2.17,2.17,0,0,0,1.26.87,2.16,2.16,0,0,0,1.55,0,1.54,1.54,0,0,0,.9-1,1.7,1.7,0,0,0,.08-.55,1.41,1.41,0,0,0-.11-.49l-1.13-.35c-.24-.07-.39-.08-.47,0a1.25,1.25,0,0,0-.26.49l-.13,0,.54-1.77.14,0a.66.66,0,0,0,0,.43c0,.08.16.15.37.22Zm-2.54-4.05-.11-.06.91-1.7.11.06a.73.73,0,0,0-.11.49.81.81,0,0,0,.42.35l1.65.88a1.7,1.7,0,0,0,1.14.26,1.18,1.18,0,0,0,.77-.67,1.26,1.26,0,0,0,.13-1.07,1.54,1.54,0,0,0-.8-.84L14,27.17a.82.82,0,0,0-.54-.14.75.75,0,0,0-.37.38l-.11-.06L13.66,26l.11.06a.56.56,0,0,0-.07.47.83.83,0,0,0,.41.36l1.57.84a1.88,1.88,0,0,1,1,1.06,1.83,1.83,0,0,1-.22,1.42,2.7,2.7,0,0,1-.49.67,1.43,1.43,0,0,1-.59.36,1.21,1.21,0,0,1-.6,0A3.18,3.18,0,0,1,14,31l-1.44-.77a1.31,1.31,0,0,0-.71-.23c-.14,0-.27.15-.39.37Zm6.2-4.08c.19.16.34.22.44.2a.85.85,0,0,0,.42-.31l.11.08-1,1.22-.1-.08a1,1,0,0,0,.22-.48.65.65,0,0,0-.29-.39l-2.36-1.91a1,1,0,0,0-.42,0,.78.78,0,0,0-.32.2l-.1-.08.7-.87,4-.06-1.84-1.48c-.18-.15-.33-.22-.43-.2s-.24.12-.42.31l-.1-.09,1-1.21.1.09a.93.93,0,0,0-.22.47c0,.11.1.23.29.39l2.81,2.27-.08.1-4.57.08ZM21,23.44l-.1-.09a.79.79,0,0,0,.26-.45c0-.12-.07-.25-.24-.41l-2.09-2a.64.64,0,0,0-.42-.23.77.77,0,0,0-.44.28l-.1-.09L19.24,19l.1.09a.84.84,0,0,0-.26.46.56.56,0,0,0,.23.4l2.1,2a.61.61,0,0,0,.42.22.84.84,0,0,0,.44-.28l.1.09Zm3.59-3.34-3.37-1.89a2.56,2.56,0,0,0-.66-.28.57.57,0,0,0-.41.11l-.07-.1,1.46-1.11.08.11a1.21,1.21,0,0,0-.29.31.19.19,0,0,0,0,.2,3.45,3.45,0,0,0,.69.46l2.1,1.15-.61-2.72c0-.1-.05-.18-.07-.25l-.07-.15a.23.23,0,0,0-.21-.09.88.88,0,0,0-.35.17l-.09-.1,1.05-.79.08.1a.43.43,0,0,0-.15.29,1.59,1.59,0,0,0,.07.59L24.7,20Zm2.2-1.91-.06-.11c.22-.13.35-.25.38-.36a.56.56,0,0,0-.11-.46l-1.41-2.55c-.11-.2-.22-.31-.33-.34a.88.88,0,0,0-.51.14l-.07-.11,3.25-1.8.52.81-.12.06a.87.87,0,0,0-.49-.37,1,1,0,0,0-.64.19l-1,.53A.44.44,0,0,0,26,14s0,.13.08.25l.56,1c.05.08.08.12.11.13a.25.25,0,0,0,.18-.05l.75-.42a1.14,1.14,0,0,0,.52-.43.67.67,0,0,0-.08-.51l.11-.06.73,1.3-.12.07a.73.73,0,0,0-.4-.36,1.06,1.06,0,0,0-.64.21l-.76.42a.38.38,0,0,0-.13.11.3.3,0,0,0,.05.17L27.63,17q.12.21.21.24a.33.33,0,0,0,.25-.06l.89-.49a1.62,1.62,0,0,0,.69-.59,1.44,1.44,0,0,0,.09-.82h.13l.22,1.1Zm4.49-5c0,.06,0,.09.09.1a.15.15,0,0,0,.13,0,2.08,2.08,0,0,0,1-.65.83.83,0,0,0,0-.83.8.8,0,0,0-.53-.53,1.58,1.58,0,0,0-.95.14c-.18.08-.28.14-.31.2s0,.15,0,.28Zm-.34,2.69-.05-.12.07,0a.61.61,0,0,0,.37-.29.67.67,0,0,0-.06-.5l-1.09-2.7a.56.56,0,0,0-.29-.35,1,1,0,0,0-.53.09l-.05-.12,2-.83a1.9,1.9,0,0,1,1.15-.15,1,1,0,0,1,.67.63,1,1,0,0,1,0,.76,1.58,1.58,0,0,1-.59.67c.8.46,1.38.78,1.74.94a1.27,1.27,0,0,0,.73.19l0,.13-.91.36c-.36-.16-.72-.35-1.1-.55L32,13.31l-.36.15a.17.17,0,0,0-.11.08s0,.07,0,.13l.4,1a.71.71,0,0,0,.3.4A.7.7,0,0,0,32.7,15l0,0,0,.12ZM36,14l-.55-1.31.13,0a2.24,2.24,0,0,0,.76.72,1,1,0,0,0,.79.14.8.8,0,0,0,.51-.34.73.73,0,0,0,.11-.59.78.78,0,0,0-.26-.41,1.72,1.72,0,0,0-.56-.28l-.75-.25a2,2,0,0,1-.74-.37,1.09,1.09,0,0,1-.32-.56,1,1,0,0,1,.16-.87,1.35,1.35,0,0,1,.82-.52,1.78,1.78,0,0,1,.57,0,1.87,1.87,0,0,0,.36,0,.13.13,0,0,0,.1-.07.26.26,0,0,0,0-.16l.11,0,.44,1.24-.13,0a2,2,0,0,0-.66-.68.92.92,0,0,0-.72-.12.78.78,0,0,0-.47.3.62.62,0,0,0-.09.5.63.63,0,0,0,.23.37,2.15,2.15,0,0,0,.55.27l.84.26a2,2,0,0,1,.75.39,1.15,1.15,0,0,1,.33.58,1.13,1.13,0,0,1-.17,1,1.46,1.46,0,0,1-.91.56,2.52,2.52,0,0,1-.62.05h-.36a.16.16,0,0,0-.12.07.17.17,0,0,0,0,.13Zm3.35-.82,0-.13a.84.84,0,0,0,.49-.19.58.58,0,0,0,.07-.47l-.35-2.89A.6.6,0,0,0,39.32,9,.83.83,0,0,0,38.8,9V8.84l2-.24v.13a.8.8,0,0,0-.49.2.6.6,0,0,0-.07.46l.36,2.89a.54.54,0,0,0,.18.43.83.83,0,0,0,.52.07l0,.13Zm3.57-.48v-.13a.82.82,0,0,0,.54-.12.82.82,0,0,0,.12-.54V8.78c0-.09,0-.15,0-.17a.47.47,0,0,0-.23,0h-.1a1.46,1.46,0,0,0-.86.18,1,1,0,0,0-.27.69h-.14l0-1.12h3.93V9.45h-.13a1.06,1.06,0,0,0-.26-.69,1.64,1.64,0,0,0-1-.18c-.15,0-.23,0-.26,0s0,.07,0,.16v3.07c0,.31,0,.5.13.58a.88.88,0,0,0,.53.11v.13Zm4.91.07v-.13h0a.69.69,0,0,0,.48-.06.59.59,0,0,0,.19-.41L48.65,11,47.48,8.81a.8.8,0,0,0-.25-.29,1,1,0,0,0-.37-.14V8.25l2,.25,0,.12a2,2,0,0,0-.4,0c-.08,0-.12.06-.13.12A.52.52,0,0,0,48.4,9h0l.85,1.6,1-1.23a3,3,0,0,0,.2-.25.28.28,0,0,0,0-.12.13.13,0,0,0-.08-.14,1.21,1.21,0,0,0-.36-.12l0-.13,1.35.17,0,.13a.58.58,0,0,0-.35.07,1.49,1.49,0,0,0-.4.36L49.35,11l-.16,1.31a.46.46,0,0,0,.09.39,1,1,0,0,0,.49.18V13Zm6.53-1.09a2.39,2.39,0,0,0-.1,1.54,1.36,1.36,0,0,0,2.06.71,2.41,2.41,0,0,0,.87-1.27,2.5,2.5,0,0,0,.1-1.53,1.37,1.37,0,0,0-2.07-.72,2.45,2.45,0,0,0-.86,1.27Zm-.71-.24a2.21,2.21,0,0,1,1.12-1.36,2.47,2.47,0,0,1,3.08,1.06,2.27,2.27,0,0,1,0,1.76,2.28,2.28,0,0,1-1.12,1.36,2.2,2.2,0,0,1-1.75.06,2.23,2.23,0,0,1-1.34-1.12,2.27,2.27,0,0,1,0-1.76Zm4.23,3.78.06-.12a.84.84,0,0,0,.52.13c.1,0,.21-.15.32-.35l1.32-2.6a.63.63,0,0,0,.09-.47c0-.11-.18-.22-.4-.34l.06-.12L63,13l-.4.94-.12-.06a1,1,0,0,0,0-.66,1,1,0,0,0-.53-.45l-.82-.42a.37.37,0,0,0-.27-.06.33.33,0,0,0-.17.18l-.53,1.05q-.07.13-.06.18a.35.35,0,0,0,.14.11l.51.26a1.1,1.1,0,0,0,.64.18c.14,0,.26-.15.37-.36l.11.06-.69,1.37-.12-.06a.75.75,0,0,0,.09-.55c0-.12-.21-.26-.52-.41L60.17,14A.23.23,0,0,0,60,14s-.07,0-.11.11l-.54,1.07a.58.58,0,0,0-.09.48.91.91,0,0,0,.43.37l-.06.12Zm5.59,3.13.07-.11a.85.85,0,0,0,.51.2c.11,0,.25-.14.41-.37l1.78-2.54a.22.22,0,0,0,.06-.16s-.07-.08-.17-.15L66,15.13a1.48,1.48,0,0,0-.8-.35,1,1,0,0,0-.62.41l-.11-.08.67-.89,3.23,2.25-.64.92-.12-.08a1.06,1.06,0,0,0,.19-.71c0-.18-.27-.41-.68-.69-.12-.09-.19-.13-.23-.12s-.07,0-.12.11L65,18.42c-.17.25-.25.43-.22.54a1,1,0,0,0,.37.4l-.07.11Zm2.78,2.1.09-.09a.82.82,0,0,0,.45.26.62.62,0,0,0,.41-.25l2-2.13a.68.68,0,0,0,.22-.42.93.93,0,0,0-.29-.45l.09-.09,2.71,2.53-.61.74-.09-.09a.92.92,0,0,0,.2-.58A1.13,1.13,0,0,0,71,19.3l-.8-.75c-.1-.09-.17-.13-.22-.13s-.13,0-.22.14l-.8.86a.25.25,0,0,0-.09.15s0,.08.1.14l.64.59a1.11,1.11,0,0,0,.57.36.65.65,0,0,0,.45-.23l.1.09-1,1.09-.09-.09a.74.74,0,0,0,.21-.49,1.13,1.13,0,0,0-.39-.55l-.64-.59a.26.26,0,0,0-.14-.09s-.09,0-.15.1l-.89,1a.57.57,0,0,0-.16.27.31.31,0,0,0,.13.22l.74.7a1.74,1.74,0,0,0,.77.48,1.52,1.52,0,0,0,.82-.17l0,.12L69,23ZM73,26.3l0,.15a2.41,2.41,0,0,1-1.1-.16,2.08,2.08,0,0,1-.84-.65A2.26,2.26,0,0,1,70.45,24a2.2,2.2,0,0,1,.88-1.51,2.19,2.19,0,0,1,3.23.35,2.63,2.63,0,0,1,.41.69,3.85,3.85,0,0,0,.19.44.19.19,0,0,0,.14.08.19.19,0,0,0,.16-.05l.08.09-1,1-.09-.1a1.81,1.81,0,0,0,.35-1,1.39,1.39,0,0,0-.34-.9,1.46,1.46,0,0,0-1.19-.59,2.32,2.32,0,0,0-1.44.57A2.24,2.24,0,0,0,71,24.29a1.45,1.45,0,0,0,.3,1.27,2.07,2.07,0,0,0,.71.56,2.71,2.71,0,0,0,1,.18Zm-.54,1.19.12-.06a.88.88,0,0,0,.36.38.67.67,0,0,0,.46-.12l2.53-1.46c.19-.11.3-.23.32-.34a.78.78,0,0,0-.14-.51l.11-.06,1,1.7-.12.06c-.14-.21-.26-.34-.37-.37a.63.63,0,0,0-.45.12l-.94.54a.33.33,0,0,0-.12.11.32.32,0,0,0,0,.16l.92,1.6c0,.05.07.09.1.09a.23.23,0,0,0,.17-.06l.92-.53c.2-.11.3-.22.33-.33a.78.78,0,0,0-.14-.51l.11-.07,1,1.7-.12.07a.82.82,0,0,0-.36-.38.67.67,0,0,0-.46.12L75.17,30.8c-.19.11-.3.22-.33.34a.77.77,0,0,0,.14.5l-.11.07-1-1.71.12-.06c.13.21.25.34.36.37a.59.59,0,0,0,.46-.11l1-.6c.07,0,.11-.07.12-.11a.18.18,0,0,0,0-.13L75,27.75a.17.17,0,0,0-.11-.1.19.19,0,0,0-.15,0l-1,.59c-.2.12-.31.23-.33.34a.77.77,0,0,0,.14.5l-.11.07Zm3.7,5.42c-.23.08-.36.16-.4.26a1,1,0,0,0,0,.52l-.13,0-.48-1.48.13,0a.86.86,0,0,0,.28.44.68.68,0,0,0,.48,0l2.89-.94a1,1,0,0,0,.22-.36.76.76,0,0,0,0-.37l.12,0L79.63,32l-2.14,3.4,2.24-.73c.23-.07.37-.16.41-.26a.9.9,0,0,0,0-.52l.13,0,.48,1.48-.13.05a1,1,0,0,0-.27-.45.68.68,0,0,0-.48,0l-3.44,1.12,0-.12,2.42-3.88Zm2.93,4.76a2.42,2.42,0,0,0-1.39.66A1.37,1.37,0,0,0,78,40.48a2.48,2.48,0,0,0,1.54.14A2.42,2.42,0,0,0,81,40a1.28,1.28,0,0,0,.35-1.18,1.3,1.3,0,0,0-.73-1,2.41,2.41,0,0,0-1.52-.14Zm-.13-.73a2.1,2.1,0,0,1,2.62,1.81,2.18,2.18,0,0,1-.33,1.72A2.51,2.51,0,0,1,78,41a2.2,2.2,0,0,1-.9-1.5,2.15,2.15,0,0,1,.33-1.71,2.19,2.19,0,0,1,1.52-.89Zm-1.31,5.57h.13v0a.67.67,0,0,0,.14.47.86.86,0,0,0,.53.12l2.83-.05a.7.7,0,0,0,.48-.13.89.89,0,0,0,.1-.51H82l0,2h-.13v0a.64.64,0,0,0-.14-.48.62.62,0,0,0-.46-.13l-2.92,0c-.2,0-.32,0-.37.09a.59.59,0,0,0-.06.35V45a1.4,1.4,0,0,0,.23.8,1.45,1.45,0,0,0,.68.49v.13l-1.15-.34ZM79.72,48a2.36,2.36,0,0,0-1.52.22,1.28,1.28,0,0,0-.68,1,1.3,1.3,0,0,0,.41,1.16,2.51,2.51,0,0,0,1.43.58,2.41,2.41,0,0,0,1.51-.22,1.31,1.31,0,0,0,.68-1,1.27,1.27,0,0,0-.41-1.15A2.41,2.41,0,0,0,79.72,48Zm.09-.75a2.29,2.29,0,0,1,1.56.81,2.44,2.44,0,0,1-.4,3.24,2.17,2.17,0,0,1-1.7.41,2.3,2.3,0,0,1-1.17-4.05,2.28,2.28,0,0,1,1.71-.41Zm-3.62,9.19a3.84,3.84,0,0,1-.15-.94,3.2,3.2,0,0,1,.13-.92,2.4,2.4,0,0,1,1.06-1.49A2.09,2.09,0,0,1,79,52.89,2.25,2.25,0,0,1,80.38,54a2.41,2.41,0,0,1,.15,1.84,2.78,2.78,0,0,1-.36.76,3.62,3.62,0,0,0-.25.39.14.14,0,0,0,0,.14.44.44,0,0,0,.14.13l0,.11-1.31-.31,0-.12a1.92,1.92,0,0,0,1-.32,1.41,1.41,0,0,0,.5-.79,1.54,1.54,0,0,0-.19-1.34,2.56,2.56,0,0,0-2.83-.81,1.59,1.59,0,0,0-.88,1.07,1.49,1.49,0,0,0-.07.55,1.31,1.31,0,0,0,.12.5l1.13.32c.24.07.4.08.47,0a1,1,0,0,0,.25-.49l.13,0-.51,1.79-.13,0a.72.72,0,0,0,0-.43c0-.08-.17-.15-.38-.21ZM75,58.08l.12.06v0a.7.7,0,0,0-.08.48.58.58,0,0,0,.33.3l1.1.48,2.39-.49a.76.76,0,0,0,.35-.16,1,1,0,0,0,.24-.31l.12,0-.82,1.84-.11-.06a2.2,2.2,0,0,0,.1-.39.14.14,0,0,0-.08-.15.43.43,0,0,0-.28,0h0l-1.77.34.87,1.36.18.26.1.09a.15.15,0,0,0,.16,0,1.18,1.18,0,0,0,.22-.31l.12,0-.55,1.25-.13-.06a.64.64,0,0,0,0-.36,1.63,1.63,0,0,0-.23-.48l-1.12-1.76L75,59.55a.48.48,0,0,0-.4,0,.83.83,0,0,0-.31.42l-.12,0Z"/><path class="cls-1" d="M110.52,68.76a1,1,0,0,0,0,.19.15.15,0,0,0,0,.06h0l0,0h.3a3.78,3.78,0,0,0,.8-.07,1.33,1.33,0,0,0,.51-.2.78.78,0,0,0,.29-.33,1.29,1.29,0,0,0,.09-.51,1.44,1.44,0,0,0-.08-.49.83.83,0,0,0-.26-.33,1.17,1.17,0,0,0-.45-.19,3.34,3.34,0,0,0-.69-.07l-.36,0a.28.28,0,0,0-.15,0,.13.13,0,0,0,0,.09,1.18,1.18,0,0,0,0,.22Zm0,2.76a.92.92,0,0,0,0,.19h0a.2.2,0,0,0,.06.09h0a.4.4,0,0,0,.16,0,1.73,1.73,0,0,0,.36,0h.18a2.46,2.46,0,0,0,.65-.08,1.18,1.18,0,0,0,.46-.24h0a.85.85,0,0,0,.28-.37,1.38,1.38,0,0,0,.09-.52,1.21,1.21,0,0,0-.1-.52h0a.75.75,0,0,0-.3-.36h0a1.41,1.41,0,0,0-.51-.23,3.22,3.22,0,0,0-.74-.08h-.33l-.18,0a.1.1,0,0,0-.07,0h0s0,0,0,0a.53.53,0,0,0,0,.14Zm-1.93.75V72h.07a1.58,1.58,0,0,0,.41,0,.5.5,0,0,0,.22-.1.38.38,0,0,0,.11-.19,1.63,1.63,0,0,0,0-.36V67.44a1.79,1.79,0,0,0,0-.36h0a.43.43,0,0,0-.11-.19h0a.65.65,0,0,0-.22-.1,2.11,2.11,0,0,0-.41-.06h-.08v-.32h2.86a3.71,3.71,0,0,1,.92.1,2,2,0,0,1,.7.28,1.24,1.24,0,0,1,.6,1.1,1.17,1.17,0,0,1-.08.46,1.15,1.15,0,0,1-.24.39,1.29,1.29,0,0,1-.38.31,1.58,1.58,0,0,1-.26.13,2.77,2.77,0,0,1,.38.14,1.79,1.79,0,0,1,.46.32,1.17,1.17,0,0,1,.29.44,1.53,1.53,0,0,1,.09.54,1.71,1.71,0,0,1-.16.77,1.46,1.46,0,0,1-.5.55,2.38,2.38,0,0,1-.82.31,5.59,5.59,0,0,1-1.15.1h-2.71Zm6.12,0V72h.07a1.62,1.62,0,0,0,.41,0,.5.5,0,0,0,.22-.1h0a.31.31,0,0,0,.1-.19h0a1.73,1.73,0,0,0,0-.36V67.44a1.86,1.86,0,0,0,0-.36.43.43,0,0,0-.11-.19h0a.57.57,0,0,0-.22-.1,2.11,2.11,0,0,0-.42-.06h-.07v-.32h5.1v.07l.08,1.28v.08h-.32v-.06a1.61,1.61,0,0,0-.13-.45.7.7,0,0,0-.18-.25h0A.69.69,0,0,0,119,67h0a1.82,1.82,0,0,0-.51,0h-1.66s-.08,0-.09,0h0s0,0,0,.07a1.22,1.22,0,0,0,0,.21v1.56a.49.49,0,0,0,0,.13.43.43,0,0,0,0,0H118a2.88,2.88,0,0,0,.55,0,.73.73,0,0,0,.29-.11h0a.55.55,0,0,0,.14-.21,1.78,1.78,0,0,0,.06-.38v-.07h.33v2.14H119v-.07a1.44,1.44,0,0,0-.07-.4.44.44,0,0,0-.14-.22h0a.61.61,0,0,0-.28-.12,4,4,0,0,0-.55,0h-1.28s0,0,0,0h0s0,0,0,0h0a.49.49,0,0,0,0,.13v1.74a.82.82,0,0,0,0,.24h0a.24.24,0,0,0,0,.12h0a.19.19,0,0,0,.09,0l.18,0h1.36a3.4,3.4,0,0,0,.69-.06,1.18,1.18,0,0,0,.45-.16h0a1,1,0,0,0,.32-.33,2.26,2.26,0,0,0,.29-.54l0-.08.08,0,.16.08.06,0,0,.06-.46,1.42,0,0h-5.2Zm6.35,0V72h.07a1.62,1.62,0,0,0,.41,0,.5.5,0,0,0,.22-.1h0a.56.56,0,0,0,.11-.19h0a1.9,1.9,0,0,0,0-.37V67.44a1.16,1.16,0,0,0,0-.35.35.35,0,0,0-.11-.2.45.45,0,0,0-.22-.1,1.5,1.5,0,0,0-.4-.05h-.07v-.33h2.78v.33h-.07a2.19,2.19,0,0,0-.42.05h0a.5.5,0,0,0-.22.11.38.38,0,0,0-.1.19,1.16,1.16,0,0,0,0,.35v3.88a1.19,1.19,0,0,0,0,.36.32.32,0,0,0,.11.19h0a.65.65,0,0,0,.22.1,1.54,1.54,0,0,0,.4,0h.08v.32h-2.78Zm7-5.79v.24h-.08a2.9,2.9,0,0,0-.39,0,.56.56,0,0,0-.22.11.42.42,0,0,0-.11.22,1.49,1.49,0,0,0,0,.4v3.1a2.78,2.78,0,0,1-.1.8,1.58,1.58,0,0,1-.31.59h0a1.24,1.24,0,0,1-.5.37,1.83,1.83,0,0,1-.68.12,1.51,1.51,0,0,1-.44-.06,1,1,0,0,1-.36-.18h0a.76.76,0,0,1-.24-.27.7.7,0,0,1-.09-.35.47.47,0,0,1,0-.17h0a.33.33,0,0,1,.1-.14.38.38,0,0,1,.15-.09.48.48,0,0,1,.18,0,.47.47,0,0,1,.17,0h0a.55.55,0,0,1,.15.08h0a.8.8,0,0,1,.13.13,1.45,1.45,0,0,1,.1.18h0l0,.05h0a.72.72,0,0,0,.15.25h0a.17.17,0,0,0,.14.07l.14,0h0l.09-.07.06-.13h0a1.25,1.25,0,0,0,0-.21V67.51a2.18,2.18,0,0,0,0-.41.51.51,0,0,0-.12-.22.45.45,0,0,0-.22-.1,1.66,1.66,0,0,0-.42,0h-.07v-.33H128Zm.73,5.79V72h.08a1.49,1.49,0,0,0,.4,0,.55.55,0,0,0,.23-.1h0a.43.43,0,0,0,.1-.19h0a1.31,1.31,0,0,0,0-.37V67.44a1.16,1.16,0,0,0,0-.35.35.35,0,0,0-.11-.2.5.5,0,0,0-.22-.1,1.5,1.5,0,0,0-.4-.05h-.08v-.33h2.79v.33h-.07a2.18,2.18,0,0,0-.41.05h0a.45.45,0,0,0-.22.11.31.31,0,0,0-.1.19,1.16,1.16,0,0,0,0,.35v3.88a1.19,1.19,0,0,0,0,.36.38.38,0,0,0,.1.19h0a.71.71,0,0,0,.23.1,1.49,1.49,0,0,0,.4,0h.07v.32h-2.79Zm4.9-1a1.87,1.87,0,0,0,0,.38h0a.48.48,0,0,0,.1.19A.45.45,0,0,0,134,72a2,2,0,0,0,.41.06h.07v.32h-2.23V72h.07a2,2,0,0,0,.41-.06.45.45,0,0,0,.22-.09.48.48,0,0,0,.1-.19,1.87,1.87,0,0,0,0-.38v-4a2.3,2.3,0,0,0-.15-.23,1.29,1.29,0,0,0-.18-.16.75.75,0,0,0-.2-.1h0a.86.86,0,0,0-.23-.05h-.07v-.32h1.6l0,0,3.3,4V67.46a1.76,1.76,0,0,0,0-.38.31.31,0,0,0-.1-.19.41.41,0,0,0-.21-.09,2.11,2.11,0,0,0-.41-.06h-.07v-.32h2.23v.32h-.08a2.11,2.11,0,0,0-.41.06.5.5,0,0,0-.22.09.37.37,0,0,0-.09.19h0a1.29,1.29,0,0,0,0,.38v4.89h-.29l0,0-3.77-4.51Zm11.35.47c-.19.11-.38.22-.57.31a6.19,6.19,0,0,1-.6.23h0a4.13,4.13,0,0,1-.61.13,4.48,4.48,0,0,1-.64,0,3.87,3.87,0,0,1-1.31-.21,3,3,0,0,1-1-.63,2.69,2.69,0,0,1-.67-1h0a3.16,3.16,0,0,1-.23-1.22,3.42,3.42,0,0,1,.23-1.27,3,3,0,0,1,.68-1,3.06,3.06,0,0,1,1-.66,3.64,3.64,0,0,1,1.31-.23,3.43,3.43,0,0,1,.56,0,3.53,3.53,0,0,1,.56.14h0l.42.13h0l.16,0h.06a.1.1,0,0,0,0,0h0l.05-.08s0-.08,0-.12v-.06h.28v.08l.09,1.78v.08h-.31l0-.05a3.8,3.8,0,0,0-.34-.67h0a1.91,1.91,0,0,0-.4-.44h0a1.67,1.67,0,0,0-.5-.25,2.57,2.57,0,0,0-.65-.08,2.11,2.11,0,0,0-.89.18,1.89,1.89,0,0,0-.7.53h0a2.69,2.69,0,0,0-.46.83,3.61,3.61,0,0,0-.15,1.08,3.31,3.31,0,0,0,.16,1.08,2.29,2.29,0,0,0,.46.84,2,2,0,0,0,.71.53,2.36,2.36,0,0,0,1.28.15h0a2.25,2.25,0,0,0,.35-.09,1.38,1.38,0,0,0,.3-.14,1.3,1.3,0,0,0,.23-.15V70.07a1.87,1.87,0,0,0,0-.38.33.33,0,0,0-.08-.17h0a.53.53,0,0,0-.22-.08l-.47,0h-.07v-.34h2.63v.34h-.07a1.51,1.51,0,0,0-.34,0h0a.39.39,0,0,0-.17.07.3.3,0,0,0-.08.17,1.44,1.44,0,0,0,0,.34v1.72Zm3-5.11v-.25h2.73v.32h-.08a1.78,1.78,0,0,0-.38.06.35.35,0,0,0-.21.11.45.45,0,0,0-.1.22,1.83,1.83,0,0,0,0,.44V70a3.59,3.59,0,0,0,.1.87,1.71,1.71,0,0,0,.29.59,1.19,1.19,0,0,0,.5.35,1.92,1.92,0,0,0,.71.12,2,2,0,0,0,.75-.13,1.45,1.45,0,0,0,.55-.37,1.6,1.6,0,0,0,.34-.6,2.51,2.51,0,0,0,.12-.81V67.57a1.61,1.61,0,0,0-.05-.42.45.45,0,0,0-.11-.24h0a.51.51,0,0,0-.22-.12h0a1.5,1.5,0,0,0-.4-.05h-.07v-.33h2.2v.32h-.08a1.49,1.49,0,0,0-.34.06h0a.5.5,0,0,0-.2.13.53.53,0,0,0-.11.24,1.76,1.76,0,0,0,0,.42V70a2.59,2.59,0,0,1-.64,1.91,1.93,1.93,0,0,1-.79.49,3.21,3.21,0,0,1-1.07.16,3.86,3.86,0,0,1-.6,0,4.54,4.54,0,0,1-.53-.12,2.66,2.66,0,0,1-.45-.2,2.11,2.11,0,0,1-.37-.28h0a1.59,1.59,0,0,1-.25-.33h0a1.71,1.71,0,0,1-.17-.39h0a3,3,0,0,1-.1-.49,5.85,5.85,0,0,1,0-.62V67.87a3.49,3.49,0,0,0,0-.62.88.88,0,0,0-.11-.32h0a.49.49,0,0,0-.22-.14,1.53,1.53,0,0,0-.41-.05H148Zm8.66,4.64a1.29,1.29,0,0,0,0,.38.37.37,0,0,0,.09.19h0A.5.5,0,0,0,157,72a2.11,2.11,0,0,0,.42.06h.07v.32h-2.24V72h.07a1.89,1.89,0,0,0,.41-.06.41.41,0,0,0,.22-.09.38.38,0,0,0,.1-.19,1.76,1.76,0,0,0,0-.38v-4a2.29,2.29,0,0,0-.16-.23,1.29,1.29,0,0,0-.18-.16.69.69,0,0,0-.19-.1,1,1,0,0,0-.24-.05h-.07v-.32h1.6l0,0,3.29,4V67.46a1.29,1.29,0,0,0,0-.38.37.37,0,0,0-.09-.19.5.5,0,0,0-.22-.09,1.89,1.89,0,0,0-.41-.06h-.07v-.32h2.23v.32h-.07a2.11,2.11,0,0,0-.42.06.41.41,0,0,0-.21.09.38.38,0,0,0-.1.19h0a1.76,1.76,0,0,0,0,.38v4.89h-.28l0,0-3.77-4.51Zm5.56,1V72h.08a1.49,1.49,0,0,0,.4,0,.49.49,0,0,0,.23-.1h0a.43.43,0,0,0,.1-.19h0a1.31,1.31,0,0,0,0-.37V67.44a1.16,1.16,0,0,0,0-.35.35.35,0,0,0-.11-.2.5.5,0,0,0-.22-.1,1.5,1.5,0,0,0-.4-.05h-.08v-.33H165v.33h-.08a2.18,2.18,0,0,0-.41.05h0a.5.5,0,0,0-.22.11.31.31,0,0,0-.1.19,1.16,1.16,0,0,0,0,.35v3.88a1.19,1.19,0,0,0,0,.36.32.32,0,0,0,.11.19h0a.57.57,0,0,0,.22.1,1.54,1.54,0,0,0,.4,0H165v.32h-2.79Zm6.53.16-2.07-4.71c-.08-.2-.17-.36-.24-.5a1.67,1.67,0,0,0-.22-.3.7.7,0,0,0-.21-.14h0a.75.75,0,0,0-.26-.05h-.07v-.33h2.6v.32h-.07l-.35,0a.49.49,0,0,0-.18,0,.22.22,0,0,0-.07.06h0a.2.2,0,0,0,0,.11,1.71,1.71,0,0,0,.08.32c.07.18.16.41.28.7s.29.68.51,1.16h0c.2.45.45,1,.73,1.6l1.46-3.25s.05-.11.07-.15h0a1.42,1.42,0,0,0,0-.16h0a.26.26,0,0,0,0-.11h0a.25.25,0,0,0,0-.08.37.37,0,0,0,0-.12h0a.16.16,0,0,0-.08-.08h0l-.17-.06-.31,0h-.07v-.33H172v.32H172a.41.41,0,0,0-.19.05.42.42,0,0,0-.16.11h0a1.07,1.07,0,0,0-.17.24q-.09.17-.21.42h0l-2.17,4.88,0,0h-.29Zm3.81-.16V72h.07a1.58,1.58,0,0,0,.41,0,.45.45,0,0,0,.22-.1h0a.38.38,0,0,0,.11-.19h0a1.63,1.63,0,0,0,0-.36V67.44a1.79,1.79,0,0,0,0-.36.43.43,0,0,0-.11-.19h0a.57.57,0,0,0-.22-.1,2.11,2.11,0,0,0-.41-.06h-.08v-.32h5.1v.07l.08,1.28v.08h-.32v-.06a2.07,2.07,0,0,0-.12-.45.72.72,0,0,0-.19-.25h0a.7.7,0,0,0-.3-.13h0a1.91,1.91,0,0,0-.51,0h-1.67a.19.19,0,0,0-.09,0h0a.15.15,0,0,0,0,.07,1.06,1.06,0,0,0,0,.21v1.56a.49.49,0,0,0,0,.13h0a.43.43,0,0,0,0,0h1.33a2.81,2.81,0,0,0,.55,0,.73.73,0,0,0,.29-.11h0a.55.55,0,0,0,.14-.21,1.32,1.32,0,0,0,.06-.38v-.07h.32v2.14h-.32v-.07a1.44,1.44,0,0,0-.07-.4.44.44,0,0,0-.14-.22h0a.61.61,0,0,0-.28-.12,3.9,3.9,0,0,0-.55,0h-1.28s0,0,0,0h0s0,0,0,0a.49.49,0,0,0,0,.13v1.74a1.44,1.44,0,0,0,0,.24h0a.24.24,0,0,0,0,.12h0a.19.19,0,0,0,.09,0l.19,0h1.35a3.4,3.4,0,0,0,.69-.06,1.18,1.18,0,0,0,.45-.16h0a1.15,1.15,0,0,0,.33-.33,2.26,2.26,0,0,0,.28-.54l0-.08.07,0,.16.08.06,0,0,.06-.46,1.42v0h-5.21Zm8.3-3.16a.19.19,0,0,0,0,.08s0,0,0,0l0,0H181a4.48,4.48,0,0,0,.88-.07,1.62,1.62,0,0,0,.59-.23h0a.93.93,0,0,0,.33-.38,1.33,1.33,0,0,0,.11-.56,1.21,1.21,0,0,0-.1-.52.85.85,0,0,0-.27-.35,1.19,1.19,0,0,0-.47-.2,3.08,3.08,0,0,0-.72-.07h-.3a.34.34,0,0,0-.13,0h0a.19.19,0,0,0,0,.1,1.09,1.09,0,0,0,0,.22Zm-1.93,3.16V72h.18a1.16,1.16,0,0,0,.35,0,.35.35,0,0,0,.2-.11.42.42,0,0,0,.11-.21,1.38,1.38,0,0,0,0-.38V67.39a.65.65,0,0,0-.15-.51h0a.63.63,0,0,0-.23-.1,2.3,2.3,0,0,0-.42,0h-.08v-.33h3a3.38,3.38,0,0,1,.88.1,2.05,2.05,0,0,1,.65.3h0a1.31,1.31,0,0,1,.41.5A1.57,1.57,0,0,1,184,68a1.42,1.42,0,0,1-.1.55,1.2,1.2,0,0,1-.29.45,1.72,1.72,0,0,1-.47.34,2.26,2.26,0,0,1-.52.19c.35.44.65.82.92,1.14s.51.61.69.8a5.3,5.3,0,0,0,.47.43h0A.72.72,0,0,0,185,72h.07v.32h-1.42l0,0c-.18-.2-.37-.4-.55-.61s-.36-.41-.54-.63l-.54-.68-.52-.69h-.62a0,0,0,0,0,0,0h0a.15.15,0,0,0,0,.07v1.43a1.38,1.38,0,0,0,0,.38.42.42,0,0,0,.11.21.42.42,0,0,0,.22.11,1.38,1.38,0,0,0,.38,0h.15v.33h-2.83Zm7.18.13-.32-1.87v-.09h.32l0,0a4.38,4.38,0,0,0,.33.65,2.88,2.88,0,0,0,.41.49h0a1.54,1.54,0,0,0,.46.29,1.1,1.1,0,0,0,.47.1,1,1,0,0,0,.4-.07.89.89,0,0,0,.54-.51.87.87,0,0,0,.07-.37.92.92,0,0,0,0-.29,1.22,1.22,0,0,0-.15-.27,1.5,1.5,0,0,0-.25-.26h0A4,4,0,0,0,188,70h0l-.91-.55a4.13,4.13,0,0,1-.51-.35,2.42,2.42,0,0,1-.35-.38,1.25,1.25,0,0,1-.2-.4,1.49,1.49,0,0,1-.07-.47,1.45,1.45,0,0,1,.13-.63h0a1.39,1.39,0,0,1,.37-.51,1.78,1.78,0,0,1,.57-.33,2.19,2.19,0,0,1,.7-.11,2.45,2.45,0,0,1,.38,0,1.86,1.86,0,0,1,.39.1h0l.31.1.14,0h0l0,0h0l0-.06h0a.3.3,0,0,0,0-.1v-.07h.29v.07l.2,1.75v.09h-.32l0-.06a3.13,3.13,0,0,0-.28-.61,1.91,1.91,0,0,0-.34-.44h0a1.61,1.61,0,0,0-.4-.26,1.13,1.13,0,0,0-.45-.09,1.06,1.06,0,0,0-.37.06h0a.77.77,0,0,0-.47.42h0a.78.78,0,0,0-.06.31,1.17,1.17,0,0,0,0,.27h0A1,1,0,0,0,187,68a1.16,1.16,0,0,0,.25.24,3,3,0,0,0,.37.26h0l1,.59h0a4.32,4.32,0,0,1,.53.38,2.1,2.1,0,0,1,.36.38,1.35,1.35,0,0,1,.19.42,1.47,1.47,0,0,1,.07.48,1.75,1.75,0,0,1-.14.7,1.5,1.5,0,0,1-.39.55,1.81,1.81,0,0,1-.62.35,2.43,2.43,0,0,1-.79.12l-.41,0-.43-.09-.31-.08-.13,0h-.08l-.06,0h0l0,0a.64.64,0,0,0,0,.07v.06h-.28Zm4.65-.13V72h.07a1.62,1.62,0,0,0,.41,0,.5.5,0,0,0,.22-.1h0a.56.56,0,0,0,.11-.19h0a1.9,1.9,0,0,0,0-.37V67.44a1.16,1.16,0,0,0,0-.35.35.35,0,0,0-.11-.2.45.45,0,0,0-.22-.1h0a1.5,1.5,0,0,0-.4-.05h-.07v-.33h2.78v.33h-.07a2.19,2.19,0,0,0-.42.05h0a.5.5,0,0,0-.22.11.38.38,0,0,0-.1.19,1.16,1.16,0,0,0,0,.35v3.88a1.19,1.19,0,0,0,0,.36.32.32,0,0,0,.11.19h0a.65.65,0,0,0,.22.1,1.54,1.54,0,0,0,.4,0h.08v.32h-2.78Zm4.76,0V72h.08a1,1,0,0,0,.66-.14.45.45,0,0,0,.1-.22,1.87,1.87,0,0,0,0-.45V67.08a.45.45,0,0,0,0-.13h0a0,0,0,0,0,0,0H196a3.27,3.27,0,0,0-.69.06.88.88,0,0,0-.4.16.79.79,0,0,0-.22.32,2.25,2.25,0,0,0-.13.54v.07h-.33V68l0-1.49v-.07h5.39v1.64h-.33V68a2,2,0,0,0-.12-.55.77.77,0,0,0-.2-.32,1,1,0,0,0-.42-.15,4.27,4.27,0,0,0-.8-.06h-.29a0,0,0,0,0,0,0h0a.41.41,0,0,0,0,.12v4.1a2.25,2.25,0,0,0,0,.49.41.41,0,0,0,.11.22.46.46,0,0,0,.23.09,1.69,1.69,0,0,0,.43,0h.07v.32h-2.85Zm6.56,0V72h.11a.87.87,0,0,0,.58-.14h0a.43.43,0,0,0,.11-.19,1,1,0,0,0,0-.32V69.8L201,67.17a1.62,1.62,0,0,0-.18-.19,1.18,1.18,0,0,0-.18-.13h0l-.22-.08a2.06,2.06,0,0,0-.26,0h-.07v-.33H203v.32h-.07l-.32,0-.19,0s-.07,0-.08.05h0a.06.06,0,0,0,0,0,.35.35,0,0,0,0,.12h0a1.8,1.8,0,0,0,.1.18l0,0h0l1.32,1.89,1.11-1.71h0c.06-.08.1-.16.14-.21h0c0-.06.06-.11.08-.14l0-.08h0a.11.11,0,0,0,0,0,.08.08,0,0,0,0-.06h0a.13.13,0,0,0-.07,0h0a.49.49,0,0,0-.17,0l-.3,0h-.07v-.32h2v.32h-.07a.85.85,0,0,0-.23,0,.87.87,0,0,0-.19.1h0a1.11,1.11,0,0,0-.2.19l-.24.33L204,69.71v1.73a1.19,1.19,0,0,0,0,.29h0a.38.38,0,0,0,.11.16h0a.55.55,0,0,0,.23.09,1.62,1.62,0,0,0,.41,0h.07v.32h-2.78Zm-1-5.11h0m9,2.21a4.55,4.55,0,0,0,.13,1.1,2.51,2.51,0,0,0,.4.84,1.59,1.59,0,0,0,.61.52,1.73,1.73,0,0,0,2.18-.52,2.5,2.5,0,0,0,.39-.84h0a4.08,4.08,0,0,0,.14-1.1,4,4,0,0,0-.14-1.09,2.5,2.5,0,0,0-.39-.84,1.77,1.77,0,0,0-.61-.52h0a1.73,1.73,0,0,0-2.18.52,2.51,2.51,0,0,0-.4.84,4.46,4.46,0,0,0-.13,1.09Zm-1.15,0a3.58,3.58,0,0,1,.21-1.26,2.6,2.6,0,0,1,.64-1,2.67,2.67,0,0,1,1-.63,3.26,3.26,0,0,1,1.24-.22,3.31,3.31,0,0,1,1.25.22,2.77,2.77,0,0,1,1.62,1.62,3.58,3.58,0,0,1,.21,1.26,3.54,3.54,0,0,1-.21,1.26,2.85,2.85,0,0,1-.64,1,2.92,2.92,0,0,1-1,.64,3.52,3.52,0,0,1-1.25.21,3.47,3.47,0,0,1-1.24-.21,2.82,2.82,0,0,1-1-.64h0a2.83,2.83,0,0,1-.63-1,3.54,3.54,0,0,1-.21-1.26Zm7,2.89V72H216a2.3,2.3,0,0,0,.42,0h0a.57.57,0,0,0,.22-.1.37.37,0,0,0,.09-.19,1.19,1.19,0,0,0,0-.36V67.45a1.19,1.19,0,0,0,0-.36.35.35,0,0,0-.11-.2.41.41,0,0,0-.22-.1h0a1.58,1.58,0,0,0-.41,0h-.07v-.34h4.95v.07l.09,1.37v.08h-.32v-.07a1.86,1.86,0,0,0-.14-.47h0a.67.67,0,0,0-.2-.28A.72.72,0,0,0,220,67a2,2,0,0,0-.52,0H218.2a.59.59,0,0,0-.2,0,.23.23,0,0,0-.1,0h0a.2.2,0,0,0-.06.09.9.9,0,0,0,0,.18v1.56c0,.06,0,.11,0,.15s0,0,0,0l0,0h.9a2.66,2.66,0,0,0,.53,0,.92.92,0,0,0,.29-.11h0a.44.44,0,0,0,.14-.22,1.27,1.27,0,0,0,.05-.37v-.08h.33v2.2h-.33v-.07a2.14,2.14,0,0,0-.07-.43h0a.45.45,0,0,0-.13-.23.49.49,0,0,0-.27-.11,2.7,2.7,0,0,0-.54,0h-.89a.05.05,0,0,0,0,0h0l0,0s0,.06,0,.1v1.6a1.27,1.27,0,0,0,.05.37.34.34,0,0,0,.12.2.54.54,0,0,0,.24.11h0a1.83,1.83,0,0,0,.44,0h.07v.32H215.9Zm8.52,0V72h.08a1,1,0,0,0,.66-.14.45.45,0,0,0,.1-.22,1.87,1.87,0,0,0,0-.45V67.08a.45.45,0,0,0,0-.13h0a.08.08,0,0,1,0,0h-.41a3.23,3.23,0,0,0-.68.06.83.83,0,0,0-.4.16.7.7,0,0,0-.22.32,2.25,2.25,0,0,0-.13.54v.07h-.32V68l0-1.49v-.07h5.39v1.64h-.33V68a3,3,0,0,0-.12-.55.77.77,0,0,0-.2-.32,1,1,0,0,0-.42-.15,4.35,4.35,0,0,0-.8-.06h-.29a0,0,0,0,0,0,0h0a.41.41,0,0,0,0,.12v4.1a2.25,2.25,0,0,0,0,.49.41.41,0,0,0,.1.22.55.55,0,0,0,.23.09,1.8,1.8,0,0,0,.43,0h.08v.32h-2.85Zm4.67,0V72h.08a1.62,1.62,0,0,0,.41,0,.5.5,0,0,0,.22-.1h0a.38.38,0,0,0,.1-.19h0a1.19,1.19,0,0,0,0-.36V67.44a1.28,1.28,0,0,0,0-.36.43.43,0,0,0-.1-.19h0a.65.65,0,0,0-.22-.1,2.11,2.11,0,0,0-.42-.06h-.07v-.32h5.1v.07l.08,1.28v.08H234v-.06a2.07,2.07,0,0,0-.12-.45.7.7,0,0,0-.18-.25h0a.74.74,0,0,0-.31-.13h0a1.91,1.91,0,0,0-.51,0h-1.67s-.07,0-.08,0h0a.15.15,0,0,0,0,.07,1.06,1.06,0,0,0,0,.21v1.56s0,.1,0,.13,0,0,0,0h1.33a2.7,2.7,0,0,0,.54,0,.73.73,0,0,0,.3-.11h0a.54.54,0,0,0,.13-.21,1.29,1.29,0,0,0,.07-.38v-.07h.33v2.14h-.33v-.07a1.93,1.93,0,0,0-.07-.4.52.52,0,0,0-.14-.22h0a.66.66,0,0,0-.29-.12,3.74,3.74,0,0,0-.54,0h-1.28l-.05,0h0s0,0,0,0h0a.44.44,0,0,0,0,.13v1.74a1.44,1.44,0,0,0,0,.24h0a.35.35,0,0,0,.05.12h0a.19.19,0,0,0,.09,0l.18,0h1.35a3.58,3.58,0,0,0,.7-.06,1.25,1.25,0,0,0,.45-.16h0a1.12,1.12,0,0,0,.32-.33,2.68,2.68,0,0,0,.29-.54l0-.08.07,0,.16.08.06,0,0,.06-.45,1.42,0,0h-5.2ZM241,70.88l.14.15,0,0,0,0a3.87,3.87,0,0,1-.52.6,3.21,3.21,0,0,1-.59.42,2.74,2.74,0,0,1-.67.26,3.5,3.5,0,0,1-.74.08,3.54,3.54,0,0,1-1.26-.21,2.7,2.7,0,0,1-1-.63h0a2.65,2.65,0,0,1-.64-1,3.52,3.52,0,0,1-.21-1.25,3.39,3.39,0,0,1,.22-1.25,3,3,0,0,1,.66-1,2.93,2.93,0,0,1,1-.67,3.62,3.62,0,0,1,1.26-.22,3.27,3.27,0,0,1,.53,0,5.41,5.41,0,0,1,.55.12l.43.13.17,0h.08s0,0,.06,0a.16.16,0,0,0,0-.07.2.2,0,0,0,0-.09v-.08h.3v.07l.17,1.88v.08h-.31l0,0a3,3,0,0,0-.3-.68h0a2,2,0,0,0-.42-.48h0a1.44,1.44,0,0,0-.53-.29,1.81,1.81,0,0,0-.63-.1,2,2,0,0,0-.87.18,1.94,1.94,0,0,0-.69.53h0a2.41,2.41,0,0,0-.44.84,3.61,3.61,0,0,0-.15,1.08,3.39,3.39,0,0,0,.15,1,2.45,2.45,0,0,0,.44.83,1.83,1.83,0,0,0,1.51.73,2.9,2.9,0,0,0,.6-.07,1.86,1.86,0,0,0,.53-.19h0a2.48,2.48,0,0,0,.49-.33,3.88,3.88,0,0,0,.49-.5l0-.07Zm.69,1.39V72h.08a1.62,1.62,0,0,0,.41,0,.5.5,0,0,0,.22-.1.43.43,0,0,0,.1-.19,1.28,1.28,0,0,0,0-.36V67.44a1.16,1.16,0,0,0,0-.35.35.35,0,0,0-.11-.2.64.64,0,0,0-.22-.11l-.41,0h-.07v-.32h2.77v.32h-.07a2.11,2.11,0,0,0-.42.06.51.51,0,0,0-.21.1.48.48,0,0,0-.11.2h0a1.61,1.61,0,0,0,0,.35v1.44c0,.05,0,.09,0,.12s0,0,0,0l0,0h2.66l0,0s0,0,0-.05,0-.07,0-.13V67.44a1.61,1.61,0,0,0,0-.35h0a.38.38,0,0,0-.11-.19h0a.45.45,0,0,0-.22-.11,2.08,2.08,0,0,0-.41-.05h-.07v-.33h2.78v.33h-.07a1.58,1.58,0,0,0-.41.05.41.41,0,0,0-.22.1h0a.38.38,0,0,0-.11.19,1.79,1.79,0,0,0,0,.36v3.89a1.69,1.69,0,0,0,0,.35.43.43,0,0,0,.11.19.5.5,0,0,0,.22.11h0a2.06,2.06,0,0,0,.4,0h.07v.32h-2.78V72h.07a1.58,1.58,0,0,0,.41,0,.65.65,0,0,0,.22-.1h0a.38.38,0,0,0,.11-.19,1.61,1.61,0,0,0,0-.35V69.74s0-.09,0-.12,0,0,0,0h0s0,0,0,0H243.7l0,0a.11.11,0,0,0,0,0h0s0,.06,0,.1v1.59a1.61,1.61,0,0,0,0,.35.48.48,0,0,0,.11.2h0a.57.57,0,0,0,.22.1,1.54,1.54,0,0,0,.4,0h.08v.32H241.7Zm8.63-1a1.76,1.76,0,0,0,0,.38.38.38,0,0,0,.1.19.45.45,0,0,0,.22.09,1.89,1.89,0,0,0,.41.06h.07v.32h-2.24V72H249a2.11,2.11,0,0,0,.41-.06.45.45,0,0,0,.22-.09.48.48,0,0,0,.1-.19,1.87,1.87,0,0,0,0-.38v-4a2.3,2.3,0,0,0-.15-.23,1.29,1.29,0,0,0-.18-.16.75.75,0,0,0-.2-.1h0a.85.85,0,0,0-.24-.05h-.07v-.32h1.61l0,0,3.3,4V67.46a1.76,1.76,0,0,0,0-.38.38.38,0,0,0-.1-.19.41.41,0,0,0-.21-.09,2.11,2.11,0,0,0-.41-.06H253v-.32h2.23v.32h-.08a2.11,2.11,0,0,0-.41.06.5.5,0,0,0-.22.09.37.37,0,0,0-.09.19h0a1.29,1.29,0,0,0,0,.38v4.89h-.29l0,0-3.78-4.51Zm6.83-1.92a4.08,4.08,0,0,0,.14,1.1,2.32,2.32,0,0,0,.39.84,1.59,1.59,0,0,0,.61.52,1.73,1.73,0,0,0,2.18-.52,2.5,2.5,0,0,0,.39-.84,4.08,4.08,0,0,0,.14-1.1,4,4,0,0,0-.14-1.09,2.5,2.5,0,0,0-.39-.84,1.77,1.77,0,0,0-.61-.52h0a1.73,1.73,0,0,0-2.18.52,2.32,2.32,0,0,0-.39.84,4,4,0,0,0-.14,1.09Zm-1.15,0a3.58,3.58,0,0,1,.21-1.26,2.73,2.73,0,0,1,.64-1,2.67,2.67,0,0,1,1-.63h0a3.26,3.26,0,0,1,1.24-.22,3.31,3.31,0,0,1,1.25.22A2.77,2.77,0,0,1,262,68.12a3.89,3.89,0,0,1,0,2.52,2.85,2.85,0,0,1-.64,1,2.92,2.92,0,0,1-1,.64,3.52,3.52,0,0,1-1.25.21,3.47,3.47,0,0,1-1.24-.21,2.82,2.82,0,0,1-1-.64h0a2.85,2.85,0,0,1-.64-1,3.54,3.54,0,0,1-.21-1.26Zm7,2.9V72h.11a1.31,1.31,0,0,0,.37,0,.42.42,0,0,0,.21-.11h0a.55.55,0,0,0,.1-.23,1.66,1.66,0,0,0,0-.42V67.46a1.45,1.45,0,0,0,0-.4h0a.34.34,0,0,0-.09-.19h0a.68.68,0,0,0-.22-.08,1.54,1.54,0,0,0-.4,0H263v-.33h2.79v.33h-.11a1.31,1.31,0,0,0-.37,0,.5.5,0,0,0-.22.11.53.53,0,0,0-.12.21,1.63,1.63,0,0,0,0,.36v3.89a1.26,1.26,0,0,0,0,.3.2.2,0,0,0,.06.13.27.27,0,0,0,.13,0h0a1.17,1.17,0,0,0,.29,0h1a2.47,2.47,0,0,0,.57-.07,1.82,1.82,0,0,0,.45-.2h0a1.45,1.45,0,0,0,.35-.35h0a2.82,2.82,0,0,0,.28-.52l0,0h.33l0,.09L268,72.3v0H263Zm7.12-2.9a4.55,4.55,0,0,0,.13,1.1,2.51,2.51,0,0,0,.4.84,1.64,1.64,0,0,0,.6.52,1.73,1.73,0,0,0,.79.18,1.69,1.69,0,0,0,1.4-.7,2.71,2.71,0,0,0,.39-.84h0a4.1,4.1,0,0,0,.13-1.1,4,4,0,0,0-.13-1.09,2.71,2.71,0,0,0-.39-.84,1.77,1.77,0,0,0-.61-.52h0a1.7,1.7,0,0,0-.79-.17,1.61,1.61,0,0,0-1.39.69,2.51,2.51,0,0,0-.4.84,4.46,4.46,0,0,0-.13,1.09Zm-1.15,0a3.58,3.58,0,0,1,.21-1.26,2.7,2.7,0,0,1,.63-1,2.79,2.79,0,0,1,1-.63h0a3.26,3.26,0,0,1,1.24-.22,3.31,3.31,0,0,1,1.25.22,2.75,2.75,0,0,1,1,.63,2.7,2.7,0,0,1,.63,1,3.58,3.58,0,0,1,.21,1.26,3.54,3.54,0,0,1-.21,1.26,2.83,2.83,0,0,1-.63,1,2.92,2.92,0,0,1-1,.64,3.52,3.52,0,0,1-1.25.21,3.47,3.47,0,0,1-1.24-.21,3,3,0,0,1-1-.64h0a2.83,2.83,0,0,1-.63-1,3.54,3.54,0,0,1-.21-1.26Zm12.87,2.39a5.18,5.18,0,0,1-.57.31,6,6,0,0,1-.59.23h0a4.26,4.26,0,0,1-.62.13h0a4.48,4.48,0,0,1-.64,0,3.87,3.87,0,0,1-1.31-.21,2.86,2.86,0,0,1-1-.63,2.71,2.71,0,0,1-.68-1h0a3.16,3.16,0,0,1-.22-1.22,3.42,3.42,0,0,1,.22-1.27,3,3,0,0,1,.69-1,2.92,2.92,0,0,1,1-.66,3.66,3.66,0,0,1,1.88-.18,4.17,4.17,0,0,1,.56.14l.42.13.15,0h.06l.06,0h0a.22.22,0,0,0,0-.08.56.56,0,0,0,0-.12l0-.06h.27v.08l.09,1.78v.08h-.31l0-.05a3.22,3.22,0,0,0-.34-.67h0a1.71,1.71,0,0,0-.4-.44h0a1.56,1.56,0,0,0-.5-.25,2.49,2.49,0,0,0-.64-.08,2.13,2.13,0,0,0-.9.18,1.89,1.89,0,0,0-.7.53h0a2.47,2.47,0,0,0-.45.83,4,4,0,0,0,0,2.16,2.45,2.45,0,0,0,.46.84,2.13,2.13,0,0,0,.71.53,2.25,2.25,0,0,0,.92.18,2.1,2.1,0,0,0,.36,0,2,2,0,0,0,.35-.09,1.46,1.46,0,0,0,.31-.14,1.19,1.19,0,0,0,.23-.16V70.07a1.76,1.76,0,0,0,0-.38.27.27,0,0,0-.08-.17h0a.53.53,0,0,0-.22-.08l-.46,0H280v-.34h2.62v.34h-.07a1.41,1.41,0,0,0-.33,0h0a.52.52,0,0,0-.18.07.38.38,0,0,0-.08.17,1.52,1.52,0,0,0,0,.34v1.72Zm2.43.51V72h.12a.82.82,0,0,0,.57-.14h0a.44.44,0,0,0,.12-.19,1.32,1.32,0,0,0,0-.32V69.8l-1.89-2.63a1.54,1.54,0,0,0-.17-.19l-.19-.13h0a1,1,0,0,0-.21-.08,2.06,2.06,0,0,0-.26,0h-.08v-.33h2.83v.32h-.07l-.31,0-.2,0-.08.05s0,0,0,0a.24.24,0,0,0,0,.12h0a.85.85,0,0,0,.1.18v0h0L286,69.13l1.12-1.71h0l.14-.21.08-.14,0-.08h0a.43.43,0,0,1,0,0,.08.08,0,0,0,0-.06.18.18,0,0,0-.07,0h0a.58.58,0,0,0-.17,0h0l-.3,0h-.07v-.32h2v.32h-.07a.85.85,0,0,0-.23,0,.69.69,0,0,0-.19.1h0a.86.86,0,0,0-.2.19,3.58,3.58,0,0,0-.24.33l-1.53,2.31v1.73a.85.85,0,0,0,0,.29.31.31,0,0,0,.11.16h0a.55.55,0,0,0,.23.09,1.58,1.58,0,0,0,.41,0h.07v.32H284.3Zm-1-5.11h0"/><path class="cls-1" d="M270.8,33.48l.06.06c.63-.06,3.45-.17,3.77-.53a4.16,4.16,0,0,0-.05-2c-.52-1.29-3.06-4.31-4.73-4.36l-.27.21c-.44,1.77.78,3.81,1.65,4.84a7.65,7.65,0,0,0-.43,1.8ZM129.1,45.6c0-.16-.1-.32-.16-.48.66-1.61,1.82-3.18,2.39-4.73a8.82,8.82,0,0,1,.59-1.86c.85-1.28,3.45-1.53,4-3.08a2.29,2.29,0,0,0-.53-2.28c-.32-.22-.83-.09-1-.43-.35-.66.58-1.86.8-2.28,1.3-2.56.26-7.71-2.6-7.71-.68.38-1.75,1.13-1.92,2,0,.62,0,1.24,0,1.86-.61,2-1.42,4.3-2.18,6.21A17.71,17.71,0,0,1,127.19,36a8.61,8.61,0,0,1-2.55,2.29l-.69.32c0,.19-.07.39-.11.58a2.89,2.89,0,0,0,1.38.37c.47.8-.26,1.67-.53,2.39-.74,2-3.52,6.39-1.06,8.19a2,2,0,0,0,1.91.26l2.77-1.06c1.75-.52,4.73-.55,5.15-2.34a1.37,1.37,0,0,0-.32-1.11c-1.29-2-2.43-.17-4-.32ZM151,43.21a1.2,1.2,0,0,0-1.27-.69l-.64.16c-.94.48-.65,2.31-1.54,2.76l-.85.16c-.72.33-1.58.73-2.34,1.17-1.83,1.06-3.52,2.47-5.31,3.56l-1.86,1-1,.85c-.53.29-1.2.26-1.59.69a3,3,0,0,0,4.25,3.24,19.21,19.21,0,0,0,3.45-4.41c.43-.24.95-.07,1.6-.22a10.6,10.6,0,0,1,4-.37c1,.16,2.55.53,3-.21.81-1.41-.11-3.49-.11-4.94,0-.85.56-2.1.21-2.76Zm-5.79,6.11c-.6-.51,1.86-2,2.29-2.29,1.58.11-1.22,2.75-2.29,2.29Zm12.27-5.69c-.82-1.1-1.3-2.51-3.24-2.5l-.32.27a6.38,6.38,0,0,0,0,2.18c.12.68-.29,1.18-.16,1.7l.48.74a5.91,5.91,0,0,0,2.23,2.87c1.48,0,3.25-1.39,2.56-3.13a9.72,9.72,0,0,0-1.55-2.13Zm-40.11-25c-1.56.86-.72,2.54-.37,4l-.21,2.55c-.59,3.5-1.47,7.81-1.17,11.84,0,1.24,0,2.48,0,3.72.18,1.13.57,4.36.27,5.42s-1.55,1.52-2.13,2.34a20,20,0,0,1-4.73,4.62c-1.79,1.24-3.6,2.29-4,4.94.44.68.52.65,1.38,1,.43.15.74.64,1.49.48,1.68-.38,4.44-4.3,5.31-5.74.39-.65.46-1.55.85-2.13s1.2-2.44,2.23-2.17c.57.35,1.11,2,2.29,1.38.69-.34,1-2.29.74-3.35s-.66-2.6-.9-4c-.15-.87.24-1.39.1-2.23l-.21-1.7c.55-3.09.64-6.1,1.54-8.77.7-2.08,1.9-3.92,2.39-6.05.17-.75-.29-1.22-.42-1.7-.61-2.1-1.87-4.37-4.52-4.36Zm-8.08,26.62c.31,2.3-2.13,4.2-1.48,5.95l.85.11a11.67,11.67,0,0,0,1.91-2.18c.25-.39.29-.79.64-1.07,1.33-1.06,2.91-1.71,3.72-3.29,0-2-3.06-3.5-5.16-3.45l-2,.58c-1.3,2.15,1.32,1.68,1.54,3.35ZM161,21.69c-2.37-1-3.89,1.38-5.1.85-.57-.31-.62-1.09-1.33-1.33l-2.71-.16a8.89,8.89,0,0,0-2.34-.37,2,2,0,0,0-.85.8c.23,2.32,1.91,2.25,2.66,3.72,0,.1,0,.21.05.31a12.68,12.68,0,0,1-2.07,1.39c-.86.58-1.7,1.43-2.6,2s-2.25.81-2.71,1.86c0,.14,0,.28,0,.43a3.2,3.2,0,0,0,1.32.69,22,22,0,0,0,4.63-1.07c.75-.32,1.26-1.24,1.86-1.75a17.44,17.44,0,0,1,3.77-2.23c1.17-.59,1.83-1.71,3.35-2.07l1.43.26c.47-.43,2-1.62,1.59-2.6-.17-.45-.46-.51-.9-.69ZM155.3,34.23a7.62,7.62,0,0,1,2.76-3.4c.73-1.18-.53-2.57-1.7-2.55-.92.45-1.33,1.08-2.13,1.54l-4.88,2.81c-.62.35-2.3.91-2.61,1.44l-.05.32c1.86,1.15,3-.9,4.83-.8a1.37,1.37,0,0,1-.47,1.7,17.94,17.94,0,0,0-4.2,4.14h-.11l-.9-1.38c-.43-.54-1-.74-1.28-1.43-1.05,0-2,0-2.39.69.14,1.3,1.06,2.39,1.38,3.56.11.46.22.92.32,1.38l1.76.85c1.21-.06,1.27-.79,1.75-1.59.32-.43,1.1-.08,1.65-.32l1.86-1.33,2.17-1a8,8,0,0,0,2.24-3.19c.19-.54-.14-.87,0-1.48Zm34.64.85-.85.63c-.75.46-1.63.72-2.34,1.12l-5.31,2.23-.16-.05c-.19-.43.89-2.61,1.17-3.19.51-1,1-2,1.54-3.08.95-1.45,2.27-2.84,2.81-4.68s-2.53-3.49-4.25-3.45c-1.54.71-3.5.69-5.68.69h-2.29l-1.43.75c-.77,1.33,3,5.27,4.94,4.88,1.17-.23,1.7-1.44,2.6-1.91L181,29c.35.82-.44,1.78-.69,2.39a28.52,28.52,0,0,0-1.49,6.16c-.13.77-.53,1.8-.05,2.39-.14,1.06-3.05,1.7-4,2.18a68.45,68.45,0,0,1-7.33,3.35c-1.51.56-4.47,1.22-5.15,2.44.19,1.67,3,3.87,5.1,2.61,3.56-2.16,7.2-4.19,10.73-6.43.94-.6,3.13-2.47,4.31-2.5l.05,0v.16a6.82,6.82,0,0,0-1.17,1.17.51.51,0,0,0,.32.32c1.62-.75,3.41-1.7,5.1-2.34l1.59-.26c1.77-.62,4-1.43,5-2.82.18-1.17-1.91-3.14-3.45-2.76Zm68.48,10.25c-.41-.62-3.07-1.77-4-2.12s-1.05-.93-2.39-.91l-1,.27c-1,1.52.65,2.43,1.27,3.35s.45,1.67.91,2.6c.73,1.49,3.22,1.49,5.2,1.11.76-1.13.76-1.27.43-2.7a4.42,4.42,0,0,0-.43-1.6Zm27.21-.1c-.29-.13-.59-.52-1.12-.38-1.33.37-2.41,2.6-4.2,2.13-.54-1.09,1.22-1.71.85-3.19s-2.92-1.7-4.67-1.86l-.27.16c-1,2.75,1,2.11,1.65,3.35.19.55-.51,1.3-.64,1.91s0,1-.1,1.33c-1,.65-2.17,1.08-3.25,1.75-.19.18-.38.36-.58.53-1,.45-2.38.22-3.08.91v.21a5.58,5.58,0,0,0,4.83,1.11l2.71-1.32c.16.09.18.09.27.26.15.43-.16,1-.27,1.38-1.1,3.8-4.33.46-7,1.6l-.05.16c.14,1.78,5,3.27,7.12,2.44,1.41-.55,3.94-2.33,3.45-4.62-.2-.93-.72-2.07-.9-2.82a1.74,1.74,0,0,1,.9-.74h.27c.08.5-.32.63-.43,1.11.77.14,1.12-.62,1.6-1a10.51,10.51,0,0,1,1.91-1.22,13.55,13.55,0,0,0,2.71-1.07c.29-1.32-.8-1.75-1.75-2.17Zm2.17-15.31c-.94.52-.8,1.85-2.33,1.92l-.11-.06c-.31-1.44,1.21-2.69,1.86-3.61l.64-1.22.58-.48c.06-.23.11-.46.16-.69.6-1,1.74-2,2.07-3.13a4.38,4.38,0,0,0-.31-2.45c-1-.59-2.35-.32-3.56-.1-.2.47-.39.95-.59,1.43l.64,1.06c.2.77-.44,1.36-.64,1.81a31.94,31.94,0,0,1-2.39,4.67l-.16.11a5.16,5.16,0,0,1,0-2.44c-.3-.6-1.52-.78-1.59-1.12l.21-.69a1.73,1.73,0,0,0-1.43-2.39.8.8,0,0,1-.16-.59c1.4-1.36,1.79-2.94.1-4.3a2.94,2.94,0,0,0-2.23-.9c-.29.18-.58.21-.74.53-.33.88.67,1.23.48,2a21.34,21.34,0,0,1-1.44,3c-.59.78-2.4.56-3.13,1.49a2.56,2.56,0,0,0,0,.27c.38.54,1.29.49,1.59,1.06v.16c-.29.75-1.08,1.2-1.54,1.8v.54c0,.05,0,.1.05.16l.48.05,1.65-1,1.43-.43c.36-.25.29-.63.85-.74h.05c.37.82-.66,2.48-1.06,3a13.25,13.25,0,0,0-2.39.26,3.1,3.1,0,0,0-.16,1.28c.44.24,1,.33,1.22.8.37,1.22-1.75,3.16-1.91,4.3l.21.11c1,.4,3.8-2.16,4.25-2.77,1.68,0,1.88.09,2.87-.63h.27c.34.31.88.82.69,1.48-.4.85-1.68,1-2.55,1.44-1.52.69-6,3.94-7.92,3.45a15.13,15.13,0,0,1-.26-1.81c-.56-1.8-2.13-4.71-4.31-4.72-.72.73.29,1.59.48,2.39.75,3.14-.23,3.56,3,4.57a.7.7,0,0,1,0,.63c-.31.2-.85.34-1.06.64l-.06.32c.47.45,3.68.89,4.41.37,2-1.44,3.92-2.95,6.11-4.3l1.44-1,.69,0c.67-.29,2-1.51,2.76-1.28l.21.16c-.32,2.47-5.59,5.18-7.27,6.91v.27l0,.05c1.74-.21,3.24-1.33,4.62-1.91l2.55-.54c2.64-1.09,4.27-3.24,5.85-5.41.28-.4.86-.53,1.06-1,.65-1.56-2.59-3.65-4.31-2.77Zm-6.74.48-.53-.32a1.94,1.94,0,0,1,.74-2.23h.27a1.78,1.78,0,0,1-.48,2.55ZM264.48,42.09l-1,.64c-.08.44-.17.88-.26,1.33-.43,1-1.73,2.5-1.33,3.82.3.65,1.88,1.88,2.87,1.6,1.85-.8,2.93-7.46-.32-7.39Zm-34-17.37c-.69-1.23-2-1.14-3.35-.64a10.86,10.86,0,0,0-2,1.38c-1.42.94-3,1.7-4.41,2.55-.54.32-2.66,1.74-3,1.17a3.36,3.36,0,0,1,.53-2.66l1.65-.47c2.1-.88,5.56-3.19,6.37-5.32a4,4,0,0,0-3.72-2.18,8.71,8.71,0,0,0-3.08,1.7c-1.1-.16,0-2.83-2.44-2.86-.93.93-1,2-.85,3.61,0,.3.07.6.1.9-.2.86-1.39,1.8-2,2.39l-.37-.05c-.73-1.67-.71-3.94-3.14-3.14-.35.63.22,1.15,0,2-.19.52-.39,1-.58,1.54s.06,1.24-.22,1.65c-.91,1.37-3.55,1.26-4.94,2.18-.37,1.43,2,3,3.62,2.71.74-.12,1-.54,1.64-.69.62.44,1.22,1.47,2.45,1.22.52-.11.74-.43,1.38-.48h.05c.11.17.21.28.11.53-.42.72-3.94,2.17-4.89,2.71-2.14,1.23-4.47,2.4-6.54,3.72-1.28.82-2.45,2-3.77,2.82-1.09.67-4.94,2.28-4.51,4l.26.43a4.92,4.92,0,0,0,2.23-.16l2.93-.48c2-.79,3.1-2.62,4.72-3.77.81-.58,1.56-1,2.39-1.6s1.53-1.69,2.77-1.75l.16.16c-.39,1.38-1.06,2.09,0,3.45,1.72.37,2-1.54,2.92-2.28a9.75,9.75,0,0,1,2.07-1.28c.32-.14.54-.37,1-.26l.27.16c-.12.44-.7.44-1.07.58-.27,1.55-.69,2.23-1.91,2.76-.58.26-1,.26-1.27.8l-.06.32c.91.95,1.26.3,2.18.85.17.1.18.15.27.32s-.07.32-.11.48c-.24.32-1.33.37-1.7.53-.54,1.52,1.16,1.5,1.65,2.44,0,.13,0,.25.05.37-.32.32-1.44.73-1.59,1.12-.41,1,2,1.86.85,3.14a27.79,27.79,0,0,1-5.05,1.8c-.53.1-.94-.28-1.38,0-2.13,1.32,1.44,4,2.71,4.09.86-.81.51-2.19,1.54-2.76A8.17,8.17,0,0,1,214.86,56l.85,1c2.49.49,1-1.85,1.59-3,.35-.72,3.88-2.2,4.89-2.45,1.06-1.77-1.16-3.46-2.29-3.87-1.3.63-.81,3.29-2.18,4l-.37,0-.16-.16a11.71,11.71,0,0,1,1.23-6.16c.36-.86,1.41-2.15,1.22-3.4-.11-.53-.21-1.06-.32-1.59-.22-.33-.74-.26-1.06-.48l-.91-1.54v-.06c.3,0,.38.09.69.16l.32-.26c.12-.74-.32-1.31.06-1.91.18-.3.51-.38.79-.59,1.19-.88,3.37-2.14,4-3.45a2.39,2.39,0,0,0-3.19-1.65c-.42.21-.52.54-1.11.75h-.16l.05-.27a16.81,16.81,0,0,1,4-2.28l1.11.15,2.08-.95c1.1-.34,1.62.13,2.65-.53.64-.41,2.57-1.37,1.81-2.71ZM220.75,21h.16c.43,1-1.58,2.36-2.07,3h-.32c-1.07-1.75,1.39-2.36,2.23-3Zm-6.27,32.67a2.2,2.2,0,0,1-1.8.48l-.37-.48c.12-.9.85-1.19,1.43-1.64h.37l.11,0a2.77,2.77,0,0,1,.26,1.59Zm-.42-27.31c.23-.47.85-.67,1.27-.95h.16c.39.68-.33,1.38-.79,1.7h-.54a.7.7,0,0,1-.1-.75Zm.32,3c-.07.11-.06.09-.16.16s-.09-.05-.16-.16S214,29,214,28.76l.16-.22.32.06a1,1,0,0,1-.05.74Zm-.85,7.38c-.23-.09-.27-.08-.37-.31-.46-1.65,2.23-3.32,3.34-3.67.64-.2.82.19,1.54-.27.36,0,.4,0,.48.32.18.75-4.16,3.57-5,3.93Zm41-7.06c-.34-.95-1.84-1.17-2.76-.59-1.4.9-2,2.62-3.56,3.46-.4.22-.79.95-1.43.58s-.11-1.49-.11-2.23c0-1.81.36-3.4,0-5.21-.29-1.49-4.36-4-5.9-4.3l-.42.21c-1.6,2.75.34,3.81,1.17,5.74.52,1.22,1.29,8.09.69,9.3-.42.85-2.74,1.92-3.61,2.49A42,42,0,0,1,232,42.94l-2.93,1.17c-.72.19-1.23-.08-1.75.27-.69,3.3.81,4.62,4,3.55,2-.66,3.57-2.27,4.94-3.61a27.84,27.84,0,0,1,4.89-3.61l.37,0c.59,1-.19,2.49-.64,3.4a10.76,10.76,0,0,1-6.27,5.74c-1.42.48-3.58-.09-4.2,1.28l.16.37a13.43,13.43,0,0,0,4.47-.06l1.11.11c4-.88,5.78-2.18,7.65-5.15a9,9,0,0,0,1.28-2.23c.46-1.89.63-3.62,1.17-5.32.19-.59,0-1.38.26-1.8a7.41,7.41,0,0,1,2.66-1.86L250.72,34c.75-.54,1.58-.94,2.28-1.49s2.05-1.45,1.54-2.81"/></g></g></svg>