<svg xmlns="http://www.w3.org/2000/svg" viewBox="0 0 90.33 90.33"><defs><style>.cls-1{fill:#0096c2;fill-rule:evenodd;}</style></defs><g id="图层_2" data-name="图层 2"><g id="图层_1-2" data-name="图层 1"><path class="cls-1" d="M45.16,0A45.17,45.17,0,1,1,0,45.16,45.16,45.16,0,0,1,45.16,0Zm19.1,63.74h0a3.49,3.49,0,0,0,1-.14,1,1,0,0,0,0-.55c-.14-.35-.83-1.16-1.28-1.18l-.07.06a1.68,1.68,0,0,0,.44,1.31,2.35,2.35,0,0,0-.11.49ZM25.89,67l0-.13c.18-.44.49-.86.65-1.28a2.11,2.11,0,0,1,.15-.5c.24-.35.94-.42,1.08-.84a.6.6,0,0,0-.14-.62c-.09,0-.22,0-.27-.11s.15-.51.21-.62c.35-.69.07-2.09-.7-2.09a1,1,0,0,0-.52.54c0,.16,0,.33,0,.5-.17.53-.39,1.16-.59,1.68a4.6,4.6,0,0,1-.34.88,2.28,2.28,0,0,1-.69.62l-.18.08,0,.16a.67.67,0,0,0,.37.1c.13.22-.07.45-.14.65-.2.53-1,1.73-.29,2.22a.58.58,0,0,0,.52.07l.75-.29c.47-.14,1.28-.15,1.39-.63a.37.37,0,0,0-.08-.3c-.35-.54-.66,0-1.1-.09Zm5.93-.65a.34.34,0,0,0-.35-.19l-.17,0c-.25.13-.17.62-.42.75l-.23,0c-.19.09-.42.2-.63.32-.5.28-.95.66-1.44,1l-.5.27-.26.23c-.14.08-.33.08-.43.19a.82.82,0,0,0,1.15.88,5.06,5.06,0,0,0,.93-1.2c.12-.06.26,0,.44,0A2.89,2.89,0,0,1,31,68.51c.29,0,.7.15.81-.05.22-.38,0-.95,0-1.34,0-.23.15-.57.06-.75ZM30.25,68c-.16-.14.5-.55.62-.62.43,0-.33.74-.62.62Zm3.32-1.54c-.22-.3-.35-.68-.87-.68l-.09.07a1.67,1.67,0,0,0,0,.59c0,.19-.08.32,0,.46l.13.2a1.53,1.53,0,0,0,.6.78c.4,0,.88-.38.69-.85a2.4,2.4,0,0,0-.42-.57ZM22.71,59.73c-.42.23-.19.68-.1,1.07l-.05.69a13.76,13.76,0,0,0-.32,3.21c0,.34,0,.67,0,1a5.64,5.64,0,0,1,.08,1.47c-.09.3-.42.41-.58.63a5.24,5.24,0,0,1-1.28,1.25c-.48.34-1,.62-1.08,1.34.12.18.14.17.37.26s.2.17.41.13c.45-.1,1.2-1.17,1.44-1.56.1-.17.12-.42.23-.57s.32-.66.6-.59.3.55.62.37.26-.62.2-.9-.18-.71-.24-1.1c0-.23.06-.37,0-.6s0-.31-.05-.46A17.67,17.67,0,0,1,23.4,63c.19-.57.52-1.07.65-1.64.05-.21-.08-.33-.11-.46-.17-.57-.51-1.19-1.23-1.18Zm-2.18,7.2c.08.62-.58,1.14-.41,1.61l.23,0a2.66,2.66,0,0,0,.52-.59c.07-.1.08-.21.17-.29.37-.28.79-.46,1-.89,0-.54-.83-.94-1.39-.93l-.55.16c-.35.58.36.45.42.9Zm14-6.38c-.64-.27-1.05.37-1.38.23-.15-.09-.17-.3-.36-.36l-.73-.05a2.77,2.77,0,0,0-.63-.1.49.49,0,0,0-.23.22c.06.63.51.61.72,1,0,0,0,.06,0,.09a3.67,3.67,0,0,1-.56.38c-.23.15-.46.38-.71.53s-.6.22-.73.5v.12a.94.94,0,0,0,.36.18A6.09,6.09,0,0,0,31.52,63c.2-.09.34-.34.5-.48a4.64,4.64,0,0,1,1-.6c.32-.16.5-.47.91-.56l.39.07c.12-.12.54-.44.43-.71-.05-.12-.13-.13-.25-.18ZM33,63.94a2.14,2.14,0,0,1,.75-.92c.2-.32-.14-.69-.46-.69a5.26,5.26,0,0,0-.57.42l-1.33.76c-.16.09-.62.25-.7.39l0,.08c.51.32.82-.24,1.31-.21.11.15,0,.36-.13.46a4.62,4.62,0,0,0-1.13,1.12h0c-.08-.12-.16-.25-.25-.37s-.25-.2-.34-.39c-.29,0-.55,0-.65.18a5.93,5.93,0,0,0,.38,1c0,.12.05.25.08.37l.48.23c.32,0,.34-.21.47-.43s.3,0,.45-.09l.5-.35.59-.26a2.13,2.13,0,0,0,.6-.87c.06-.14,0-.23,0-.4Zm9.38.23-.23.17c-.2.13-.44.2-.63.31l-1.44.6,0,0c-.05-.11.24-.7.32-.86l.41-.83a4.89,4.89,0,0,0,.77-1.27c.14-.48-.69-.94-1.16-.93a3.79,3.79,0,0,1-1.53.18h-.62l-.39.2c-.21.37.8,1.43,1.34,1.33.31-.06.46-.39.7-.52H40c.09.22-.12.48-.19.64a7.72,7.72,0,0,0-.4,1.67c0,.21-.15.49,0,.65,0,.29-.82.46-1.08.59a20.09,20.09,0,0,1-2,.91c-.41.15-1.21.33-1.4.66a1,1,0,0,0,1.38.7c1-.58,2-1.13,2.91-1.74.25-.16.85-.67,1.17-.67h0v0a2.42,2.42,0,0,0-.32.32c0,.06,0,.06.09.09.44-.21.92-.46,1.38-.64l.43-.07a2.91,2.91,0,0,0,1.37-.76c.05-.32-.52-.85-.94-.75ZM60.91,67a4.24,4.24,0,0,0-1.08-.58c-.23-.09-.29-.25-.65-.24l-.27.07c-.26.41.17.66.34.91s.12.45.25.7.87.4,1.41.3c.2-.31.2-.34.11-.73a1.29,1.29,0,0,0-.11-.43Zm7.36,0c-.08,0-.16-.14-.3-.1-.36.1-.65.7-1.14.57-.15-.29.33-.46.23-.86s-.79-.46-1.26-.5l-.07,0c-.28.74.27.57.44.91,0,.15-.14.35-.17.51s0,.27,0,.36c-.28.18-.59.3-.88.48l-.16.14c-.26.12-.64.06-.83.25v0a1.54,1.54,0,0,0,1.31.31l.73-.36s0,0,.07.07,0,.27-.07.37c-.3,1-1.17.13-1.88.43l0,0c0,.48,1.36.88,1.93.66.38-.15,1.07-.63.94-1.25-.06-.26-.2-.56-.25-.77a.51.51,0,0,1,.25-.2h.07c0,.14-.09.17-.12.31.21,0,.31-.17.44-.26A2.48,2.48,0,0,1,68,67.8a4.56,4.56,0,0,0,.74-.29c.08-.36-.22-.48-.48-.59Zm.59-4.14c-.25.13-.22.49-.63.51h0c-.09-.39.33-.73.5-1l.18-.33.15-.13c0-.06,0-.12,0-.19a3.58,3.58,0,0,0,.56-.85c.08-.27,0-.45-.09-.66a1.49,1.49,0,0,0-1,0l-.16.39c.06.1.12.19.17.29s-.12.37-.17.49a8.77,8.77,0,0,1-.65,1.26l0,0a1.47,1.47,0,0,1,0-.66c-.08-.16-.41-.21-.43-.3l.06-.19a.46.46,0,0,0-.39-.64.24.24,0,0,1,0-.16c.38-.37.48-.8,0-1.17a.8.8,0,0,0-.61-.24c-.08,0-.16.06-.2.14-.09.24.18.33.13.55a5.36,5.36,0,0,1-.39.8c-.16.21-.65.15-.85.41v.07c.1.15.35.13.43.29v0c-.08.2-.29.33-.42.49v.14l0,0h.13l.44-.27.39-.12c.1-.07.08-.17.23-.2h0c.1.22-.18.67-.29.82a4.18,4.18,0,0,0-.65.07.82.82,0,0,0,0,.35c.12.06.27.09.33.21.1.33-.47.86-.52,1.17l.06,0c.28.11,1-.59,1.15-.75.45,0,.51,0,.78-.17h.07c.09.08.24.22.19.4s-.46.28-.69.39c-.42.19-1.64,1.06-2.15.93a3.4,3.4,0,0,1-.07-.49c-.15-.48-.58-1.27-1.17-1.28-.19.2.08.43.13.65.21.85-.06,1,.82,1.24,0,.06,0,.1,0,.17s-.23.09-.28.17l0,.09a1.87,1.87,0,0,0,1.2.1c.54-.39,1.06-.8,1.65-1.17l.39-.25.19,0c.18-.08.52-.41.74-.34l.06,0c-.09.67-1.51,1.4-2,1.87v.09a5.12,5.12,0,0,0,1.26-.52l.69-.15a3.84,3.84,0,0,0,1.58-1.46c.08-.11.23-.15.29-.28.17-.42-.7-1-1.17-.74ZM67,62.9l-.14-.08a.55.55,0,0,1,.2-.61h.07c.16.24.1.61-.13.69Zm-4.48,3.17-.26.17c0,.12,0,.24-.07.36-.12.27-.47.68-.36,1,.08.17.51.51.77.43.5-.22.8-2-.08-2Zm-9.2-4.7c-.18-.34-.55-.31-.9-.18a2.81,2.81,0,0,0-.55.38c-.38.25-.8.46-1.19.69-.15.08-.72.47-.81.31a.94.94,0,0,1,.15-.72l.44-.13a3.55,3.55,0,0,0,1.73-1.43,1.06,1.06,0,0,0-1-.59,2.17,2.17,0,0,0-.83.46c-.3,0,0-.77-.67-.78a1.13,1.13,0,0,0-.23,1l0,.24c0,.24-.37.49-.53.65h-.1c-.2-.46-.19-1.07-.85-.85-.09.17.06.31,0,.54s-.1.28-.16.42,0,.34,0,.45c-.25.37-1,.34-1.34.59-.1.38.55.8,1,.73.2,0,.26-.15.44-.19.17.12.33.4.66.33.15,0,.21-.11.38-.12h0s.06.07,0,.14a7,7,0,0,1-1.32.73c-.58.33-1.21.65-1.77,1-.35.22-.67.54-1,.76s-1.34.62-1.23,1.08l.08.12a1.35,1.35,0,0,0,.6,0l.79-.13c.55-.21.84-.71,1.28-1l.65-.43c.22-.15.41-.46.75-.47l0,0c-.11.37-.29.57,0,.93.47.1.53-.41.79-.62a3.09,3.09,0,0,1,.56-.34c.09,0,.15-.1.28-.07l.07,0c0,.12-.19.12-.29.16a.82.82,0,0,1-.52.75c-.15.07-.27.07-.34.21l0,.09c.25.26.34.08.59.23,0,0,0,0,.07.09s0,.08,0,.13-.36.1-.47.14c-.14.41.32.4.45.66,0,0,0,.07,0,.1s-.39.2-.44.3c-.11.28.55.51.23.85a7.17,7.17,0,0,1-1.36.49c-.14,0-.26-.07-.38,0-.57.36.39,1.08.74,1.11.23-.22.14-.59.41-.75a2.24,2.24,0,0,1,.91.42c.08.08.15.17.23.26.67.13.27-.5.43-.82a3.61,3.61,0,0,1,1.33-.66c.28-.48-.32-.94-.62-1.05-.35.17-.22.89-.59,1.07l-.1,0,0,0A3.25,3.25,0,0,1,50.07,67c.1-.24.39-.59.34-.92l-.09-.44c-.06-.08-.2-.06-.29-.12l-.24-.42v0c.08,0,.1,0,.18,0l.09-.08c0-.2-.09-.35,0-.51a.6.6,0,0,1,.22-.16c.32-.24.91-.58,1.09-.94a.64.64,0,0,0-.86-.44c-.11,0-.14.14-.3.2h0v-.07a4.34,4.34,0,0,1,1.09-.62l.3,0,.57-.26c.3-.09.44,0,.72-.14s.69-.37.48-.73Zm-2.64-1h0c.12.26-.43.64-.56.8H50.1c-.29-.47.38-.64.61-.8ZM49,69.21a.6.6,0,0,1-.49.12l-.1-.12c0-.25.23-.33.39-.45h.13a.81.81,0,0,1,.07.44Zm-.12-7.4c.07-.13.23-.18.35-.26h0c.11.19-.09.38-.21.46h-.15a.2.2,0,0,1,0-.2Zm.09.81s0,0,0,0,0,0,0,0a.78.78,0,0,0,0-.16l0-.06.09,0a.27.27,0,0,1,0,.2Zm-.23,2c-.06,0-.07,0-.1-.09-.12-.45.6-.9.91-1s.22.05.41-.07.11,0,.13.08-1.12,1-1.35,1.07ZM59.86,62.7a.54.54,0,0,0-.75-.16c-.38.25-.55.71-1,.94-.1.06-.21.26-.38.16s0-.41,0-.61a7.38,7.38,0,0,0,0-1.41c-.08-.4-1.18-1.09-1.6-1.16l-.11.06c-.44.74.09,1,.31,1.55a7.17,7.17,0,0,1,.19,2.52c-.11.23-.74.52-1,.67a11.2,11.2,0,0,1-1.78,1l-.79.32c-.2,0-.34,0-.48.07-.19.89.22,1.25,1.08,1a3.67,3.67,0,0,0,1.34-1,7,7,0,0,1,1.32-1h.1c.16.26,0,.67-.17.92a2.89,2.89,0,0,1-1.7,1.55c-.38.13-1,0-1.13.35a.42.42,0,0,0,0,.1,3.78,3.78,0,0,0,1.21,0l.3,0A2.78,2.78,0,0,0,57,67.25a2.62,2.62,0,0,0,.35-.61c.12-.51.17-1,.31-1.43,0-.16,0-.38.07-.49a2.19,2.19,0,0,1,.72-.51l.42-.34c.21-.15.43-.26.62-.4s.55-.4.42-.77ZM36.15,39.43h9.68l0-1.52H36.17Zm0,8.8h9.68l0-1.52H36.17ZM28,30.62l29.11-.05A6,6,0,0,1,60,41.82a6,6,0,0,1,4.31,4.74,5.94,5.94,0,0,1-5.52,6.95H27.87l.06-3.18,22.56,0c4.57-.44,3.73-5.73,0-5.85L28,44.56l0-3,22.29.08a4.36,4.36,0,0,0,3.39-5.71H36.11V34.74l16.77,0A5.35,5.35,0,0,0,49,33.42h-21ZM45.16,2.9A42.25,42.25,0,1,1,15.28,15.28,42.14,42.14,0,0,1,45.16,2.9ZM73.85,16.48A40.55,40.55,0,1,0,85.74,45.16,40.41,40.41,0,0,0,73.85,16.48Zm-33.92,60h-.41V72.85h-.69v-.34h1.1Zm3.16-1.72a.9.9,0,0,0,.68-.28.94.94,0,0,0,.28-.69,1,1,0,0,0-.28-.7.9.9,0,0,0-.68-.29.83.83,0,0,0-.65.28,1,1,0,0,0-.26.7,1,1,0,0,0,.26.71.86.86,0,0,0,.65.27ZM43,76.46h-.48L43.44,75l-.24,0-.19,0a1.18,1.18,0,0,1-.89-.38,1.33,1.33,0,0,1-.35-.94,1.3,1.3,0,0,1,1.35-1.34,1.26,1.26,0,0,1,1,.38,1.19,1.19,0,0,1,.38.92A2.42,2.42,0,0,1,44,75a.72.72,0,0,1-.07.11Zm3.58-2.24a.91.91,0,0,0-.68.29.93.93,0,0,0-.27.69,1,1,0,0,0,.28.71.91.91,0,0,0,.68.28.85.85,0,0,0,.65-.28,1.09,1.09,0,0,0,0-1.41.87.87,0,0,0-.66-.28Zm.1-1.71h.48l-.92,1.43.23,0h.19a1.16,1.16,0,0,1,.89.37,1.43,1.43,0,0,1,0,1.91,1.33,1.33,0,0,1-1,.38,1.3,1.3,0,0,1-.95-.38,1.26,1.26,0,0,1-.38-.92A2.51,2.51,0,0,1,45.71,74a.9.9,0,0,0,.07-.11Zm2.38,2.65a1.07,1.07,0,0,0,.25.76,1,1,0,0,0,1.4,0,1,1,0,0,0,.25-.75V73.81a1.07,1.07,0,0,0-.25-.76,1,1,0,0,0-1.4,0,1.1,1.1,0,0,0-.25.77Zm-.38-.09V73.9a2.58,2.58,0,0,1,0-.57,1.41,1.41,0,0,1,.18-.37,1.29,1.29,0,0,1,.48-.39,1.44,1.44,0,0,1,.62-.14,1.29,1.29,0,0,1,1,.38,1.52,1.52,0,0,1,.36,1.07v1.21a2.58,2.58,0,0,1-.05.53,1.14,1.14,0,0,1-.17.37,1.18,1.18,0,0,1-.48.4,1.37,1.37,0,0,1-.64.15,1.44,1.44,0,0,1-.62-.14,1.23,1.23,0,0,1-.48-.4,1,1,0,0,1-.18-.37,2.75,2.75,0,0,1,0-.56Zm-35-14.29c.11-.05.17-.09.19-.13a.3.3,0,0,0-.05-.19l0-.1a1.85,1.85,0,0,0-.6-.84.91.91,0,0,0-1.24.51,1.55,1.55,0,0,0,.17.9c.1.21.17.33.23.36s.15,0,.29,0Zm1.89-.85a.27.27,0,0,0,.19-.17.83.83,0,0,0-.11-.42l-.06-.12a1.4,1.4,0,0,0-.58-.7.87.87,0,0,0-.77,0,.83.83,0,0,0-.52.59,1.57,1.57,0,0,0,.18,1l.1.23c0,.11.09.17.13.19a.33.33,0,0,0,.19,0Zm1.05,1-.12,0c-.11-.23-.21-.37-.32-.41a.57.57,0,0,0-.46.06L13,61.81q-.31.13-.36.3a.83.83,0,0,0,.08.52l-.11.06-.85-1.91a2.08,2.08,0,0,1-.23-1.2.87.87,0,0,1,.54-.7.94.94,0,0,1,.64,0,1.38,1.38,0,0,1,.6.43,1.48,1.48,0,0,1,0-.87,1,1,0,0,1,.52-.53,1.05,1.05,0,0,1,1.05.05,2.58,2.58,0,0,1,.87,1.2Zm-1.9-4.2-.13,0a.82.82,0,0,0-.25-.45.64.64,0,0,0-.48,0l-2.8.8a.64.64,0,0,0-.4.25.86.86,0,0,0,0,.53l-.12,0-1-3.57L10.4,54l0,.12a.84.84,0,0,0-.47.4,1.08,1.08,0,0,0,0,.66l.31,1.06a.44.44,0,0,0,.11.23c.05,0,.13,0,.27,0l1.12-.33a.26.26,0,0,0,.16-.08.28.28,0,0,0,0-.17l-.24-.84a1.16,1.16,0,0,0-.3-.6.65.65,0,0,0-.51,0l0-.13,1.43-.41,0,.13a.65.65,0,0,0-.43.31A1.08,1.08,0,0,0,12,55l.24.83c0,.08.05.13.08.15a.23.23,0,0,0,.18,0l1.25-.36a.55.55,0,0,0,.28-.14.38.38,0,0,0,0-.26l-.28-1a1.68,1.68,0,0,0-.41-.8,1.41,1.41,0,0,0-.79-.28l0-.13,1.12,0Zm-1.33-4.59-.13,0a.83.83,0,0,0-.2-.48.62.62,0,0,0-.48-.06l-2.87.46a.58.58,0,0,0-.43.2.79.79,0,0,0-.05.52l-.13,0-.31-2,.13,0a.83.83,0,0,0,.21.48.65.65,0,0,0,.47.06l2.87-.46a.56.56,0,0,0,.43-.2.79.79,0,0,0,.05-.52l.13,0Zm-5-4.73h.13a.75.75,0,0,0,.17.49.7.7,0,0,0,.51.09l2.32-.16a1.5,1.5,0,0,1,1,.22,1,1,0,0,1,.41.82.93.93,0,0,1-.13.57.48.48,0,0,1-.4.25.24.24,0,0,1-.2-.07.31.31,0,0,1-.09-.2.43.43,0,0,1,.06-.22.47.47,0,0,1,.2-.16.05.05,0,0,1,0,0c.18-.09.26-.19.26-.29a.27.27,0,0,0-.11-.21.44.44,0,0,0-.29,0l-3,.21c-.26,0-.43.07-.5.17a.73.73,0,0,0-.09.52H8.52Zm4.26-1h-.13a.79.79,0,0,0-.13-.5.6.6,0,0,0-.46-.13H9a.59.59,0,0,0-.45.13.77.77,0,0,0-.13.5H8.29v-2h.14a.8.8,0,0,0,.13.51.59.59,0,0,0,.45.13h2.91a.6.6,0,0,0,.46-.13.85.85,0,0,0,.13-.51h.13Zm-.7-3.64a.61.61,0,0,0,.48-.05.91.91,0,0,0,.2-.49l.13,0-.22,1.55-.13,0a.9.9,0,0,0-.06-.52c-.05-.09-.2-.15-.44-.18l-3-.43a1.06,1.06,0,0,0-.35.23.65.65,0,0,0-.17.34l-.13,0,.15-1.11L11.8,40l-2.33-.33A.65.65,0,0,0,9,39.7a1,1,0,0,0-.2.48l-.13,0,.22-1.54.13,0a.86.86,0,0,0,.06.51c0,.09.2.15.44.19l3.58.5,0,.13L9.2,42.39ZM14,34.39a3.38,3.38,0,0,1,.13.94,3.26,3.26,0,0,1-.14.92,2.43,2.43,0,0,1-1.09,1.47,2.11,2.11,0,0,1-1.73.16,2.26,2.26,0,0,1-1.4-1.13,2.42,2.42,0,0,1-.12-1.84,2.62,2.62,0,0,1,.37-.75,3,3,0,0,0,.26-.39.14.14,0,0,0,0-.14.36.36,0,0,0-.14-.13l0-.11,1.3.33,0,.13a2,2,0,0,0-1,.29,1.49,1.49,0,0,0-.51.78,1.56,1.56,0,0,0,.17,1.35,2.17,2.17,0,0,0,1.26.87,2.16,2.16,0,0,0,1.55,0,1.54,1.54,0,0,0,.9-1,1.7,1.7,0,0,0,.08-.55,1.41,1.41,0,0,0-.11-.49l-1.13-.35c-.24-.07-.39-.08-.47,0a1.25,1.25,0,0,0-.26.49l-.13,0,.54-1.77.14,0a.66.66,0,0,0,0,.43c0,.08.16.15.37.22Zm-2.54-4.05-.11-.06.91-1.7.11.06a.73.73,0,0,0-.11.49.81.81,0,0,0,.42.35l1.65.88a1.7,1.7,0,0,0,1.14.26,1.18,1.18,0,0,0,.77-.67,1.26,1.26,0,0,0,.13-1.07,1.54,1.54,0,0,0-.8-.84L14,27.17a.82.82,0,0,0-.54-.14.75.75,0,0,0-.37.38l-.11-.06L13.66,26l.11.06a.56.56,0,0,0-.07.47.83.83,0,0,0,.41.36l1.57.84a1.88,1.88,0,0,1,1,1.06,1.83,1.83,0,0,1-.22,1.42,2.7,2.7,0,0,1-.49.67,1.43,1.43,0,0,1-.59.36,1.21,1.21,0,0,1-.6,0A3.18,3.18,0,0,1,14,31l-1.44-.77a1.31,1.31,0,0,0-.71-.23c-.14,0-.27.15-.39.37Zm6.2-4.08c.19.16.34.22.44.2a.85.85,0,0,0,.42-.31l.11.08-1,1.22-.1-.08a1,1,0,0,0,.22-.48.65.65,0,0,0-.29-.39l-2.36-1.91a1,1,0,0,0-.42,0,.78.78,0,0,0-.32.2l-.1-.08.7-.87,4-.06-1.84-1.48c-.18-.15-.33-.22-.43-.2s-.24.12-.42.31l-.1-.09,1-1.21.1.09a.93.93,0,0,0-.22.47c0,.11.1.23.29.39l2.81,2.27-.08.1-4.57.08ZM21,23.44l-.1-.09a.79.79,0,0,0,.26-.45c0-.12-.07-.25-.24-.41l-2.09-2a.64.64,0,0,0-.42-.23.77.77,0,0,0-.44.28l-.1-.09L19.24,19l.1.09a.84.84,0,0,0-.26.46.56.56,0,0,0,.23.4l2.1,2a.61.61,0,0,0,.42.22.84.84,0,0,0,.44-.28l.1.09Zm3.59-3.34-3.37-1.89a2.56,2.56,0,0,0-.66-.28.57.57,0,0,0-.41.11l-.07-.1,1.46-1.11.08.11a1.21,1.21,0,0,0-.29.31.19.19,0,0,0,0,.2,3.45,3.45,0,0,0,.69.46l2.1,1.15-.61-2.72c0-.1-.05-.18-.07-.25l-.07-.15a.23.23,0,0,0-.21-.09.88.88,0,0,0-.35.17l-.09-.1,1.05-.79.08.1a.43.43,0,0,0-.15.29,1.59,1.59,0,0,0,.07.59L24.7,20Zm2.2-1.91-.06-.11c.22-.13.35-.25.38-.36a.56.56,0,0,0-.11-.46l-1.41-2.55c-.11-.2-.22-.31-.33-.34a.88.88,0,0,0-.51.14l-.07-.11,3.25-1.8.52.81-.12.06a.87.87,0,0,0-.49-.37,1,1,0,0,0-.64.19l-1,.53A.44.44,0,0,0,26,14s0,.13.08.25l.56,1c.05.08.08.12.11.13a.25.25,0,0,0,.18-.05l.75-.42a1.14,1.14,0,0,0,.52-.43.67.67,0,0,0-.08-.51l.11-.06.73,1.3-.12.07a.73.73,0,0,0-.4-.36,1.06,1.06,0,0,0-.64.21l-.76.42a.38.38,0,0,0-.13.11.3.3,0,0,0,.05.17L27.63,17q.12.21.21.24a.33.33,0,0,0,.25-.06l.89-.49a1.62,1.62,0,0,0,.69-.59,1.44,1.44,0,0,0,.09-.82h.13l.22,1.1Zm4.49-5c0,.06,0,.09.09.1a.15.15,0,0,0,.13,0,2.08,2.08,0,0,0,1-.65.83.83,0,0,0,0-.83.8.8,0,0,0-.53-.53,1.58,1.58,0,0,0-.95.14c-.18.08-.28.14-.31.2s0,.15,0,.28Zm-.34,2.69-.05-.12.07,0a.61.61,0,0,0,.37-.29.67.67,0,0,0-.06-.5l-1.09-2.7a.56.56,0,0,0-.29-.35,1,1,0,0,0-.53.09l-.05-.12,2-.83a1.9,1.9,0,0,1,1.15-.15,1,1,0,0,1,.67.63,1,1,0,0,1,0,.76,1.58,1.58,0,0,1-.59.67c.8.46,1.38.78,1.74.94a1.27,1.27,0,0,0,.73.19l0,.13-.91.36c-.36-.16-.72-.35-1.1-.55L32,13.31l-.36.15a.17.17,0,0,0-.11.08s0,.07,0,.13l.4,1a.71.71,0,0,0,.3.4A.7.7,0,0,0,32.7,15l0,0,0,.12ZM36,14l-.55-1.31.13,0a2.24,2.24,0,0,0,.76.72,1,1,0,0,0,.79.14.8.8,0,0,0,.51-.34.73.73,0,0,0,.11-.59.78.78,0,0,0-.26-.41,1.72,1.72,0,0,0-.56-.28l-.75-.25a2,2,0,0,1-.74-.37,1.09,1.09,0,0,1-.32-.56,1,1,0,0,1,.16-.87,1.35,1.35,0,0,1,.82-.52,1.78,1.78,0,0,1,.57,0,1.87,1.87,0,0,0,.36,0,.13.13,0,0,0,.1-.07.26.26,0,0,0,0-.16l.11,0,.44,1.24-.13,0a2,2,0,0,0-.66-.68.92.92,0,0,0-.72-.12.78.78,0,0,0-.47.3.62.62,0,0,0-.09.5.63.63,0,0,0,.23.37,2.15,2.15,0,0,0,.55.27l.84.26a2,2,0,0,1,.75.39,1.15,1.15,0,0,1,.33.58,1.13,1.13,0,0,1-.17,1,1.46,1.46,0,0,1-.91.56,2.52,2.52,0,0,1-.62.05h-.36a.16.16,0,0,0-.12.07.17.17,0,0,0,0,.13Zm3.35-.82,0-.13a.84.84,0,0,0,.49-.19.58.58,0,0,0,.07-.47l-.35-2.89A.6.6,0,0,0,39.32,9,.83.83,0,0,0,38.8,9V8.84l2-.24v.13a.8.8,0,0,0-.49.2.6.6,0,0,0-.07.46l.36,2.89a.54.54,0,0,0,.18.43.83.83,0,0,0,.52.07l0,.13Zm3.57-.48v-.13a.82.82,0,0,0,.54-.12.82.82,0,0,0,.12-.54V8.78c0-.09,0-.15,0-.17a.47.47,0,0,0-.23,0h-.1a1.46,1.46,0,0,0-.86.18,1,1,0,0,0-.27.69h-.14l0-1.12h3.93V9.45h-.13a1.06,1.06,0,0,0-.26-.69,1.64,1.64,0,0,0-1-.18c-.15,0-.23,0-.26,0s0,.07,0,.16v3.07c0,.31,0,.5.13.58a.88.88,0,0,0,.53.11v.13Zm4.91.07v-.13h0a.69.69,0,0,0,.48-.06.59.59,0,0,0,.19-.41L48.65,11,47.48,8.81a.8.8,0,0,0-.25-.29,1,1,0,0,0-.37-.14V8.25l2,.25,0,.12a2,2,0,0,0-.4,0c-.08,0-.12.06-.13.12A.52.52,0,0,0,48.4,9h0l.85,1.6,1-1.23a3,3,0,0,0,.2-.25.28.28,0,0,0,0-.12.13.13,0,0,0-.08-.14,1.21,1.21,0,0,0-.36-.12l0-.13,1.35.17,0,.13a.58.58,0,0,0-.35.07,1.49,1.49,0,0,0-.4.36L49.35,11l-.16,1.31a.46.46,0,0,0,.09.39,1,1,0,0,0,.49.18V13Zm6.53-1.09a2.39,2.39,0,0,0-.1,1.54,1.36,1.36,0,0,0,2.06.71,2.41,2.41,0,0,0,.87-1.27,2.5,2.5,0,0,0,.1-1.53,1.37,1.37,0,0,0-2.07-.72,2.45,2.45,0,0,0-.86,1.27Zm-.71-.24a2.21,2.21,0,0,1,1.12-1.36,2.47,2.47,0,0,1,3.08,1.06,2.27,2.27,0,0,1,0,1.76,2.28,2.28,0,0,1-1.12,1.36,2.2,2.2,0,0,1-1.75.06,2.23,2.23,0,0,1-1.34-1.12,2.27,2.27,0,0,1,0-1.76Zm4.23,3.78.06-.12a.84.84,0,0,0,.52.13c.1,0,.21-.15.32-.35l1.32-2.6a.63.63,0,0,0,.09-.47c0-.11-.18-.22-.4-.34l.06-.12L63,13l-.4.94-.12-.06a1,1,0,0,0,0-.66,1,1,0,0,0-.53-.45l-.82-.42a.37.37,0,0,0-.27-.06.33.33,0,0,0-.17.18l-.53,1.05q-.07.13-.06.18a.35.35,0,0,0,.14.11l.51.26a1.1,1.1,0,0,0,.64.18c.14,0,.26-.15.37-.36l.11.06-.69,1.37-.12-.06a.75.75,0,0,0,.09-.55c0-.12-.21-.26-.52-.41L60.17,14A.23.23,0,0,0,60,14s-.07,0-.11.11l-.54,1.07a.58.58,0,0,0-.09.48.91.91,0,0,0,.43.37l-.06.12Zm5.59,3.13.07-.11a.85.85,0,0,0,.51.2c.11,0,.25-.14.41-.37l1.78-2.54a.22.22,0,0,0,.06-.16s-.07-.08-.17-.15L66,15.13a1.48,1.48,0,0,0-.8-.35,1,1,0,0,0-.62.41l-.11-.08.67-.89,3.23,2.25-.64.92-.12-.08a1.06,1.06,0,0,0,.19-.71c0-.18-.27-.41-.68-.69-.12-.09-.19-.13-.23-.12s-.07,0-.12.11L65,18.42c-.17.25-.25.43-.22.54a1,1,0,0,0,.37.4l-.07.11Zm2.78,2.1.09-.09a.82.82,0,0,0,.45.26.62.62,0,0,0,.41-.25l2-2.13a.68.68,0,0,0,.22-.42.93.93,0,0,0-.29-.45l.09-.09,2.71,2.53-.61.74-.09-.09a.92.92,0,0,0,.2-.58A1.13,1.13,0,0,0,71,19.3l-.8-.75c-.1-.09-.17-.13-.22-.13s-.13,0-.22.14l-.8.86a.25.25,0,0,0-.09.15s0,.08.1.14l.64.59a1.11,1.11,0,0,0,.57.36.65.65,0,0,0,.45-.23l.1.09-1,1.09-.09-.09a.74.74,0,0,0,.21-.49,1.13,1.13,0,0,0-.39-.55l-.64-.59a.26.26,0,0,0-.14-.09s-.09,0-.15.1l-.89,1a.57.57,0,0,0-.16.27.31.31,0,0,0,.13.22l.74.7a1.74,1.74,0,0,0,.77.48,1.52,1.52,0,0,0,.82-.17l0,.12L69,23ZM73,26.3l0,.15a2.41,2.41,0,0,1-1.1-.16,2.08,2.08,0,0,1-.84-.65A2.26,2.26,0,0,1,70.45,24a2.2,2.2,0,0,1,.88-1.51,2.19,2.19,0,0,1,3.23.35,2.63,2.63,0,0,1,.41.69,3.85,3.85,0,0,0,.19.44.19.19,0,0,0,.14.08.19.19,0,0,0,.16-.05l.08.09-1,1-.09-.1a1.81,1.81,0,0,0,.35-1,1.39,1.39,0,0,0-.34-.9,1.46,1.46,0,0,0-1.19-.59,2.32,2.32,0,0,0-1.44.57A2.24,2.24,0,0,0,71,24.29a1.45,1.45,0,0,0,.3,1.27,2.07,2.07,0,0,0,.71.56,2.71,2.71,0,0,0,1,.18Zm-.54,1.19.12-.06a.88.88,0,0,0,.36.38.67.67,0,0,0,.46-.12l2.53-1.46c.19-.11.3-.23.32-.34a.78.78,0,0,0-.14-.51l.11-.06,1,1.7-.12.06c-.14-.21-.26-.34-.37-.37a.63.63,0,0,0-.45.12l-.94.54a.33.33,0,0,0-.12.11.32.32,0,0,0,0,.16l.92,1.6c0,.05.07.09.1.09a.23.23,0,0,0,.17-.06l.92-.53c.2-.11.3-.22.33-.33a.78.78,0,0,0-.14-.51l.11-.07,1,1.7-.12.07a.82.82,0,0,0-.36-.38.67.67,0,0,0-.46.12L75.17,30.8c-.19.11-.3.22-.33.34a.77.77,0,0,0,.14.5l-.11.07-1-1.71.12-.06c.13.21.25.34.36.37a.59.59,0,0,0,.46-.11l1-.6c.07,0,.11-.07.12-.11a.18.18,0,0,0,0-.13L75,27.75a.17.17,0,0,0-.11-.1.19.19,0,0,0-.15,0l-1,.59c-.2.12-.31.23-.33.34a.77.77,0,0,0,.14.5l-.11.07Zm3.7,5.42c-.23.08-.36.16-.4.26a1,1,0,0,0,0,.52l-.13,0-.48-1.48.13,0a.86.86,0,0,0,.28.44.68.68,0,0,0,.48,0l2.89-.94a1,1,0,0,0,.22-.36.76.76,0,0,0,0-.37l.12,0L79.63,32l-2.14,3.4,2.24-.73c.23-.07.37-.16.41-.26a.9.9,0,0,0,0-.52l.13,0,.48,1.48-.13.05a1,1,0,0,0-.27-.45.68.68,0,0,0-.48,0l-3.44,1.12,0-.12,2.42-3.88Zm2.93,4.76a2.42,2.42,0,0,0-1.39.66A1.37,1.37,0,0,0,78,40.48a2.48,2.48,0,0,0,1.54.14A2.42,2.42,0,0,0,81,40a1.28,1.28,0,0,0,.35-1.18,1.3,1.3,0,0,0-.73-1,2.41,2.41,0,0,0-1.52-.14Zm-.13-.73a2.1,2.1,0,0,1,2.62,1.81,2.18,2.18,0,0,1-.33,1.72A2.51,2.51,0,0,1,78,41a2.2,2.2,0,0,1-.9-1.5,2.15,2.15,0,0,1,.33-1.71,2.19,2.19,0,0,1,1.52-.89Zm-1.31,5.57h.13v0a.67.67,0,0,0,.14.47.86.86,0,0,0,.53.12l2.83-.05a.7.7,0,0,0,.48-.13.89.89,0,0,0,.1-.51H82l0,2h-.13v0a.64.64,0,0,0-.14-.48.62.62,0,0,0-.46-.13l-2.92,0c-.2,0-.32,0-.37.09a.59.59,0,0,0-.06.35V45a1.4,1.4,0,0,0,.23.8,1.45,1.45,0,0,0,.68.49v.13l-1.15-.34ZM79.72,48a2.36,2.36,0,0,0-1.52.22,1.28,1.28,0,0,0-.68,1,1.3,1.3,0,0,0,.41,1.16,2.51,2.51,0,0,0,1.43.58,2.41,2.41,0,0,0,1.51-.22,1.31,1.31,0,0,0,.68-1,1.27,1.27,0,0,0-.41-1.15A2.41,2.41,0,0,0,79.72,48Zm.09-.75a2.29,2.29,0,0,1,1.56.81,2.44,2.44,0,0,1-.4,3.24,2.17,2.17,0,0,1-1.7.41,2.3,2.3,0,0,1-1.17-4.05,2.28,2.28,0,0,1,1.71-.41Zm-3.62,9.19a3.84,3.84,0,0,1-.15-.94,3.2,3.2,0,0,1,.13-.92,2.4,2.4,0,0,1,1.06-1.49A2.09,2.09,0,0,1,79,52.89,2.25,2.25,0,0,1,80.38,54a2.41,2.41,0,0,1,.15,1.84,2.78,2.78,0,0,1-.36.76,3.62,3.62,0,0,0-.25.39.14.14,0,0,0,0,.14.44.44,0,0,0,.14.13l0,.11-1.31-.31,0-.12a1.92,1.92,0,0,0,1-.32,1.41,1.41,0,0,0,.5-.79,1.54,1.54,0,0,0-.19-1.34,2.56,2.56,0,0,0-2.83-.81,1.59,1.59,0,0,0-.88,1.07,1.49,1.49,0,0,0-.07.55,1.31,1.31,0,0,0,.12.5l1.13.32c.24.07.4.08.47,0a1,1,0,0,0,.25-.49l.13,0-.51,1.79-.13,0a.72.72,0,0,0,0-.43c0-.08-.17-.15-.38-.21ZM75,58.08l.12.06v0a.7.7,0,0,0-.08.48.58.58,0,0,0,.33.3l1.1.48,2.39-.49a.76.76,0,0,0,.35-.16,1,1,0,0,0,.24-.31l.12,0-.82,1.84-.11-.06a2.2,2.2,0,0,0,.1-.39.14.14,0,0,0-.08-.15.43.43,0,0,0-.28,0h0l-1.77.34.87,1.36.18.26.1.09a.15.15,0,0,0,.16,0,1.18,1.18,0,0,0,.22-.31l.12,0-.55,1.25-.13-.06a.64.64,0,0,0,0-.36,1.63,1.63,0,0,0-.23-.48l-1.12-1.76L75,59.55a.48.48,0,0,0-.4,0,.83.83,0,0,0-.31.42l-.12,0Z"/></g></g></svg>