<svg xmlns="http://www.w3.org/2000/svg" viewBox="0 0 242.19 48.35"><defs><style>.cls-1{fill:#0096c2;fill-rule:evenodd;}</style></defs><g id="图层_2" data-name="图层 2"><g id="图层_1-2" data-name="图层 1"><path class="cls-1" d="M84.68,45.1c0,.07,0,.12,0,.16s0,.05,0,.05h0l0,0H85a3.58,3.58,0,0,0,.7-.06,1.57,1.57,0,0,0,.45-.17.75.75,0,0,0,.24-.29,1,1,0,0,0,.08-.44A1.11,1.11,0,0,0,86.4,44a.62.62,0,0,0-.22-.28,1,1,0,0,0-.39-.17,2.64,2.64,0,0,0-.6-.06l-.31,0-.14,0a.39.39,0,0,0,0,.09.84.84,0,0,0,0,.19Zm0,2.39a.63.63,0,0,0,0,.16h0a.2.2,0,0,0,0,.08h0a.59.59,0,0,0,.15,0l.31,0h.16a2.31,2.31,0,0,0,.56-.07,1.16,1.16,0,0,0,.4-.2h0a1,1,0,0,0,.24-.33,1.17,1.17,0,0,0,.08-.45,1.06,1.06,0,0,0-.09-.45h0A.8.8,0,0,0,86.3,46h0a1.33,1.33,0,0,0-.45-.19,2.41,2.41,0,0,0-.64-.07h-.44l-.06,0h0l0,0s0,.08,0,.13ZM83,48.14v-.21h.06a1.73,1.73,0,0,0,.36,0,.37.37,0,0,0,.19-.09.34.34,0,0,0,.09-.17,1.21,1.21,0,0,0,0-.3V44a1.23,1.23,0,0,0,0-.31h0a.34.34,0,0,0-.09-.17.57.57,0,0,0-.19-.08,1.73,1.73,0,0,0-.36,0H83v-.28h2.48a3.23,3.23,0,0,1,.8.08,1.78,1.78,0,0,1,.61.25,1.17,1.17,0,0,1,.39.41,1.08,1.08,0,0,1,.13.54,1.34,1.34,0,0,1-.07.4,1.36,1.36,0,0,1-.21.34,1.49,1.49,0,0,1-.33.27l-.22.11a1.85,1.85,0,0,1,.33.12,1.68,1.68,0,0,1,.4.28,1,1,0,0,1,.24.38,1.16,1.16,0,0,1,.08.47,1.39,1.39,0,0,1-.14.66,1.23,1.23,0,0,1-.43.48,2.19,2.19,0,0,1-.71.27,5,5,0,0,1-1,.09H83Zm5.31,0v-.21h.06a1.69,1.69,0,0,0,.35,0,.37.37,0,0,0,.19-.09h0a.31.31,0,0,0,.09-.16h0a1,1,0,0,0,0-.32V44a1.35,1.35,0,0,0,0-.31h0a.39.39,0,0,0-.09-.17h0a.55.55,0,0,0-.2-.08,1.55,1.55,0,0,0-.36,0h-.06v-.28h4.42v.06l.07,1.11v.07h-.28v-.06a1.57,1.57,0,0,0-.11-.38.47.47,0,0,0-.16-.22h0a.7.7,0,0,0-.26-.12h0a1.89,1.89,0,0,0-.44,0H90.11l-.08,0h0a.15.15,0,0,0,0,.07.87.87,0,0,0,0,.18v1.35a.34.34,0,0,0,0,.11.1.1,0,0,0,0,0h1.15a3.14,3.14,0,0,0,.48,0,.76.76,0,0,0,.25-.1h0A.41.41,0,0,0,92,45a1,1,0,0,0,0-.33v-.06h.28v1.86h-.28v-.07A1.09,1.09,0,0,0,92,46a.39.39,0,0,0-.12-.19h0a.45.45,0,0,0-.24-.1,2.21,2.21,0,0,0-.48,0H90a0,0,0,0,0,0,0h0a.41.41,0,0,0,0,.12v1.5a.62.62,0,0,0,0,.21h0s0,.09,0,.1h0a.13.13,0,0,0,.07,0h1.33a3.39,3.39,0,0,0,.6,0,1.15,1.15,0,0,0,.4-.15,1.06,1.06,0,0,0,.28-.28,2.55,2.55,0,0,0,.25-.47l0-.07.07,0,.14.07.05,0,0,0-.4,1.23v.05H88.32Zm5.5,0v-.21h.06a1.79,1.79,0,0,0,.36,0,.56.56,0,0,0,.19-.09h0a.34.34,0,0,0,.09-.17h0a1.3,1.3,0,0,0,0-.31V44a1.3,1.3,0,0,0,0-.31.39.39,0,0,0-.09-.17,1,1,0,0,0-.2-.09l-.35,0h-.06v-.28h2.42v.28h-.06a1.64,1.64,0,0,0-.36,0,.37.37,0,0,0-.19.09.31.31,0,0,0-.09.16,1.35,1.35,0,0,0,0,.31v3.37a1.42,1.42,0,0,0,0,.31.26.26,0,0,0,.1.16h0a.37.37,0,0,0,.19.09,1.16,1.16,0,0,0,.35,0h.06v.28H93.82Zm6-5v.22h-.06a1.51,1.51,0,0,0-.34,0,.38.38,0,0,0-.19.1.5.5,0,0,0-.1.18,1.69,1.69,0,0,0,0,.35V46.7a2.4,2.4,0,0,1-.09.69,1.53,1.53,0,0,1-.26.51h0a1.16,1.16,0,0,1-.44.32,1.55,1.55,0,0,1-.59.11,1.46,1.46,0,0,1-.38,0,1,1,0,0,1-.31-.16.59.59,0,0,1-.21-.24.61.61,0,0,1-.08-.3.32.32,0,0,1,0-.14.38.38,0,0,1,.09-.13.33.33,0,0,1,.13-.07.41.41,0,0,1,.16,0,.4.4,0,0,1,.15,0h0a.24.24,0,0,1,.13.07h0a.38.38,0,0,1,.11.11.83.83,0,0,1,.09.16h0l0,.05a.51.51,0,0,0,.13.21h0a.17.17,0,0,0,.12.06.22.22,0,0,0,.12,0,.16.16,0,0,0,.08-.06.28.28,0,0,0,.05-.11h0a.9.9,0,0,0,0-.18V44a1.16,1.16,0,0,0,0-.35.37.37,0,0,0-.09-.19h0a.46.46,0,0,0-.2-.09,1.28,1.28,0,0,0-.36,0h-.07v-.28h2.41Zm.64,5v-.21h.07a1.69,1.69,0,0,0,.35,0,.48.48,0,0,0,.19-.09h0a.34.34,0,0,0,.09-.17h0a.93.93,0,0,0,0-.31V44a.93.93,0,0,0,0-.31.39.39,0,0,0-.09-.17.85.85,0,0,0-.19-.09l-.35,0h-.07v-.28h2.42v.28h-.06a1.54,1.54,0,0,0-.35,0,.41.41,0,0,0-.2.09.31.31,0,0,0-.09.16,1.35,1.35,0,0,0,0,.31v3.37a1,1,0,0,0,0,.31.31.31,0,0,0,.09.16h0a.37.37,0,0,0,.19.09,1.16,1.16,0,0,0,.35,0h.06v.28h-2.42Zm4.25-.84a1.55,1.55,0,0,0,0,.33h0a.3.3,0,0,0,.08.16h0a.49.49,0,0,0,.19.08,1.55,1.55,0,0,0,.36.05h.06v.28h-1.94v-.28h.06a1.55,1.55,0,0,0,.36-.05.43.43,0,0,0,.19-.08h0a.31.31,0,0,0,.09-.16,1.55,1.55,0,0,0,0-.33V43.81a.72.72,0,0,0-.14-.19,1.06,1.06,0,0,0-.15-.15h0l-.17-.08a.8.8,0,0,0-.21,0h-.06v-.28h1.39l0,0,2.86,3.43V44a1.39,1.39,0,0,0,0-.32.34.34,0,0,0-.09-.17.43.43,0,0,0-.18-.08l-.36,0h-.06v-.28H109v.28h-.06a2.6,2.6,0,0,0-.36,0,.37.37,0,0,0-.19.09.34.34,0,0,0-.08.16,1.39,1.39,0,0,0,0,.32v4.25H108l0,0-3.27-3.91Zm9.84.4a4.82,4.82,0,0,1-.5.27,4.5,4.5,0,0,1-.51.2h0l-.54.12h0a4.91,4.91,0,0,1-.55,0,3.31,3.31,0,0,1-1.13-.18,2.55,2.55,0,0,1-.91-.55,2.31,2.31,0,0,1-.58-.84h0a2.78,2.78,0,0,1-.2-1.06,3,3,0,0,1,.2-1.1,2.38,2.38,0,0,1,.6-.88,2.53,2.53,0,0,1,.9-.58A3.17,3.17,0,0,1,112.5,43a2.77,2.77,0,0,1,.49,0,2.11,2.11,0,0,1,.48.12l.36.11h0l.14,0h0a.1.1,0,0,0,0,0h0l.05-.07,0-.1v0h.24v.07l.08,1.54v.07h-.27v0a2.85,2.85,0,0,0-.3-.58,1.44,1.44,0,0,0-.35-.38,1.25,1.25,0,0,0-.43-.22,2.17,2.17,0,0,0-1.34.08,1.69,1.69,0,0,0-.6.47h0a2,2,0,0,0-.4.72,3.26,3.26,0,0,0-.13.93,3,3,0,0,0,.14.94,2.08,2.08,0,0,0,.39.72,1.7,1.7,0,0,0,.62.46,1.87,1.87,0,0,0,.8.16,1.55,1.55,0,0,0,.31,0h0a1.63,1.63,0,0,0,.3-.07l.27-.12.2-.14V46.23a1.42,1.42,0,0,0,0-.33h0a.3.3,0,0,0-.07-.15h0a.53.53,0,0,0-.19-.06l-.4,0h-.07v-.29h2.28v.29h-.06a1.12,1.12,0,0,0-.29,0h0a.35.35,0,0,0-.15.07h0a.2.2,0,0,0-.07.14,1.12,1.12,0,0,0,0,.29v1.5Zm2.59-4.42v-.22h2.37v.28h-.07a1.41,1.41,0,0,0-.33,0,.34.34,0,0,0-.27.3,1.83,1.83,0,0,0,0,.37v2.16a3.25,3.25,0,0,0,.08.75,1.23,1.23,0,0,0,.26.51.91.91,0,0,0,.42.3,1.71,1.71,0,0,0,.62.11,1.84,1.84,0,0,0,.65-.11,1.22,1.22,0,0,0,.48-.33,1.26,1.26,0,0,0,.29-.52,2.14,2.14,0,0,0,.11-.7V44.07a1.82,1.82,0,0,0,0-.37.51.51,0,0,0-.1-.21h0a.43.43,0,0,0-.19-.1,1.13,1.13,0,0,0-.35,0H121v-.28h1.91v.28h-.06a.85.85,0,0,0-.3,0h0a.4.4,0,0,0-.18.11.51.51,0,0,0-.09.21,1.28,1.28,0,0,0,0,.36v2.06a2.25,2.25,0,0,1-.55,1.65,1.76,1.76,0,0,1-.68.43,3,3,0,0,1-.94.14,2.78,2.78,0,0,1-.51,0,3.11,3.11,0,0,1-.46-.1,2.1,2.1,0,0,1-.4-.18,1.5,1.5,0,0,1-.31-.24h0a1.18,1.18,0,0,1-.22-.28h0a1.84,1.84,0,0,1-.15-.35h0a1.65,1.65,0,0,1-.08-.42,4.33,4.33,0,0,1,0-.53V44.32a2.7,2.7,0,0,0,0-.54.57.57,0,0,0-.1-.28h0a.32.32,0,0,0-.19-.11,1.06,1.06,0,0,0-.34,0h-.07Zm7.51,4a1.55,1.55,0,0,0,0,.33.4.4,0,0,0,.08.16.49.49,0,0,0,.19.08,1.73,1.73,0,0,0,.36.05h.06v.28h-1.94v-.28h.07a1.54,1.54,0,0,0,.35-.05.55.55,0,0,0,.2-.08h0a.4.4,0,0,0,.08-.16,1.55,1.55,0,0,0,0-.33V43.81a1,1,0,0,0-.13-.19.75.75,0,0,0-.16-.15h0l-.17-.08h0a.65.65,0,0,0-.21,0h-.06v-.28h1.39l0,0,2.85,3.43V44a1.39,1.39,0,0,0,0-.32.45.45,0,0,0-.08-.17.49.49,0,0,0-.19-.08,2.39,2.39,0,0,0-.36,0H127v-.28h1.93v.28h-.06l-.36,0a.43.43,0,0,0-.18.08.34.34,0,0,0-.09.17,1.39,1.39,0,0,0,0,.32v4.25H128l0,0-3.27-3.91Zm4.82.84v-.21h.07a1.69,1.69,0,0,0,.35,0,.48.48,0,0,0,.19-.09h0a.45.45,0,0,0,.1-.17h0a1.35,1.35,0,0,0,0-.31V44a.93.93,0,0,0,0-.31.39.39,0,0,0-.09-.17.77.77,0,0,0-.2-.09l-.34,0h-.07v-.28h2.42v.28h-.06a1.54,1.54,0,0,0-.35,0,.41.41,0,0,0-.2.09.31.31,0,0,0-.09.16,1.35,1.35,0,0,0,0,.31v3.37a1.42,1.42,0,0,0,0,.31.4.4,0,0,0,.1.16h0a.37.37,0,0,0,.19.09,1.16,1.16,0,0,0,.35,0h.06v.28H129.5Zm5.66.15-1.79-4.09a3.4,3.4,0,0,0-.22-.43h0a1,1,0,0,0-.18-.26.55.55,0,0,0-.19-.12.51.51,0,0,0-.22,0h-.06v-.28h2.26v.28h-.06l-.3,0a.46.46,0,0,0-.16,0,.12.12,0,0,0-.06.06h0a.2.2,0,0,0,0,.09,1.44,1.44,0,0,0,.08.28q.08.23.24.6c.1.25.25.59.44,1l.63,1.38L136.81,44l.06-.14h0s0-.09,0-.13,0-.07,0-.1a.15.15,0,0,0,0-.06.31.31,0,0,0,0-.11l-.07-.07h0a.64.64,0,0,0-.15-.05l-.27,0h-.06v-.28H138v.28H138l-.16,0a.71.71,0,0,0-.14.1,1.45,1.45,0,0,0-.15.21l-.18.37h0l-1.89,4.23,0,0h-.24Zm3.31-.15v-.21h.06a1.73,1.73,0,0,0,.36,0,.37.37,0,0,0,.19-.09h0a.31.31,0,0,0,.09-.16h0a1,1,0,0,0,0-.32V44a.93.93,0,0,0,0-.31h0a.39.39,0,0,0-.09-.17h0a.49.49,0,0,0-.19-.08,1.55,1.55,0,0,0-.36,0h-.06v-.28h4.42v.06l.07,1.11v.07h-.27v-.06a2.21,2.21,0,0,0-.11-.38.55.55,0,0,0-.16-.22h0a.7.7,0,0,0-.26-.12h0a1.92,1.92,0,0,0-.45,0h-1.44l-.08,0h0a.15.15,0,0,0,0,.07.87.87,0,0,0,0,.18v1.35a.31.31,0,0,0,0,.11h0s0,0,0,0h1.15a3,3,0,0,0,.47,0,.74.74,0,0,0,.26-.1h0a.33.33,0,0,0,.11-.18.81.81,0,0,0,.06-.33v-.06h.29v1.86h-.28v-.07a1.49,1.49,0,0,0-.06-.34.39.39,0,0,0-.12-.19h0a.45.45,0,0,0-.25-.1,2.05,2.05,0,0,0-.47,0h-1.15s0,0,0,0a.41.41,0,0,0,0,.12v1.5a1.22,1.22,0,0,0,0,.21h0a.25.25,0,0,0,0,.1h0a.16.16,0,0,0,.08,0h1.33a3.47,3.47,0,0,0,.6,0,1.15,1.15,0,0,0,.4-.15.91.91,0,0,0,.27-.28,2.06,2.06,0,0,0,.25-.47l0-.07.06,0,.14.07.05,0v0l-.4,1.23v.05h-4.51Zm7.19-2.73a.15.15,0,0,0,0,.07s0,0,0,0h.11a3.55,3.55,0,0,0,.77-.07,1.37,1.37,0,0,0,.5-.19h0a.77.77,0,0,0,.29-.33,1.19,1.19,0,0,0,.09-.49,1.06,1.06,0,0,0-.08-.45.76.76,0,0,0-.23-.3,1.16,1.16,0,0,0-.42-.18,2.77,2.77,0,0,0-.62-.06l-.26,0a.23.23,0,0,0-.11,0h0s0,0,0,.08a.53.53,0,0,0,0,.19ZM144,48.14v-.22h.16a1.26,1.26,0,0,0,.3,0,.32.32,0,0,0,.17-.1.39.39,0,0,0,.1-.18,1.55,1.55,0,0,0,0-.33V43.91a.58.58,0,0,0-.13-.45.55.55,0,0,0-.2-.08l-.37,0H144v-.28h2.61a3.41,3.41,0,0,1,.76.08,1.67,1.67,0,0,1,.57.26h0a1.17,1.17,0,0,1,.36.44,1.34,1.34,0,0,1,.12.58,1.19,1.19,0,0,1-.09.47,1,1,0,0,1-.25.39,1.35,1.35,0,0,1-.4.3,3,3,0,0,1-.45.17c.29.38.56.71.79,1s.44.52.6.68a3.27,3.27,0,0,0,.41.38h0a.6.6,0,0,0,.25.13h.06v.28H148.1l0,0-.48-.53c-.15-.17-.31-.36-.46-.55s-.32-.39-.47-.59l-.46-.59h-.5l0,0h0s0,0,0,0h0s0,0,0,.06v1.24a1.55,1.55,0,0,0,0,.33.5.5,0,0,0,.1.18.49.49,0,0,0,.19.1,1.55,1.55,0,0,0,.33,0h.13v.29H144Zm6.23.12-.28-1.62v-.08h.27l0,0a3,3,0,0,0,.29.57,2.44,2.44,0,0,0,.35.42h0a1.61,1.61,0,0,0,.4.26,1.15,1.15,0,0,0,.41.08,1,1,0,0,0,.35-.06,1,1,0,0,0,.28-.18.68.68,0,0,0,.18-.26.71.71,0,0,0,.07-.32,1,1,0,0,0,0-.25h0a.94.94,0,0,0-.13-.24,1.52,1.52,0,0,0-.22-.22h0a2,2,0,0,0-.32-.22h0l-.78-.48h0a3.51,3.51,0,0,1-.45-.3,1.79,1.79,0,0,1-.3-.33,1.29,1.29,0,0,1-.18-.35,1.35,1.35,0,0,1-.06-.41,1.33,1.33,0,0,1,.11-.54h0a1.16,1.16,0,0,1,.32-.44A1.56,1.56,0,0,1,151,43a2,2,0,0,1,.61-.09l.33,0,.34.08h0l.27.09.11,0h.05l0,0h0l0,0h0s0-.05,0-.08V43H153V43l.17,1.51v.08H153v-.05a2.91,2.91,0,0,0-.24-.53,1.47,1.47,0,0,0-.31-.38h0a1.08,1.08,0,0,0-.34-.23,1,1,0,0,0-.39-.07,1,1,0,0,0-.32,0h0a.92.92,0,0,0-.25.15.69.69,0,0,0-.16.22h0a.76.76,0,0,0-.05.27.59.59,0,0,0,0,.23h0a.56.56,0,0,0,.11.2,1,1,0,0,0,.21.21,2.35,2.35,0,0,0,.33.23l.87.51h0a3.66,3.66,0,0,1,.46.33,1.88,1.88,0,0,1,.31.33,1.33,1.33,0,0,1,.17.36,1.42,1.42,0,0,1,.05.42,1.54,1.54,0,0,1-.11.61,1.32,1.32,0,0,1-.34.47h0a1.62,1.62,0,0,1-.54.31,2.37,2.37,0,0,1-.68.1,2.19,2.19,0,0,1-.36,0l-.37-.07-.28-.08-.1,0h-.08l0,0h0l0,0s0,0,0,.06v.05h-.24Zm4-.12v-.21h.06a1.79,1.79,0,0,0,.36,0,.56.56,0,0,0,.19-.09h0a.34.34,0,0,0,.09-.17h0a1.3,1.3,0,0,0,0-.31V44a1.3,1.3,0,0,0,0-.31.39.39,0,0,0-.09-.17,1,1,0,0,0-.2-.09h0l-.35,0h-.06v-.28h2.42v.28h-.06a1.64,1.64,0,0,0-.36,0,.37.37,0,0,0-.19.09.31.31,0,0,0-.09.16,1.35,1.35,0,0,0,0,.31v3.37a1.42,1.42,0,0,0,0,.31.31.31,0,0,0,.09.16h0a.46.46,0,0,0,.2.09,1.16,1.16,0,0,0,.35,0h.06v.28h-2.42Zm4.13,0v-.22h.07a.88.88,0,0,0,.57-.12.37.37,0,0,0,.09-.19,2,2,0,0,0,0-.39V43.64a.27.27,0,0,0,0-.11h0v0h-.35a3.28,3.28,0,0,0-.6.05.82.82,0,0,0-.35.14.66.66,0,0,0-.19.28,1.71,1.71,0,0,0-.11.47v.06h-.28v-.07l0-1.29v-.06H162v1.42h-.28v-.06a1.92,1.92,0,0,0-.1-.48.54.54,0,0,0-.18-.27.72.72,0,0,0-.36-.14,4.25,4.25,0,0,0-.69-.05h-.25v0h0a.34.34,0,0,0,0,.11v3.55a2.26,2.26,0,0,0,0,.42.46.46,0,0,0,.1.2.48.48,0,0,0,.2.08,1.83,1.83,0,0,0,.37,0h.06v.28h-2.47Zm5.68,0v-.22h.11a.74.74,0,0,0,.49-.12h0a.29.29,0,0,0,.1-.16,1.11,1.11,0,0,0,0-.28V46l-1.64-2.28a.8.8,0,0,0-.15-.17.91.91,0,0,0-.16-.11h0a.84.84,0,0,0-.19-.07l-.22,0h-.07v-.28h2.46v.27h-.06l-.28,0-.16,0-.08.05h0s0,0,0,0a.22.22,0,0,0,0,.1h0a.38.38,0,0,0,.09.16v0h0l1.14,1.63,1-1.48h0l.12-.18h0a.54.54,0,0,1,.07-.12.25.25,0,0,0,0-.07.13.13,0,0,0,0-.1h0l-.06,0h0l-.15,0-.26,0h-.06v-.28h1.71v.28h-.07l-.19,0-.17.08h0a.9.9,0,0,0-.17.17,2.54,2.54,0,0,0-.21.28l-1.33,2v1.51a.55.55,0,0,0,0,.24h0a.32.32,0,0,0,.09.15h0a.64.64,0,0,0,.2.08,1.79,1.79,0,0,0,.36,0h.06v.28h-2.42Zm-.9-4.42h0M171,45.63a4,4,0,0,0,.11,1,2.28,2.28,0,0,0,.34.72,1.53,1.53,0,0,0,.53.46,1.64,1.64,0,0,0,1.37,0,1.53,1.53,0,0,0,.53-.46,2.28,2.28,0,0,0,.34-.72h0a4.2,4.2,0,0,0,0-1.91,2.39,2.39,0,0,0-.34-.72,1.5,1.5,0,0,0-.53-.45h0a1.64,1.64,0,0,0-1.37,0,1.5,1.5,0,0,0-.53.45,2.39,2.39,0,0,0-.34.72,3.93,3.93,0,0,0-.11,1Zm-1,0a2.9,2.9,0,0,1,.19-1.09,2.41,2.41,0,0,1,.54-.86,2.49,2.49,0,0,1,.85-.55,3.1,3.1,0,0,1,1.08-.18,3.16,3.16,0,0,1,1.09.18,2.49,2.49,0,0,1,.85.55,2.58,2.58,0,0,1,.55.86,3.12,3.12,0,0,1,.18,1.09,3.17,3.17,0,0,1-.18,1.1,2.69,2.69,0,0,1-.55.86,2.49,2.49,0,0,1-.85.55,2.94,2.94,0,0,1-1.09.19,2.85,2.85,0,0,1-1.08-.19,2.49,2.49,0,0,1-.85-.55h0a2.5,2.5,0,0,1-.54-.86,3,3,0,0,1-.19-1.1Zm6.08,2.51v-.21h.06a1.73,1.73,0,0,0,.37,0h0a.49.49,0,0,0,.19-.08.3.3,0,0,0,.08-.16,1.32,1.32,0,0,0,0-.32V44a1.39,1.39,0,0,0,0-.32.32.32,0,0,0-.1-.17h0a.37.37,0,0,0-.19-.09h0a1.69,1.69,0,0,0-.35,0h-.06v-.29h4.29v.06l.08,1.18v.07h-.28v0a1.68,1.68,0,0,0-.12-.41h0a.7.7,0,0,0-.18-.25.81.81,0,0,0-.28-.13,1.92,1.92,0,0,0-.45,0H178a.44.44,0,0,0-.17,0,.19.19,0,0,0-.09,0h0a.22.22,0,0,0-.05.08.61.61,0,0,0,0,.15v1.36s0,.09,0,.12,0,0,0,.05h.81a2,2,0,0,0,.46,0,.52.52,0,0,0,.26-.1h0a.41.41,0,0,0,.12-.18,1.49,1.49,0,0,0,0-.33v-.06h.28v1.91h-.28v-.06a1.68,1.68,0,0,0-.06-.38h0a.53.53,0,0,0-.11-.2.61.61,0,0,0-.24-.1,3,3,0,0,0-.47,0h-.77a.05.05,0,0,0,0,0h0s0,0,0,0,0,0,0,.09V47.3a1.23,1.23,0,0,0,0,.31.4.4,0,0,0,.11.18.51.51,0,0,0,.21.1h0a1.94,1.94,0,0,0,.38,0h.06v.28H176Zm7.38,0v-.22h.07a.88.88,0,0,0,.57-.12.37.37,0,0,0,.09-.19,2,2,0,0,0,0-.39V43.64s0-.09,0-.11h0v0h-.35a3.28,3.28,0,0,0-.6.05.88.88,0,0,0-.35.14.76.76,0,0,0-.19.28,1.74,1.74,0,0,0-.1.47v.06h-.28v-.07l0-1.29v-.06H187v1.42h-.29v-.06a1.92,1.92,0,0,0-.1-.48.6.6,0,0,0-.17-.27.77.77,0,0,0-.36-.14,4.39,4.39,0,0,0-.7-.05h-.25v0h0a.34.34,0,0,0,0,.11v3.55a1.56,1.56,0,0,0,0,.42.37.37,0,0,0,.09.2.48.48,0,0,0,.2.08,1.9,1.9,0,0,0,.37,0h.06v.28h-2.47Zm4,0v-.21h.06a1.69,1.69,0,0,0,.35,0,.41.41,0,0,0,.2-.09h0a.31.31,0,0,0,.09-.16h0a1.45,1.45,0,0,0,0-.32V44a1.35,1.35,0,0,0,0-.31.39.39,0,0,0-.09-.17h0a.55.55,0,0,0-.2-.08,1.55,1.55,0,0,0-.36,0h-.06v-.28h4.42v.06l.06,1.11v.07h-.28v-.06a1.6,1.6,0,0,0-.1-.38.66.66,0,0,0-.16-.22h0a.85.85,0,0,0-.27-.12h0a1.89,1.89,0,0,0-.44,0h-1.45l-.07,0h0s0,0,0,.07a.74.74,0,0,0,0,.18v1.35a.34.34,0,0,0,0,.11.1.1,0,0,0,0,0h1.15a3.14,3.14,0,0,0,.48,0,.67.67,0,0,0,.25-.1h0a.41.41,0,0,0,.12-.18,1.39,1.39,0,0,0,.06-.33v-.06h.28v1.86h-.28v-.07a1.49,1.49,0,0,0-.06-.34.39.39,0,0,0-.12-.19h0a.41.41,0,0,0-.24-.1,2.15,2.15,0,0,0-.48,0h-1.15v0h0a.41.41,0,0,0,0,.12v1.5a1.06,1.06,0,0,0,0,.21h0s0,.09,0,.1h0a.13.13,0,0,0,.07,0h1.34a3.54,3.54,0,0,0,.6,0,1.18,1.18,0,0,0,.39-.15.93.93,0,0,0,.28-.28,2.55,2.55,0,0,0,.25-.47l0-.07.06,0,.14.07,0,0,0,0L192,48.16l0,.05h-4.51Zm10.34-1.2.12.13,0,0,0,0a3.35,3.35,0,0,1-.46.52A2.54,2.54,0,0,1,197,48a2.23,2.23,0,0,1-.58.21,2.61,2.61,0,0,1-.64.08,3.12,3.12,0,0,1-1.09-.18,2.49,2.49,0,0,1-.86-.55h0a2.35,2.35,0,0,1-.55-.85,2.85,2.85,0,0,1-.19-1.08,3.06,3.06,0,0,1,.19-1.08,2.55,2.55,0,0,1,.58-.88,2.73,2.73,0,0,1,.87-.57A2.94,2.94,0,0,1,195.8,43l.47,0,.47.12.37.1.15,0h.07l.06,0,0-.06h0a.19.19,0,0,0,0-.08V43h.27V43l.15,1.63v.07h-.28v0a2.69,2.69,0,0,0-.26-.59h0a1.89,1.89,0,0,0-.36-.42h0a1.48,1.48,0,0,0-.46-.25,1.69,1.69,0,0,0-.56-.09,1.79,1.79,0,0,0-.75.15,1.66,1.66,0,0,0-.59.47h0a2.05,2.05,0,0,0-.39.73,3,3,0,0,0-.13.93,2.9,2.9,0,0,0,.13.91,1.94,1.94,0,0,0,.39.72,1.63,1.63,0,0,0,.58.47,1.66,1.66,0,0,0,.72.15,2.87,2.87,0,0,0,.52-.05,2.09,2.09,0,0,0,.46-.17,1.91,1.91,0,0,0,.43-.29,3.45,3.45,0,0,0,.42-.43l.05-.06Zm.59,1.2v-.21h.06a1.79,1.79,0,0,0,.36,0,.42.42,0,0,0,.19-.09.34.34,0,0,0,.09-.17,1.35,1.35,0,0,0,0-.31V44a1.35,1.35,0,0,0,0-.31.4.4,0,0,0-.1-.17.48.48,0,0,0-.19-.09,1.69,1.69,0,0,0-.35,0h-.07v-.28h2.41v.28h-.07a1.54,1.54,0,0,0-.35,0,.34.34,0,0,0-.19.09.31.31,0,0,0-.09.16h0a.93.93,0,0,0,0,.31V45.2s0,.07,0,.1h0s0,0,0,0l0,0h2.3l0,0s0,0,0,0,0-.07,0-.12V44a1.21,1.21,0,0,0,0-.3h0a.34.34,0,0,0-.09-.17h0a.42.42,0,0,0-.19-.09,1.64,1.64,0,0,0-.36,0h-.06v-.28h2.41v.28h-.06l-.35,0a.37.37,0,0,0-.19.09h0a.35.35,0,0,0-.1.17,1.3,1.3,0,0,0,0,.31v3.37a1.26,1.26,0,0,0,0,.3.31.31,0,0,0,.1.17.37.37,0,0,0,.19.09h0a1.16,1.16,0,0,0,.35,0h.06v.28h-2.41v-.28h.06a1.28,1.28,0,0,0,.36,0,.42.42,0,0,0,.19-.09h0a.31.31,0,0,0,.09-.16,1.23,1.23,0,0,0,0-.31V45.94s0-.07,0-.1,0,0,0,0h-2.33l0,0s0,0,0,0h0s0,.06,0,.09v1.38a.93.93,0,0,0,0,.31.31.31,0,0,0,.09.16h0a.49.49,0,0,0,.19.08,1.16,1.16,0,0,0,.35,0h.07v.28h-2.41Zm7.49-.84a1.55,1.55,0,0,0,0,.33.31.31,0,0,0,.09.16h0a.43.43,0,0,0,.19.08,1.55,1.55,0,0,0,.36.05h.06v.28h-1.94v-.28h.06a1.55,1.55,0,0,0,.36-.05.49.49,0,0,0,.19-.08.4.4,0,0,0,.08-.16h0a1.55,1.55,0,0,0,0-.33V43.81a.7.7,0,0,0-.13-.19,1.06,1.06,0,0,0-.15-.15h0a1,1,0,0,0-.18-.08.65.65,0,0,0-.2,0h-.06v-.28h1.39l0,0L209,46.51V44a1.39,1.39,0,0,0,0-.32.34.34,0,0,0-.08-.17.49.49,0,0,0-.19-.08l-.35,0h-.07v-.28h1.94v.28h-.06a2.39,2.39,0,0,0-.36,0,.37.37,0,0,0-.19.09.27.27,0,0,0-.08.16h0a1,1,0,0,0,0,.32v4.25h-.25l0,0-3.27-3.91Zm5.92-1.67a3.5,3.5,0,0,0,.12,1,2.08,2.08,0,0,0,.34.72,1.39,1.39,0,0,0,1.2.61,1.42,1.42,0,0,0,1.22-.61,2.28,2.28,0,0,0,.34-.72,4.2,4.2,0,0,0,0-1.91,2.39,2.39,0,0,0-.34-.72,1.5,1.5,0,0,0-.53-.45h0a1.64,1.64,0,0,0-1.37,0,1.47,1.47,0,0,0-.52.45,2.17,2.17,0,0,0-.34.72,3.48,3.48,0,0,0-.12,1Zm-1,0a3.11,3.11,0,0,1,.19-1.09,2.41,2.41,0,0,1,.54-.86,2.44,2.44,0,0,1,.86-.55h0a3,3,0,0,1,1.07-.18,3.08,3.08,0,0,1,1.09.18,2.49,2.49,0,0,1,.85.55,2.44,2.44,0,0,1,.55.86,3.12,3.12,0,0,1,.18,1.09,3.17,3.17,0,0,1-.18,1.1,2.53,2.53,0,0,1-.55.86,2.49,2.49,0,0,1-.85.55,2.86,2.86,0,0,1-1.09.19,2.83,2.83,0,0,1-1.07-.19,2.44,2.44,0,0,1-.86-.55h0a2.5,2.5,0,0,1-.54-.86,3.17,3.17,0,0,1-.19-1.1Zm6.08,2.51v-.22H217a1.35,1.35,0,0,0,.31,0,.39.39,0,0,0,.18-.1h0a.42.42,0,0,0,.1-.2,1.79,1.79,0,0,0,0-.36V44a1.58,1.58,0,0,0,0-.34h0a.3.3,0,0,0-.09-.17h0a.49.49,0,0,0-.19-.08,1.69,1.69,0,0,0-.35,0h-.06v-.28h2.42v.28h-.1a1,1,0,0,0-.32,0,.42.42,0,0,0-.19.09.52.52,0,0,0-.1.18,1.37,1.37,0,0,0,0,.31v3.38a.93.93,0,0,0,0,.26.17.17,0,0,0,.17.16h0l.24,0h.87a1.88,1.88,0,0,0,.49-.06,1.17,1.17,0,0,0,.39-.18h0a1,1,0,0,0,.31-.3h0a1.69,1.69,0,0,0,.25-.44l0,0h.28l0,.08-.42,1.32v.05H216.9Zm6.18-2.51a3.5,3.5,0,0,0,.12,1,2.08,2.08,0,0,0,.34.72,1.51,1.51,0,0,0,.52.46,1.49,1.49,0,0,0,1.9-.46,2.28,2.28,0,0,0,.34-.72h0a4.2,4.2,0,0,0,0-1.91A2.39,2.39,0,0,0,226,44a1.5,1.5,0,0,0-.53-.45h0a1.64,1.64,0,0,0-1.37,0,1.47,1.47,0,0,0-.52.45,2.17,2.17,0,0,0-.34.72,3.48,3.48,0,0,0-.12,1Zm-1,0a3.11,3.11,0,0,1,.19-1.09,2.4,2.4,0,0,1,1.4-1.41,3.06,3.06,0,0,1,1.08-.18,3.1,3.1,0,0,1,1.08.18,2.4,2.4,0,0,1,.85.55,2.44,2.44,0,0,1,.55.86,3.12,3.12,0,0,1,.18,1.09,3.17,3.17,0,0,1-.18,1.1,2.53,2.53,0,0,1-.55.86,2.4,2.4,0,0,1-.85.55,3.16,3.16,0,0,1-2.16,0,2.31,2.31,0,0,1-.85-.55h0a2.39,2.39,0,0,1-.55-.86,3.17,3.17,0,0,1-.19-1.1Zm11.16,2.07a4.09,4.09,0,0,1-1,.47h0a4.54,4.54,0,0,1-.53.12,4.91,4.91,0,0,1-.55,0,3.41,3.41,0,0,1-1.14-.18,2.6,2.6,0,0,1-.9-.55,2.19,2.19,0,0,1-.58-.84h0a2.78,2.78,0,0,1-.2-1.06,3,3,0,0,1,.2-1.1,2.48,2.48,0,0,1,.59-.88,2.66,2.66,0,0,1,.91-.58,3.15,3.15,0,0,1,1.13-.19,2.63,2.63,0,0,1,.49,0,2.07,2.07,0,0,1,.49.12h0l.36.11.13,0h.06l.05,0h0a.43.43,0,0,0,0-.07.3.3,0,0,0,0-.1v0h.24v.07l.08,1.54v.07h-.26l0,0a3.47,3.47,0,0,0-.29-.58h0a1.63,1.63,0,0,0-.35-.38,1.35,1.35,0,0,0-.43-.22,2,2,0,0,0-.56-.07,1.94,1.94,0,0,0-.78.15,1.82,1.82,0,0,0-.61.47h0a2.08,2.08,0,0,0-.39.72,2.94,2.94,0,0,0-.13.93,3.05,3.05,0,0,0,.13.94,2,2,0,0,0,.4.72,1.62,1.62,0,0,0,.62.46,1.83,1.83,0,0,0,.79.16,1.66,1.66,0,0,0,.32,0h0a1.63,1.63,0,0,0,.3-.07l.27-.12a1.33,1.33,0,0,0,.19-.14V46.23a1.42,1.42,0,0,0,0-.33.23.23,0,0,0-.07-.15h0a.41.41,0,0,0-.19-.06l-.4,0h-.06v-.29h2.28v.29h-.07a1.23,1.23,0,0,0-.29,0h0a.35.35,0,0,0-.15.07.26.26,0,0,0-.07.14,1.12,1.12,0,0,0,0,.29v1.5Zm2.11.44v-.22h.1a.78.78,0,0,0,.5-.12h0a.49.49,0,0,0,.1-.16,1.14,1.14,0,0,0,0-.28V46l-1.63-2.28-.15-.17a.91.91,0,0,0-.16-.11h0l-.19-.07-.23,0h-.06v-.28h2.45v.27h-.06l-.27,0-.17,0-.07.05a.05.05,0,0,0,0,0,.54.54,0,0,0,0,.1h0a.89.89,0,0,0,.09.16l0,0h0l1.14,1.63,1-1.48h0l.12-.18.07-.12a.13.13,0,0,0,0-.07.09.09,0,0,0,0-.05s0,0,0,0l-.06,0h0a.39.39,0,0,0-.15,0h0l-.25,0h-.06v-.28h1.7v.28h-.06l-.19,0-.17.08h0a.9.9,0,0,0-.17.17,1.7,1.7,0,0,0-.21.28l-1.33,2v1.51a.78.78,0,0,0,0,.24.44.44,0,0,0,.1.15h0a.64.64,0,0,0,.2.08,1.69,1.69,0,0,0,.35,0h.07v.28h-2.42Zm-.9-4.42h0"/><path class="cls-1" d="M223.65,14.51l0,.05c.55-.06,3-.15,3.27-.46a3.44,3.44,0,0,0,0-1.75c-.45-1.12-2.65-3.73-4.1-3.78l-.23.18c-.39,1.54.67,3.31,1.42,4.19a6.44,6.44,0,0,0-.36,1.57ZM100.8,25c0-.14-.1-.27-.14-.41.57-1.4,1.57-2.76,2.07-4.1a7.24,7.24,0,0,1,.51-1.61c.74-1.12,3-1.33,3.45-2.68a2,2,0,0,0-.46-2c-.27-.18-.72-.07-.87-.36-.31-.58.5-1.61.69-2,1.12-2.22.23-6.68-2.26-6.68-.58.32-1.51,1-1.66,1.7,0,.54,0,1.07,0,1.61-.53,1.71-1.23,3.73-1.89,5.39a15.77,15.77,0,0,1-1.06,2.81,7.48,7.48,0,0,1-2.21,2l-.6.28-.09.51a2.62,2.62,0,0,0,1.19.32c.41.68-.22,1.44-.46,2.07-.64,1.71-3,5.54-.92,7.09a1.75,1.75,0,0,0,1.66.23l2.39-.92c1.53-.44,4.11-.48,4.47-2a1.21,1.21,0,0,0-.27-1c-1.12-1.71-2.11-.14-3.5-.28Zm19-2.07a1.05,1.05,0,0,0-1.1-.6l-.55.14c-.82.42-.56,2-1.34,2.39L116,25c-.62.3-1.37.64-2,1-1.59.92-3.06,2.14-4.61,3.08L107.8,30l-.83.73c-.46.26-1,.24-1.38.6a2.6,2.6,0,0,0,3.68,2.81,16.58,16.58,0,0,0,3-3.82c.37-.21.82-.06,1.38-.18a8.91,8.91,0,0,1,3.45-.33c.9.14,2.21.46,2.58-.18.7-1.22-.09-3-.09-4.29,0-.73.49-1.81.18-2.39Zm-5,5.3c-.52-.44,1.61-1.75,2-2,1.38.09-1,2.38-2,2Zm10.64-4.93c-.71-1-1.13-2.18-2.81-2.17l-.27.23a5.22,5.22,0,0,0,0,1.89c.1.59-.26,1-.14,1.48l.41.64a5.11,5.11,0,0,0,1.94,2.49c1.28,0,2.81-1.21,2.21-2.72a8.14,8.14,0,0,0-1.34-1.84ZM90.62,1.66c-1.36.75-.63,2.21-.33,3.45l-.18,2.21c-.51,3-1.27,6.78-1,10.28,0,1.07,0,2.15,0,3.22a17.38,17.38,0,0,1,.23,4.7c-.27.95-1.34,1.31-1.84,2a17.31,17.31,0,0,1-4.1,4c-1.55,1.07-3.12,2-3.45,4.29.38.58.45.56,1.19.83.37.13.64.56,1.29.41,1.47-.33,3.85-3.73,4.61-5,.34-.56.4-1.35.74-1.85s1-2.11,1.93-1.88c.5.31,1,1.76,2,1.19.61-.29.85-2,.65-2.9s-.58-2.26-.79-3.5c-.12-.76.22-1.21.1-1.93-.07-.5-.13-1-.19-1.48.48-2.68.56-5.29,1.34-7.6.61-1.81,1.65-3.4,2.07-5.25.15-.65-.25-1.06-.37-1.47C94,3.62,92.91,1.65,90.62,1.66Zm-7,23.08c.27,2-1.84,3.64-1.28,5.15l.73.1a9.62,9.62,0,0,0,1.66-1.89c.22-.34.25-.68.55-.92,1.16-.92,2.53-1.49,3.23-2.86,0-1.73-2.65-3-4.47-3l-1.75.5c-1.14,1.87,1.14,1.46,1.33,2.91ZM128.43,4.28c-2.05-.85-3.37,1.21-4.42.74-.49-.26-.54-.94-1.15-1.15l-2.35-.14a7.58,7.58,0,0,0-2-.32,1.68,1.68,0,0,0-.73.69c.19,2,1.65,2,2.3,3.22,0,.1,0,.19,0,.28a12,12,0,0,1-1.8,1.2c-.74.5-1.48,1.25-2.26,1.7s-1.94.7-2.35,1.61c0,.13,0,.25,0,.37a2.63,2.63,0,0,0,1.15.6,18.78,18.78,0,0,0,4-.92c.65-.28,1.09-1.08,1.61-1.52a15,15,0,0,1,3.27-1.93c1-.52,1.59-1.48,2.9-1.8l1.24.23c.41-.38,1.74-1.41,1.39-2.26-.15-.38-.41-.44-.79-.6Zm-4.92,10.88a6.6,6.6,0,0,1,2.39-2.95c.63-1-.46-2.22-1.47-2.21-.8.39-1.16.93-1.85,1.33l-4.23,2.44c-.53.31-2,.79-2.26,1.25l0,.27c1.61,1,2.61-.77,4.2-.69a1.2,1.2,0,0,1-.42,1.48,15.7,15.7,0,0,0-3.64,3.59h-.09l-.78-1.2c-.37-.47-.82-.64-1.11-1.24-.91,0-1.77,0-2.07.6.11,1.12.91,2.07,1.19,3.08.1.4.19.8.28,1.2l1.52.74c1-.05,1.1-.69,1.52-1.38.28-.38,1-.07,1.43-.28L119.68,20l1.89-.83a7.06,7.06,0,0,0,1.94-2.77c.17-.47-.12-.75,0-1.28Zm30,.73-.74.55c-.65.4-1.41.62-2,1l-4.6,1.94L146,19.3c-.16-.37.77-2.26,1-2.76l1.34-2.67a15.71,15.71,0,0,0,2.44-4.06c.45-1.53-2.19-3-3.68-3a12.3,12.3,0,0,1-4.93.6h-2L139,8.06c-.67,1.16,2.57,4.58,4.29,4.24,1-.2,1.47-1.25,2.25-1.66l.28,0c.3.71-.38,1.54-.6,2.07A24.16,24.16,0,0,0,143.91,18c-.12.67-.46,1.56,0,2.07-.13.92-2.65,1.48-3.46,1.89a57.89,57.89,0,0,1-6.36,2.9c-1.31.49-3.87,1.06-4.46,2.12.16,1.45,2.61,3.36,4.42,2.26,3.08-1.87,6.24-3.63,9.3-5.57.82-.52,2.72-2.14,3.73-2.17l.05,0v.14a5.68,5.68,0,0,0-1,1,.44.44,0,0,0,.27.28c1.41-.65,3-1.47,4.42-2l1.39-.23c1.53-.53,3.5-1.24,4.37-2.44.15-1-1.65-2.73-3-2.4Zm59.37,8.89c-.36-.54-2.66-1.53-3.45-1.84s-.91-.8-2.07-.78l-.88.23c-.83,1.31.57,2.11,1.11,2.9s.39,1.45.78,2.26c.63,1.29,2.8,1.29,4.51,1,.66-1,.66-1.1.37-2.35a3.78,3.78,0,0,0-.37-1.38Zm23.59-.09c-.25-.11-.51-.45-1-.32-1.15.31-2.08,2.25-3.64,1.84-.47-.94,1.05-1.48.74-2.76s-2.54-1.48-4.06-1.62l-.22.14c-.9,2.39.86,1.83,1.42,2.9.17.48-.44,1.14-.55,1.66s0,.86-.09,1.15c-.89.57-1.88.94-2.81,1.52l-.51.46c-.83.39-2.06.19-2.67.79v.18a4.88,4.88,0,0,0,4.19,1l2.35-1.15c.14.08.16.08.23.23.13.37-.14.88-.23,1.2-1,3.29-3.75.39-6,1.38l-.05.14c.12,1.54,4.36,2.83,6.17,2.11,1.22-.48,3.42-2,3-4-.18-.81-.63-1.79-.79-2.44a1.5,1.5,0,0,1,.79-.65H233c.07.44-.28.55-.37,1,.66.12,1-.54,1.38-.83a9.19,9.19,0,0,1,1.66-1.06,11.86,11.86,0,0,0,2.35-.92c.25-1.15-.7-1.52-1.52-1.89Zm1.89-13.27c-.82.45-.71,1.61-2,1.66l-.09,0c-.28-1.26,1-2.34,1.61-3.14l.55-1.05.51-.42c.05-.2.09-.4.14-.6.52-.82,1.51-1.7,1.79-2.72A3.78,3.78,0,0,0,240.6,3a4.64,4.64,0,0,0-3.09-.1c-.17.42-.34.83-.5,1.25l.55.92c.17.66-.38,1.17-.55,1.56a28.61,28.61,0,0,1-2.08,4.06l-.14.09a4.61,4.61,0,0,1,.05-2.12c-.27-.51-1.32-.67-1.38-1l.18-.6A1.5,1.5,0,0,0,232.4,5a.7.7,0,0,1-.14-.5c1.22-1.19,1.55-2.56.09-3.74A2.56,2.56,0,0,0,230.42,0c-.25.16-.51.19-.65.46-.28.77.59,1.07.42,1.75a18.53,18.53,0,0,1-1.25,2.58c-.51.67-2.08.48-2.71,1.29,0,.08,0,.15,0,.23.33.47,1.12.43,1.38.92v.14c-.25.65-.93,1-1.33,1.57V9.4s0,.09,0,.14l.42,0,1.42-.87,1.25-.37c.31-.22.25-.55.74-.65h0c.32.71-.57,2.15-.92,2.63a11.59,11.59,0,0,0-2.07.23,2.59,2.59,0,0,0-.14,1.1c.38.22.86.29,1.06.7.32,1.06-1.52,2.74-1.66,3.73l.19.09c.89.35,3.29-1.87,3.68-2.4,1.45,0,1.63.08,2.49-.55H233c.29.27.77.71.6,1.29-.35.74-1.46.9-2.21,1.24-1.32.61-5.23,3.42-6.87,3a14.08,14.08,0,0,1-.23-1.57c-.48-1.56-1.84-4.09-3.73-4.1-.63.64.25,1.38.42,2.08.64,2.72-.2,3.09,2.62,4a.62.62,0,0,1,0,.55c-.27.17-.74.29-.92.55,0,.09,0,.19-.05.28.41.39,3.19.77,3.83.32,1.76-1.25,3.39-2.56,5.29-3.73l1.25-.83.6-.05c.58-.25,1.69-1.31,2.39-1.1l.19.14c-.28,2.13-4.86,4.48-6.32,6v.23l0,0c1.51-.18,2.81-1.15,4-1.66l2.21-.46c2.28-.95,3.7-2.81,5.07-4.7.24-.34.75-.45.92-.87.56-1.35-2.24-3.17-3.73-2.4Zm-5.85.42-.46-.28a1.67,1.67,0,0,1,.64-1.93H233a1.55,1.55,0,0,1-.41,2.21ZM218.17,22l-.83.55c-.08.39-.16.77-.23,1.16-.38.86-1.5,2.17-1.16,3.31.26.56,1.63,1.63,2.49,1.39,1.61-.69,2.54-6.47-.27-6.41ZM188.73,6.91c-.6-1.06-1.77-1-2.9-.55a8.43,8.43,0,0,0-1.75,1.2c-1.24.81-2.57,1.47-3.82,2.21-.48.28-2.31,1.51-2.58,1a2.84,2.84,0,0,1,.46-2.3l1.42-.42c1.83-.76,4.83-2.76,5.53-4.6a3.4,3.4,0,0,0-3.22-1.89A7.3,7.3,0,0,0,179.2,3c-1-.14,0-2.46-2.12-2.49-.81.81-.86,1.77-.74,3.14l.09.78c-.17.75-1.21,1.56-1.7,2.07l-.33,0c-.63-1.45-.61-3.42-2.71-2.72-.31.54.19,1,0,1.75l-.51,1.33c-.12.5.06,1.07-.18,1.43-.8,1.19-3.09,1.1-4.29,1.89-.32,1.24,1.75,2.58,3.14,2.35.64-.11.85-.47,1.42-.6.54.38,1.06,1.28,2.12,1.06.46-.09.65-.38,1.2-.41h0c.09.14.18.24.09.46-.36.62-3.42,1.87-4.24,2.35-1.85,1.06-3.87,2.07-5.67,3.22-1.11.71-2.13,1.74-3.27,2.44-1,.58-4.28,2-3.91,3.46l.23.36a4.31,4.31,0,0,0,1.93-.13l2.54-.42c1.74-.68,2.69-2.27,4.1-3.27.7-.5,1.35-.89,2.07-1.38s1.32-1.47,2.39-1.52l.14.14c-.34,1.19-.92,1.81,0,3,1.5.32,1.71-1.33,2.54-2a8,8,0,0,1,1.79-1.1c.28-.13.47-.33.88-.24l.23.14c-.1.38-.6.38-.92.51A2.65,2.65,0,0,1,173.9,21c-.5.22-.87.21-1.11.69l0,.27c.78.83,1.08.26,1.89.74.14.08.15.13.23.28s-.07.27-.1.41c-.2.28-1.15.32-1.47.46-.47,1.32,1,1.3,1.43,2.12,0,.11,0,.21,0,.32-.27.28-1.24.63-1.38,1-.35.9,1.74,1.61.74,2.72a23.78,23.78,0,0,1-4.38,1.56c-.45.09-.81-.24-1.2,0-1.84,1.15,1.26,3.45,2.35,3.55.75-.71.45-1.9,1.34-2.4a7.1,7.1,0,0,1,2.9,1.34l.74.83c2.16.43.88-1.6,1.38-2.63.3-.62,3.36-1.9,4.24-2.11.92-1.54-1-3-2-3.37-1.13.56-.7,2.86-1.89,3.46l-.32,0-.14-.13a10.19,10.19,0,0,1,1.06-5.35c.31-.75,1.22-1.86,1.06-3-.09-.46-.19-.92-.28-1.38-.19-.28-.64-.22-.92-.41l-.78-1.34v0c.25-.05.33.07.6.13l.27-.23c.11-.64-.28-1.13,0-1.65.16-.26.45-.33.69-.51,1-.76,2.92-1.86,3.5-3A2.06,2.06,0,0,0,179.66,12c-.37.18-.45.47-1,.64h-.14l0-.23a14.61,14.61,0,0,1,3.5-2l1,.14,1.79-.83c1-.3,1.41.11,2.3-.46.56-.35,2.23-1.19,1.57-2.35Zm-8.47-3.22h.13c.37.84-1.37,2-1.79,2.58h-.28c-.93-1.53,1.2-2.06,1.94-2.58ZM174.82,32a1.89,1.89,0,0,1-1.57.42l-.32-.42c.11-.78.74-1,1.24-1.42h.33l.09,0a2.44,2.44,0,0,1,.23,1.38Zm-.37-23.67c.2-.41.73-.59,1.11-.83h.14c.33.59-.29,1.2-.7,1.47h-.46a.59.59,0,0,1-.09-.64Zm.28,2.58c-.06.09,0,.07-.14.14s-.08-.05-.14-.14l-.09-.51.14-.18.27,0a.9.9,0,0,1,0,.65Zm-.74,6.4c-.19-.09-.23-.07-.32-.28-.4-1.42,1.93-2.87,2.9-3.17.55-.18.71.16,1.34-.23.3,0,.34,0,.41.27.15.65-3.61,3.09-4.33,3.41Zm35.56-6.13a1.68,1.68,0,0,0-2.39-.5c-1.22.77-1.77,2.27-3.09,3-.35.19-.69.83-1.24.51s-.1-1.29-.1-1.94a21.25,21.25,0,0,0,0-4.51C202.48,6.45,199,4.23,197.62,4l-.37.18c-1.39,2.39.3,3.31,1,5,.45,1.05,1.11,7,.59,8.06-.36.73-2.37,1.66-3.13,2.16A36.09,36.09,0,0,1,190,22.71l-2.53,1c-.63.17-1.07-.06-1.52.23-.6,2.87.7,4,3.45,3.09a12.05,12.05,0,0,0,4.28-3.13,24.76,24.76,0,0,1,4.24-3.14l.33.05c.51.84-.17,2.16-.56,2.95a9.34,9.34,0,0,1-5.43,5c-1.24.42-3.11-.07-3.64,1.11,0,.11.09.21.14.32a11.44,11.44,0,0,0,3.87,0l1,.09c3.43-.76,5-1.89,6.64-4.47a7.66,7.66,0,0,0,1.1-1.93c.41-1.64.55-3.14,1-4.61.17-.52,0-1.2.24-1.57A6.4,6.4,0,0,1,204.9,16l1.33-1.11c.66-.47,1.38-.81,2-1.28s1.78-1.27,1.34-2.45"/><path class="cls-1" d="M15.06,37.84H31.69l.81-3H15.87Zm4.67-17.6H36.51l.81-3H20.54ZM12.26,2.55H58.82a11,11,0,0,1,6.55,1.8H11.76Zm55.61,3.9a13.71,13.71,0,0,1,1.68,2.3H48.33a7.42,7.42,0,0,0-3.06-.51H10.69l.49-1.8Zm2.66,4.4a12.6,12.6,0,0,1,.58,2.29L52,13.24h0l-30.4,0,.65-2.39L49.8,11h.39Zm.72,4.39a13.44,13.44,0,0,1-.2,2.29H52.55a7.84,7.84,0,0,0,0-.84c0-.52,0-1-.07-1.45Zm-.76,4.4a11.12,11.12,0,0,1-1.14,2.29H50.57a7.14,7.14,0,0,0,1.51-2.29Zm-3.08,4.43a11,11,0,0,1-5.33,2.29H5.86l.45-1.89,37.91.16a8,8,0,0,0,3-.56Zm-3.53,4.4a16.37,16.37,0,0,1,1.57,2.29H44.33a3,3,0,0,0-1.64-.33H4.9l.46-2Zm2.55,4.4a12.14,12.14,0,0,1,.59,2.3H46.46a8.65,8.65,0,0,0-.48-2.3Zm.76,4.41A14.92,14.92,0,0,1,67,39.57H45.28a5.5,5.5,0,0,0,1.07-2.29Zm-.73,4.4A8.6,8.6,0,0,1,65.18,44h-64l.53-2H39.46a7.72,7.72,0,0,0,2.66-.31Zm-3.68,4.4c-2.49,1.52-5.72,2.06-8.85,2.27H0l.61-2.27Z"/></g></g></svg>