<svg xmlns="http://www.w3.org/2000/svg" viewBox="0 0 71.25 45.81"><defs><style>.cls-1{fill:#0096c2;fill-rule:evenodd;}</style></defs><g id="图层_2" data-name="图层 2"><g id="图层_1-2" data-name="图层 1"><path class="cls-1" d="M15.06,35.3H31.69l.81-3H15.87Zm4.67-17.6H36.51l.81-3H20.54ZM12.26,0H58.82a11,11,0,0,1,6.55,1.8H11.76Zm55.61,3.9a13.23,13.23,0,0,1,1.68,2.29H48.33a7.29,7.29,0,0,0-3.06-.5H10.69l.49-1.79Zm2.66,4.4a12.39,12.39,0,0,1,.58,2.29L52,10.7h0l-30.4,0,.65-2.39,27.55.07h.39Zm.72,4.39a13.62,13.62,0,0,1-.2,2.29H52.55a8,8,0,0,0,0-.85c0-.52,0-1-.07-1.44Zm-.76,4.39a10.64,10.64,0,0,1-1.14,2.29H50.57a7.14,7.14,0,0,0,1.51-2.29Zm-3.08,4.43a11,11,0,0,1-5.33,2.3H5.86l.45-1.89,37.91.15a7.75,7.75,0,0,0,3-.56Zm-3.53,4.41a15.28,15.28,0,0,1,1.57,2.29H44.33a3,3,0,0,0-1.64-.34H4.9l.46-1.94Zm2.55,4.4A12,12,0,0,1,67,32.63H46.46A8.58,8.58,0,0,0,46,30.34Zm.76,4.4A14.92,14.92,0,0,1,67,37H45.28a5.5,5.5,0,0,0,1.07-2.29Zm-.73,4.4a8.6,8.6,0,0,1-1.28,2.29h-64l.53-2H39.46a8,8,0,0,0,2.66-.32Zm-3.68,4.4c-2.49,1.53-5.72,2.07-8.85,2.27H0l.61-2.27Z"/></g></g></svg>