<svg xmlns="http://www.w3.org/2000/svg" viewBox="0 0 130.48 93.5"><defs><style>.cls-1{fill:#0096c2;fill-rule:evenodd;}</style></defs><g id="图层_2" data-name="图层 2"><g id="图层_1-2" data-name="图层 1"><path class="cls-1" d="M3.79,90.89a.49.49,0,0,0,0,.13s0,0,0,0h.24a2.24,2.24,0,0,0,.55,0A1,1,0,0,0,5,90.9a.52.52,0,0,0,.2-.24.73.73,0,0,0,.07-.35A.86.86,0,0,0,5.17,90,.52.52,0,0,0,5,89.74a.81.81,0,0,0-.31-.14,2.33,2.33,0,0,0-.48,0H3.94l-.1,0s0,0,0,.07a.62.62,0,0,0,0,.15Zm0,1.92a.45.45,0,0,0,0,.13h0a.15.15,0,0,0,0,.06h0A.24.24,0,0,0,4,93h.38a2,2,0,0,0,.45,0,1,1,0,0,0,.32-.16h0a.67.67,0,0,0,.19-.26.87.87,0,0,0,.07-.37,1,1,0,0,0-.07-.36h0a.75.75,0,0,0-.21-.26h0a1.18,1.18,0,0,0-.36-.15,2,2,0,0,0-.52-.06H3.86l0,0h0a0,0,0,0,0,0,0,.31.31,0,0,0,0,.1Zm-1.34.53v-.18h0a1.17,1.17,0,0,0,.29,0,.26.26,0,0,0,.15-.07A.23.23,0,0,0,3,92.93a.9.9,0,0,0,0-.25V90a.85.85,0,0,0,0-.25H3a.26.26,0,0,0-.07-.14h0a.4.4,0,0,0-.16-.07,1.7,1.7,0,0,0-.28,0h0v-.22h2a3.1,3.1,0,0,1,.64.06,1.69,1.69,0,0,1,.49.21.94.94,0,0,1,.31.32.93.93,0,0,1,.11.44.87.87,0,0,1-.06.32.92.92,0,0,1-.16.27,1.13,1.13,0,0,1-.27.22l-.18.09.26.1a1,1,0,0,1,.32.22.79.79,0,0,1,.2.31.9.9,0,0,1,.07.37,1.13,1.13,0,0,1-.12.54,1,1,0,0,1-.34.38,1.63,1.63,0,0,1-.58.22,3.72,3.72,0,0,1-.8.07H2.44Zm4.26,0v-.18h0a1.09,1.09,0,0,0,.28,0,.34.34,0,0,0,.16-.07h0a.26.26,0,0,0,.07-.13.85.85,0,0,0,0-.25V90a.85.85,0,0,0,0-.25h0a.37.37,0,0,0-.07-.14h0a.4.4,0,0,0-.16-.07,1.68,1.68,0,0,0-.29,0h0v-.22h3.56v0l.06.89v.06h-.22v0a1.14,1.14,0,0,0-.09-.31.42.42,0,0,0-.13-.18h0a.51.51,0,0,0-.21-.09h0a1.75,1.75,0,0,0-.35,0H8.15l-.06,0h0a.08.08,0,0,0,0,.06.46.46,0,0,0,0,.14v1.09s0,.07,0,.09a0,0,0,0,0,0,0H9a2,2,0,0,0,.38,0,.55.55,0,0,0,.2-.08h0a.36.36,0,0,0,.1-.15.89.89,0,0,0,0-.26v0H10V92H9.73v0a.68.68,0,0,0-.05-.27.35.35,0,0,0-.09-.16h0a.55.55,0,0,0-.2-.08,2,2,0,0,0-.38,0H8.07a0,0,0,0,1,0,0h0s0,.06,0,.09v1.21a.9.9,0,0,0,0,.18h0l0,.08h0l.06,0,.13,0h.94a3.34,3.34,0,0,0,.49,0,1,1,0,0,0,.31-.12h0a.84.84,0,0,0,.23-.23,1.67,1.67,0,0,0,.2-.38l0,0,0,0,.11,0,0,0v0l-.32,1v0H6.71Zm4.43,0v-.17h0a1.09,1.09,0,0,0,.28,0,.34.34,0,0,0,.16-.07.32.32,0,0,0,.07-.13h0a.93.93,0,0,0,0-.26V90a.9.9,0,0,0,0-.25.27.27,0,0,0-.08-.14.35.35,0,0,0-.15-.07,1.14,1.14,0,0,0-.28,0h0v-.23h1.94v.23H13a1.12,1.12,0,0,0-.29,0,.48.48,0,0,0-.16.08.32.32,0,0,0-.07.13.9.9,0,0,0,0,.25v2.7a.85.85,0,0,0,0,.25.27.27,0,0,0,.08.14h0a.35.35,0,0,0,.15.07,1.17,1.17,0,0,0,.29,0h.05v.22H11.14Zm4.85-4v.17h-.05l-.28,0a.27.27,0,0,0-.15.08.35.35,0,0,0-.08.15,1.87,1.87,0,0,0,0,.27v2.17a2.23,2.23,0,0,1-.07.55,1.2,1.2,0,0,1-.22.42h0a.81.81,0,0,1-.35.25,1.19,1.19,0,0,1-.47.09,1.37,1.37,0,0,1-.31,0,.75.75,0,0,1-.25-.13.51.51,0,0,1-.17-.19.48.48,0,0,1-.06-.24.27.27,0,0,1,0-.12.23.23,0,0,1,.07-.1.33.33,0,0,1,.1-.06l.13,0,.12,0h0a.3.3,0,0,1,.11.06h0a.24.24,0,0,1,.08.09.5.5,0,0,1,.08.12h0v0h0a.56.56,0,0,0,.11.17h0a.14.14,0,0,0,.09.05l.1,0h0a.1.1,0,0,0,.06,0,.19.19,0,0,0,0-.09h0a.59.59,0,0,0,0-.14V90a1.09,1.09,0,0,0,0-.28.27.27,0,0,0-.08-.15.3.3,0,0,0-.16-.07,1.09,1.09,0,0,0-.28,0h-.06v-.23H16Zm.51,4v-.17h.06a1.14,1.14,0,0,0,.28,0,.26.26,0,0,0,.15-.07.24.24,0,0,0,.08-.13h0a.93.93,0,0,0,0-.26V90a.9.9,0,0,0,0-.25.37.37,0,0,0-.08-.14.4.4,0,0,0-.16-.07,1,1,0,0,0-.27,0H16.5v-.23h1.95v.23h-.05a1.09,1.09,0,0,0-.28,0,.4.4,0,0,0-.16.08.32.32,0,0,0-.07.13.9.9,0,0,0,0,.25v2.7a.85.85,0,0,0,0,.25h0a.37.37,0,0,0,.07.14h0a.35.35,0,0,0,.15.07,1.14,1.14,0,0,0,.28,0h.05v.22H16.5Zm3.42-.68a.94.94,0,0,0,0,.26h0a.22.22,0,0,0,.07.13.35.35,0,0,0,.15.07,1.12,1.12,0,0,0,.29,0h.05v.22H18.94v-.22h0a1.12,1.12,0,0,0,.29,0,.35.35,0,0,0,.15-.07h0a.22.22,0,0,0,.07-.13.94.94,0,0,0,0-.26V89.85a1,1,0,0,0-.1-.15.71.71,0,0,0-.13-.12h0a.61.61,0,0,0-.14-.07h0a.41.41,0,0,0-.16,0h0v-.22h1.12v0L22.37,92V90a1.87,1.87,0,0,0,0-.27.32.32,0,0,0-.07-.13l-.15-.06-.29,0h-.05v-.22h1.56v.22H23.3a1.68,1.68,0,0,0-.29,0l-.15.06a.32.32,0,0,0-.07.13,1.06,1.06,0,0,0,0,.27v3.41h-.21v0l-2.63-3.14Zm7.91.32a2.24,2.24,0,0,1-.4.22,2.9,2.9,0,0,1-.41.16h0l-.43.1a3.15,3.15,0,0,1-.44,0,2.65,2.65,0,0,1-.92-.15,2.06,2.06,0,0,1-.72-.44,1.82,1.82,0,0,1-.47-.67h0a2.16,2.16,0,0,1-.16-.86,2.26,2.26,0,0,1,.16-.88,1.9,1.9,0,0,1,.48-.71,2.08,2.08,0,0,1,.73-.47,2.63,2.63,0,0,1,.91-.15,2.56,2.56,0,0,1,.39,0,2.79,2.79,0,0,1,.39.1h0l.29.09h0l.11,0h.05l0,0h0l0-.05,0-.09v0h.19v0l.06,1.24v.06h-.21l0,0A2.58,2.58,0,0,0,27.3,90h0a1.42,1.42,0,0,0-.28-.31h0a1,1,0,0,0-.35-.17,1.63,1.63,0,0,0-.45-.06,1.61,1.61,0,0,0-.63.12,1.35,1.35,0,0,0-.48.38h0a1.64,1.64,0,0,0-.32.58,2.61,2.61,0,0,0,0,1.5,1.64,1.64,0,0,0,.32.58,1.28,1.28,0,0,0,.5.37,1.47,1.47,0,0,0,.64.13l.25,0h0l.24-.06L27,93a.91.91,0,0,0,.16-.11V91.8a1,1,0,0,0,0-.27.19.19,0,0,0-.05-.11h0a.53.53,0,0,0-.16-.06l-.32,0h0V91.1h1.83v.23h-.05a1.29,1.29,0,0,0-.23,0h0a.32.32,0,0,0-.13,0h0a.23.23,0,0,0-.05.11,1.66,1.66,0,0,0,0,.24V93Zm2.09-3.56v-.17h1.9v.22h-.05l-.27,0a.3.3,0,0,0-.14.08.27.27,0,0,0-.07.16,1.21,1.21,0,0,0,0,.3v1.73a2.22,2.22,0,0,0,.07.61,1,1,0,0,0,.2.41.81.81,0,0,0,.34.24,1.31,1.31,0,0,0,.5.08,1.62,1.62,0,0,0,.52-.08,1.16,1.16,0,0,0,.39-.26,1.44,1.44,0,0,0,.24-.42,1.91,1.91,0,0,0,.08-.57V90.06a1.26,1.26,0,0,0,0-.3.48.48,0,0,0-.08-.16h0a.35.35,0,0,0-.16-.09h0a1,1,0,0,0-.27,0H33v-.23h1.53v.22h-.05l-.24,0h0a.56.56,0,0,0-.14.09.38.38,0,0,0-.07.17,1.26,1.26,0,0,0,0,.3v1.65a1.81,1.81,0,0,1-.45,1.33,1.35,1.35,0,0,1-.55.34,2.12,2.12,0,0,1-.75.11l-.41,0a2,2,0,0,1-.37-.09,2.37,2.37,0,0,1-.32-.14,1.26,1.26,0,0,1-.25-.19h0a1.28,1.28,0,0,1-.17-.22h0a1.39,1.39,0,0,1-.12-.28h0a2.53,2.53,0,0,1-.07-.34c0-.13,0-.27,0-.43V90.27a2.59,2.59,0,0,0,0-.44.42.42,0,0,0-.08-.22h0a.28.28,0,0,0-.15-.1,1.09,1.09,0,0,0-.28,0h0Zm6,3.24a.94.94,0,0,0,0,.26.22.22,0,0,0,.07.13.35.35,0,0,0,.15.07,1.12,1.12,0,0,0,.29,0h0v.22H35v-.22H35a1.12,1.12,0,0,0,.29,0,.35.35,0,0,0,.15-.07.22.22,0,0,0,.07-.13.94.94,0,0,0,0-.26V89.85a1,1,0,0,0-.1-.15.71.71,0,0,0-.13-.12h0a.61.61,0,0,0-.14-.07.41.41,0,0,0-.16,0H35v-.22H36.1v0L38.41,92V90a1.87,1.87,0,0,0,0-.27.32.32,0,0,0-.07-.13l-.15-.06-.29,0h-.05v-.22h1.56v.22h0l-.29,0-.15.06a.32.32,0,0,0-.07.13h0a1.06,1.06,0,0,0,0,.27v3.41h-.2l0,0L36,90.23Zm3.88.68v-.17h0a1.09,1.09,0,0,0,.28,0,.34.34,0,0,0,.16-.07.32.32,0,0,0,.07-.13h0a.93.93,0,0,0,0-.26V90a.9.9,0,0,0,0-.25.27.27,0,0,0-.08-.14.35.35,0,0,0-.15-.07,1.14,1.14,0,0,0-.28,0h0v-.23h1.94v.23h-.05a1.17,1.17,0,0,0-.29,0,.35.35,0,0,0-.15.08.24.24,0,0,0-.08.13,1.69,1.69,0,0,0,0,.25v2.7a1.57,1.57,0,0,0,0,.25h0a.37.37,0,0,0,.08.14h0a.35.35,0,0,0,.15.07,1.17,1.17,0,0,0,.29,0h.05v.22H39.84Zm4.55.11L43,90.17a2.81,2.81,0,0,0-.18-.35,1,1,0,0,0-.15-.21.71.71,0,0,0-.14-.1.57.57,0,0,0-.18,0h0v-.23h1.81v.22H44l-.24,0-.13,0,0,0h0a.19.19,0,0,0,0,.08.91.91,0,0,0,.06.22c0,.13.11.29.19.49s.2.47.36.81h0l.5,1.11,1-2.26a.54.54,0,0,0,0-.11.69.69,0,0,0,0-.1h0a.31.31,0,0,0,0-.08s0,0,0-.06a.29.29,0,0,0,0-.09.12.12,0,0,0-.05,0h0l-.13,0-.21,0h-.05v-.23h1.33v.22h0a.28.28,0,0,0-.13,0l-.11.08h0a.62.62,0,0,0-.12.17c-.05.08-.09.17-.15.29h0l-1.51,3.41,0,0h-.2Zm2.66-.11v-.18h.05a1.17,1.17,0,0,0,.29,0,.26.26,0,0,0,.15-.07h0a.26.26,0,0,0,.08-.13h0a1.57,1.57,0,0,0,0-.25V90a1.57,1.57,0,0,0,0-.25h0a.37.37,0,0,0-.08-.14h0a.35.35,0,0,0-.15-.07l-.29,0h-.05v-.22H50.6v0l0,.89v.06h-.22v0a1.73,1.73,0,0,0-.08-.31.52.52,0,0,0-.13-.18h0a.51.51,0,0,0-.21-.09h0a1.86,1.86,0,0,0-.36,0H48.49l-.06,0h0a.16.16,0,0,0,0,.06.53.53,0,0,0,0,.14v1.09a.22.22,0,0,0,0,.09h0s0,0,0,0h.92a2.06,2.06,0,0,0,.39,0,.55.55,0,0,0,.2-.08h0a.27.27,0,0,0,.09-.15.86.86,0,0,0,.05-.26v0h.23V92h-.23v0a.93.93,0,0,0-.05-.27.37.37,0,0,0-.1-.16h0a.48.48,0,0,0-.2-.08,1.87,1.87,0,0,0-.38,0h-.92a0,0,0,0,0,0,0,.25.25,0,0,0,0,.09v1.21a.81.81,0,0,0,0,.17h0l0,.08h0l.07,0,.12,0h1a3.08,3.08,0,0,0,.48,0,1.07,1.07,0,0,0,.32-.12h0a.81.81,0,0,0,.22-.23,1.67,1.67,0,0,0,.2-.38l0,0,0,0,.11,0,0,0,0,0-.31,1v0H47.05Zm5.78-2.2a.07.07,0,0,0,0,0s0,0,0,0h.08a2.71,2.71,0,0,0,.62-.06A1,1,0,0,0,54,91h0a.67.67,0,0,0,.23-.27.9.9,0,0,0,.08-.39A.8.8,0,0,0,54.2,90a.5.5,0,0,0-.19-.24.72.72,0,0,0-.33-.15,2.41,2.41,0,0,0-.5-.05l-.21,0a.12.12,0,0,0-.09,0h0a.09.09,0,0,0,0,.06.63.63,0,0,0,0,.16Zm-1.34,2.2v-.18h.13l.24,0a.37.37,0,0,0,.14-.08.35.35,0,0,0,.07-.15,1,1,0,0,0,0-.27V89.93c0-.18,0-.3-.1-.35h0a.34.34,0,0,0-.16-.07,1.26,1.26,0,0,0-.3,0h0v-.23h2.1a2.22,2.22,0,0,1,.61.07,1.09,1.09,0,0,1,.46.21h0a.9.9,0,0,1,.29.35,1.11,1.11,0,0,1,.09.46,1.23,1.23,0,0,1-.06.39,1.06,1.06,0,0,1-.21.31,1.34,1.34,0,0,1-.32.24,1.78,1.78,0,0,1-.37.13c.24.31.46.57.64.8l.48.55a3.74,3.74,0,0,0,.33.3h0a.48.48,0,0,0,.21.1h0v.22h-1c-.13-.14-.26-.28-.38-.43s-.25-.29-.38-.44-.25-.31-.38-.47l-.36-.48h-.43v0h0a.07.07,0,0,0,0,.05v1a1,1,0,0,0,0,.27.36.36,0,0,0,.08.15.26.26,0,0,0,.15.07,1,1,0,0,0,.27,0h.1v.23h-2Zm5,.09-.23-1.3v-.06h.22l0,0a3.14,3.14,0,0,0,.23.45,1.4,1.4,0,0,0,.29.34h0a1.41,1.41,0,0,0,.31.21.8.8,0,0,0,.34.07.87.87,0,0,0,.28,0,.74.74,0,0,0,.22-.14.58.58,0,0,0,.15-.21.59.59,0,0,0,0-.27.75.75,0,0,0,0-.2h0a.81.81,0,0,0-.1-.18,1.07,1.07,0,0,0-.18-.19h0a2,2,0,0,0-.26-.17h0l-.63-.38h0a3.53,3.53,0,0,1-.35-.25,1.2,1.2,0,0,1-.25-.26,1,1,0,0,1-.14-.29,1.13,1.13,0,0,1,0-.32,1,1,0,0,1,.09-.44,1.1,1.1,0,0,1,.26-.35h0a1,1,0,0,1,.4-.23,1.48,1.48,0,0,1,.49-.08l.26,0,.28.07.21.07a.24.24,0,0,0,.1,0h0l0,0h0a.08.08,0,0,0,0,0h0s0,0,0-.07v0h.2v0l.13,1.22v.06H58.7v0a3.45,3.45,0,0,0-.2-.43,1.22,1.22,0,0,0-.24-.3h0a1,1,0,0,0-.28-.19.81.81,0,0,0-.31-.06,1,1,0,0,0-.26,0h0a.82.82,0,0,0-.2.12.48.48,0,0,0-.12.17h0A.56.56,0,0,0,57,90a.57.57,0,0,0,0,.18h0a.65.65,0,0,0,.09.16.91.91,0,0,0,.17.17,1.58,1.58,0,0,0,.27.18l.69.41h0a3,3,0,0,1,.37.27,1.16,1.16,0,0,1,.24.26A1.11,1.11,0,0,1,59,92a1.21,1.21,0,0,1,.05.34,1.13,1.13,0,0,1-.1.49,1.1,1.1,0,0,1-.27.38,1.43,1.43,0,0,1-.43.25,1.92,1.92,0,0,1-.55.08l-.29,0-.3-.06-.22-.06-.09,0h-.05l0,0h0l0,0,0,.05v0h-.2Zm3.23-.09v-.17h.06a1.14,1.14,0,0,0,.28,0,.26.26,0,0,0,.15-.07.24.24,0,0,0,.08-.13h0a1,1,0,0,0,0-.26V90a.94.94,0,0,0,0-.25.37.37,0,0,0-.08-.14.4.4,0,0,0-.16-.07h0a1,1,0,0,0-.27,0h-.06v-.23h2v.23h-.05a1.09,1.09,0,0,0-.28,0,.4.4,0,0,0-.16.08.23.23,0,0,0-.07.13.9.9,0,0,0,0,.25v2.7a.85.85,0,0,0,0,.25.37.37,0,0,0,.07.14h0a.48.48,0,0,0,.16.07,1.14,1.14,0,0,0,.28,0h.05v.22h-2Zm3.33,0v-.18h0a.75.75,0,0,0,.46-.09.34.34,0,0,0,.07-.16,1.35,1.35,0,0,0,0-.31V89.72a.22.22,0,0,0,0-.09h0v0h-.29a2.21,2.21,0,0,0-.48,0,.56.56,0,0,0-.27.11.5.5,0,0,0-.16.23,1.2,1.2,0,0,0-.08.37v0h-.22v0l0-1v0H66v1.14h-.23v0a1.27,1.27,0,0,0-.08-.38.52.52,0,0,0-.14-.22.57.57,0,0,0-.29-.11,2.92,2.92,0,0,0-.56,0h-.15s0,0,0,0h0s0,0,0,0h0a.22.22,0,0,0,0,.09v2.86a1.42,1.42,0,0,0,0,.33.34.34,0,0,0,.07.16.34.34,0,0,0,.17.06,1.15,1.15,0,0,0,.3,0H65v.23h-2Zm4.57,0v-.18h.08a.58.58,0,0,0,.4-.1h0a.32.32,0,0,0,.08-.13.69.69,0,0,0,0-.22v-1.1L66.9,89.78a.49.49,0,0,0-.12-.13.38.38,0,0,0-.13-.09h0a.52.52,0,0,0-.15-.06l-.18,0h0v-.23h2v.22h0l-.22,0a.33.33,0,0,0-.13,0l-.06,0h0a0,0,0,0,0,0,0,.37.37,0,0,0,0,.09h0s0,.08.07.12v0h0l.92,1.31L69.57,90h0l.1-.15h0l0-.09a.14.14,0,0,0,0-.06,0,0,0,0,0,0,0,.09.09,0,0,0,0-.05h0l0,0-.12,0-.21,0h0v-.22h1.38v.22h0a.41.41,0,0,0-.16,0,.33.33,0,0,0-.13.07h0a.42.42,0,0,0-.14.13,1.53,1.53,0,0,0-.17.23L69,91.55v1.2a.56.56,0,0,0,0,.2.25.25,0,0,0,.08.12h0a.27.27,0,0,0,.16.06,1.09,1.09,0,0,0,.28,0h0v.22H67.63Zm-.73-3.56h0m6.29,1.54a3,3,0,0,0,.09.77,1.57,1.57,0,0,0,.28.58A1.34,1.34,0,0,0,74,93a1.2,1.2,0,0,0,.55.12,1.23,1.23,0,0,0,.55-.12,1.34,1.34,0,0,0,.42-.37,1.74,1.74,0,0,0,.28-.58h0a3,3,0,0,0,.09-.77,2.88,2.88,0,0,0-.09-.76A1.65,1.65,0,0,0,75.5,90a1.13,1.13,0,0,0-.42-.37h0a1.23,1.23,0,0,0-.55-.12,1.2,1.2,0,0,0-.55.12,1.13,1.13,0,0,0-.42.37,1.49,1.49,0,0,0-.28.58,2.88,2.88,0,0,0-.09.76Zm-.8,0a2.46,2.46,0,0,1,.15-.88,1.91,1.91,0,0,1,1.12-1.13,2.6,2.6,0,0,1,1.74,0,1.82,1.82,0,0,1,.68.44,2,2,0,0,1,.45.69,2.84,2.84,0,0,1,0,1.76,2,2,0,0,1-.45.69,1.84,1.84,0,0,1-.68.45,2.6,2.6,0,0,1-1.74,0,1.84,1.84,0,0,1-.68-.45h0a1.81,1.81,0,0,1-.44-.69,2.46,2.46,0,0,1-.15-.88Zm4.88,2v-.17h0a1.12,1.12,0,0,0,.29,0h0a.4.4,0,0,0,.16-.07.26.26,0,0,0,.06-.13.85.85,0,0,0,0-.25V90a.9.9,0,0,0,0-.25.27.27,0,0,0-.08-.14h0a.35.35,0,0,0-.15-.07h0a1.14,1.14,0,0,0-.28,0h-.06v-.23h3.46v0l.06,1v.06h-.23v0a1.31,1.31,0,0,0-.09-.33h0a.59.59,0,0,0-.14-.19.49.49,0,0,0-.23-.11,1.79,1.79,0,0,0-.36,0h-.86l-.14,0-.07,0h0a.16.16,0,0,0,0,.07.41.41,0,0,0,0,.12V91a.08.08,0,0,1,0,0h.66a1.9,1.9,0,0,0,.37,0,.55.55,0,0,0,.2-.08h0a.4.4,0,0,0,.1-.15,1,1,0,0,0,0-.26V90.5h.23V92H80V92a.85.85,0,0,0,0-.3h0a.34.34,0,0,0-.08-.16.37.37,0,0,0-.19-.08,2,2,0,0,0-.38,0h-.65l0,0v1.19a.85.85,0,0,0,0,.25.31.31,0,0,0,.08.15.46.46,0,0,0,.17.07h0a1.26,1.26,0,0,0,.3,0h.06v.23h-2Zm6,0v-.18h0a.77.77,0,0,0,.46-.09.34.34,0,0,0,.07-.16,1.35,1.35,0,0,0,0-.31V89.72a.22.22,0,0,0,0-.09h0v0h-.29a2.21,2.21,0,0,0-.48,0,.61.61,0,0,0-.28.11.57.57,0,0,0-.15.23,1.54,1.54,0,0,0-.09.37v0H82.3v0l0-1v0H86.1v1.14h-.23v0a1.68,1.68,0,0,0-.08-.38.64.64,0,0,0-.14-.22.61.61,0,0,0-.29-.11,2.92,2.92,0,0,0-.56,0h-.16s0,0,0,0h0s0,0,0,0h0a.22.22,0,0,0,0,.09v2.86a1.42,1.42,0,0,0,0,.33.34.34,0,0,0,.07.16.3.3,0,0,0,.16.06,1.26,1.26,0,0,0,.3,0h0v.23h-2Zm3.25,0v-.18h0a1.09,1.09,0,0,0,.28,0,.34.34,0,0,0,.16-.07h0a.26.26,0,0,0,.07-.13h0a.85.85,0,0,0,0-.25V90a.85.85,0,0,0,0-.25.37.37,0,0,0-.07-.14h0a.62.62,0,0,0-.16-.07,1.68,1.68,0,0,0-.29,0h0v-.22H90v0l0,.89v.06h-.23v0a1.14,1.14,0,0,0-.09-.31.42.42,0,0,0-.13-.18h0a.51.51,0,0,0-.21-.09h0a1.86,1.86,0,0,0-.36,0H87.91l-.06,0h0a.08.08,0,0,0,0,.06.46.46,0,0,0,0,.14v1.09s0,.07,0,.09a0,0,0,0,0,0,0h.93a2,2,0,0,0,.38,0,.55.55,0,0,0,.2-.08h0a.28.28,0,0,0,.1-.15.89.89,0,0,0,0-.26v0h.22V92h-.22v0a.68.68,0,0,0,0-.27.35.35,0,0,0-.09-.16h0a.55.55,0,0,0-.2-.08,2,2,0,0,0-.38,0h-.93s0,0,0,0h0s0,.06,0,.09v1.21a.72.72,0,0,0,0,.17h0a.19.19,0,0,0,0,.08l.06,0,.13,0H89a3.34,3.34,0,0,0,.49,0,1,1,0,0,0,.31-.12h0a.84.84,0,0,0,.23-.23,2.19,2.19,0,0,0,.2-.38l0,0,.05,0,.11,0,0,0v0l-.32,1v0H86.47Zm8.31-1,.1.1,0,0,0,0a2.53,2.53,0,0,1-.37.42,1.91,1.91,0,0,1-.41.29,1.83,1.83,0,0,1-.46.18,2.18,2.18,0,0,1-.52.06,2.46,2.46,0,0,1-.88-.15,1.94,1.94,0,0,1-.69-.44h0a1.77,1.77,0,0,1-.44-.68,2.6,2.6,0,0,1,0-1.74,2.1,2.1,0,0,1,1.17-1.17,2.54,2.54,0,0,1,1.25-.12l.38.09.3.09.11,0h.06a.05.05,0,0,0,0,0l0,0h0s0,0,0-.07v0h.21v0l.12,1.31v0H94.6l0,0a2.1,2.1,0,0,0-.2-.48h0a1.6,1.6,0,0,0-.3-.33h0a1.23,1.23,0,0,0-.37-.21,1.46,1.46,0,0,0-1,.06,1.29,1.29,0,0,0-.47.37h0a1.77,1.77,0,0,0-.32.59,2.84,2.84,0,0,0-.1.75,2.74,2.74,0,0,0,.1.73,1.83,1.83,0,0,0,.32.58,1.34,1.34,0,0,0,.46.37,1.27,1.27,0,0,0,.58.13,1.86,1.86,0,0,0,.42,0A1.08,1.08,0,0,0,94,93a1.92,1.92,0,0,0,.35-.23,2.77,2.77,0,0,0,.33-.35l0-.05Zm.48,1v-.18h0a1.09,1.09,0,0,0,.28,0,.3.3,0,0,0,.16-.07.23.23,0,0,0,.07-.13.9.9,0,0,0,0-.25V90a.9.9,0,0,0,0-.25.27.27,0,0,0-.08-.14.35.35,0,0,0-.15-.07l-.28,0h-.06v-.22H97.2v.22h0a1.68,1.68,0,0,0-.29,0,.35.35,0,0,0-.15.08.32.32,0,0,0-.08.13h0a1.69,1.69,0,0,0,0,.25v1.08h0s0,0,0,0,0,0,0,0h1.88s0,0,0,0,0,0,0-.09V90a.9.9,0,0,0,0-.25.24.24,0,0,0-.08-.13h0a.35.35,0,0,0-.15-.08,1.17,1.17,0,0,0-.29,0H98v-.23H99.9v.23h-.05a1.17,1.17,0,0,0-.29,0,.35.35,0,0,0-.15.07h0a.37.37,0,0,0-.08.14,1.57,1.57,0,0,0,0,.25v2.71a1.54,1.54,0,0,0,0,.24.37.37,0,0,0,.08.14.42.42,0,0,0,.15.07h0a1.17,1.17,0,0,0,.29,0h.05v.22H98v-.22H98a1.14,1.14,0,0,0,.28,0,.35.35,0,0,0,.15-.07h0a.27.27,0,0,0,.08-.14.78.78,0,0,0,0-.24V91.57s0-.06,0-.08a0,0,0,0,0,0,0H96.63s0,0,0,0h0a.15.15,0,0,0,0,.07v1.11a1.44,1.44,0,0,0,0,.24.37.37,0,0,0,.08.14h0a.35.35,0,0,0,.15.07,1.14,1.14,0,0,0,.28,0h.06v.22H95.26Zm6-.68a1.61,1.61,0,0,0,0,.26h0a.22.22,0,0,0,.07.13.35.35,0,0,0,.15.07,1.12,1.12,0,0,0,.29,0h.05v.22h-1.56v-.22h0a1.12,1.12,0,0,0,.29,0,.35.35,0,0,0,.15-.07h0a.22.22,0,0,0,.07-.13.88.88,0,0,0,0-.26V89.85l-.11-.15a.49.49,0,0,0-.13-.12h0a.61.61,0,0,0-.14-.07h0a.41.41,0,0,0-.16,0h0v-.22h1.12l0,0L103.74,92V90a1.87,1.87,0,0,0,0-.27.32.32,0,0,0-.07-.13l-.15-.06a1.68,1.68,0,0,0-.29,0h0v-.22h1.56v.22h0l-.29,0-.15.06a.32.32,0,0,0-.07.13h0a1.06,1.06,0,0,0,0,.27v3.41h-.2l0,0-2.63-3.14Zm4.76-1.34a3,3,0,0,0,.09.77,1.57,1.57,0,0,0,.28.58,1.34,1.34,0,0,0,.42.37,1.2,1.2,0,0,0,.55.12,1.23,1.23,0,0,0,.55-.12,1.34,1.34,0,0,0,.42-.37,2,2,0,0,0,.28-.58,3,3,0,0,0,.09-.77,2.88,2.88,0,0,0-.09-.76,1.84,1.84,0,0,0-.28-.58,1.13,1.13,0,0,0-.42-.37h0a1.23,1.23,0,0,0-.55-.12,1.2,1.2,0,0,0-.55.12,1.13,1.13,0,0,0-.42.37,1.49,1.49,0,0,0-.28.58,2.88,2.88,0,0,0-.09.76Zm-.8,0a2.71,2.71,0,0,1,.14-.88,2.08,2.08,0,0,1,.44-.69,1.94,1.94,0,0,1,.69-.44,2.6,2.6,0,0,1,1.74,0,1.91,1.91,0,0,1,1.12,1.13,2.42,2.42,0,0,1,.15.88,2.46,2.46,0,0,1-.15.88,1.81,1.81,0,0,1-.44.69,1.84,1.84,0,0,1-.68.45,2.6,2.6,0,0,1-1.74,0,2,2,0,0,1-.69-.45h0a2.08,2.08,0,0,1-.44-.69,2.71,2.71,0,0,1-.14-.88Zm4.89,2v-.18h.08a1,1,0,0,0,.26,0,.26.26,0,0,0,.14-.07h0a.34.34,0,0,0,.07-.17,1.12,1.12,0,0,0,0-.29V90a1,1,0,0,0,0-.28h0a.26.26,0,0,0-.06-.13h0a.35.35,0,0,0-.15-.07l-.28,0h0v-.23h1.94v.23H112a1,1,0,0,0-.26,0,.3.3,0,0,0-.15.07.53.53,0,0,0-.08.15.9.9,0,0,0,0,.25v2.71a1.06,1.06,0,0,0,0,.21s0,.08,0,.09h0a.19.19,0,0,0,.1,0l.19,0h.7a1.62,1.62,0,0,0,.4,0,1.09,1.09,0,0,0,.31-.14h0a1,1,0,0,0,.25-.25h0a1.68,1.68,0,0,0,.2-.35v0h.23l0,.07-.33,1.07v0h-3.43Zm5-2a3,3,0,0,0,.09.77,1.72,1.72,0,0,0,.27.58,1.37,1.37,0,0,0,.43.37,1.19,1.19,0,0,0,.54.12A1.28,1.28,0,0,0,117,93a1.34,1.34,0,0,0,.42-.37,1.72,1.72,0,0,0,.27-.58h0a2.61,2.61,0,0,0,.1-.77,2.5,2.5,0,0,0-.1-.76,1.64,1.64,0,0,0-.27-.58,1.13,1.13,0,0,0-.42-.37h0a1.28,1.28,0,0,0-.56-.12,1.19,1.19,0,0,0-.54.12,1.08,1.08,0,0,0-.43.37,1.64,1.64,0,0,0-.27.58,2.88,2.88,0,0,0-.09.76Zm-.81,0a2.46,2.46,0,0,1,.15-.88,2.08,2.08,0,0,1,.44-.69,1.94,1.94,0,0,1,.69-.44h0a2.31,2.31,0,0,1,.86-.15,2.42,2.42,0,0,1,.88.15,2,2,0,0,1,.68.44,1.94,1.94,0,0,1,.44.69,2.66,2.66,0,0,1,0,1.76,1.94,1.94,0,0,1-.44.69,2,2,0,0,1-.68.45,2.42,2.42,0,0,1-.88.15,2.31,2.31,0,0,1-.86-.15,2,2,0,0,1-.69-.45h0a2.08,2.08,0,0,1-.44-.69,2.46,2.46,0,0,1-.15-.88Zm9,1.66a2.24,2.24,0,0,1-.4.22,2.9,2.9,0,0,1-.41.16h0l-.43.1a3.4,3.4,0,0,1-.45,0,2.63,2.63,0,0,1-.91-.15,2,2,0,0,1-.73-.44,2.08,2.08,0,0,1-.47-.67h0a2.16,2.16,0,0,1-.16-.86,2.26,2.26,0,0,1,.16-.88,1.88,1.88,0,0,1,.47-.71,2.28,2.28,0,0,1,.73-.47,2.69,2.69,0,0,1,.92-.15,2.56,2.56,0,0,1,.39,0,2.79,2.79,0,0,1,.39.1h0l.29.09.11,0h0s0,0,0,0h0a.1.1,0,0,0,0-.05l0-.09v0h.19v0l.06,1.24v.06H123v0a2.06,2.06,0,0,0-.24-.47,1.21,1.21,0,0,0-.28-.31h0a1,1,0,0,0-.34-.17,1.65,1.65,0,0,0-.46-.06,1.52,1.52,0,0,0-.62.12,1.38,1.38,0,0,0-.49.38h0a1.62,1.62,0,0,0-.31.58,2.61,2.61,0,0,0,0,1.5,1.64,1.64,0,0,0,.32.58,1.33,1.33,0,0,0,.49.37,1.5,1.5,0,0,0,.64.13l.26,0,.24-.06a1,1,0,0,0,.21-.1.91.91,0,0,0,.16-.11V91.8a1.06,1.06,0,0,0,0-.27.15.15,0,0,0-.06-.11h0a.37.37,0,0,0-.15-.06l-.32,0H122V91.1h1.83v.23h-.05a1.17,1.17,0,0,0-.23,0h0a.32.32,0,0,0-.13,0,.23.23,0,0,0,0,.11.9.9,0,0,0,0,.24V93Zm1.69.36v-.18h.09a.55.55,0,0,0,.39-.1h0a.32.32,0,0,0,.08-.13,1.27,1.27,0,0,0,0-.22v-1.1l-1.31-1.83-.12-.13a.38.38,0,0,0-.13-.09h0a.94.94,0,0,0-.15-.06l-.18,0h0v-.23h2v.22h0l-.22,0a.28.28,0,0,0-.13,0l-.06,0a0,0,0,0,0,0,0,.16.16,0,0,0,0,.09h0a.52.52,0,0,0,.07.12v0h0l.92,1.31.78-1.19h0a1.19,1.19,0,0,0,.09-.15l.06-.09s0,0,0-.06h0s0,0,0,0,0,0,0-.05l0,0h0l-.12,0-.21,0h0v-.22H128v.22h0a.45.45,0,0,0-.16,0,.42.42,0,0,0-.13.07h0a.54.54,0,0,0-.14.13l-.17.23-1.06,1.61v1.2a.56.56,0,0,0,0,.2.24.24,0,0,0,.07.12h0a.34.34,0,0,0,.16.06,1.17,1.17,0,0,0,.29,0h0v.22h-2Zm-.72-3.56h0"/><path class="cls-1" d="M115.56,66.29l0,0a9.48,9.48,0,0,0,2.63-.37,2.86,2.86,0,0,0,0-1.4c-.36-.9-2.13-3-3.3-3l-.18.15A4.27,4.27,0,0,0,115.86,65a5,5,0,0,0-.3,1.26ZM16.75,74.73c0-.11-.08-.22-.11-.33.46-1.12,1.26-2.21,1.66-3.3a6.51,6.51,0,0,1,.41-1.29c.6-.9,2.41-1.07,2.78-2.15a1.59,1.59,0,0,0-.37-1.59c-.22-.15-.58-.06-.7-.3-.25-.46.4-1.3.55-1.59.91-1.78.18-5.38-1.82-5.38-.47.27-1.21.79-1.33,1.37s0,.87,0,1.3c-.42,1.37-1,3-1.51,4.34a12.61,12.61,0,0,1-.86,2.26,6,6,0,0,1-1.77,1.59l-.49.22c0,.14-.05.27-.07.41a2,2,0,0,0,1,.26c.33.55-.18,1.16-.37,1.67-.52,1.37-2.46,4.45-.74,5.7a1.42,1.42,0,0,0,1.34.19l1.92-.74c1.23-.36,3.3-.39,3.6-1.64a.93.93,0,0,0-.23-.77c-.9-1.38-1.69-.12-2.81-.23ZM32,73.07a.84.84,0,0,0-.89-.48l-.44.11c-.66.33-.45,1.61-1.08,1.92l-.59.11c-.5.24-1.1.51-1.63.82-1.28.74-2.46,1.72-3.7,2.48l-1.3.71-.67.59c-.37.21-.84.19-1.11.48a2.09,2.09,0,0,0,3,2.26A13.15,13.15,0,0,0,26,79c.3-.17.66,0,1.11-.15a7.29,7.29,0,0,1,2.78-.26c.73.1,1.78.36,2.08-.15.56-1-.08-2.44-.08-3.45,0-.59.4-1.46.15-1.92Zm-4,4.26c-.41-.35,1.3-1.4,1.6-1.6,1.1.08-.85,1.92-1.6,1.6Zm8.56-4c-.57-.77-.91-1.75-2.26-1.74l-.22.19a4.31,4.31,0,0,0,0,1.52c.08.47-.2.82-.11,1.18l.33.52a4.13,4.13,0,0,0,1.56,2c1,0,2.26-1,1.78-2.18a7,7,0,0,0-1.08-1.49ZM8.56,56c-1.09.6-.51,1.77-.26,2.78l-.15,1.78a35.25,35.25,0,0,0-.81,8.26l0,2.59a14.23,14.23,0,0,1,.19,3.78c-.22.77-1.08,1.06-1.48,1.63A14.05,14.05,0,0,1,2.78,80C1.53,80.86.27,81.59,0,83.44c.31.47.36.45,1,.67.3.11.52.45,1,.33,1.18-.26,3.1-3,3.71-4C6,80,6,79.36,6.3,79s.84-1.71,1.56-1.52c.39.25.77,1.42,1.59,1,.48-.23.68-1.59.52-2.33s-.46-1.82-.63-2.82c-.11-.61.17-1,.07-1.55l-.15-1.19a44.49,44.49,0,0,1,1.08-6.11c.49-1.46,1.32-2.74,1.67-4.23.11-.52-.2-.85-.3-1.18-.42-1.46-1.3-3.05-3.15-3ZM2.93,74.51c.21,1.61-1.49,2.93-1,4.15l.59.08a8.07,8.07,0,0,0,1.34-1.52c.17-.28.2-.55.44-.74.93-.74,2-1.2,2.6-2.3,0-1.39-2.14-2.44-3.6-2.41l-1.41.41c-.91,1.5.92,1.17,1.08,2.33ZM39,58.06c-1.65-.68-2.72,1-3.56.59-.4-.21-.43-.76-.93-.92l-1.88-.11A6.13,6.13,0,0,0,31,57.36a1.36,1.36,0,0,0-.59.55c.16,1.62,1.33,1.58,1.85,2.6a1.7,1.7,0,0,1,0,.22,9,9,0,0,1-1.44,1c-.6.41-1.19,1-1.82,1.37s-1.56.57-1.89,1.3c0,.1,0,.2,0,.3a2.41,2.41,0,0,0,.93.48,15.65,15.65,0,0,0,3.22-.74c.53-.23.88-.87,1.3-1.23a12.32,12.32,0,0,1,2.63-1.55c.82-.41,1.28-1.19,2.34-1.45l1,.19c.32-.3,1.39-1.13,1.11-1.82-.12-.31-.33-.35-.63-.48Zm-4,8.75a5.42,5.42,0,0,1,1.93-2.38c.51-.82-.37-1.78-1.19-1.77-.64.31-.93.75-1.48,1.07l-3.41,2c-.42.25-1.6.64-1.81,1l0,.23c1.3.8,2.1-.63,3.37-.56a1,1,0,0,1-.33,1.19,12.56,12.56,0,0,0-2.93,2.89h-.07l-.63-1c-.3-.37-.66-.51-.89-1-.74,0-1.42,0-1.67.48a15.5,15.5,0,0,0,1,2.49c.07.32.14.64.22,1l1.22.59c.85,0,.89-.55,1.22-1.11.23-.3.77,0,1.15-.22l1.3-.93,1.52-.66A5.64,5.64,0,0,0,35,67.84c.14-.38-.09-.6,0-1Zm24.16.59-.59.44c-.53.32-1.13.5-1.63.78l-3.71,1.56-.11,0c-.13-.3.62-1.82.82-2.22.35-.72.71-1.44,1.07-2.15a12.51,12.51,0,0,0,2-3.26c.37-1.23-1.76-2.44-3-2.41a9.89,9.89,0,0,1-4,.48h-1.6l-1,.52c-.54.93,2.07,3.68,3.45,3.41.81-.16,1.19-1,1.81-1.34l.23,0c.24.57-.31,1.24-.49,1.67a19.28,19.28,0,0,0-1,4.29c-.1.54-.38,1.26,0,1.67-.1.74-2.12,1.19-2.78,1.52a46.88,46.88,0,0,1-5.11,2.33c-1.06.39-3.12.85-3.6,1.71C40,77.49,42,79,43.46,78.14c2.48-1.5,5-2.92,7.48-4.48.66-.42,2.19-1.72,3-1.74l0,0v.11a4.78,4.78,0,0,0-.81.81c.07.15.07.15.22.22,1.13-.52,2.38-1.18,3.56-1.63l1.11-.18c1.23-.43,2.82-1,3.52-2a2.28,2.28,0,0,0-2.41-1.93Zm47.76,7.15a10.13,10.13,0,0,0-2.78-1.48c-.58-.23-.73-.65-1.67-.63l-.7.18c-.67,1.06.45,1.7.89,2.34s.31,1.17.63,1.81c.51,1,2.25,1,3.63.78.52-.79.52-.89.29-1.89a3,3,0,0,0-.29-1.11Zm19-.07c-.2-.09-.41-.37-.78-.26-.93.25-1.68,1.81-2.93,1.48-.38-.76.85-1.2.6-2.23s-2.05-1.18-3.26-1.29l-.19.11c-.72,1.92.7,1.47,1.15,2.33.13.39-.36.91-.45,1.34s0,.69-.07.92c-.71.46-1.51.76-2.26,1.23l-.41.37c-.67.31-1.66.15-2.15.63v.14a3.92,3.92,0,0,0,3.37.78l1.89-.92c.11.06.13.06.19.18.11.3-.11.71-.19,1-.77,2.65-3,.32-4.85,1.12l0,.11c.1,1.24,3.51,2.28,5,1.7,1-.39,2.75-1.63,2.41-3.22-.14-.65-.51-1.44-.63-2a1.15,1.15,0,0,1,.63-.51h.18c.06.35-.22.44-.29.77.53.1.78-.43,1.11-.66a7.34,7.34,0,0,1,1.33-.85,9.55,9.55,0,0,0,1.89-.75c.21-.92-.56-1.22-1.22-1.51Zm1.52-10.68c-.66.36-.57,1.29-1.63,1.34l-.08,0c-.22-1,.85-1.88,1.3-2.52l.44-.85.41-.33c0-.16.08-.32.11-.48a9.8,9.8,0,0,0,1.45-2.19A3.14,3.14,0,0,0,129.2,57a3.77,3.77,0,0,0-2.49-.07l-.4,1c.14.25.29.5.44.74.14.54-.31,1-.44,1.26a22.13,22.13,0,0,1-1.67,3.26l-.11.08a3.54,3.54,0,0,1,0-1.71c-.21-.41-1.06-.54-1.11-.78l.15-.48a1.21,1.21,0,0,0-1-1.67.55.55,0,0,1-.11-.4c1-1,1.25-2,.07-3a2,2,0,0,0-1.55-.63c-.21.12-.41.15-.52.37-.23.61.47.86.33,1.41a15.11,15.11,0,0,1-1,2.07c-.41.54-1.68.39-2.18,1a1.16,1.16,0,0,0,0,.18c.27.38.9.35,1.11.74v.11c-.2.53-.75.85-1.07,1.26v.37l0,.12.34,0,1.14-.7,1-.3c.26-.17.21-.44.6-.52h0c.26.58-.46,1.73-.74,2.12a9.17,9.17,0,0,0-1.66.18,1.94,1.94,0,0,0-.11.89c.3.17.69.23.85.56.25.85-1.22,2.2-1.34,3l.15.07c.73.28,2.65-1.5,3-1.93,1.16,0,1.31.07,2-.44h.18c.24.22.62.57.48,1s-1.17.72-1.77,1c-1.06.48-4.21,2.75-5.53,2.41a11.23,11.23,0,0,1-.18-1.26c-.39-1.26-1.48-3.29-3-3.3-.51.51.2,1.11.33,1.67.52,2.19-.16,2.48,2.11,3.18a.48.48,0,0,1,0,.45c-.21.14-.59.23-.74.44l0,.22a4.69,4.69,0,0,0,3.07.26c1.42-1,2.73-2.06,4.26-3l1-.66.48,0c.47-.2,1.36-1.06,1.93-.89l.15.11c-.22,1.72-3.9,3.61-5.08,4.82v.18l0,0a11.8,11.8,0,0,0,3.22-1.34l1.78-.37a10,10,0,0,0,4.08-3.77c.19-.28.6-.37.74-.71.45-1.09-1.8-2.54-3-1.93Zm-4.71.34-.37-.22a1.35,1.35,0,0,1,.52-1.56h.19a1.24,1.24,0,0,1-.34,1.78Zm-11.56,8.15c-.22.15-.44.3-.67.44l-.18.93c-.3.69-1.21,1.74-.93,2.67.21.45,1.32,1.31,2,1.11,1.3-.55,2-5.2-.22-5.15ZM87.48,60.17c-.48-.85-1.42-.79-2.34-.44a7.75,7.75,0,0,0-1.41,1c-1,.65-2.07,1.19-3.07,1.78-.38.23-1.86,1.22-2.08.82A2.4,2.4,0,0,1,79,61.43l1.15-.33c1.47-.61,3.88-2.22,4.45-3.7A2.74,2.74,0,0,0,82,55.88a5.87,5.87,0,0,0-2.14,1.18c-.77-.11,0-2-1.71-2a2.85,2.85,0,0,0-.59,2.52c0,.21,0,.42.07.63-.14.6-1,1.25-1.37,1.67l-.26,0c-.5-1.17-.49-2.75-2.18-2.19-.25.44.15.8,0,1.41l-.41,1.08c-.1.4,0,.86-.15,1.15-.64,1-2.48.87-3.44,1.51-.26,1,1.41,2.08,2.52,1.89.52-.08.68-.37,1.14-.48.43.31.85,1,1.71.85.37-.07.52-.3,1-.33h0c.07.12.14.2.07.37-.29.5-2.74,1.51-3.41,1.89-1.49.86-3.11,1.67-4.55,2.59-.9.58-1.72,1.41-2.63,2s-3.45,1.59-3.15,2.78l.18.29a3.28,3.28,0,0,0,1.56-.11l2-.33c1.4-.55,2.16-1.83,3.29-2.63.57-.4,1.09-.72,1.67-1.11s1.07-1.19,1.93-1.23l.11.12c-.27,1-.74,1.45,0,2.4,1.2.26,1.37-1.07,2-1.59a6.71,6.71,0,0,1,1.44-.89c.23-.1.38-.26.71-.18l.18.11c-.08.3-.48.3-.74.4a2.12,2.12,0,0,1-1.33,1.93c-.41.18-.7.18-.89.56l0,.22c.63.66.87.21,1.52.59.12.07.12.11.18.22a3.4,3.4,0,0,1-.07.34c-.16.23-.93.26-1.19.37-.37,1.06.81,1,1.15,1.7,0,.09,0,.18,0,.26-.22.22-1,.51-1.11.78-.29.72,1.4,1.29.59,2.19A19.5,19.5,0,0,1,72.21,80c-.36.07-.65-.2-1,0-1.48.92,1,2.77,1.89,2.85.6-.57.36-1.53,1.07-1.93A5.65,5.65,0,0,1,76.55,82l.59.66c1.74.35.71-1.29,1.11-2.11.24-.5,2.7-1.53,3.41-1.7.74-1.24-.81-2.42-1.59-2.71-.91.45-.57,2.3-1.52,2.78l-.26,0-.11-.11a8.14,8.14,0,0,1,.85-4.3c.25-.6,1-1.5.85-2.37-.07-.37-.15-.74-.22-1.11s-.51-.18-.74-.34l-.63-1.07v0c.2,0,.26.06.48.11l.22-.18c.08-.52-.22-.92,0-1.34.13-.2.36-.26.55-.4.84-.62,2.35-1.5,2.82-2.41a1.66,1.66,0,0,0-2.22-1.15c-.29.14-.36.38-.78.52h-.11l0-.19A11.54,11.54,0,0,1,82.14,63l.78.11,1.44-.67c.78-.23,1.14.09,1.86-.37.44-.28,1.78-1,1.26-1.89Zm-6.82-2.59h.11c.3.68-1.11,1.65-1.44,2.08H79.1c-.74-1.23,1-1.65,1.56-2.08ZM76.29,80.37A1.58,1.58,0,0,1,75,80.7l-.26-.33c.09-.64.6-.83,1-1.15H76l.07,0a2,2,0,0,1,.19,1.12ZM76,61.32c.16-.33.59-.47.89-.66H77c.27.47-.23,1-.56,1.18h-.36a.45.45,0,0,1-.08-.52Zm.22,2.08a.11.11,0,0,1-.22,0c0-.14,0-.27-.07-.41l.11-.15.22,0a.7.7,0,0,1,0,.52Zm-.59,5.15c-.16-.07-.19-.06-.26-.22C75,67.18,76.92,66,77.7,65.77c.44-.14.57.13,1.07-.19.25,0,.28,0,.33.23.13.52-2.9,2.48-3.48,2.74Zm28.6-4.93a1.35,1.35,0,0,0-1.92-.41c-1,.63-1.43,1.83-2.49,2.41-.28.15-.55.66-1,.41s-.07-1-.07-1.56a16.94,16.94,0,0,0,0-3.63c-.2-1-3-2.82-4.11-3l-.3.15c-1.12,1.92.24,2.66.81,4,.37.85.91,5.64.49,6.48-.3.6-1.92,1.34-2.52,1.74a28.61,28.61,0,0,1-4.6,2.67l-2,.82c-.51.13-.86-.06-1.23.18-.48,2.31.57,3.23,2.78,2.48a9.61,9.61,0,0,0,3.45-2.51,18.92,18.92,0,0,1,3.41-2.52l.25,0c.42.68-.13,1.74-.44,2.37a7.54,7.54,0,0,1-4.37,4c-1,.33-2.5-.06-2.93.88l.11.26a9.34,9.34,0,0,0,3.12,0l.77.07c2.76-.61,4-1.52,5.34-3.59a6.31,6.31,0,0,0,.89-1.56c.32-1.32.44-2.52.81-3.7.13-.42,0-1,.19-1.26a5.07,5.07,0,0,1,1.85-1.3l1.08-.89c.52-.38,1.1-.66,1.59-1s1.42-1,1.07-2"/><path class="cls-1" d="M44.4,35.77H61.25l.82-3.08H45.21Zm4.73-17.83h17L67,14.86H50ZM41.56,0H88.74a11.16,11.16,0,0,1,6.64,1.82H41.06ZM97.91,4a13.11,13.11,0,0,1,1.71,2.32H78.12A7.69,7.69,0,0,0,75,5.78H40L40.47,4Zm2.7,4.46a12.72,12.72,0,0,1,.59,2.32l-19.37.09h0l-30.8,0,.65-2.42,27.92.07H80Zm.73,4.45a14,14,0,0,1-.21,2.32H82.38a6.13,6.13,0,0,0,0-.86c0-.53,0-1-.08-1.46Zm-.77,4.45a11.18,11.18,0,0,1-1.16,2.32h-19a7.16,7.16,0,0,0,1.53-2.32Zm-3.12,4.49a11.25,11.25,0,0,1-5.4,2.32h-57l.45-1.91L74,22.39a7.93,7.93,0,0,0,3-.57Zm-3.58,4.46a16.8,16.8,0,0,1,1.59,2.32H74.06a3.22,3.22,0,0,0-1.67-.34H34.1l.47-2Zm2.58,4.46a12.59,12.59,0,0,1,.61,2.32H76.21a8.86,8.86,0,0,0-.47-2.32Zm.77,4.46a15.36,15.36,0,0,1-.17,2.33H75a5.76,5.76,0,0,0,1.09-2.33Zm-.73,4.46A9,9,0,0,1,95.19,42H30.32l.54-2H69.12a7.92,7.92,0,0,0,2.7-.33Zm-3.73,4.47c-2.53,1.54-5.8,2.09-9,2.29H29.14l.61-2.29Z"/></g></g></svg>