<svg xmlns="http://www.w3.org/2000/svg" viewBox="0 0 194.16 31.87"><defs><style>.cls-1{fill:#0096c2;fill-rule:evenodd;}</style></defs><g id="图层_2" data-name="图层 2"><g id="图层_1-2" data-name="图层 1"><path class="cls-1" d="M36.75,9l-.07,1.85a5,5,0,0,0,0,.55l0,1c0,.24,0,.31,0,.52s0,.37,0,.56,0,.15,0,.22,0,.44,0,.77l.09,2.76c0,.09,0,.17-.2.17-.46,0-.32-.21-.49-.42a.77.77,0,0,0-.19-.17,2.71,2.71,0,0,0-.42-.3c-.29-.13,0-.09-.71-.37a1,1,0,0,1-.51-.36,2.29,2.29,0,0,1-.18-.74,1.27,1.27,0,0,1,0-.61c.36.27-.11.54.7.63.3,0,.28-.08.5-.11l.6-.08c0-.24.36-.41.35-.66a.8.8,0,0,0-.19-.45l-.29-.24h0s0,0-.07,0,0,0-.19,0a1.74,1.74,0,0,0-.8-.22c-.34,0-.28,0-.39-.3a.68.68,0,0,1,0-.6l.54-.54c.17,0,.08,0,.38-.06l.2-.08c.1-.05.09,0,.17-.11A2.62,2.62,0,0,0,36,10.9c0-.63-.32-.69-.42-.77a2.22,2.22,0,0,0-.93-.28c-.19,0-.1,0-.29.05s-.1,0-.36,0c0-.14,0-.06.09-.23s.05-.19.08-.29a1.1,1.1,0,0,0,.07-.52c0-.14.07,0,.21-.23,0,0,0,0,.07-.09a.52.52,0,0,1,.18-.1c.16-.1.05-.09.16-.14s0,0,.18,0,.13-.1.19-.12.31,0,.54-.11L36,8c.37-.14.66-.21.7.52,0,.18.1.33.1.51ZM31.92,22.4v-.12c-.12.08-.13,0,0,.12Zm5.55-1c.22.34.72.18.72.08v-.08a.66.66,0,0,0-.51,0c-.08,0-.07,0-.21,0Zm-4.95,1.08.28.23c.11.07,0,0,.14.1l.06.06c.08.06,0,0,.1.06s.53.64.81.79.17,0,.38.18a.31.31,0,0,0,.35.11,1.2,1.2,0,0,0,.23-.06h.64c.16-.3.11-.1.31-.34.06-.07,0,0,.08-.08l.06-.05a.47.47,0,0,0,.16-.25l.13-.35c.11-.38,0-.09-.1-.65-.21,0-.25-.16-.38-.26s-.09,0-.18-.14-.16-.23-.19-.17L35,21.56a2.49,2.49,0,0,0-1.05.18c-.14.06-.33.35-.45.4s-.11-.07-.31.12-.37.18-.66.18Zm8.26-1.76c0,.26-.11.2-.28.12s0,0,0,.06,0,.09,0,.1c-.27,0-.57-.2-.6.12h-.4c.07.24.5.39.6.44a.62.62,0,0,0,.12.08l.64.2c.2,0,.16,0,.25.19a1.08,1.08,0,0,1,.27.61c0,.11-.11.16-.17.23s0,.19-.21.42a.34.34,0,0,0-.09.15c-.14.29-.11.05-.17.28.19.12.08.07.35.06h.06c.2,0,0,.08.32,0a.37.37,0,0,1,.47.15c.1-.08.13-.14.29-.16s.36.1.71,0,.13-.09.44,0c0-.08,0,0,.09-.11s.27-.13.27-.45a2.42,2.42,0,0,0-.41-1,4.62,4.62,0,0,1-.27-.62l-.12-.15c-.36-.46-.14-.16-.59-.53l-.1-.06c-.53-.32-.44-.18-.74-.19s-.39.06-.73.06ZM27.05,22.4c-.2,0-.05.05-.2,0s-.09-.1-.16-.1-.31,0-.35.17a.76.76,0,0,0,0,.67,2.43,2.43,0,0,1,0,.27,3.28,3.28,0,0,0,.48,1.16,2.17,2.17,0,0,0,.24.29,1.62,1.62,0,0,0,.46.29c.55.07.14.26.74.26.36,0,.2-.13.51.08l.3-.1c.3-.09.31,0,.52-.16.06,0,.29-.11.35-.68s.14-.3.18-.71c0-.12-.22-.67.1-.93a3.52,3.52,0,0,1,1.51-.61c-.11-.15-.11-.07-.26-.14s0-.13-.24-.13-.21,0-.3,0c-.24,0,0-.14-.63.06l-.14.05c-.11.05,0,0-.13.08-.26.12-.17-.05-.39,0a6,6,0,0,0-.74.3.42.42,0,0,1-.14.06,1.57,1.57,0,0,1-.54.11c-.37,0,.07,0-.44-.09l-.46-.14c-.14-.05-.18-.14-.3-.14ZM32.44,3.87c0,.46-.1.16-.27.38s0,.13-.09.23-.28.15-.35.33.07.05-.12.2a3.33,3.33,0,0,0-.43.56l-.55.68c-.11.14-.12.36-.28.44l-.18.15c-.1.1-.06.06-.13.18l-.49.67c-.08.12,0,0-.08.09-.28.22-.15.2-.28.35l-.46.54c-.11.22-.12.07-.24.24s0,.08-.07.13-.23.19-.31.37-.25.46-.12.71.06.27.16.4a.62.62,0,0,0,.38.16l.51.15a.58.58,0,0,0,.5-.07,2.9,2.9,0,0,0,.55-.61c.08-.13.1-.26.2-.4A5.85,5.85,0,0,0,30.7,9V9L31,8.71c.17-.25.11-.3.4-.48a.62.62,0,0,0,.17-.11c.22-.21.16-.1.37-.23s.07-.07.16-.12a1.61,1.61,0,0,1,.9-.18c.19,0,.28.25.28.4a8.67,8.67,0,0,1-.42,2l-.14.55a3.19,3.19,0,0,1-.11.33c-.07.31,0,.43,0,.74a9.88,9.88,0,0,0-.12,1.56,1.18,1.18,0,0,0,0,.37,5.84,5.84,0,0,1,0,1.26c0,.82,0,1-.08,1.68,0,.28,0,.17-.08.36s0,.2,0,.4-.09.64.3.81l.42.18c.48.1.18,0,.44.17a1,1,0,0,0,.23-.17c.27-.22.39,0,.48-.4s0-.13.2-.23c.41.27.23.15.63.25a1.06,1.06,0,0,1,.21.11c.2-.14.22-.13.49-.1l.3.07c.41.08.38-.16.62.37.15.32,0,.23.33.4s.19.23.71.37a1.81,1.81,0,0,1,.25.1c.36.11.86-.2.86-.49a2.54,2.54,0,0,0-.2-1.17c-.16-.49-.08-.6-.19-.76s-.07-.25-.15-.49l0-.07v0l-.08-1c.08-.45.3-.48.3-1.1,0-.08,0-.09-.09-.19-.12-.27,0-.45-.09-.75a9,9,0,0,1-.14-2A7.45,7.45,0,0,1,38.14,10a6.37,6.37,0,0,0,0-1.31c0-.35,0-.08.06-.31s0-.26.06-.42,0,0,.05-.15a5.66,5.66,0,0,1,.16-.76l.05-.16c0-.2.12-.71-.27-.94l-.49-.19c-.29-.08-.2,0-.65,0-.29,0-.55,0-.73.23a1.54,1.54,0,0,0-.09.19l-1,.6c-.18.12-.07.15-.22.2l-.25.1A.49.49,0,0,1,34.67,7a.52.52,0,0,0-.28-.2,1.08,1.08,0,0,0-.88,0c-.23.13.17-.13,0,0s-.13,0-.35.12l-1.4.8a2,2,0,0,1-.55.29c0-.32.2-.41.31-.65l1.16-1.8c.08-.18.19-.2.32-.32s.34-.46.6-.72l.33-.34L34.05,4c.19-.16.26-.4.51-.49a1.69,1.69,0,0,0,.24-.08c.11,0,.06-.07.19-.13s.23,0,.44-.24c.41-.51.56-.34.56-1.07a.73.73,0,0,0-.15-.41,3.26,3.26,0,0,0-.7-.86.82.82,0,0,0-.51-.21L34.41,1a2.08,2.08,0,0,0-.19.49A1.57,1.57,0,0,1,34,2l-.58.82c-.07.08-.09.13-.16.2s-.12.1-.18.17,0,.09-.13.2-.1.1-.17.19-.12.29-.37.34"/><path class="cls-1" d="M161.86,23.89v-.11c.12,0,.25-.15.24,0s-.09.12-.09.12,0,.05-.15,0Zm-6-16.1v0ZM158,2.7s.08.09.06,0,.09,0,0,0,0-.07,0,0Zm-.82,21.08c0-.14,0-.09-.12-.16,0,.16,0,.12.12.16Zm1.17-12.5h.07v-.12h-.07ZM153.59,16c.13,0,.12,0,.16-.15h-.16V16c-.18,0-.09-.08-.3-.16a.31.31,0,0,0-.13,0c0,.17.06.1-.11.12a.27.27,0,0,1,.23-.39v.19c.35,0,.25,0,.3-.08s0-.22.17-.34c-.08-.12-.08-.06-.12-.2.14-.07.13,0,.24-.11s-.06,0,.07-.08a.28.28,0,0,0,0,.11.29.29,0,0,0-.16.35h.12c.05-.13,0,0,.15-.11v-.39c-.12,0-.07,0-.15,0,0-.2,0-.08.08-.12s0-.07.2-.09.06-.14.17-.39.05-.06.05-.29c-.11,0-.08,0-.11-.12.31.07.06-.05.35-.08a1,1,0,0,0-.12-.23,3,3,0,0,1,.31-.16c-.05-.15,0,0-.12-.15l.24-.16-.05-.42a.67.67,0,0,0,.4-.39c-.12-.06-.11,0-.27,0v-.12c.52,0,.38,0,.34-.39.18,0,.16.1.21,0s-.06.07-.09-.21c.19-.08.07.1.21-.17,0-.1,0-.07.1-.1s0-.09-.07-.07,0,0-.05,0c0-.2.06-.17.18-.25s0,0,.09-.07a.82.82,0,0,0,.08-.49.64.64,0,0,0,.29-.22c.2-.22.32-.15.3-.48l.23,0c0,.2-.07,0-.12.24l.38-.2,0,0a2.93,2.93,0,0,1,.56-.28,3,3,0,0,1-.29.6l-.18.28a3.13,3.13,0,0,0-.15.32c-.07.2,0,.14-.12.3l-.13.18,0,0c-.12.22,0,.57-.22.75s-.23.32-.09.64l.14.33a.51.51,0,0,0,.38.32c.33.1.17.09.39.27s.63,0,.72.13a2,2,0,0,1-.16,1.24c-.06.09,0,.05-.06.15l-.14.57c-.16.37-.21.06-.34.56-.05.18-.12.06-.1.3a.94.94,0,0,0,.12.39c0,.07,0,0,0,.09s.13.26.33.37,0,0,.13.06c.35.14.33.23.57.29s.08,0,.18,0a.54.54,0,0,1,.38-.08.47.47,0,0,1,.06-.09,1.38,1.38,0,0,1,.53-.29,6.42,6.42,0,0,0,.86-.46c.22-.13,0,0,.24,0,0,0,.14-.09.2-.11a2.78,2.78,0,0,0,.48-.18c.06,0,0-.07.22,0s.05-.07.32-.08.19.1.38,0a2.86,2.86,0,0,1,.57-.09c.13,0,.08,0,.23,0s.41-.07.56-.05l.51.14c.54.19.64,0,.57.64a3,3,0,0,1-.1.87c-.19.39.1.24,0,.51,0,.1-.11.12-.16.19s.07,0,.07.31c-.08,0-.1.06-.15.12s.06,0,.11.23c-.16,0-.16.2-.23.31s-.17.13-.11.35c-.29,0-.27.19-.39.4a1.54,1.54,0,0,0-.08.19c-.08.19-.37.41-.47.61s.05.25-.09.37,0,0-.06,0c-.28.11.09-.06-.09,0s-.07.36-.3.51-.26,0-.31.23c.14,0,.05,0,.19-.08l0,.15c-.39.1-.31-.07-.58.43.12.16.1,0,.16.2a1.18,1.18,0,0,0-.41.05c-.15.05-.12,0-.16.11s0,0,.06.18l-.12.11c-.17-.05,0,0-.09-.05s0,0-.1-.06a2,2,0,0,1-.13.18c-.17.22-.26.08-.42.24s-.1.21-.26.25l-.12,0c-.15,0-.06.07-.25.1s-.14-.06-.26,0,0,.12-.11.24a.87.87,0,0,1-.34-.05c-.29-.06-.06,0-.29.05s-.13-.05-.28-.1a3.56,3.56,0,0,0-.63-.14.47.47,0,0,1-.24-.15l-.09-.1a1.61,1.61,0,0,0-.34-.24c0,.28-.07.14-.2.31a.8.8,0,0,0,.37.29l.07,0c.62.39.44.22.76.27.09,0,.08.06.21.08s.2,0,.29,0,.24.2.36.27c.28.16.29.05.53.13.52.17.22.19.91.18-.07-.13,0-.14-.2-.16.14-.19.19,0,.19,0s0,.1.2.12a1,1,0,0,1,0-.2c.2.1.15-.05.16.2.22-.06,0-.09.25-.1s.11,0,.29-.1.16-.06.27-.12a1,1,0,0,1,.26-.16c.18-.06.2-.17.34-.26h0l.07,0a.82.82,0,0,0,.2-.17l.41-.41c.1-.15.14-.11.23-.2s.06-.15.12-.26.15-.13.23-.21.12-.26.35-.46l.09-.1.08-.19,0,0v0a1.77,1.77,0,0,0,0-.19c.21,0,.1.09.19,0s.19-.4.38-.59.15-.11.22-.4a2.09,2.09,0,0,0,.08-.23c.07-.14.19-.22.25-.41a2.27,2.27,0,0,0,.06-.25c.06-.13.12-.14.12-.31v0l0-.11c.06-.14.07-.26.15-.42l.3-1a3.56,3.56,0,0,0,.09-.57c0-.21,0-.06.08-.23s0-.09,0-.26.08,0,0-.21,0-.56-.14-.84l-.27-.39c-.09-.12-.11-.09-.21-.18l-.07-.08c-.07-.09-.18-.11-.26-.17s0,0-.08-.08,0-.1-.29-.13a.46.46,0,0,1-.2,0c-.26-.08-.18,0-.4,0a1.23,1.23,0,0,1-.35,0c-.23,0-.21,0-.38,0s-.1-.1-.36-.06a3,3,0,0,1-.91.1c-.24,0-.15,0-.36.07s-.65,0-.95.26l-.18.09c-.45.13-.24-.07-.87.25l-.21.07-.19,0c-.2,0,0,0-.18.08s0,0-.13.05h-.08c-.1,0,0,0-.11,0a2.65,2.65,0,0,1,.15-.81l0,0,.11-.34c0-.1,0-.08,0-.18s0-.21.11-.38a.37.37,0,0,0,.06-.29,2.25,2.25,0,0,0,0-.69l-.21-.37a.94.94,0,0,0-.25-.37c-.09-.11-.06-.16-.17-.22l-.85-.35c0-.34.16-.16.16-.63-.14,0-.15,0-.06-.28s.13-.09.13-.38l.08.2a.39.39,0,0,0,.19-.28c0-.09,0-.12,0-.26.23,0,.17-.06.34-.4s.41-.47.55-.74.07-.22.14-.36.08,0,0-.36l-.4-.81-.23-.11a1.11,1.11,0,0,0-.82,0c-.11.08-.16.21-.26.29l-.8.45c-.07,0-.09.11-.12,0s.14,0,.15-.38c-.2,0-.07,0-.12-.08.13-.09.25-.05.31-.2a.75.75,0,0,0,0-.42c.51-.34.26-.54.42-.86.06-.11,0-.07.1-.21l0,0,0,0,0-.08,0,0s0,0,0,0,0-.17.12-.31a2.29,2.29,0,0,0,.29-.56c-.15-.06-.1.08-.15-.12.23,0,.24-.09.31-.27s.05-.07.13-.18,0-.06,0-.21c.22,0,.3-.3.42-.51s.05-.18.17-.33,0-.08.1-.25.11-.12.16-.19l.09-.15a2.94,2.94,0,0,0,.59-.89c.06-.15.1-.08.16-.29s0-.16.1-.26c.19-.31.13-.12.17-.54a1.13,1.13,0,0,0-.18-.5L160.42.3l0,0-.23-.2c-.31-.18-.61,0-.91.14s-.2.05-.41.33c0,.07,0,0-.08.11-.12.3.23.37-.1.83l-.45.84c0,.15-.05,0,.07.1s-.06.09-.11.24,0,.06,0,.13,0,0,0,.08a1.72,1.72,0,0,0-.22.33s0,0,0,.09l-.11.15s0,.15-.07.21a1.28,1.28,0,0,1-.1.17,6,6,0,0,0-.33.68c0,.3,0,.13-.13.34s0,.25-.12.41c-.07,0-.11-.08-.09-.16.14-.58,0-.36-.1-.74,0-.18,0-.08-.07-.24s-.28-.14-.35-.27a.66.66,0,0,1,0-.11c-.05-.11,0,0-.07-.13s.1-.37,0-.53-.12-.06-.2,0l-.05,0a1.11,1.11,0,0,1-.36.15c-.18,0,0,0-.16-.08s-.29-.09-.44,0a.43.43,0,0,0-.76,0,.54.54,0,0,0-.1.16,1.35,1.35,0,0,0-.12.51c0,.19-.06,0-.07.24s.07.05.1.2-.17.22.3.6.22.21.39.38l.09.07c.13.09.22.24.38.27s0,0,.21,0l.22,0c.26,0,.07,0,.27,0s.44-.14.64-.25a.41.41,0,0,1,.27-.08.15.15,0,0,1,0,.07v0a0,0,0,0,0,0,0c-.12.23,0-.17-.17.31,0,.13-.21.28-.23.43s.09.09.11.33c-.32,0-.27,0-.33.26s-.13.17-.22.39a1.08,1.08,0,0,0-.07.56c0,.3-.07.25-.31.31,0,.33-.21.55-.28.85,0,.15-.07.12-.13.25s-.05.18-.09.3c-.12.32-1.07.81-1.2,1.09,0,.08,0,.09-.1.17l0,0,0,0-.11.1-.09.1c-.09.1,0,0-.1.09l-.06,0,0,0-1.31,1.06a1.7,1.7,0,0,1-.19.19l-.21.18a.76.76,0,0,0-.21.18l-.65.59,0,0,0,0c-.37.4-.24.08-.53.36-.08.08-.1.14-.18.21s-.23.14-.24.28a.77.77,0,0,1,0,.15h-.11a.53.53,0,0,0-.23.16,1.37,1.37,0,0,0-.26.28,2.43,2.43,0,0,1-.22.29c-.09.1-.08.06-.14.13s0,.13-.19.32,0,0-.08.14,0,0-.11.13a1.12,1.12,0,0,0-.26.56c-.08.33-.17.07-.19.35.29,0,0,.13.39.66s.23.2.53.52l.21.14h0l.16.07h0c.15.09.19.25.32.34l.45.38a1,1,0,0,1,.39,1c-.09.26,0,.2,0,.42s-.06.15,0,.41a.78.78,0,0,0,.5.59.66.66,0,0,1,.27.12c.09.09-.1,0,.08.08a.46.46,0,0,0,.49-.09,1.53,1.53,0,0,0,.24-.92,1.16,1.16,0,0,1,.08-.4c.15-.81.1-.29.21-.71l.06-.18c0-.08,0,0,.08-.15-.15-.07-.1,0-.19-.12a.5.5,0,0,1,.31-.19c0-.35,0-.25,0-.41s.1-.23.1-.42a1.29,1.29,0,0,1,.08-.52c.06-.11,0,0,.06-.1a.59.59,0,0,1,0-.13c0-.14,0-.15.18-.17l0-.35c.21,0,.07,0,.12.08h.12c0-.11,0-.05.07-.11-.08-.12,0-.07-.15-.08,0-.3,0-.59.31-.43Zm3.73,7.73c0-.16-.08-.22-.24-.23.09.12.08.19.24.23Zm-1.52-3.46c-.74,0-.22.22-.73.28-.09,0-.44,0-.47.27s.45.46.6.52l.21.07c.29.1-.06.07.42.15.2,0,0,.06.24.07a.25.25,0,0,0,.12-.23c.2.13.12.47.62.35.33-.08.17.09.48-.07s.37-.06.38-.32l.38,0c.11-.44.07-.16.27-.28s0-.15.33-.33c.13-.08.09,0,.23-.08s.16-.18.42-.2c.55,0,.23-.13.53-.11s0,0,.51-.05a.89.89,0,0,0,.72-.37c.08-.1.22-.24.22-.36a.64.64,0,0,0-.17-.38A1.74,1.74,0,0,0,161,19c-.07-.07-.07-.14-.11-.19s0,0-.19-.09-.06,0-.19-.08l-.36-.22c-.28.19-.44,0-.58,0,0,.15-.09.15-.25.25l-.12.08-.24.11c-.14.06-.15,0-.29.1l-.3.2a.13.13,0,0,0,0,.05l-.06.06-.09.06c-.07.08,0,0,0,.05s0,0-.05.07-.1,0-.26.13c-.38.33-.11.05-.43.26a1.69,1.69,0,0,1-.51.23c-.32.11-.21.13-.5.24s-.1-.07-.57-.07Zm-3.49-1.12v.11h-.08c0-.1,0-.06.08-.11Zm-.51-.62c0,.18,0,.15-.11.19,0-.15,0-.13.11-.19Zm0,0,0,0Zm0,0V18.3h.08c0,.18,0,.07-.08.16Zm.31-1,0,.07Zm.35-.2c.08-.16,0-.12.16-.23,0,.27,0,.16-.16.23Zm-.31,0a.9.9,0,0,0,0-.19c.12,0,.07,0,.16,0s0,.07-.2.15ZM148.7,17l0,.08Zm0-.11a.18.18,0,0,1,0,.11l-.08,0Zm3.8-.24v.27h-.11c0-.21,0-.22.11-.27Zm.2.24c0-.11,0-.16.11-.16s.1,0,.12.12Zm-4-.24c0-.18,0-.06.08-.15,0,.07,0,.13-.08.15Zm3.92-.5s0,0,0,.08v.11c-.12-.09-.09,0,0-.19Zm.31.27c0,.15,0,0,0,.1l.07.06a1.09,1.09,0,0,1-.28,0c0-.31.16-.12.16-.58H153c0,.27-.08.21-.08.39Zm-3.8-.47.11.08c-.24,0-.06,0-.11-.08Zm3.61-.23h0s0,0,0,0Zm.58-.54c0-.08.05-.14,0,0s0,.16,0,0Zm.11-.16c0-.13,0-.11.08-.19,0,.09,0,.16-.08.19Zm.12-.23h-.08c0-.18,0-.19.16-.23,0,.22-.07.08-.08.23Zm-3.22-.19.11-.13c0,.18,0,.06-.11.13Zm3.3-.24c.05-.1,0,0,0-.19.18.05,0,.06.23.08,0,.21,0,.07-.08.09l-.19,0Zm-2.83-.11,0,.07c-.24,0-.18.11-.25,0s0-.05,0-.08.07,0,.18,0Zm2.75-.27v.11h-.15c.06-.1,0-.08.15-.11Zm.39,0c.17,0,.1-.06.12.11Zm-3.14.27v-.2c.13-.07.07,0,.17-.13s0-.1.21-.14c0,.14-.37.46-.38.47Zm.27-.66,0,0Zm0,0,.07,0Zm3-.16h0s0,0,0,0Zm-2.75-.08,0,.09Zm0,0,0,0Zm.08-.08c0,.12,0,.05-.08.08Zm2.25,0c.09,0,0,0,.07.08Zm.46.08c0-.16,0-.12.12-.16,0,.18,0,.07-.12.16Zm-.46-.08,0,0Zm1.08-.43c0-.1.06,0,0,0s0,.11,0,0Zm-2.64,0L152,13c0-.08.06-.13-.08-.19.07-.06.05-.05.16-.08s0,.06.07.12m0,0,.15-.16c0,.14,0,.12-.15.16Zm2.29-.27,0,.08Zm-1.86-.31c-.06.08,0,.05-.12.08.06-.09,0,0,.12-.08Zm0-.08,0,.08Zm1.71-.27h0s0,0,0,0Zm.39-.08c0-.16,0-.08.15-.15,0,.15,0,.13-.15.15Zm-1.05,1.36c-.21.14-.2.2-.21.29a1.21,1.21,0,0,1-.19.44c-.07.15-.13.09-.21.21s0,.05-.11.29,0,.41-.18.7c-.09.11,0,0-.1.18s-.07.28-.12.42a1.16,1.16,0,0,1-.22.36c-.11.18,0,.18-.16.38a1.77,1.77,0,0,0-.24.58c-.05.12,0,.06-.09.18l-.37,1c-.05.16,0,.08,0,.19s0,0-.08.16l-.21.63c-.14-.09,0,0-.11-.12l-.26-.45c-.08-.15-.2-.2-.14,0s.06.1.08.15a.6.6,0,0,1,.08.2c-.1,0-.24-.23-.54-.43l-.14-.09c-.1-.08,0-.06-.13-.14l-.85-.64a1.44,1.44,0,0,1-.4-.6.78.78,0,0,1,.26.28.55.55,0,0,0,.29.25c.1.05.89.75.52.15l-.31-.51a.57.57,0,0,0-.28-.27c-.18-.08-.2-.07-.25-.29.22-.08,0-.09.36-.45.12-.13.13-.26.35-.51a3,3,0,0,1,.39-.46.57.57,0,0,1,.15-.12c.12-.1.17-.17.31-.28l.07-.05c.1-.09.08-.11.16-.22l.15-.2c.06-.08.26-.15.34-.24s.05-.08.1-.17.06.06.32-.26.07-.05.28-.24h0l0,0a1.25,1.25,0,0,0,.25-.33c.21-.27.1-.08.3-.17a2.44,2.44,0,0,0,.32-.26c.29-.4.19-.21.45-.4s0-.17.19-.2,0,0,.1,0c.3-.1.15-.31.61-.32-.09.13-.05,0-.14.13s0,.09-.11.28c-.25.45-.07,0-.2.47a.49.49,0,0,1,0,.11l0,.11c-.07.15-.15.13,0,.34Zm-1-1a1.57,1.57,0,0,1,.58-.47c-.07.27-.15,0-.15.35-.28-.18-.11.09-.43.12Zm.58-.47a.89.89,0,0,1,.31-.27.38.38,0,0,1-.09.18.34.34,0,0,1-.22.09Zm.31-.27a1.48,1.48,0,0,1,.43-.31.65.65,0,0,1-.43.31Zm.47-.39v0s0,0,0,0Zm.39-.23-.08.05Zm0,0c.06-.1,0-.08.15-.12,0,.11,0,.08-.15.12ZM157,9.38c.09-.13.06,0,.15-.2.22.15.09,0,.43,0a.78.78,0,0,1-.58.2Zm.19-.47c0-.1.06,0,0,0s0,.11,0,0Zm.08-.31a.41.41,0,0,1-.24.16c0-.19.07-.13.08-.31Zm-1.13-.31c.07-.06,0,0,.16-.08-.09.13,0,.06-.16.08Zm.23-.39c.05,0,.15.06.05,0s-.11,0-.05,0"/><path class="cls-1" d="M182.39,7a.28.28,0,0,1,.37-.27v.12c-.31,0-.12.09-.37.15Zm-6.95,8.89h0s0,0,0,0Zm8.3-10.4c.14,0,.13,0,.17-.16-.17,0-.12,0-.17.16Zm-9.45,5.66.05,0h0c.1,0,.3.09.36.17s.1.25.41.31.29.18.83,0c.17,0,0,0,.22-.13s.31-.14.37-.32l0-.12c.07-.16.07-.11,0-.28s0,0,.17,0c0-.18-.11-.19-.22-.31-.37-.37-.24-.4-.5-.53s-.18-.06-.18-.33c-.44-.22-.27-.22-.48-.44-.6-.59,0,.06-.42-.49a.78.78,0,0,1-.51-.1c-.17-.1-.18-.2-.35-.25-.23.16-.25.52-.28.71-.09.48-.12.14,0,.61.3.86-.21.92.18,1.26.12.11.2.11.22.29Zm-.08,1.25c-.17,0-.17,0-.17.19a4.22,4.22,0,0,0,.3,1.66c.11.18.1.08.17.3s.2.27.19.39a.57.57,0,0,0,0,.44.49.49,0,0,1,0,.24c.2,0,.08,0,.2,0v.11h-.16c.11.2.19,0,.21.59,0,.31.28,1,.28,1.27,0,.13,0,.27,0,.39a2.13,2.13,0,0,1,0,.39c-.24,0-.07.06-.28.12v.12c.47,0,.43.38,1.26.42.29,0,.26.11.5,0,.15.1.05.11.28.12,0,.2,0,.07.08.12.28-.5-.08-.79-.2-1.09a.68.68,0,0,0-.1-.21c-.25-.39-.53-.72-.78-1.09-.35-.53-.1-.31-.36-.63l-.07-.08c-.07-.07.05,0-.08-.09l-.09.12c.07.23.19,0,.11.21s-.1,0-.27,0c0-.36.1,0,0-.4l0-.64c0,.14,0,.38.2.34s.09-.28.09-.46a2.94,2.94,0,0,1,.05-.69c0-.09.06-.08.07-.2.23,0,.19,0,.25-.12.14-.32,0-.33,0-.55s0,0-.07-.14,0,0-.13-.11,0-.12-.16-.31l-.09-.07c-.44-.29,0-.24-.47-.41-.2-.08-.08-.09-.26-.18s-.11,0-.26-.06-.05-.1-.25-.11ZM172.08,20a1.2,1.2,0,0,0,.52.86c.6.48.81.27,1.57.27.22,0,.21-.07.4-.07l1.39,0c.34,0,0,0,.38,0a2.1,2.1,0,0,0,.36,0l1,0c.27,0,.34.12.55.17s1,.05,1.31.11.53.06.88.14c.19.05.07,0,.31,0l.31.06a1.81,1.81,0,0,0,.61,0c.1,0,.15.06.32.06s.16,0,.21,0,.1,0,.21.05.18-.12.44,0a5.4,5.4,0,0,0,1.19.43c.14,0,.3.15.55.25l.3.12h.05a7.46,7.46,0,0,0,1.41.42l.13,0a4.21,4.21,0,0,1,.85.08c.18.05.34,0,.53.05l.45.12c.27.12.32.05.6.05.08,0,.15.09.29.11l1.2-.06a3.62,3.62,0,0,0,.72-.09,10.13,10.13,0,0,0,1.12-.1l.66-.19a10.66,10.66,0,0,0,1.08-.64c.26-.14.18-.25.17-.47-.45,0-.77.15-1.18.11a5.56,5.56,0,0,0-.58,0c-.31,0-.76,0-1.09,0l-.59,0c-.16,0-.07,0-.21,0A8.66,8.66,0,0,1,189,22a3.57,3.57,0,0,1-.38-.14h0c-.12,0,0,0-.07,0s-.12,0-.31,0l-1.12-.1c-.14,0-.09.08-.17.08s-.13,0-.29-.08a2.51,2.51,0,0,1-1-.2.59.59,0,0,0-.14-.06l-1-.41-.12,0-.13-.06-.41-.12c-.27-.11-.64-.09-1-.19-.51-.17-.35,0-.54,0l-.75-.08c-.29,0-.15.06-.48,0s-.66,0-1.06-.12c-.17,0-.38,0-.57,0a6,6,0,0,1-.61-.08l-.06,0h0l-.76-.18a.84.84,0,0,1-.3-.06,2.76,2.76,0,0,0-.66-.11c-.25,0-.52,0-.78,0l-.46-.12a.63.63,0,0,0-.29,0,1.49,1.49,0,0,1-.53,0c-.23-.06-.28,0-.49,0s-.12-.08-.4,0a1.92,1.92,0,0,1-.59,0c-.28,0-.37.05-.63-.14s0-.08-.21-.08a.66.66,0,0,0-.63.49Zm10-13.47c-.05.11,0,.08-.17.12.1-.17,0-.1.17-.12Zm-.41-.07h-.09c0-.18,0-.07.09-.16a.15.15,0,0,1,0,.16Zm.41.07c0-.09,0,0-.11-.13l-.14-.06c.13,0,.12-.05.25-.08,0,.15,0,.12.12.16,0-.18,0-.06.09-.19a.77.77,0,0,1,.15-.16c-.06.27,0,0,0,.27-.09,0-.08,0-.2.07s0,.08-.2.12Zm.36-.46c.05,0-.06-.07.07,0s0,0,.06.06c-.11,0,0,0-.13,0Zm.78-.62c0-.11,0-.14.14-.19s.15,0,.19.07c-.41,0,0,.05-.33.12Zm1.15-.93a.35.35,0,0,1,.16,0,.42.42,0,0,0,0,.12c-.16-.1-.06,0-.12-.15Zm.24-.39h.08v.11c-.15-.1,0,0-.08-.11ZM182,5.39c-.38-.68.13-1.16-.24-1.16-.14,0-.2.13-.34.18L181,4.5c-.12,0-.09-.06-.21-.12s0,0-.11,0-.26-.26-.46-.38-.4-.5-.78-.58c-.19.28-.12.22-.12.78a.52.52,0,0,0,.13.3,3,3,0,0,1,.18.3,4,4,0,0,1,.3.42,2.65,2.65,0,0,0,.47.71.68.68,0,0,0,.12.12l.29.19c.16.12.2.07.39,0l.13.15c-.44,0-.09.17-.28.32s-.21.1-.28.21l0,0,0,0a.22.22,0,0,0,0,.11,1.31,1.31,0,0,0-.56.36c-.42.43-.74.44-1.16.72l-.15.09c-.34.17-.34.39-.34.73,0,.06.35.93.78.93.19,0,0,0,.11,0l.14,0c.29,0,.25-.17.42-.36,0,0,.19-.16.19-.2,0-.39-.06-.2.36-.36.21-.07.12,0,.23-.2s.13-.28.34-.35a.81.81,0,0,0,.4-.28c.12-.18,0-.11.24-.19a2.88,2.88,0,0,0,.31-.17l.42-.23a6.06,6.06,0,0,0,.73-.43l.61-.31a1.69,1.69,0,0,1,.34-.11,1.47,1.47,0,0,1,.4-.09c0,.14-.24.25-.36.36s-.22.23-.35.37a9.48,9.48,0,0,0-.89,1.25,2.37,2.37,0,0,0-.23.48c-.05.09-.11.13-.14.21s0,.13-.09.27a.22.22,0,0,1-.07.09v0l-.39.83a.85.85,0,0,1-.09.27l-.28.78c0,.11,0,.17-.06.29s-.07.16-.11.25a2,2,0,0,0-.06.28c-.07.32-.24.74-.34,1.09a1,1,0,0,0,0,.26c0,.16-.06.12-.08.24s0,.12.06.26c-.18.06-.09.24-.14.41a2.66,2.66,0,0,0,0,.28c0,.11-.08.21-.08.28s.07.06.06.19l-.12.68c0,.17-.08.27-.12.43a4.55,4.55,0,0,0-.1,1.38.44.44,0,0,0,.2.39l0,0,.23.13c.11,0,0,0,.33,0s.7-.73.72-1.09a11.08,11.08,0,0,1-.09-1.18,6,6,0,0,0,0-.95l.26-1.5c.09-.36.31-.47.31-.83.12.08,0,0,.07.09l.19.29a1,1,0,0,1,.07.47c0,.09-.12.17-.17.27s-.21,1.12.13,1.21a1.58,1.58,0,0,0-.08.46.93.93,0,0,1,.44,0c.39.15.41.09.76-.06s.54-.44.17-.71c-.18-.13-.06-.13-.21-.3a3.37,3.37,0,0,0-.31-.21,1.27,1.27,0,0,1-.24-.28c.76-.48,1.23-.51.87-1.48-.1-.3-.29-.34-.62-.34l-.23,0c-.25,0-.05,0-.22,0a1.17,1.17,0,0,1-.25-.08,1.18,1.18,0,0,1,0-.2,3.25,3.25,0,0,1,.33-.77l0-.08a3.82,3.82,0,0,1,.47-.6l.22-.22.13-.11c.13-.08.22-.07.32-.16s.3-.16.41.09.05-.06.05.11v.85c0,.17-.07.12-.09.31l0,1.25a.85.85,0,0,0,0,.3l0,.59c0,.12.06.16.07.31l.07.68c0,.19,0,.13,0,.26s0,.16,0,.3.05,0,0,.26a2.8,2.8,0,0,0-.06.28c0,.19,0,.18,0,.32s0,.16,0,.34a1.71,1.71,0,0,1,0,.55c0,.14,0,.11,0,.23s0,.06,0,.27a1,1,0,0,1-.32.58.42.42,0,0,1-.37-.54,1.91,1.91,0,0,0-.77-.63c-.14-.05-.28-.2-.42-.26l-.28-.08c-.11.06-.13,0-.17.15a1,1,0,0,0,0,.34c0,.44.12.33.23.61,0,.12,0,0,.06.13A1.34,1.34,0,0,0,183,18c.17.11.69,0,.95.31a2.07,2.07,0,0,1,.2.43l.19.37a.26.26,0,0,1,0,.08c.07.15,0,.17.16.28a.62.62,0,0,0,.27.17c.19.07.15.07.33,0s.09-.05.29.08c.17-.11.13-.08.41-.08l.1-.17c.17-.21.14-.44.31-.76l.16-.51c.1-.33.09-.75.18-1.07s0-.05,0-.23l0-.88c0-.09,0-.14,0-.29a5.47,5.47,0,0,0,0-1.41c-.06-.17-.09-.28-.15-.48s-.18-.3-.18-.53.09-.17.12-.31c-.16-.22-.16-.15-.14-.4,0-.44-.06-.88-.06-1.34a3.92,3.92,0,0,1,.15-1.41l0-.29a1.35,1.35,0,0,0-.08-.4.82.82,0,0,0-.77-.39c-.14,0-.07,0-.19-.05a.54.54,0,0,0-.18,0,2.28,2.28,0,0,0-1,.09l-.21.06c-.09,0-.09.08-.14.14l-.14.15A3.08,3.08,0,0,0,183,10l-.65,1.09a.71.71,0,0,1,.05-.26c0-.05,0-.21.05-.27s.1-.14.14-.32v0a1.09,1.09,0,0,1,.25-.4l.3-.45c.22-.44.36-.31.63-.69a4.82,4.82,0,0,1,.48-.7l.56-.52a2.61,2.61,0,0,1,1.31-.7,1.65,1.65,0,0,0,.78-.23.61.61,0,0,0,.24-.43,2.44,2.44,0,0,0,.12-.55c0-.08-.09-.17-.14-.25A1.14,1.14,0,0,0,186,4.92l-.25.08a2.45,2.45,0,0,0-.58.22c-.31.19-.28-.07-.59.18l-.8.41-.16,0c-.41.11-.17.09-.7.31-.17.07-.1.08-.27,0,.05-.13.08-.09.16-.23h.29c0-.23.07,0,.08-.31-.19.12-.33.24-.25-.12.24,0,.23.08.49.08.06-.18.07-.11.25-.08a.43.43,0,0,1,.12-.34c.31,0-.06,0,.25.07a.5.5,0,0,0,.12-.23c-.29,0-.05,0-.24.12V4.88c.4,0,.07-.15.45-.23l.08.27.22-.18v0a.67.67,0,0,1,.16-.24.67.67,0,0,0,.31-.33.8.8,0,0,1,.09-.14,3.86,3.86,0,0,1,.63-.65l.3-.18c.32-.17.33.06.47-.29a1.61,1.61,0,0,0,0-1.12c0-.15,0-.08-.06-.22l-.29-.42s0,0,0,0l0,0-.7-.7-.19-.08c-.55.34-.14.3-.45.74a2.88,2.88,0,0,0-.17.64,2,2,0,0,1-.34.73,4.93,4.93,0,0,0-.65.94c-.1.25-.36.35-.49.58a5,5,0,0,1-.39.52l-.37.36a1.64,1.64,0,0,0-.23.28.59.59,0,0,1-.27.29"/><path class="cls-1" d="M9.9,7c-.06.24-.13.15-.32.3a.81.81,0,0,1-.4.21v.11c-.19,0-.15.09-.32.19A.67.67,0,0,1,8.45,8c0,.07,0,.12-.07.18-.35,0-.26.21-.58,0-.1.08,0,0-.11.14-.23-.05-.13,0-.3,0l-.24.12c-.08,0-.25.22-.25.32A1.85,1.85,0,0,0,7,9.21a1.14,1.14,0,0,0,.1.36c.07.11.11.06.17.19a2.1,2.1,0,0,0,.29.58c.08.07.12.06.18.15a.67.67,0,0,1,.06.3c.15,0,.14-.06.22.07.18.28.1.15.38.34s.44.13.77.13a1.51,1.51,0,0,1,0,.47c0,.12,0,0,0,.07V12a1.64,1.64,0,0,1-.07.15c-.06.25,0,.34,0,.6s0,.62-.07.84L9,14.37c0,.43.08.24.08.36S9,14.86,9,15c.28.19,0,.1.19.58,0,.11,0,.32.11.43l.3.6a.58.58,0,0,1,.12.42c.17.09.15.15.24.31s0,0,.05.16,0,0,0,0a0,0,0,0,0,0,0c0,.08,0,0,0,.07l0,.07v0l0,0c.1.2.09.39.2.58l.06.1c0,.08,0,.09,0,.17s.22.29.26.5c.08.41.12.19.15.39s0,.11,0,.17,0,0,0,.11l.12.47a3.69,3.69,0,0,1,.1.66,5.9,5.9,0,0,1,0,1.19c0,.14,0,.05-.08.17a1.43,1.43,0,0,1-.47.58,3.93,3.93,0,0,1-.85.49l-.56.19c-.19.05-.11,0-.21.09.09.13.24.07.58.07a5.94,5.94,0,0,1,.75-.13c.15,0,.06,0,.23-.05l.14.15c.18-.05.48,0,.61-.08s0-.12.24-.09a1.51,1.51,0,0,0,.79,0l.32,0c.44,0,.31.1.6-.23s.3-.85.3-1.54a9,9,0,0,0-.23-1.51,2.69,2.69,0,0,0-.19-.67L13,19.13c0-.1-.12-.26-.12-.31s.06,0,0-.16-.15-.28-.15-.48-.11-.25-.15-.45l-.17-.48c0-.11-.09-.11-.11-.21l-.11-.22c-.16-.18-.11-.44-.24-.66l-.17-.27c-.09-.09-.1-.32-.19-.46s0,0-.06-.16l0-.65a.85.85,0,0,0,0-.39c-.05-.09-.12,0-.05-.35a1.13,1.13,0,0,1,0-.18l0-.23c0-.13.07-.06.07-.18s-.1,0-.1-.29h.1a2.55,2.55,0,0,1,0-.47c0-.12.06-.09.09-.18.09-.24-.17-.3.36-.58v-.33c.23-.15.13-.12.24-.34a.77.77,0,0,0,.06-.15c.1-.33.15-.07.32-.51.1-.25.26-.27.4-.43l.21-.19a1.57,1.57,0,0,0,.14-.29c.1-.09.1,0,.21,0a.64.64,0,0,1,.44-.17c0-.24,0-.11.13-.2s.1-.18.2-.3l0,0,0,0,.33-.42c.1-.12.11-.06.12-.25s0-.22,0-.32a1.61,1.61,0,0,0,.05-.44l0-.14c0-.22,0,0,.05-.29-.11,0-.1,0-.18-.12s-.08-.15-.17-.26-.05-.18-.16-.34-.09-.06-.16-.14a.61.61,0,0,0-.3-.21h0c-.12,0,0,0-.17-.05V5.66h-.11V5.55c-.22,0-.2-.11-.47-.11-.06-.12,0-.07-.11-.14a1.28,1.28,0,0,1-.64.22,2.82,2.82,0,0,0-.8.43c-.16.08-.11.1-.21.15l0,0a.41.41,0,0,0-.23.13c-.2.21-.34,0-.48.24a1.27,1.27,0,0,1-.31.3c-.2.18,0,.24-.38.24ZM.43,18.89c-.3.45-.3.22-.39.48a2.75,2.75,0,0,0,.08,1.27l.2.56c.07.17.1.13.2.27l.22.29c.07.09,0,0,.11.1S.91,22,1,22s0,0,.17.1.09,0,.13.12c.21,0,.07-.08.36-.08.1,0,0,0,.18.08s.22,0,.47-.11.32,0,.49-.38l.06-.35a2.5,2.5,0,0,1,0-.35,1.36,1.36,0,0,0-.13-.68c-.19-.33-.09-.42-.3-.54l-.3-.12c-.12-.05-.22-.06-.33-.11l-.75-.51c-.22-.27-.21-.18-.62-.18Zm17.75-3c-.12,0-.09-.08-.24-.05s-.38.12-.43.22c-.24.43,0,.18-.08.49s.06.22.06.28,0,.17,0,.31.05.11.12.25a3.69,3.69,0,0,1,.05.64,3.12,3.12,0,0,0,.2.59.69.69,0,0,1,0,.08l0,.14L18,19c0,.1,0,0,.09.13s.05,0,.1.08,0,.11.13.22,0-.08.21.2.3.27.47.43l.25.14a1,1,0,0,0,.45.1c.16,0,.08.07.15.07s.12-.06.21-.05.1.05.18.09.08,0,.22,0,.4.14.58-.19l.16.05c.14.06,0,0,.16.06,0-.16,0-.11.13-.17s0,.15.25-.29l0-.05a.44.44,0,0,0,.06-.25c.2,0,.25,0,.26-.1v-.3c0-.11-.06-.07-.09-.16s0,0,0-.2-.06-.13-.08-.21,0-.09,0-.26,0,0,0-.07L21.68,18c-.19-.24-.07-.22-.16-.42s-.14,0-.29-.33c0,0,0,0,0-.05-.16-.32-.2-.16-.34-.34s0-.07-.14-.16l-.16-.09h0l-.18-.11c-.15-.08-.2-.23-.27-.27s-.17.07-.37-.22l-.18.11c-.07-.26-.13-.09-.46-.26s-.3-.08-.54,0-.05,0-.18,0-.1.05-.19.05"/><path class="cls-1" d="M54,5l0,0-.06,0-.13.11a1,1,0,0,0-.29.59c-.13.52.08.45.17.84,0,.13,0,0,.07.17a2.11,2.11,0,0,1,.24.44c.15.48.47.54.62.7l.38.33c.19.14,0,.09.32.13s.45.22.69.08c.07-.05,0-.06.14-.1.3-.14.5-.06.61-.5a1.35,1.35,0,0,0,0-.73c0-.36-.22-.47-.1-.68L56.92,6a2.13,2.13,0,0,1,.37-.55l.06-.06,0-.07.1-.15c.11-.16-.09.12,0,0l.28-.32c.15-.12.2-.26.45-.47s.38-.4.49-.43a2.17,2.17,0,0,1-.19.66L57.28,7.68l-.08.11c-.23.36-.84,2.25-1.06,2.77a4.24,4.24,0,0,1-.38.87,3.21,3.21,0,0,1-.58.45l-.12.08-.25.15a4.29,4.29,0,0,1-.48.36,2.67,2.67,0,0,0-.48.32l-.48.32c-.52.36-1,.84-1.55,1.16l-.08,0c-.09.07-.1.13-.19.21l-2.82,2.25a5.77,5.77,0,0,0-.85,1.39.87.87,0,0,0-.2.89c0,.2,0,.11.08.24.38.49.72,0,1.29,0a.7.7,0,0,0-.18-.42c-.12-.19-.1-.24-.34-.3a2.19,2.19,0,0,1,.36-.67c.21-.3.48-.56.71-.85l.26-.26c.21-.2.49-.65.86-1l.33-.34c.11-.11.15-.11.25-.2a1.5,1.5,0,0,0,.2-.23l.66-.62c.15-.14.25-.34.43-.45a.28.28,0,0,0,.12-.08l.13-.11.51-.37.24-.19.13-.07.39-.3a2.94,2.94,0,0,1,.26-.17l.25-.19,1.05-.7a4.73,4.73,0,0,1-.22.54c0,.11-.08.15-.11.24s0,.1-.11.29-.07.25-.15.41l-.07.13-1.73,4c-.05.12-.09.14-.15.26s-.16.45-.28.67,0,0-.06.14l-.06.14a9.59,9.59,0,0,1-.66,1.46c-.32.29-1-.27-1.36-.38-.12,0,0-.05-.17,0s-.24.06-.18.2.19.17.25.22.12.18.36.32l.19.13a1.11,1.11,0,0,1,.32.36c.17.32,0,.41.25.79a.66.66,0,0,0,1.09,0c.1-.2,0-.11,0-.25s.13-.22.21-.59l.4-1a1.6,1.6,0,0,0,.17-.35,7.18,7.18,0,0,1,.34-.79,1.66,1.66,0,0,1,.06-.21L54.63,17c0-.09,0,0,.1-.18a1,1,0,0,1,.06-.18,11.72,11.72,0,0,0,.69-1.5l1.1-2.74c0-.06.06-.16.07-.21l.26-.82c.18-.56.19-.35.53-.58L59,10.06a1.5,1.5,0,0,1-.32.52c-.08.1-.08.05-.17.15s-.14.22-.24.32-.21.14-.23.37c-.24,0-.28.3-.54.62l-.5.62c-.09.14-.26.3-.28.47-.16,0-.18.06-.24.21a1.14,1.14,0,0,0,.07.73c.08.19.16.45.37.54s.22,0,.33,0,0,0,.14,0,0,0,.14-.07.28,0,.43,0a1.66,1.66,0,0,1-.21.59l-.44,1.24a1.48,1.48,0,0,0,0,1.22c.08.13.05.22.16.35a1.06,1.06,0,0,0,1,.24,4,4,0,0,0,.78-.06,1.54,1.54,0,0,1,.37,0,2.5,2.5,0,0,0,.76-.24c.09-.05.05-.05.15-.09a3.52,3.52,0,0,0,.64-.2c.17-.07,1-.43,1.22-.46a1.86,1.86,0,0,0,.34-.05A1.7,1.7,0,0,1,63,17c.23,0,.1-.08.29-.09s0,0,.13,0l.82,0,.64.19c.19.08.14-.06.44.12a1.08,1.08,0,0,1,.24.28c.06.09.23.28.23.36s0,0,0,.12a.11.11,0,0,0,0,.06l0,.08,0,.11c-.1.2-.09.27-.23.53,0,.09,0,.13-.07.21s-.11.21-.17.35a8.93,8.93,0,0,1-.77,1.34l-.56.72,0,.07a2.53,2.53,0,0,1-.55.61c-.31.27-.45.64-.83.85-.22.12-.08.13-.25.26a2.53,2.53,0,0,1-.32.21l-.49.3-.09,0a2.13,2.13,0,0,1-1.41.06.25.25,0,0,1-.09,0l-.69-.27c-.17-.05-.16-.1-.33-.19s-.48-.13-.6-.32l-.08-.19c0-.06,0,0,0-.07l-.15-.13a2.17,2.17,0,0,0-.23-.3l-.42-.37c-.1-.08-.08,0-.12-.16l.43-.06c.26-.07.16.06.41,0l.45-.07.19-.05c.06,0,0,0,.07-.05s0-.06.19-.05a1.07,1.07,0,0,0,.33-.11.19.19,0,0,0,.09,0h0l.09,0c.15-.07.17-.17.31-.29l.52-.43a.78.78,0,0,0-.24-.72l-.72-.43h0l-.06,0c-.1,0-.13-.1-.27-.11l-.78.06a2,2,0,0,0-.58.43h0l-.08,0c-.13.05-.27.05-.29.23-.29,0-.18,0-.35.09s-.13,0-.31.06a8.07,8.07,0,0,0-1.39.35l-.82.14c-.19,0-.25.33-.18.49s0,0,0,.11.09.22.3.38.18.3.78.3c.18,0,.15-.08.44-.08a3.24,3.24,0,0,0,.46-.07c.28,0,.08.13.36.09s.2-.1.46-.1a.3.3,0,0,0,.19.32,2,2,0,0,1,.61.68l.06.14c0,.07,0,.09,0,.16l.07.13c.33.58.36.54.94,1l.53.31a5.27,5.27,0,0,0,1.52.31l2-.95.31-.3a2.3,2.3,0,0,0,.41-.35l.74-.77a.67.67,0,0,0,.12-.16c.09-.13.2-.18.3-.3l.05-.07.13-.15.52-.76,0-.06.13-.16a5.08,5.08,0,0,0,.51-.84l.26-.46c.06-.16,0-.05.09-.19s.2-.17.26-.26,0-.19.14-.38.1-.07.13-.35a2.4,2.4,0,0,0,.08-.67c0-.65,0-.37-.3-.9a.77.77,0,0,0-.43-.33c-.23-.08-.3-.25-.55-.25,0,.1,0,0-.08.08-.33-.3-.34-.09-.69-.15-.64-.1-.46,0-.73,0a1.93,1.93,0,0,0-.2-.05,5,5,0,0,0-1,.22,7,7,0,0,1-.79.25l-.72.19c-.2,0-.16.09-.33.15l-1.21.35a3.49,3.49,0,0,0-.38.1l-.18.06-.23.05-1,0c0-.11-.05-.11-.07-.21v-.52a2.32,2.32,0,0,1,.45-1.11L59.1,15a6.55,6.55,0,0,0,.48-1c0-.08.05,0,.05-.19s0-.05-.08-.17a1.26,1.26,0,0,0-.62-.45c-.13,0-.09,0-.22-.06s-.05-.08-.17-.1-.09,0-.23,0-.15,0-.24,0,0,.05-.2.1c0-.19.08-.13.16-.24v0l0,0a8.79,8.79,0,0,1,.77-1.14,5.7,5.7,0,0,1,.53-.71c.18-.13.2-.28.38-.42s0,0,.11-.09,0-.05.09-.14.1,0,.2-.21l.32-.48c.13-.18.34-.4-.15-.64a1,1,0,0,0-.77,0c-.08.05-.12.12-.21.15s-.13,0-.23.12,0,.1-.16.21c-.36.24-.76.35-1.12.59a1.86,1.86,0,0,1-.71.37l.22-.5A10.17,10.17,0,0,1,57.75,9L58,8.47a1.59,1.59,0,0,1,.13-.22.37.37,0,0,0,.06-.1l0-.05a6.54,6.54,0,0,1,.3-.59c.2-.31.45-1,.6-1.23l.72-1.87A1.44,1.44,0,0,1,60.26,4l0,0,.06-.07c.25-.28.58-.44.66-.85a1.09,1.09,0,0,0,0-.73c-.09-.32,0-.4-.42-.58-.19-.09-.12,0-.31,0s0-.11-.21-.06-.13.06-.24.08l-.27.05c-.48.15-.27.22-.54.45l-.26.51a.59.59,0,0,1-.2.35l-.89.63a.37.37,0,0,1-.1.06L57.27,4l0,0L55.87,5.19a.69.69,0,0,1-.7.18h0l-.31-.12a1.74,1.74,0,0,0-.54-.15c-.18,0-.1-.06-.25-.1"/><path class="cls-1" d="M83.69,16.65a.46.46,0,0,1-.11.5c-.12.13-.07.06-.23.12a2,2,0,0,1-.51.21l-.26.1a2.65,2.65,0,0,1-.3.06c-.14,0-.14.06-.27.09,0-.18.43-.94.49-1.19a2.61,2.61,0,0,1,.3-.78l.43-1a.4.4,0,0,1,.07-.09c.22-.29.24-.55.51-.73a2.89,2.89,0,0,0-.07.63Zm-8.38-9.9c0,.51-.25.62,0,1.16-.17.23-.06.07-.15.38a.94.94,0,0,0,0,.09l-.07.16a3.41,3.41,0,0,1-.32.6c-.11.14,0,0-.09.19s-.3.37-.4.64a1.31,1.31,0,0,1-.16.36c-.15.26.2.42-.1.61s-.14.23-.26.3-.13,0-.22.06c0,.29,0,0,.12.24-.16.05-.24.22-.32.37l-.08.16c-.16.37-.16.26-.48.47,0,.21,0,.06.08.24s-.11.29-.19.41-.19.11-.21.39c-.26,0-.24.19-.24.4H72a.94.94,0,0,1,0,.16c0,.15,0,0-.06.14s.13.32-.18.46a1.37,1.37,0,0,0-.45.5c-.14.23-.15.13-.15.5s-.08.43-.08.79c0,.14,0,0,.08.21s0,.11.08.2.09,0,.26.17,0,0,.1.07c.55.25.12.06.48.35.12.09.08,0,.08.24.2,0,.06,0,.19-.09l.3-.14c.53-.11.24-.2.49-.51a1.86,1.86,0,0,0,.22-.61c0-.13.13-.23.19-.37s0-.06.07-.13,0-.22.16-.36l.08-.12c.2-.35,0-.18.3-.46.17-.14.12-.35.34-.42s.21,0,.26-.14c.37,0,.23.39.31.73a.84.84,0,0,1,0,.42c0,.29,0,.24,0,.41l-.08.59c0,.23,0,.4,0,.69s-.07.28-.08.4c-.06.52-.2.53-.2.71s.12,0,0,.3l0,0a0,0,0,0,1,0,0l-.1.22a1,1,0,0,0,0,.69c0,.06,0,.07,0,.13l.18.49.08.12c.11.18.21.19.4.28s.17.17.38.31c.18,0,.08-.1.22-.1l.13,0h.4c.2,0,.2-.36.25-.48.16-.34,0-.21,0-.41a1.79,1.79,0,0,0,.13-.6c0-.1,0-.3,0-.39,0-.25-.11,0,0-.4L77,15.88a5.93,5.93,0,0,0-.07-1.18c0-.25,0-.09-.06-.25s.06-.26-.12-.53-.05-.2-.15-.36l0,0,0,0v0c-.24-.41-.21-.19-.39-.42a1.15,1.15,0,0,0-.47-.32l-.12,0c-.11,0,0,0-.11-.05,0-.28.23-.39.29-.57s-.12,0,.25-.45l.07-.08c.08-.11,0-.16.14-.26s.17-.11.23-.21,0-.15.13-.3.07.09.3-.38c.07-.14.16-.15.29-.39l.31-.37c.14-.1.31-.14.38-.3A.66.66,0,0,1,78,9.07a1.21,1.21,0,0,0,.23-.68l0-.68c0-.5-.2-.1-.16-.6-.32,0,.15-.12-.26-.45-.17-.14-.09-.09-.17-.27a.43.43,0,0,0-.19-.26c-.11-.08-.2,0-.38,0-.08-.21.07,0,0-.17s-.33-.07-.47-.16,0-.11-.29-.12c-.54,0-.39,0-.55.1s-.32,0-.32.21c0,0,0,0,0,.15s-.09.06-.12.26l0,.27c0,.13.06,0,.06.13Zm8.74-4.51c0,.64,0,.22.12.56a3.78,3.78,0,0,1,0,1,2.4,2.4,0,0,1,0,.37c0,.16,0,.31,0,.4s0,.21,0,.4l-.11.76a1.53,1.53,0,0,0,0,.37c0,.26-.1,0,0,.34-.19.09-.13,0-.19.17s.06.1-.1.26-.17.27-.31.41-.23.14-.41.31l-.19.17-.46.3c-.2.12-.19,0-.51.21a2.44,2.44,0,0,1-.64.28l-.16,0a3.28,3.28,0,0,0-.44.32.26.26,0,0,0-.15.21c0,.12,0,.1.06.23l.1.26a.57.57,0,0,0,.21.2l.39.17a.79.79,0,0,0,.42,0c.22,0,.22,0,.34,0s.32-.16.46-.25l.47-.3a2.87,2.87,0,0,1,.4-.31c.39-.16.26-.23.47-.29.2.29,0,1,.06,1.38a.89.89,0,0,1,0,.23,1.1,1.1,0,0,1,0,.45c0,.23,0,0,0,.26s0-.06,0,.07l-.06.37c-.08.29-.12,0-.13.47,0,.18,0,.12,0,.24s0,0,0,.11l-.58,1.06c0,.09,0,.15-.08.23s-.09.09-.13.15,0,.14-.1.23-.17.22-.24.36l-.14.26c-.12.16-.16.34-.26.49a.5.5,0,0,0-.11.17l-.32.56a5.73,5.73,0,0,0-.56,1c-.1.21-.33.37-.34.57-.14,0-.06,0-.12.05a.19.19,0,0,0-.07.12c-.06.19,0,.12-.14.26s-.12.09-.2.16a6.36,6.36,0,0,0-.66.5l-.17.19c-.34.32-.08.56,0,.78s.27.26.58.26c.55,0,.37-.13.93-.3l.12,0c.23-.07.29-.17.51-.25.7-.24.59-.34,1-.46l.26-.1.24-.12a1.37,1.37,0,0,1,.52-.2c.5,0,.28,0,.28.32l0,.61c0,.17-.12.24-.08.44l-.14.69c-.11.28.06.08-.12.48l-.07.2c-.13.25-.22.09-.5.22l-.68.44c-.07,0-.09,0-.09.15s.21.28.36.28.06-.08.2-.08,0,0,.17.06l.28,0a2.21,2.21,0,0,0,.47.07l-.09.68c0,.19-.07.1-.07.32s.1.23,0,.45a5.28,5.28,0,0,0,0,1.19c0,.48.13.45.27.73s.18.18.37.23a.86.86,0,0,0,0,.24,1.5,1.5,0,0,0,.24,0,.84.84,0,0,0,.52.36h0c.15,0,.06,0,.19,0,.34,0,.46-.22.62-.48,0-.07,0-.05,0-.08a4.51,4.51,0,0,0,.06-.74l0-.51c0-.2,0-.14.06-.26a.13.13,0,0,0,0-.07V24.1c0-.2,0-.1-.09-.24s0,0,0,0l0,0c-.11-.25,0-.15,0-.36s-.09,0-.06-.18.07-.06,0-.22-.08-.06-.11-.21,0-.32,0-.55L85.41,22c.15-.11.06-.1.14-.25l.36-.44c.47-.38.16-.14.34-.5.07-.14.27-.33,0-.57s-.14-.1-.2-.23l-.28.08a1,1,0,0,1-.48-1s-.07,0-.14-.1v0a2.55,2.55,0,0,1,0-.95,3.94,3.94,0,0,1,.84,0c.12,0,.17,0,.35,0s0,.06.25.08a9,9,0,0,0,1.16,0c.13,0,0,0,.19,0s.18,0,.28,0,.13,0,.28,0,.46,0,.68,0l.64.05h.25c.18,0,.35.09.52.09s.1,0,.27.05.45,0,.58,0,.1.05.26.06a4.43,4.43,0,0,1,.59.09c.16,0,.19,0,.28,0a.48.48,0,0,0,0,.28c.17,0,.1-.08.24-.08s1.08.4,1.24.4a2.1,2.1,0,0,0,.8-.11c.09-.06.11-.19.17-.28s.09-.07.07-.18a.77.77,0,0,0-.32-.47l-.1-.06-.32-.15a1.89,1.89,0,0,1-.19-.14c-.21-.12-.4.05-.47-.21a1.15,1.15,0,0,0-.49.07c-.16,0-1.26-.17-1.55-.19s-.38,0-.55,0a3.07,3.07,0,0,0-.49-.09c-.62,0-1.48-.08-2.1-.16s-2.38,0-2.78-.1l-.54-.05a3.28,3.28,0,0,1-.07-1.45l0-.66c0-.16,0-.39,0-.48v-.4c0-.16,0-.13,0-.24l0-.32c0-.15,0-.13.07-.25a1.76,1.76,0,0,1,0-.33c.06-.15.05,0,.1-.25l.1-.57c0-.16-.07,0,.08-.21s.07,0,.12-.25a1.37,1.37,0,0,0,0-.57.61.61,0,0,0,0-.13c-.09-.32-.2,0-.35-.56a4.79,4.79,0,0,1,0-1.51c0-.3-.08-.53-.07-.75a1.56,1.56,0,0,1,.33-.62l.08-.12c.06-.16,0-.28.2-.37l.25-.1c.22-.11.11-.12.4-.12,0-.24.25-.3.38-.46s0-.29.34-.53c0-.19,0,0-.08-.28a1.56,1.56,0,0,0-.23-.57.6.6,0,0,0-.48-.27c-.21,0-.1,0-.28-.13a.43.43,0,0,0-.29,0l-.31,0,.06-1.93c0-.19,0-.11,0-.31s.07-.53.06-.68-.18-.5-.18-.55,0-.09,0-.17l0-.11a1.28,1.28,0,0,0-.43-.53l-.16,0c-.24-.06-.08-.15-.4,0l0,0a.81.81,0,0,0-.37.44c-.13.38,0,.55,0,1l0,.36c.06.21,0,.11,0,.32"/><path class="cls-1" d="M107.52,10.5a4,4,0,0,0-.07-.58c0-.35-.09-.32-.29-.61-.09-.12-.25-.32-.45-.2s0,.11,0,.24l-.15,1.33c0,.37,0,.9-.09,1.27,0,.18,0,.25,0,.38s0,0,0,.26c0,.55,0,1.13,0,1.68s-.05.73-.05,1.11a4.64,4.64,0,0,1-.08,1.56c-.17.54-.07.48,0,1.07s.22.31.25.63.27.32.4.45.33.12.6.13l.27,0c0-.13,0,0,0-.14a.89.89,0,0,0,.12-.45.76.76,0,0,1,0-.15v-.15c-.07-.31,0-.14,0-.26s0-.07,0-.21.06,0,.06-.23-.07-.17-.11-.3,0-.25-.06-.33,0-.21-.07-.33c-.13-.48,0-.27-.07-.68a8.71,8.71,0,0,1,0-3c0-.16.23-.24.38-.56l.35-.84,0,0,.15-.42A4,4,0,0,1,109.3,10l1.15-1.37c.23-.22.24-.33.45-.49s.26-.35.41-.52.35-.28.5-.47a.81.81,0,0,1,.21-.24l0,0c.1-.11.09-.15.21-.23h0l0,0,.55-.3a1.26,1.26,0,0,1,.31-.13,6.59,6.59,0,0,1,1.16-.3c-.09.35,0,.19,0,.31s-.07.28-.07.4a2.93,2.93,0,0,1,0,.68c-.13.58,0,.33,0,.6a2.53,2.53,0,0,0-.09.54c0,.46-.1.25,0,.82,0,.25,0,.12-.07.33s0,.13,0,.25-.06,0-.06.1.09.11,0,.29,0-.09,0,.11v1.07c0,.17,0,.2,0,.31s0,.14,0,.31.1,0,0,.26a2,2,0,0,0,0,.81c0,.45,0,.93,0,1.37,0,.16.07,0,.09.31s0,.29,0,.44l.06.7a4,4,0,0,0,0,.78l0,1.68c0,.21,0,.21,0,.39l0,.56c-.05.21,0-.19,0,.05s0,.06.06.22-.09.27-.14.47c-.1.38.14.39-.58.33-.3,0-.26-.11-.77-.28L110.51,19a1.24,1.24,0,0,1-.41-.38,2.3,2.3,0,0,0,1.13-.37l.09-.05c.08,0,.05,0,.11,0a.82.82,0,0,0,.4-.16c0-.18-.12-.37-.15-.55s0,0,0-.2-.09-.13-.15-.3,0-.22-.13-.31a1.46,1.46,0,0,0-.6-.33c0-1,.17-.2.17-1,.15-.08.16,0,.18-.22.34,0,.34-.31.55-.51a.83.83,0,0,0,.31-.46l0-.56c0-.15-.06-.19-.06-.29s0-.12,0-.34-.14-.15-.29-.34l-.2-.19c-.32-.21-.32-.23-.67-.17l-.18,0c-.17.06,0,.07-.15.07s0-.19-.34,0,0,.2-.46.2v.18c-.3,0-.27.19-.46.34l-.15.12c-.3.32-.45.07-.7.36a1,1,0,0,0-.14.39c0,.29.84.74.87.74s.31-.15.31.31c0,.14,0,.14-.07.24-.1.26,0,0,0,.21a1.28,1.28,0,0,1-.06.23l-.2.74c-.24,1.24-.1,1,.2,1.72,0,.12.17.18.29.33s0,.09.18.13c0,.34-.26.89.4.89,0,.19,0,.08.09.17a5.14,5.14,0,0,0,.56.33,1.93,1.93,0,0,1,.38.19c.23.2,0,.26.3.28,0,.33.09.3.31.4s.22.19.39.37.27.13.42.28l.31.23a2,2,0,0,1,.58.35,1.44,1.44,0,0,0,.4.22l0,0h0l.29.11c.09.06.11.12.21.19s.15.06.25.11a1.23,1.23,0,0,0,.69.11c.13,0,.11-.09.22-.18s.39-.09.76-.39l.12-.19a0,0,0,0,0,0,0l.14-.74a1.71,1.71,0,0,1,0-.59,4.89,4.89,0,0,0-.07-1.14c0-.29-.15-.27-.15-.46s0,0,0-.18a2.27,2.27,0,0,0-.12-.63c0-.15.09-.07.09-.22s-.08,0-.09-.35l-.13-1.1c-.07-.3-.08-.92-.16-1.19l-.07-.37c0-.13,0-.24,0-.39s0-.29,0-.4a2.58,2.58,0,0,1-.13-.77,11.45,11.45,0,0,1-.12-1.53V10.66a11.82,11.82,0,0,1,.08-1.8l.15-1.54a1,1,0,0,1,0-.17,2.54,2.54,0,0,1,.12-.78c.07-.17,0-.22,0-.44s0,0,0-.21,0-.15.06-.26a.9.9,0,0,1,.08-.23,1.55,1.55,0,0,1,.07-.23,1.48,1.48,0,0,1-.31-.39,1.46,1.46,0,0,0-.23-.31l-.07-.06c-.09-.1-.12-.18-.24-.25a.72.72,0,0,0-.82,0c-.26.09-.12-.07-.3.14a2.45,2.45,0,0,1-.81.52c-.12.06-.21.07-.32.13l-.52.27a2.75,2.75,0,0,0-.84.58l-.07.07-.13.09a.6.6,0,0,0-.12.11l-.08.08,0,0c-.1.08,0,0-.12.11-.27.28-.4.3-.59.52l-.46.47c-.18.23-.4.42-.6.63s-.11.15-.2.25a1.25,1.25,0,0,0-.21.24l-.68.86a1.1,1.1,0,0,1-.09.14l-.55.78c-.09.15-.17.48-.35.54"/><path class="cls-1" d="M138.82,28.73v.12h-.09c0-.11,0-.07.09-.12Zm-2,.95s0,0,0,0ZM135,31.48c.34.08.18.06.3,0,0-.14,0-.12-.21-.16s-.06.05-.09.16Zm-.35.36c.22.1.12,0,.3-.32a.46.46,0,0,0-.3.32Zm.57-.56c.14.09,0,.07.22.08,0-.17.05-.12.22-.2v-.28c-.23,0,0,0-.21.1s-.16,0-.23.3Zm2.71-2.63.05-.16c0,.06.06-.08,0,.07s0,0-.07.09Zm-5.47-12.06c0,.17,0,.06,0,.19l0,.37c0,.16.06.16.09.23v0c0,.09,0,0,0,.22v.88l-.15.36c-.06.16,0,.08-.07.09s-.18-.14-.18.08.06,0,.08.24c-.27-.06-.29-.17-.3.13s-.05.14-.3.27l0,0c-.21.11,0,.08-.24.09v.12h.43c-.53.43-1.63.29-2.14.33l-1,0c-.26,0-.32,0-.57,0L128,20a.8.8,0,0,1-.12-.22,4.14,4.14,0,0,1,.52-.64c.36-.29.67-.67.91-.85s.15-.18.3-.29l1.66-1.32c.1-.09.75-.53,1-.78s.16,0,.21.43c0,.22,0,.07,0,.26ZM127,19.54c0-.2.09-.23.24-.34L129,17.58c.38-.42.24-.18.51-.42s.14-.18.3-.29a4,4,0,0,0,.37-.25l1.59-1.15c.27-.18.1-.17.28-.27l.06,0,.23-.11c0,.2-.14.21-.29.29s-.15.17-.34.3l-1,.78c-.08.06-.1.06-.17.12l-1,.83c-.19.14-.42.41-.81.71s-1.39,1.32-1.65,1.44ZM129.62,9c0-.11.07,0,0,0s0,.11,0,0Zm.17-.2c0-.17.1-.21.22-.28a.31.31,0,0,1-.22.28Zm1-.72c-.05.12.1.05-.13.08.06-.06.05,0,.13-.08Zm.55-.36h0Zm7.91-4.47c.31,0,.26.47.51.89l.17.53c.07.18.11.32.17.51a1.45,1.45,0,0,1,.07.26l.18.88c.12.25.15,0,.23.46A1.71,1.71,0,0,1,140.74,8c0,.1-.05.09-.1.19l-.09.19c-.08.16,0,.17-.11.3-.23.33-.08.11-.24.5s-.16.1-.31.24,0,.19-.22.35l-.59.59L139,8.61A3,3,0,0,0,139,8a2,2,0,0,1,0-.26c0-.12.06-.07.06-.23L139,4c0-.2-.05-.76.26-.76Zm-1.4-.2c0,.31,0,.5,0,.78s.06.15.06.21-.07.18-.06.37l0,2.15c0,.34.09.63.09,1,0,.15-.07,0-.09.24a2,2,0,0,1,.22.08c-.12.3,0-.17-.15.5,0,.12,0,.44,0,.66s.08.48,0,.59a1.24,1.24,0,0,0,0,.6c0,1.06,0,.92-.65,1.33-.13.09,0,0-.17.09s-.18.15-.28.22l-.32.18a2.45,2.45,0,0,0-.59.34l0,0-.28.19-.08.05-.48.28c-.33.21-.8.67-1.19.88a.36.36,0,0,0-.24.3c.38-.18.38-.4.66-.4,0,.22-.11.16-.27.27s-.55.45-.64.41-.08-.67-.08-.81l0-.86a4.16,4.16,0,0,0,0-.61c0-.23.53-.45.54-1a2,2,0,0,0-.09-.4c-.12-.72,0-.46-.38-.89a.91.91,0,0,1-.13-.16.37.37,0,0,0-.38-.22c-.15,0-.29.34-.41.47s0,.05-.11.18l-.3.57c-.08.16,0,0-.06.26s0,.17-.15.42-.08.25-.33.33c-.07,0-.09.08-.14.12s-.38.11-.39.41h-.13c-.06-.22-.45-.09-.79-.16a1.24,1.24,0,0,1,0-.49,1.86,1.86,0,0,0,0-.27c0-.23.07-.16.17-.33l.06-.1,0,0,0,0a1.52,1.52,0,0,0,.2-.33l.07-.1A1.48,1.48,0,0,1,131,10l.1-.1c0-.09,0-.08.1-.19.25-.32.14-.25.49-.51.12-.09.28-.09.43-.21a5.43,5.43,0,0,0,1-1c0-.08.18-.15.27-.23l.67-.67c.18-.15.24-.06.34-.33.17-.45.22-.36,0-.7a.41.41,0,0,0,0-.51l-.34-.41-1,0c.12-.3.48,0,.68-.25s0,0,.25-.34c.07-.07.06-.08.11-.18l.13-.35c.14-.32,0-.24-.06-.48s0,.05,0-.15l-.12-.28c-.07-.17-.12,0-.15-.25s.11-.46-.41-.47c0-.21,0-.4-.27-.4,0-.39-.32-.25-.65-.36a2.68,2.68,0,0,0-.79-.22c-.25,0-.08.09-.33.05s-.25.09-.3.16l-.15.1c-.11.05-.1,0-.12.11s.15.09-.16.28c0,.15,0,0,.07.14s0,0,0,.06c.17.32.09.46.4.8l.34.52c.2.28.49.21.49.63,0,0-.07.07-.11.14s0,.12-.07.18a1.58,1.58,0,0,1-.57.48.31.31,0,0,0-.22.32.55.55,0,0,0,.46-.14,1.23,1.23,0,0,1,.25-.14c.48.24.2.12.43.12H133c0,.09,0,.07-.08.13s-.05,0-.15.07c-.26.08-.14.13-.36.27a3.11,3.11,0,0,1-.65.41c-.18,0-.08,0-.23.18l0,0-.15.06c-.18.07-.1.15-.36.2,0,.17,0,.16,0,.28-.23-.06,0,0-.22-.16l-.48.4L130,7.2c-.28.17-.19,0-.46.18s-.27.11-.28.35c.14,0,.07-.09.09.12-.26.11-.17-.15-.39.16-.18-.06-.09-.08-.27-.08s-.09.08-.1.17v.15c-.21.2,0-.27-.43.07-.14.11-.07,0-.09.17h-.18v.16c-.18,0-.19-.08-.37,0s-.22.27-.43.32.06,0-.14,0l-.21.07-.06,0c-.29.13-.3.18-.69.33a1.74,1.74,0,0,1-1,0,2.33,2.33,0,0,0-.46,0c-.07.24-.26.47,0,.83a2.8,2.8,0,0,0,.82.76c.26,0,.23,0,.43-.05l.53-.06c.06-.1,0,0,.05-.2.17,0,0,0,.12.05s.13,0,.2,0h0l.43-.17c.16,0,.13,0,.18-.2.42,0,.4.08.35-.12h.13c0,.21,0,.06,0,.12,0-.54.25.06.26-.4h.13c0,.18-.11.11.09.12V9.8c.2,0,.09,0,.09.24.2-.09.17-.12.17-.32l.29,0,.19-.1c-.07-.1,0-.08-.17-.12.11-.14.2-.12.22.08.15,0,.12-.05.23-.14s.46-.26.54-.39,0-.11.06-.14.14-.06.26,0l0-.24c.22,0,.18,0,.18-.2a1.43,1.43,0,0,0,.22,0v.2c.23-.06.34-.23.53-.32V8.09c.18,0,.39-.12.39.2s-.32.46-.39.63a.61.61,0,0,1-.07.14.44.44,0,0,0-.11.34c-.16,0-.16,0-.23.15l-.18.28a2.74,2.74,0,0,1-.19.34c-.05.07,0,0-.06.07a10.47,10.47,0,0,0-.76,1.34c0,.1-.07.12-.1.19l-.22.47A1.15,1.15,0,0,0,129,13a2.46,2.46,0,0,0,.13.41.83.83,0,0,0,.12.16A2.41,2.41,0,0,0,130,14l.25,0c.12,0,0,.06.14,0s.34-.21.48-.19,0,0,.12.05c.08-.28.43-.25.6-.45s0-.1.24-.27a.54.54,0,0,1,.39-.16c0,.61.08,1.18.08,1.79,0,.14-.15.18-.25.25a.38.38,0,0,0-.12.09l-.43.29c-.29.26-.64.44-.94.7l-.28.22-.18.16-.09.07-1.3,1.06a0,0,0,0,0,0,0l0,0,0,0,0,0-.27.23c-.12.11-.24.27-.35.36l-.78.65c-.47.42-.27.46-.86.57-.16,0-.14,0-.19.15-.23.63.26.43.27.92a.9.9,0,0,0,.08.41c.13.31.39.23.71.23l.56-.17a.8.8,0,0,1,.53-.24,3.81,3.81,0,0,0,.54,0,5.92,5.92,0,0,1,2.22,0h0l.12,0c.17,0,.05,0,.28-.07.39-.1.36.22,1,0l.13,0a.94.94,0,0,0,.32-.23l.06-.06a1.11,1.11,0,0,0,.2-.27,2.64,2.64,0,0,0,.17-.67,2,2,0,0,0,0-.42c0-.17.09-.22.09-.36s0-.14,0-.37,0-.31,0-.45V16.85a5.43,5.43,0,0,0-.15-1l-.05-.31c0-.36,0-.49.29-.64l.13-.09.87-.57,0,0a1.49,1.49,0,0,0,.41-.3c.13-.13.06-.05.19-.11l.16-.09,0,0,.82-.53c.16-.16.28-.16.44-.28l.06,0,.09-.05c.11-.06.12-.14.3-.18s.07.05.29-.15.51-.27.46,0a1.81,1.81,0,0,0,0,.33c0,.16,0,.12,0,.39-.24.06-.09.2-.05.36-.16,0-.12.05-.16.25s0,.27,0,.43a3.81,3.81,0,0,0-.09.75c.14-.09,0-.06.18-.16a4.2,4.2,0,0,0-.09.84l-.18-.24c0,.33-.11.35-.11.51,0,.37.2.52,0,.86l-.17.41c-.14.24,0,.25,0,.36s0,0,0,.16.1.19.1.34-.15.12.23.51c.17.18.17.37.69.49l.29.13h0l.24.26,0,0a1,1,0,0,1,.15.18l.23.43a.78.78,0,0,1,.06.51c0,.17.08.35.08.6v2.88c0,.35-.18.66-.18,1a.49.49,0,0,1,.18.08c-.16.23,0,.44-.16.7s0,.43-.19.66-.31.8-.56,1.21l-.07.1,0,0c-.07.12-.08.24-.2.33l0,0c-.22.14-.23,0-.4.23a1.4,1.4,0,0,0-.26.45.93.93,0,0,0,.22-.08c0,.15,0,.11-.11.21l-.15.23c-.13-.09-.07,0-.09-.16-.22.1-.24.11-.3.36.2-.05,0-.07.26-.08a.93.93,0,0,1-.21.32c-.1.11-.18.2-.05.31-.21,0-.18,0-.22.12h-.14c0-.09,0-.22-.12-.13s0,0,0,.25h-.09c0-.2,0-.11-.09-.2a3.29,3.29,0,0,0-.43.41c-.11.11-.11.19-.22.28l-.18.07c0,.14,0,.09.13.16a.45.45,0,0,0,.24-.14l.36-.39c.11-.1.13,0,.23-.15v.12c-.24,0-.1.06-.19.19s-.47.33-.17.32.34-.28.47-.37l.18-.2c.13-.21.26-.12.42-.25l0,0c.15-.16.16-.32.44-.33-.05-.14-.05-.05-.09-.19a2,2,0,0,0,.25,0c.27-.06.25-.23.26-.27l.1-.21c.52,0,.57-.09.84-.44l-.14-.16c.24.05.29-.14.44-.28a.64.64,0,0,0,.17-.28l.17-.41a.44.44,0,0,1,.09-.13.54.54,0,0,0,.16-.24.37.37,0,0,1,0-.15c.1-.25,0-.56.28-.63a3.65,3.65,0,0,1,.09-.87c0-.17-.05-.09,0-.29l0-.52c0-.1,0-.2,0-.3s0-.06,0-.25a1.07,1.07,0,0,0,0-.63,5.6,5.6,0,0,1,.06-.65,2.06,2.06,0,0,0,0-.21c0-.1,0-.08,0-.23v-1c0-.23-.11-.09-.05-.36a1.82,1.82,0,0,0-.07-.92,4.27,4.27,0,0,0-.49-1.24l-.46-.58a.93.93,0,0,0-.18-.16c-.41-.34-.15-.7-.72-1,0-.2,0-.05.08-.24-.26-.13-.17-.2-.17-.48a5.28,5.28,0,0,0,.17-.92c0-.24,0-.33,0-.52v-.6c0-.22,0,0,.05-.18s0,0,0-.17.07-.13.07-.24-.07-.08-.07-.24.09-.09.09-.16c0-.26-.14-.2,0-.57,0-.17,0-.18,0-.32.13-.45,0-.75.38-1.13l.14-.11c.17-.14.21-.27.39-.4s.07-.1.18-.2,0,0,.07-.06.06,0,.12-.16c.13-.29,0-.1.24-.27l.45-.54a.44.44,0,0,0,.08-.17l.61-1.44a.92.92,0,0,0,.06-.46.9.9,0,0,0,0-.13c0-.36.07-.18-.24-.71a.35.35,0,0,1,0-.08c-.23-.45-.18-.09-.33-.69l-.17-.64c-.05-.17-.05-.32-.09-.48l-.44-1.51a1.28,1.28,0,0,0-.13-.45,1.71,1.71,0,0,0-.28-.5l-.4-.56c-.15-.17-.25-.06-.44-.16a1.51,1.51,0,0,0-.61-.28c-.12.21,0,.28-.12.45s-.31.16-.32.83a1.27,1.27,0,0,1-.08.52"/></g></g></svg>