<svg xmlns="http://www.w3.org/2000/svg" viewBox="0 0 54.82 124.08"><defs><style>.cls-1{fill:#0096c2;fill-rule:evenodd;}</style></defs><g id="图层_2" data-name="图层 2"><g id="图层_1-2" data-name="图层 1"><path class="cls-1" d="M43.61,113.12a.49.49,0,0,1-.12.55c-.14.15-.09.08-.26.15a2.89,2.89,0,0,1-.58.23l-.29.12c-.14,0-.2,0-.35.06s-.15.07-.29.11c0-.21.47-1.07.54-1.35a3,3,0,0,1,.34-.88l.49-1.09a.49.49,0,0,1,.08-.1c.25-.33.27-.62.58-.82a3.09,3.09,0,0,0-.08.71Zm3.57.44c.6,0,1.31,0,1.61,0a18,18,0,0,0,1.92.17,3.71,3.71,0,0,1,.45.11c.16,0,.35,0,.51,0s1.27.25,1.41.21a.86.86,0,0,1,.45-.08c.07.3.24.1.44.24l.16.15.3.17.1.07a1,1,0,0,1,.29.53c0,.12,0,.13-.07.21s-.07.24-.15.31a1.52,1.52,0,0,1-.74.12c-.14,0-1-.45-1.13-.45s-.06,0-.22.09c0-.13,0-.12,0-.31-.09,0-.12,0-.26,0s-.16-.06-.55-.09c-.14,0-.11,0-.23-.07a3.65,3.65,0,0,1-.53,0c-.16,0-.09-.06-.25-.06s-.32-.1-.48-.1H50l-.58-.05c-.2,0-.42,0-.62,0s-.18,0-.26,0-.11,0-.25,0-.06,0-.18,0a8.61,8.61,0,0,1-.88,0H47c-.27,0-.1-.09-.27-.09s-.27,0-.4,0a3.86,3.86,0,0,0-1,0,3.23,3.23,0,0,0,0,1.07l0,0c.07.15.1.1.15.12a1.13,1.13,0,0,0,.54,1.18l.32-.1a.77.77,0,0,0,.23.27c.26.26,0,.48,0,.64-.2.4.15.13-.38.57l-.41.49c-.08.17,0,.16-.16.29l.1.26c.05.27,0,.51,0,.63s.07,0,.13.24,0,.08,0,.24.07.11.07.21-.09.12,0,.4l0,0v0c.09.16.08,0,.1.27l0,.11a.54.54,0,0,1,0,.08c0,.13-.05.06-.07.28l0,.58a6.11,6.11,0,0,1-.07.84s0,0,0,.09c-.19.3-.33.55-.7.55-.15,0-.06,0-.22,0h0a.9.9,0,0,1-.58-.41.76.76,0,0,1-.27,0,.72.72,0,0,1-.05-.27c-.22,0-.32-.08-.42-.26a1.34,1.34,0,0,1-.3-.83,6.71,6.71,0,0,1,0-1.34c.07-.25,0-.29,0-.5s0-.15.08-.37l.1-.76a3.05,3.05,0,0,1-.54-.08l-.31,0c-.2,0,0-.07-.19-.07s-.07.09-.22.09-.41-.17-.41-.32,0-.11.1-.17l.77-.49c.32-.15.42,0,.56-.26l.09-.22c.2-.45,0-.23.12-.55l.17-.77c0-.23.08-.31.08-.5l0-.69c0-.38.25-.41-.31-.36a1.38,1.38,0,0,0-.59.23l-.28.12a1.81,1.81,0,0,1-.28.12c-.44.14-.32.25-1.11.53-.24.08-.32.2-.57.28l-.13,0c-.64.21-.43.35-1.06.35-.35,0-.5,0-.65-.3s-.41-.51,0-.88l.19-.21a6.64,6.64,0,0,1,.75-.56l.23-.18c.17-.16.09-.09.15-.3a.34.34,0,0,1,.08-.14c.07-.06,0,0,.14,0,0-.23.27-.41.38-.65a8.24,8.24,0,0,1,.63-1.08l.36-.64a1.27,1.27,0,0,1,.13-.19c.12-.17.17-.37.3-.55l.16-.3c.08-.16.2-.26.27-.4a2,2,0,0,1,.11-.26c.05-.07.1-.09.14-.17a1.57,1.57,0,0,0,.1-.26l.65-1.19a.85.85,0,0,1,.06-.13.48.48,0,0,0,0-.27c0-.49.05-.21.14-.53l.07-.43c.06-.13.06,0,.06-.08s-.08,0,0-.28a1.73,1.73,0,0,0,0-.51.76.76,0,0,0,0-.26c0-.4.16-1.23-.06-1.56-.23.06-.09.14-.53.32a3,3,0,0,0-.46.36l-.52.33c-.16.1-.3.28-.52.28s-.14,0-.39,0a.91.91,0,0,1-.48-.06l-.44-.19a.6.6,0,0,1-.23-.22L40,104.8c-.08-.15-.1-.13-.07-.26a.32.32,0,0,1,.16-.24,3.12,3.12,0,0,1,.5-.36,1.29,1.29,0,0,1,.19,0,2.57,2.57,0,0,0,.72-.31c.36-.24.34-.1.58-.24l.51-.34.22-.19c.21-.19.37-.25.47-.35s.19-.31.34-.46,0-.06.12-.29,0-.1.21-.2c-.09-.37,0-.09,0-.38a1.49,1.49,0,0,1,0-.42l.12-.86c0-.22,0-.31,0-.45s0-.27,0-.46a3,3,0,0,0,0-.41,4.26,4.26,0,0,0,0-1.07c-.12-.39-.13.08-.13-.64,0-.24.12-.13,0-.36l0-.4c0-.52-.13-.72,0-1.16a.92.92,0,0,1,.41-.48l.06,0c.37-.18.18-.08.46,0l.18,0a1.65,1.65,0,0,1,.49.6l0,.13c0,.08,0,0,0,.18s.19.53.2.63-.06.5-.06.77,0,.13,0,.34l-.07,2.19.35,0a.58.58,0,0,1,.34,0c.2.12.07.11.3.15a.7.7,0,0,1,.55.31,1.9,1.9,0,0,1,.27.64c0,.29,0,.1.09.31-.39.28-.22.37-.4.6s-.39.26-.42.53c-.32,0-.2,0-.45.13l-.29.12c-.2.09-.16.24-.22.41l-.09.14a1.61,1.61,0,0,0-.38.7c0,.25.08.51.08.85a5.72,5.72,0,0,0,0,1.7c.18.59.31.27.41.64a.7.7,0,0,1,0,.14,1.59,1.59,0,0,1,0,.65c0,.29,0,.12-.13.28s-.07.05-.09.24l-.11.63c-.05.31-.05.12-.11.3a1.45,1.45,0,0,0,0,.37c0,.13-.08.11-.08.28l0,.36c0,.13,0,.09,0,.27l0,.45c0,.1,0,.36,0,.54l0,.75a4,4,0,0,0,.08,1.64l.62.06a5.36,5.36,0,0,0,1.15.07Zm-13-11.63c0,.57-.29.69,0,1.31-.19.25-.07.08-.16.42l0,.1-.08.19a4,4,0,0,1-.36.68c-.12.15,0,0-.1.21s-.34.42-.45.73a2.12,2.12,0,0,1-.19.4c-.16.29.23.47-.11.7s-.15.25-.29.33-.14,0-.25.07c0,.32.05,0,.14.27-.18,0-.28.25-.36.41l-.09.18c-.19.42-.18.3-.55.54,0,.23,0,.06.09.27s-.12.33-.21.46-.21.13-.24.44c-.29,0-.27.22-.27.46h-.22c0,.06,0,.12-.05.18s0,0-.07.15.14.36-.2.52a1.67,1.67,0,0,0-.51.57c-.16.26-.17.15-.17.56s-.09.49-.09.9c0,.16,0,0,.08.24s0,.12.1.22.11,0,.3.2,0,0,.11.07c.62.28.13.07.54.4.13.1.09,0,.09.27.23,0,.07,0,.22-.1l.34-.16c.59-.13.27-.23.54-.57a2.19,2.19,0,0,0,.26-.7,2.73,2.73,0,0,1,.22-.41l.07-.15c.1-.2.05-.25.18-.41l.09-.14c.22-.39,0-.2.35-.51.19-.16.12-.4.38-.48s.23,0,.28-.16c.42,0,.27.44.36.83a.93.93,0,0,1,0,.47c0,.33,0,.27,0,.46l-.09.68c0,.25,0,.45,0,.77s-.08.32-.09.45c-.07.59-.23.6-.23.81s.14,0,0,.34l0,0a.06.06,0,0,1,0,0l-.12.24a1.23,1.23,0,0,0,0,.78.8.8,0,0,1,0,.15l.22.55.08.14c.13.2.24.21.46.31s.19.2.42.35c.2,0,.09-.11.25-.11l.15,0h.45c.23,0,.22-.4.28-.53.18-.4-.05-.24,0-.47a2,2,0,0,0,.16-.68c0-.12,0-.34,0-.43,0-.29-.13,0,0-.46l.26-3.09a8.66,8.66,0,0,0-.07-1.33c0-.28,0-.11-.08-.29s.08-.29-.13-.59-.06-.23-.17-.41l0,0,0,0,0,0c-.27-.46-.23-.21-.43-.47a1.29,1.29,0,0,0-.54-.36l-.13,0c-.13,0,0,0-.13,0,0-.32.26-.44.32-.65s-.13,0,.29-.5l.08-.1c.1-.13,0-.18.16-.29s.19-.13.26-.23,0-.18.15-.35.07.1.34-.43c.07-.15.17-.17.32-.44l.35-.42c.16-.11.35-.15.43-.34a.81.81,0,0,1,.19-.31,1.37,1.37,0,0,0,.26-.77l0-.77c0-.56-.23-.12-.18-.67-.36,0,.17-.14-.3-.52-.19-.15-.09-.1-.19-.3,0,0,0-.14-.21-.29s-.23-.07-.43-.07c-.09-.22.08,0,0-.19s-.36-.07-.53-.18,0-.12-.33-.13c-.6,0-.44,0-.62.11s-.35,0-.36.24c0,0,0,0,0,.17s-.11.07-.14.29l0,.31c0,.14.06,0,.06.15"/><path class="cls-1" d="M43.3,37.05l-.07,2.09a4.24,4.24,0,0,0,0,.62l-.05,1.17c0,.28.05.35.05.59s0,.42,0,.63a1.81,1.81,0,0,0,0,.25,7.69,7.69,0,0,0,0,.87l.11,3.12c0,.1,0,.2-.23.2-.52,0-.36-.25-.55-.48a1.42,1.42,0,0,0-.22-.2c-.31-.21-.28-.25-.47-.33s0-.1-.8-.42a1.06,1.06,0,0,1-.58-.41,2.89,2.89,0,0,1-.21-.83c0-.21-.13-.5,0-.69.41.3-.12.61.78.71.35.05.32-.09.58-.12l.67-.09c0-.27.41-.47.39-.75a.85.85,0,0,0-.21-.51l-.32-.27,0,0s0,0-.08,0c-.25-.09.05,0-.21,0a2,2,0,0,0-.91-.25c-.38,0-.31,0-.43-.34a.78.78,0,0,1,0-.68l.61-.6c.2-.05.09.06.43-.07l.22-.1c.11,0,.11,0,.2-.12a3.28,3.28,0,0,0,.48-.73c0-.72-.36-.79-.48-.87a2.5,2.5,0,0,0-1-.32c-.22,0-.12,0-.33,0s-.11,0-.4,0c0-.16,0-.07.1-.26s.05-.22.08-.33c.12-.48.09-.27.09-.58s.07-.06.23-.27c0,0,0,0,.08-.1s.12-.06.2-.12.06-.1.19-.16,0,.07.2,0c.06,0,.15-.11.22-.14s.35,0,.6-.12l.22-.1c.42-.16.74-.23.79.59,0,.2.11.37.11.58ZM37.84,52.21v-.14c-.13.1-.14,0,0,.14ZM44.11,51c.26.38.82.21.82.09V51a.76.76,0,0,0-.57,0c-.09,0-.08,0-.25,0Zm-5.59,1.21.32.27c.13.07,0,0,.16.11l.07.07c.08.06,0,0,.11.06s.6.73.91.9.19,0,.43.2a.37.37,0,0,0,.4.13l.26-.07h.72c.18-.33.13-.11.35-.37.07-.08,0,0,.09-.1l.07-.05a.59.59,0,0,0,.18-.28l.14-.4c.13-.43,0-.11-.11-.74-.24,0-.28-.18-.42-.29s-.11,0-.21-.15-.18-.26-.21-.2l-.46-.08a2.73,2.73,0,0,0-1.2.21c-.15.07-.37.39-.5.44s-.12-.07-.35.15-.42.19-.75.19Zm9.34-2c0,.29-.13.23-.32.14,0,.05,0,0,0,.06s0,.1,0,.12c-.31,0-.64-.23-.67.13h-.46c.08.27.56.44.68.5s.08.07.13.09l.72.23c.23,0,.18,0,.29.21a1.2,1.2,0,0,1,.3.69c0,.12-.12.17-.18.26s0,.22-.25.48c-.09.1,0,0-.1.16-.15.33-.12.06-.19.31.21.14.09.09.39.07h.07c.23,0,0,.09.37,0a.44.44,0,0,1,.53.17c.12-.08.15-.15.32-.17s.42.1.81,0,.15-.09.49,0a.41.41,0,0,1,.11-.12c.21-.19.3-.15.3-.51A2.6,2.6,0,0,0,50.73,52a5.65,5.65,0,0,1-.29-.69c0-.06-.1-.12-.15-.18-.4-.52-.15-.18-.66-.6l-.11-.07c-.6-.36-.49-.19-.83-.21s-.45.07-.83.07ZM32.34,52.21c-.23,0-.06,0-.22,0s-.1-.12-.19-.12-.35,0-.39.19a.86.86,0,0,0,0,.76c0,.09,0,.22,0,.31a4,4,0,0,0,.54,1.31,2.85,2.85,0,0,0,.27.32,1.74,1.74,0,0,0,.52.33c.63.08.16.3.84.3.41,0,.23-.15.58.09l.34-.12c.34-.1.35,0,.58-.18.08,0,.33-.12.41-.77s.15-.33.19-.8c0-.13-.24-.75.12-1a4,4,0,0,1,1.7-.69c-.12-.17-.12-.08-.29-.16s0-.14-.28-.14-.22,0-.33,0c-.27,0,0-.16-.71.06l-.17.07c-.11.05,0,0-.14.08-.29.14-.2-.06-.44.05a6.71,6.71,0,0,0-.84.34.41.41,0,0,1-.15.07,1.7,1.7,0,0,1-.61.12c-.42,0,.08,0-.5-.11l-.52-.15c-.15,0-.21-.16-.34-.16Zm6.09-20.93c0,.51-.11.18-.3.42s0,.15-.1.26-.32.17-.4.37.08.06-.13.23a2.73,2.73,0,0,0-.49.64l-.63.77c-.12.15-.13.4-.31.49l-.2.16a.62.62,0,0,0-.16.21l-.54.76c-.09.14,0,0-.09.1-.32.25-.17.22-.33.39l-.51.62c-.12.24-.14.08-.27.26a1.19,1.19,0,0,0-.08.16c-.11.17-.26.21-.35.41s-.28.53-.13.8.06.31.18.45A.7.7,0,0,0,34,39l.57.17a.62.62,0,0,0,.56-.09,3.08,3.08,0,0,0,.62-.68,4.92,4.92,0,0,1,.24-.45c.2-.27.3-.56.45-.8l0,0,.28-.35c.19-.28.12-.33.45-.54a.8.8,0,0,0,.19-.13c.25-.23.18-.11.42-.25.09-.06.08-.08.18-.14a1.84,1.84,0,0,1,1-.21c.21,0,.31.29.31.45a9.94,9.94,0,0,1-.47,2.24l-.15.61c-.05.2-.09.2-.13.38-.08.35,0,.49-.06.83a10.47,10.47,0,0,0-.13,1.77,1.53,1.53,0,0,0,0,.41,6.17,6.17,0,0,1,0,1.43c0,.93-.06,1.09-.09,1.9,0,.32,0,.19-.09.4s0,.23,0,.45-.1.73.34.93l.47.2c.54.11.21,0,.5.18a.93.93,0,0,0,.26-.18c.3-.25.45,0,.54-.46.06-.3,0-.15.23-.26.47.31.26.18.71.29a.77.77,0,0,1,.24.12c.23-.15.24-.15.56-.11l.33.07c.47.1.43-.17.71.43.17.36,0,.26.36.45s.22.25.8.41a2.61,2.61,0,0,1,.29.12c.41.12,1-.22,1-.56a2.85,2.85,0,0,0-.22-1.31c-.18-.56-.1-.68-.22-.87s-.07-.28-.17-.55l0-.08v0l-.1-1.07c.1-.51.34-.54.34-1.24,0-.09,0-.1-.1-.22-.13-.31,0-.52-.09-.85a9.57,9.57,0,0,1-.17-2.23,8,8,0,0,1,.18-1.31,7.34,7.34,0,0,0,0-1.48c0-.4,0-.08.07-.34s0-.3.07-.48a.7.7,0,0,0,.05-.18,7.52,7.52,0,0,1,.19-.85l0-.18c0-.23.13-.81-.3-1.07l-.56-.21c-.33-.09-.22,0-.73.06-.33,0-.63,0-.82.26a2.21,2.21,0,0,0-.11.21l-1.12.69c-.2.13-.08.16-.25.22l-.27.11A.44.44,0,0,1,41,34.8a.52.52,0,0,0-.33-.22,1.15,1.15,0,0,0-1-.06c-.26.15.19-.15-.06,0s-.15,0-.39.14l-1.58.9a2,2,0,0,1-.62.32c0-.35.23-.45.35-.73l1.3-2c.1-.2.22-.22.37-.36s.38-.53.67-.81l.38-.39.2-.17c.2-.18.29-.45.56-.55a2.29,2.29,0,0,0,.28-.09c.12-.06.07-.08.21-.15s.27,0,.5-.27c.46-.58.63-.39.63-1.21a.81.81,0,0,0-.17-.46,3.74,3.74,0,0,0-.78-1,.91.91,0,0,0-.58-.24l-.26.51a3,3,0,0,0-.21.55,1.62,1.62,0,0,1-.21.55l-.66.93a2,2,0,0,1-.17.23c-.07.07-.15.11-.22.19s0,.1-.13.23-.12.11-.2.21-.14.32-.42.39"/><path class="cls-1" d="M16,91.55v-.13c.14,0,.28-.16.27,0a.73.73,0,0,1-.1.13c-.11.06,0,0-.17,0ZM9.44,74.11h0Zm2.31-5.5s.09.1.07,0,.11,0,0,0-.05-.07-.05,0Zm-.88,22.81c0-.14,0-.09-.13-.17,0,.17,0,.13.13.17ZM12.13,77.9h.08v-.13h-.08ZM7,83c.14,0,.13,0,.16-.17H7V83c-.2,0-.1-.09-.33-.18a.37.37,0,0,0-.14,0c0,.19.07.1-.12.12a.29.29,0,0,1,.25-.42v.21c.38,0,.27,0,.32-.09s0-.24.18-.37c-.08-.12-.08,0-.12-.21.16-.07.14,0,.26-.12s-.07,0,.07-.09c0,.08,0,.07,0,.13-.18.12-.21.21-.17.38h.12c.06-.15,0,0,.17-.13v-.42c-.13,0-.08,0-.17,0,0-.21,0-.08.09-.12s0-.08.22-.1.06-.15.18-.43.06-.06.06-.31c-.13,0-.09,0-.13-.13.34.08.07-.06.38-.08a1.23,1.23,0,0,0-.12-.26,2,2,0,0,1,.33-.16c-.06-.17,0,0-.12-.17l.25-.17,0-.46A.69.69,0,0,0,8.9,79c-.13-.06-.12,0-.3,0v-.13c.57,0,.42,0,.38-.42.19,0,.17.1.23,0s-.07.08-.1-.22c.2-.09.07.11.23-.19.05-.1,0-.07.1-.11s0-.09-.07-.07l0,0c0-.22,0-.18.19-.27s0,0,.09-.08a.85.85,0,0,0,.09-.53.64.64,0,0,0,.32-.24c.21-.23.35-.15.31-.52l.26,0c-.06.21-.07.06-.13.26l.41-.22h0a3.5,3.5,0,0,1,.61-.31,3.27,3.27,0,0,1-.31.65l-.2.31a1.77,1.77,0,0,0-.16.34c-.08.21,0,.15-.14.33l-.14.19v0c-.13.24,0,.62-.24.81s-.25.35-.1.7l.15.35a.55.55,0,0,0,.41.35c.36.11.19.1.42.29s.69,0,.78.14a2.18,2.18,0,0,1-.17,1.34c-.07.1,0,0-.06.17l-.16.62c-.17.39-.23.06-.37.6,0,.2-.13.06-.11.32a1.48,1.48,0,0,0,.13.42c0,.09,0,0,0,.1a.54.54,0,0,0,.35.4.46.46,0,0,0,.14.07c.38.15.36.25.63.31s.08,0,.18,0,.14-.09.42-.09a.49.49,0,0,1,.07-.11,1.51,1.51,0,0,1,.57-.31,5.55,5.55,0,0,0,.93-.5c.23-.14,0,0,.26,0a2,2,0,0,1,.21-.12,2.67,2.67,0,0,0,.52-.2c.07,0,0-.07.25,0s.05-.07.34-.09.2.11.41,0a3.55,3.55,0,0,1,.62-.11c.14,0,.09,0,.24,0s.45-.07.62,0l.55.15c.58.21.69,0,.61.7a3.47,3.47,0,0,1-.11.94c-.2.43.11.25,0,.55,0,.1-.12.13-.18.21s.09,0,.09.33a.28.28,0,0,0-.17.13c.05.2.07,0,.13.25-.18,0-.19.22-.25.34s-.19.13-.13.37c-.31,0-.29.21-.41.43a1.2,1.2,0,0,0-.09.21c-.09.21-.41.44-.51.67s0,.26-.1.4,0,0-.06,0c-.31.11.09-.07-.1,0s-.08.39-.33.55-.28,0-.34.25c.16-.05.06-.05.21-.09l0,.17c-.43.1-.34-.08-.63.46.13.18.11,0,.17.21a1.37,1.37,0,0,0-.44.06c-.16,0-.13,0-.17.12s0,0,.06.2l-.13.12c-.18-.06,0,0-.09-.06s0,0-.11-.06l-.15.19c-.18.24-.28.09-.45.26s-.1.22-.28.27l-.13,0c-.17.06-.07.08-.28.11s-.14-.07-.27,0-.06.13-.12.26a1,1,0,0,1-.37,0c-.31-.07-.06,0-.31,0s-.15,0-.3-.11a6.12,6.12,0,0,0-.69-.15.44.44,0,0,1-.26-.16l-.1-.11a1.55,1.55,0,0,0-.37-.26c0,.3-.07.15-.21.33a.82.82,0,0,0,.4.32l.08.05c.67.42.47.23.82.28.1,0,.08.07.23.1a3,3,0,0,1,.31,0c.13,0,.26.21.39.29.3.17.31,0,.57.13.56.19.24.22,1,.2-.07-.14,0-.15-.21-.17.15-.2.21,0,.21,0s0,.12.21.13a1,1,0,0,1,0-.21c.21.11.16-.05.17.21.24-.06,0-.1.28-.1s.11,0,.3-.11a2.55,2.55,0,0,0,.29-.13,1.1,1.1,0,0,1,.29-.17c.2-.06.21-.19.37-.28h0l.07,0a1.11,1.11,0,0,0,.23-.19l.44-.45c.1-.16.15-.12.25-.21s.06-.16.13-.29.16-.13.24-.22.14-.28.38-.5l.1-.11.09-.21,0,0a0,0,0,0,0,0,0v0a1.92,1.92,0,0,0,0-.2c.23,0,.11.09.21,0s.2-.44.41-.65.16-.11.24-.43c0,0,.08-.23.09-.25a5,5,0,0,0,.27-.44c0-.1,0-.18.06-.27s.13-.15.13-.34v0l0-.11c.07-.16.07-.29.16-.47l.33-1.06a5.55,5.55,0,0,0,.1-.61c0-.23,0-.07.09-.26s0-.09,0-.28.08,0,0-.22,0-.6-.15-.9l-.28-.43c-.11-.13-.13-.1-.23-.19l-.08-.09c-.08-.1-.2-.12-.29-.18s0,0-.08-.09,0-.11-.32-.14a.52.52,0,0,1-.21,0c-.29-.09-.19,0-.43,0a1.19,1.19,0,0,1-.39,0c-.24,0-.22,0-.4.06s-.12-.11-.39-.06a3.58,3.58,0,0,1-1,.1c-.26,0-.16,0-.39.08s-.7,0-1,.27l-.2.1c-.49.15-.26-.07-1,.27a2,2,0,0,1-.22.08,1.3,1.3,0,0,1-.21,0c-.22.05,0,0-.2.1s0,0-.14,0h-.08c-.1,0,.05,0-.12,0a2.81,2.81,0,0,1,.17-.88s0,0,0,0l.13-.36c0-.12,0-.09,0-.2a2.9,2.9,0,0,1,.12-.42.39.39,0,0,0,.06-.3,2.73,2.73,0,0,0,0-.76l-.24-.39a1.06,1.06,0,0,0-.26-.41c-.1-.12-.07-.17-.18-.24L12,78.69c0-.35.17-.16.17-.67-.15,0-.15,0-.05-.3s.13-.1.13-.41l.09.21a.48.48,0,0,0,.21-.3c0-.1,0-.13,0-.29.24,0,.17-.07.37-.43s.43-.51.58-.8.09-.24.16-.39.08,0,0-.39l-.43-.87-.26-.13a1.16,1.16,0,0,0-.88,0c-.12.08-.17.22-.28.31l-.87.48c-.08,0-.09.13-.13,0-.07-.31.15,0,.16-.42-.22,0-.07,0-.12-.08.14-.1.27-.06.32-.22a.77.77,0,0,0,0-.45c.55-.37.28-.59.45-.93.07-.13,0-.08.11-.23l0,0s0,0,0,0l0-.08,0,0,0,0c.08-.16,0-.18.12-.34a3.13,3.13,0,0,0,.32-.6c-.16-.07-.11.09-.17-.13.26,0,.26-.1.34-.29s.05-.08.14-.2,0-.06,0-.22c.24,0,.32-.33.45-.56a2.12,2.12,0,0,1,.19-.36c.14-.17,0-.09.11-.27s.12-.13.18-.2l.09-.16a3,3,0,0,0,.63-1c.07-.17.11-.09.19-.33s0-.16.1-.27c.21-.33.14-.14.18-.58a1.23,1.23,0,0,0-.2-.55L14.4,66l0,0-.24-.21c-.34-.2-.66,0-1,.15s-.22,0-.45.36c0,.07,0,0-.09.12-.13.32.25.39-.11.89l-.48.91c0,.16-.06.06.07.11s-.07.1-.12.26,0,.07,0,.14,0,0,0,.08a3.61,3.61,0,0,0-.23.36c0,.06,0,0,0,.1l-.12.17s0,.15-.08.21a1.23,1.23,0,0,1-.1.2,5.47,5.47,0,0,0-.36.73c0,.32,0,.14-.14.36s-.05.28-.14.45c-.07,0-.11-.08-.09-.17.15-.63,0-.39-.11-.8,0-.2.05-.09-.07-.26s-.31-.16-.38-.29a.89.89,0,0,1-.05-.13c-.05-.11,0,0-.07-.13s.1-.4,0-.58S9.78,69,9.7,69l-.06,0a.84.84,0,0,1-.38.16c-.2,0,0,0-.17-.09s-.32-.09-.49,0a.46.46,0,0,0-.82,0,1.08,1.08,0,0,0-.11.18,1.83,1.83,0,0,0-.13.55c0,.21,0,0-.07.25s.08.06.1.22-.17.24.33.65.25.23.43.42a.55.55,0,0,1,.09.07c.14.09.24.25.42.3s0,0,.23,0l.23,0c.28,0,.07,0,.29,0s.48-.15.7-.27a.42.42,0,0,1,.29-.09.22.22,0,0,1,0,.08,0,0,0,0,1,0,0s0,0,0,0c-.12.24,0-.18-.17.33-.06.15-.23.31-.25.46s.09.11.11.37c-.34,0-.29,0-.35.28s-.14.18-.25.43a1.34,1.34,0,0,0-.07.6c0,.32-.08.27-.34.33,0,.36-.22.59-.3.92,0,.16-.07.14-.14.27a1.73,1.73,0,0,0-.1.33c-.12.34-1.15.87-1.3,1.18,0,.08,0,.09-.1.18l0,0,0,0-.11.1-.1.11c-.1.11,0,0-.12.1l0,0h0L5.4,78.85l-.22.21L5,79.25a.9.9,0,0,0-.23.2l-.7.63s0,0,0,0l0,0c-.41.43-.26.09-.58.39a2.09,2.09,0,0,1-.2.22c-.12.11-.24.15-.25.31a.5.5,0,0,1,0,.16H2.81a.59.59,0,0,0-.24.18,1.38,1.38,0,0,0-.29.3,1.92,1.92,0,0,1-.23.31c-.09.11-.08.06-.16.14s0,.14-.2.34,0,0-.09.16,0,0-.12.14a1.17,1.17,0,0,0-.27.61c-.1.36-.19.08-.21.38.31,0,0,.14.42.71s.25.22.58.56l.22.15h0l.18.08,0,0c.16.09.21.26.35.36l.48.41a1.1,1.1,0,0,1,.42,1.11c-.09.28,0,.22,0,.46s-.07.16,0,.45a.83.83,0,0,0,.54.63.91.91,0,0,1,.3.13c.1.1-.11,0,.08.08a.5.5,0,0,0,.54-.09,1.7,1.7,0,0,0,.26-1,1.3,1.3,0,0,1,.08-.42c.16-.88.11-.33.23-.78l.07-.19c0-.09,0,0,.08-.16-.16-.08-.1,0-.21-.13A.6.6,0,0,1,6,86c0-.38,0-.27,0-.44s.11-.25.11-.45a1.36,1.36,0,0,1,.08-.57c.07-.12,0,0,.06-.11a.78.78,0,0,0,0-.14c0-.15,0-.16.2-.18l0-.38c.22,0,.08,0,.13.09h.12c0-.13,0-.06.09-.13-.1-.13,0-.07-.17-.08,0-.32,0-.64.34-.47Zm4,8.36c0-.18-.08-.24-.25-.25.09.13.08.2.25.25ZM9.4,87.6c-.8,0-.24.23-.79.3-.1,0-.48,0-.51.29s.49.5.65.56.12,0,.22.08c.32.11-.06.07.46.16.22,0,0,.06.26.08a.27.27,0,0,0,.13-.25c.21.14.13.51.67.38.35-.09.19.1.52-.07s.4-.07.41-.35l.42,0c.11-.47.06-.17.28-.3s.05-.16.36-.36c.15-.09.1,0,.25-.08s.17-.2.45-.22c.61,0,.26-.15.58-.12s0,0,.55-.05a1,1,0,0,0,.78-.4c.09-.11.23-.26.23-.4a.76.76,0,0,0-.17-.41c-.06-.06-.12-.08-.17-.13s-.07-.15-.12-.22,0,0-.2-.09-.06,0-.2-.09l-.4-.23c-.3.2-.47,0-.63,0,0,.16-.1.16-.27.27L13,86l-.25.13a1.41,1.41,0,0,0-.31.1l-.34.22,0,0s0,0-.06.06l-.1.07c-.08.09,0,0,0,0s0,0-.05.08-.12,0-.28.14c-.42.36-.13.06-.47.28a2,2,0,0,1-.55.26,5.65,5.65,0,0,0-.55.25c-.32.12-.11-.07-.61-.07ZM5.62,86.38v.13H5.54c0-.12,0-.07.08-.13Zm-.55-.67c0,.2,0,.16-.12.21,0-.17,0-.14.12-.21Zm0,0,0,0Zm0,0V85.5H5.2c0,.19,0,.07-.08.17Zm.33-1,0,.08Zm.38-.21c.08-.18,0-.14.17-.26,0,.3,0,.18-.17.26Zm-.34,0a.72.72,0,0,0,0-.21c.13,0,.07,0,.16,0,0,.2,0,.08-.21.17Zm-3.78-.3,0,.09Zm0-.12a.19.19,0,0,1,0,.12l-.08,0Zm4.12-.26V84H5.66c0-.23,0-.25.13-.3ZM6,84c0-.12,0-.17.12-.17s.1,0,.13.13Zm-4.29-.26c0-.19,0-.07.09-.16,0,.07,0,.14-.09.16ZM6,83.19s0,0,0,.09a.45.45,0,0,1,0,.12c-.13-.1-.09,0,0-.21Zm.33.29c0,.16,0,0,.06.11l.07.06a.87.87,0,0,1-.3,0c0-.34.17-.13.17-.63h.09c0,.29-.09.23-.09.42ZM2.17,83a.32.32,0,0,1,.13.08c-.26,0-.07,0-.13-.08Zm3.91-.25h0Zm.63-.59c0-.08,0-.15,0,0s0,.18,0,0ZM6.84,82c0-.15,0-.12.08-.21,0,.1,0,.18-.08.21ZM7,81.72H6.88c0-.2,0-.21.17-.25,0,.24-.08.08-.09.25Zm-3.48-.21.11-.14c0,.19,0,.07-.11.14Zm3.57-.25c0-.12,0-.05,0-.21.19,0,0,.06.25.08,0,.23,0,.08-.08.1l-.21,0ZM4,81.13l.05.08c-.26,0-.19.12-.27,0s0,0,0-.09.08,0,.19,0Zm3-.29V81H6.8c.07-.11,0-.08.16-.12Zm.42,0c.19,0,.11-.07.13.12ZM4,81.13v-.21c.15-.08.08,0,.19-.14s0-.11.23-.15c0,.15-.4.49-.42.5Zm.29-.71,0,0Zm0,0,.09,0Zm3.28-.17h0Zm-3-.09,0,.09Zm0,0,0,0ZM4.7,80c0,.14,0,.06-.09.08Zm2.43,0c.1,0,.06,0,.09.08Zm.51.08c0-.17,0-.12.12-.17,0,.19,0,.08-.12.17ZM7.13,80l0,0Zm1.18-.46c0-.11.06,0,0,0s0,.11,0,0Zm-2.86,0-.17.17c0-.09.07-.15-.08-.21.07-.07,0-.06.17-.09,0,.13,0,.06.08.13m0,0,.16-.18c0,.16,0,.14-.16.18Zm2.48-.3,0,.09Zm-2-.33c-.06.09,0,.05-.12.08.06-.09,0,0,.12-.08Zm0-.09,0,.09Zm1.84-.29h0Zm.42-.08c0-.18,0-.09.17-.17,0,.16,0,.15-.17.17ZM7.09,80c-.22.15-.21.21-.23.31a1.23,1.23,0,0,1-.2.48c-.08.16-.14.09-.23.22s0,.06-.11.32,0,.45-.21.76c-.08.12,0,0-.1.19s-.07.3-.13.46a1.36,1.36,0,0,1-.24.39c-.12.19,0,.19-.18.41a2.12,2.12,0,0,0-.25.63c0,.12,0,0-.1.19l-.4,1.08c0,.17,0,.08,0,.2s0,0-.08.18l-.24.69c-.14-.11,0,0-.11-.14L4,85.88c-.09-.16-.22-.21-.16,0A.91.91,0,0,0,3.9,86a.53.53,0,0,1,.08.22c-.1,0-.26-.25-.58-.47l-.16-.1c-.1-.09,0-.06-.14-.15l-.91-.69a1.6,1.6,0,0,1-.44-.65.65.65,0,0,1,.28.31.69.69,0,0,0,.32.26c.11.06,1,.81.57.16l-.34-.55a.65.65,0,0,0-.3-.29C2.08,84,2.06,84,2,83.78c.23-.09,0-.11.39-.5.12-.13.13-.27.37-.54a4.86,4.86,0,0,1,.42-.51l.17-.13c.13-.1.18-.18.33-.29l.08,0c.11-.1.09-.13.18-.24l.15-.23c.07-.08.28-.16.38-.25s0-.09.11-.19.06.06.34-.28c.15-.19.07,0,.3-.25a0,0,0,0,1,0,0l0,0c.19-.17.14-.17.28-.36s.11-.08.32-.18a2.86,2.86,0,0,0,.35-.28c.3-.43.2-.23.49-.44s0-.18.19-.21,0,0,.12,0c.32-.11.16-.34.66-.35-.11.14,0,0-.16.14s0,.1-.11.31c-.28.48-.08,0-.21.5,0,0,0,.09,0,.12l0,.12c-.08.17-.17.14,0,.37ZM6,78.9a1.65,1.65,0,0,1,.63-.5c-.08.28-.17-.05-.17.38-.31-.21-.12.1-.46.12Zm.63-.5a.92.92,0,0,1,.33-.29.35.35,0,0,1-.1.19c-.07.07-.13.07-.23.1Zm.33-.29a1.53,1.53,0,0,1,.46-.34.73.73,0,0,1-.46.34Zm.51-.42h0s0,0,0,0Zm.42-.26-.09,0Zm0,0c.07-.11,0-.08.16-.12,0,.11,0,.08-.16.12Zm2.85-1.59c.1-.14.08,0,.17-.21.24.16.09,0,.46,0a.83.83,0,0,1-.63.21Zm.21-.51c0-.1.07,0,0,0s0,.12,0,0ZM11,75a.46.46,0,0,1-.26.16c0-.2.07-.13.09-.33Zm-1.22-.34c.07-.06.05-.06.17-.08-.1.13,0,.06-.17.08Zm.25-.42c.05,0,.16.07.05,0s-.12,0-.05,0"/><path class="cls-1" d="M12.21,105.45a.31.31,0,0,1,.42-.31v.13c-.36,0-.14.11-.42.18Zm-7.86,10h0Zm9.39-11.75c.16,0,.14,0,.18-.18-.18,0-.13,0-.18.18Zm-10.69,6.4.07,0h0a.53.53,0,0,1,.42.18c.11.14.1.29.45.36s.33.2.94,0c.19-.06,0,0,.26-.15s.34-.16.41-.35l0-.14c.07-.19.07-.12,0-.33.08,0,.06,0,.18,0,0-.19-.11-.21-.24-.34-.42-.43-.27-.46-.57-.6s-.2-.07-.2-.38c-.5-.24-.3-.25-.54-.49-.68-.67,0,.07-.48-.56a.9.9,0,0,1-.57-.11c-.2-.11-.21-.23-.4-.28-.26.18-.28.58-.32.79-.1.55-.13.17.05.69.34,1-.23,1.05.2,1.43.14.12.24.13.25.33ZM3,111.55c-.19,0-.18,0-.18.22a4.74,4.74,0,0,0,.34,1.87c.12.2.11.09.19.34s.22.3.21.44a.66.66,0,0,0,0,.5.61.61,0,0,1,0,.27c.22,0,.09-.06.23,0v.13H3.61c.12.22.21.05.23.66,0,.35.32,1.12.33,1.44a3.23,3.23,0,0,0,0,.44,4.19,4.19,0,0,1,0,.44c-.28,0-.08.07-.32.13v.13c.53,0,.49.44,1.43.49.32,0,.29.12.55,0,.18.11.06.13.33.13,0,.23,0,.08.09.14.31-.56-.1-.89-.23-1.23a.55.55,0,0,0-.12-.24c-.27-.44-.59-.82-.87-1.23-.4-.6-.12-.35-.41-.71l-.09-.1c-.06-.08.07,0-.08-.09l-.1.13c.08.26.21,0,.13.24s-.12,0-.31,0c0-.41.11,0,0-.46l0-.72c0,.16,0,.43.23.39s.1-.32.1-.52a3.79,3.79,0,0,1,0-.78.48.48,0,0,0,.09-.23c.25,0,.21.05.28-.13.15-.36.06-.37,0-.63s0,0-.08-.15,0,0-.14-.12,0-.14-.18-.36l-.1-.08c-.5-.33-.06-.27-.53-.46-.23-.09-.1-.1-.3-.2s-.12,0-.29-.07-.06-.11-.29-.13Zm-2.4,8.64a1.35,1.35,0,0,0,.59,1c.68.54.91.3,1.77.3.25,0,.24-.08.45-.08l1.58.05c.37,0,0,0,.42,0,.12,0,.28,0,.41,0l1.11,0c.31,0,.39.14.62.2s1.19,0,1.49.12.6.07,1,.17c.21.05.08,0,.35,0s.25.06.35.07a2,2,0,0,0,.69,0c.11,0,.17.07.37.07s.18,0,.24,0,.11,0,.23.06c.29,0,.2-.14.5,0a6.84,6.84,0,0,0,1.34.48c.16,0,.34.18.63.29l.33.12,0,0,0,0a8.32,8.32,0,0,0,1.6.46l.15,0a4,4,0,0,1,1,.09c.2.06.38,0,.59.06l.51.13c.31.13.37.06.68.06.1,0,.18.1.33.12l1.36-.06a5.78,5.78,0,0,0,.81-.1,12.72,12.72,0,0,0,1.27-.12l.74-.22a9.16,9.16,0,0,0,1.22-.72c.3-.16.21-.28.19-.52-.5,0-.87.16-1.33.12a4.85,4.85,0,0,0-.66,0c-.34,0-.85,0-1.23,0l-.66,0c-.18,0-.08,0-.24,0a9.82,9.82,0,0,1-1.64,0,2.75,2.75,0,0,1-.42-.16h0c-.14-.06.05,0-.08,0s-.13,0-.35,0l-1.27-.11c-.15,0-.09.08-.18.08s-.15,0-.33-.08a2.79,2.79,0,0,1-1.1-.23l-.16-.07-1.18-.46c-.14,0,0,0-.14,0l-.15-.08-.46-.13c-.31-.13-.72-.1-1.07-.21-.58-.19-.4,0-.61-.05l-.86-.09c-.32,0-.16.07-.54,0s-.74,0-1.19-.14c-.19,0-.43,0-.65,0s-.44,0-.69-.09l-.07,0h0l-.85-.2a.78.78,0,0,1-.34-.07,3.68,3.68,0,0,0-.75-.13c-.28,0-.59,0-.89,0l-.51-.13a.81.81,0,0,0-.33,0,1.89,1.89,0,0,1-.6,0c-.26-.07-.31,0-.56,0s-.12-.1-.45,0a1.8,1.8,0,0,1-.66,0c-.32,0-.42.06-.72-.15s-.05-.1-.23-.1a.74.74,0,0,0-.71.56ZM11.89,105c-.05.12,0,.09-.19.13.11-.19,0-.11.19-.13Zm-.47-.09h-.09c0-.2-.05-.08.09-.18,0,.07.05.08,0,.18Zm.47.09c-.05-.11,0,0-.13-.15l-.15-.07c.14,0,.13-.06.28-.09,0,.17,0,.13.13.18,0-.21,0-.07.1-.22a1,1,0,0,1,.18-.18c-.07.31,0,0,0,.31-.11,0-.09,0-.24.08s0,.09-.22.14Zm.41-.53s-.07-.08.08,0,0,0,.06.06c-.12,0,0,0-.14,0Zm.88-.7c0-.12,0-.16.15-.22s.18,0,.22.09c-.46,0,0,.06-.37.13Zm1.3-1c.14,0,.08,0,.18,0a.25.25,0,0,0-.05.13c-.18-.11-.06,0-.13-.17Zm.27-.44h.09v.13c-.17-.12,0,0-.09-.13Zm-3,1.4c-.42-.77.15-1.31-.27-1.31-.16,0-.23.14-.38.21l-.55.09c-.13,0-.1-.06-.23-.12s0,0-.12-.07-.3-.28-.53-.42-.45-.56-.88-.66c-.22.32-.13.25-.13.88a.62.62,0,0,0,.14.34,3.79,3.79,0,0,1,.2.34c.1.17.26.3.34.47a2.82,2.82,0,0,0,.54.8.86.86,0,0,0,.13.14l.32.22c.19.14.24.07.45.06l.15.17c-.51,0-.1.18-.32.36a1.08,1.08,0,0,0-.32.23s0,0,0,0l0,.06a.25.25,0,0,0,0,.12,1.59,1.59,0,0,0-.64.41c-.47.49-.83.5-1.31.82l-.17.1c-.39.19-.38.43-.38.82,0,.07.4,1,.88,1,.21,0,0,0,.13,0h.15c.33,0,.29-.19.47-.41,0,0,.22-.18.22-.23,0-.44-.07-.23.41-.4.23-.08.13,0,.26-.24s.14-.3.38-.38a.91.91,0,0,0,.45-.32c.13-.21,0-.12.27-.22a3,3,0,0,0,.36-.19l.47-.25c.28-.12.55-.35.83-.49l.68-.36a2,2,0,0,1,.39-.12,1.42,1.42,0,0,1,.45-.1c-.05.16-.27.28-.41.41s-.24.26-.39.41a12.32,12.32,0,0,0-1,1.41,3.47,3.47,0,0,0-.26.55c-.05.1-.12.15-.16.24s0,.14-.09.31l-.08.1,0,0-.44.94a1.13,1.13,0,0,1-.1.31l-.32.88c0,.13,0,.19-.07.33s-.08.18-.11.28a1.5,1.5,0,0,0-.08.32c-.08.36-.27.83-.38,1.23a.88.88,0,0,0,0,.29c0,.19-.07.14-.1.28s0,.13.07.29c-.2.07-.1.27-.15.46a1.75,1.75,0,0,0,0,.32c0,.12-.09.24-.09.31s.07.07.06.21l-.13.78c0,.19-.09.3-.13.49a5,5,0,0,0-.12,1.55.48.48,0,0,0,.23.44l0,0,.26.15c.12,0-.05,0,.37,0,.59,0,.79-.82.81-1.23s-.15-1-.09-1.33a7.79,7.79,0,0,0,0-1.08l.3-1.69c.09-.42.35-.54.35-.94.13.09,0,0,.07.1l.21.33a1,1,0,0,1,.09.53c0,.1-.14.19-.2.3s-.23,1.27.15,1.37a1.61,1.61,0,0,0-.09.52,1.05,1.05,0,0,1,.5,0c.44.17.47.1.86-.07s.6-.5.19-.79c-.2-.15-.07-.16-.24-.34a3.79,3.79,0,0,0-.35-.25,1.58,1.58,0,0,1-.27-.31c.86-.55,1.39-.58,1-1.68-.13-.33-.33-.38-.71-.38l-.26,0c-.28,0,0,0-.25,0s-.15-.06-.28-.09a1.24,1.24,0,0,1,0-.22,4,4,0,0,1,.37-.88c.05-.09,0,0,.06-.08a4.61,4.61,0,0,1,.52-.69l.25-.25.15-.11c.14-.1.25-.09.36-.19s.34-.18.47.1,0-.06,0,.13v1c0,.19-.07.14-.09.35l0,1.41a1.06,1.06,0,0,0,0,.34l0,.66c0,.14.07.18.08.36L15,114c0,.22,0,.15,0,.3s0,.18,0,.34.07,0,0,.29a1.83,1.83,0,0,0-.07.32c0,.21,0,.2,0,.35s0,.19,0,.4a1.87,1.87,0,0,1,0,.62c0,.15,0,.12-.05.26s0,.06,0,.3a1.18,1.18,0,0,1-.36.66.48.48,0,0,1-.42-.61,2.15,2.15,0,0,0-.86-.72c-.17-.06-.32-.23-.48-.29l-.32-.09c-.13.07-.15,0-.2.17a1,1,0,0,0,0,.38c0,.5.13.38.25.69.05.13,0,0,.07.15a1.42,1.42,0,0,0,.36.41c.18.12.77,0,1.06.35a2.16,2.16,0,0,1,.23.49l.21.41,0,.09c.08.17,0,.19.18.32a.57.57,0,0,0,.31.18c.21.09.16.09.37,0s.1,0,.33.09c.19-.12.14-.08.46-.08l.12-.2c.18-.24.15-.49.34-.85l.18-.58c.12-.38.11-.85.2-1.21s0-.06,0-.27l.05-1a1.43,1.43,0,0,1,0-.33,6,6,0,0,0-.05-1.59c-.07-.19-.09-.31-.16-.55s-.21-.33-.21-.58.1-.2.14-.35c-.18-.26-.18-.18-.16-.46,0-.5-.07-1-.07-1.52a4.23,4.23,0,0,1,.17-1.59l.05-.33a1.38,1.38,0,0,0-.08-.45c-.22-.41-.58-.4-.88-.44-.15,0-.07,0-.21-.06a.67.67,0,0,0-.2,0,2.55,2.55,0,0,0-1.13.1l-.24.08c-.1,0-.1.08-.16.16l-.15.16a3.41,3.41,0,0,0-.65.87l-.73,1.24a.73.73,0,0,1,.06-.3,1.71,1.71,0,0,1,.05-.3c0-.15.12-.16.16-.37v0a1.14,1.14,0,0,1,.28-.46l.34-.5c.24-.5.4-.35.71-.78a8.62,8.62,0,0,1,.54-.8L15,106a2.92,2.92,0,0,1,1.48-.79,1.74,1.74,0,0,0,.87-.26.67.67,0,0,0,.28-.49,2.36,2.36,0,0,0,.14-.61c0-.1-.11-.2-.16-.29a1.28,1.28,0,0,0-1.32-.42l-.29.09a2.63,2.63,0,0,0-.65.25c-.35.21-.32-.08-.66.21l-.91.45-.19,0c-.46.12-.19.1-.78.35-.2.08-.12.09-.31,0,0-.15.09-.1.18-.26H13c0-.26.08,0,.09-.35-.22.14-.38.27-.28-.13.27,0,.25.08.56.08.05-.21.07-.13.27-.08a.48.48,0,0,1,.14-.4c.35,0-.07,0,.28.09a.65.65,0,0,0,.14-.26c-.33,0-.06,0-.28.13v-.31c.45,0,.09-.17.51-.26l.09.31.25-.21v0a.72.72,0,0,1,.19-.26.85.85,0,0,0,.35-.37.5.5,0,0,1,.1-.17,4.08,4.08,0,0,1,.71-.73l.34-.2c.35-.2.37.06.53-.33a1.8,1.8,0,0,0,0-1.27c0-.17,0-.09-.06-.25l-.33-.47,0,0,0,0L15.8,98l-.21-.1c-.63.39-.16.34-.51.84a3,3,0,0,0-.2.73,2.36,2.36,0,0,1-.38.82,5.41,5.41,0,0,0-.73,1.06c-.11.28-.41.39-.56.66a4.92,4.92,0,0,1-.44.58l-.41.4a1.64,1.64,0,0,0-.26.33c-.09.13-.17.28-.31.32"/><path class="cls-1" d="M40.07,2c-.07.27-.16.17-.37.33a.77.77,0,0,1-.45.24v.13c-.21,0-.17.11-.35.21a.8.8,0,0,1-.47.15,1.31,1.31,0,0,1-.08.21c-.4,0-.29.23-.65,0-.12.09-.05,0-.13.16-.26-.06-.15,0-.34,0L37,3.59c-.09.06-.28.26-.28.37a2.32,2.32,0,0,0,.07.46,1.21,1.21,0,0,0,.12.41c.07.12.12.07.19.22a2.33,2.33,0,0,0,.33.65c.09.08.13.07.2.17a.71.71,0,0,1,.07.34c.16,0,.15-.07.25.07.2.32.11.17.42.4s.51.14.88.14a1.91,1.91,0,0,1,0,.53c0,.14,0,0,0,.08v.09a1.83,1.83,0,0,0-.07.17c-.08.28,0,.38-.06.68s0,.69-.08.94l0,.94c-.06.49.09.27.09.41S39,10.81,39,11c.31.21,0,.11.22.64.06.13.05.37.12.49l.34.68a.7.7,0,0,1,.14.48c.19.1.16.17.26.35s0,0,.07.18v.06c0,.09,0,0,0,.09l0,.07v0l0,0c.11.22.1.44.23.66l.06.11c0,.09,0,.1,0,.19.07.24.25.33.3.56.09.47.13.22.16.45s0,.12,0,.19,0,0,.05.12l.13.53a4,4,0,0,1,.11.75,6,6,0,0,1,0,1.34c0,.16,0,.06-.1.19a1.41,1.41,0,0,1-.52.66,4.29,4.29,0,0,1-1,.55l-.64.22c-.21.05-.12,0-.23.1.1.15.27.08.66.08a6.48,6.48,0,0,1,.85-.15c.16,0,.06,0,.25-.05l.15.17a5.59,5.59,0,0,0,.7-.1c.17-.08.06-.13.27-.09a1.79,1.79,0,0,0,.89,0l.36-.05c.5,0,.35.11.68-.26.48-.53.34-1,.34-1.75a9.17,9.17,0,0,0-.26-1.69,2.61,2.61,0,0,0-.22-.77l-.12-.37c0-.11-.13-.29-.13-.35,0-.22.07.05,0-.18s-.17-.31-.17-.54-.12-.28-.17-.51l-.19-.54c-.06-.13-.1-.12-.13-.24L42.61,13c-.18-.2-.13-.5-.27-.75l-.19-.3c-.1-.1-.12-.36-.22-.52s0,0-.07-.17l0-.74a1,1,0,0,0,0-.45c-.05-.1-.13,0-.06-.39,0,0,0-.14,0-.2l0-.27c0-.14.08-.06.08-.2s-.11,0-.12-.33h.12a2.39,2.39,0,0,1,0-.53c0-.13.07-.1.1-.2.11-.27-.19-.34.4-.66V6.94c.26-.17.15-.13.27-.38a.38.38,0,0,0,.07-.17c.11-.38.17-.08.37-.58.11-.28.29-.3.45-.48l.24-.22a3.42,3.42,0,0,0,.16-.33c.1-.1.11,0,.23-.06a.83.83,0,0,1,.5-.19c0-.26,0-.12.14-.22S44.86,4.1,45,4l0,0,0,0,.38-.49c.12-.12.12-.06.13-.27s0-.25,0-.37a1.35,1.35,0,0,0,.06-.49l0-.16c0-.25,0,0,0-.33a.34.34,0,0,1-.2-.13c-.11-.11-.09-.17-.19-.3s0-.2-.19-.38-.1-.07-.17-.16A.6.6,0,0,0,44.53.6h0c-.13,0,0,0-.19-.06V.41h-.12V.29c-.25,0-.22-.13-.53-.13-.07-.13,0-.07-.12-.16a1.35,1.35,0,0,1-.73.25,3.61,3.61,0,0,0-.91.48c-.18.1-.12.13-.23.18l0,0a.49.49,0,0,0-.26.15c-.23.24-.38,0-.54.27s-.23.22-.36.34,0,.27-.42.27ZM29.36,15.36c-.34.51-.33.25-.44.54A3.36,3.36,0,0,0,29,17.34l.23.63c.08.19.11.15.23.31l.24.33c.08.1,0,0,.13.11s.07.1.13.16,0,0,.18.1.11,0,.15.14c.24,0,.08-.08.41-.08.11,0,.05,0,.2.08s.25,0,.54-.12.35,0,.55-.43l.06-.39c0-.16,0-.23,0-.4A1.48,1.48,0,0,0,32,17c-.22-.37-.09-.48-.33-.6l-.35-.15c-.13-.06-.25-.06-.36-.12l-.86-.58c-.24-.3-.23-.2-.7-.2ZM49.42,12c-.13,0-.1-.09-.27-.06a1,1,0,0,0-.48.24c-.27.49,0,.21-.09.56s.07.25.07.32-.06.19,0,.35.06.12.13.28a4.41,4.41,0,0,1,.06.72,2.65,2.65,0,0,0,.23.66.38.38,0,0,1,0,.1,1.42,1.42,0,0,0,0,.16l.05.15c0,.1,0,0,.1.14s.06,0,.12.09,0,.13.15.26,0-.1.23.21.34.31.54.49l.28.17a1.33,1.33,0,0,0,.5.11c.18,0,.09.07.17.07s.14-.06.25-.06.1.06.2.11.09,0,.25,0,.45.16.65-.22a1.27,1.27,0,0,1,.18.06c.16.07,0,0,.19.06,0-.17,0-.12.14-.18s0,.17.28-.33l0-.05a.59.59,0,0,0,.08-.29c.22,0,.27,0,.28-.11v-.34c0-.13-.06-.08-.1-.19s0,0,0-.22-.06-.14-.09-.24,0-.1,0-.29,0,0,0-.08l-.21-.28c-.22-.27-.09-.25-.19-.47s-.15,0-.32-.37l0-.06c-.17-.37-.22-.19-.38-.39s0-.08-.15-.18l-.19-.1,0,0-.21-.12c-.16-.09-.22-.26-.3-.31s-.19.09-.41-.24a1.48,1.48,0,0,0-.21.13c-.07-.3-.15-.1-.52-.3s-.33-.09-.61,0-.06,0-.21,0-.11.06-.21.06"/><path class="cls-1" d="M37.16,65.32l0,0a.46.46,0,0,0-.07.07l-.15.12a1.2,1.2,0,0,0-.32.67c-.15.58.08.51.19,1a.39.39,0,0,0,.08.19,3.36,3.36,0,0,1,.27.49c.17.55.53.62.69.8l.44.37c.21.16,0,.11.36.14s.51.26.77.09c.08,0,.06-.07.16-.11.34-.16.57-.06.7-.57a1.48,1.48,0,0,0,.05-.82c-.06-.4-.25-.53-.11-.77l.25-.52a2.06,2.06,0,0,1,.42-.62l.06-.07L41,65.7l.11-.17c.12-.19-.1.13,0,0l.32-.36c.18-.13.23-.29.51-.52s.43-.46.55-.49a2.49,2.49,0,0,1-.21.74l-1.45,3.51-.09.13c-.26.4-.95,2.54-1.2,3.13a4.52,4.52,0,0,1-.42,1,3.39,3.39,0,0,1-.67.51l-.13.09-.28.17a5.39,5.39,0,0,1-.54.4,3.62,3.62,0,0,0-.54.36l-.54.37c-.59.41-1.17,1-1.76,1.31,0,0,0,0-.08,0s-.12.15-.23.23l-3.18,2.54a6.56,6.56,0,0,0-1,1.57,1,1,0,0,0-.23,1c0,.23,0,.13.09.28.43.55.82,0,1.46,0a.8.8,0,0,0-.2-.48c-.14-.22-.11-.27-.39-.33a2.45,2.45,0,0,1,.41-.76c.24-.35.55-.64.8-1l.3-.3c.24-.22.55-.73,1-1.1l.37-.39c.13-.13.17-.12.28-.22s.16-.19.24-.26L35,76c.17-.17.28-.39.48-.51a.55.55,0,0,0,.14-.09.86.86,0,0,1,.14-.13l.58-.42a2.55,2.55,0,0,1,.28-.21l.14-.09.44-.33c.11-.09.17-.1.3-.19l.28-.21L39,73c0,.14-.17.35-.25.61s-.1.18-.13.27,0,.12-.12.34a4.7,4.7,0,0,0-.17.45c0,.06,0,.08-.08.15l-2,4.49c-.06.13-.1.16-.17.29s-.17.51-.32.76,0,0-.06.16l-.07.15a9.86,9.86,0,0,1-.75,1.65c-.36.33-1.1-.3-1.54-.42-.13,0,0-.06-.19,0s-.26.07-.2.22.21.19.28.25.14.21.41.36l.22.15a1.16,1.16,0,0,1,.35.41c.2.36,0,.46.29.89a.76.76,0,0,0,1.23,0c.12-.23,0-.13,0-.29s.15-.25.24-.66l.46-1.08a2.42,2.42,0,0,0,.19-.4,8.15,8.15,0,0,1,.38-.88,1.68,1.68,0,0,1,.07-.24l.69-1.8c.05-.1.05,0,.11-.2a1.72,1.72,0,0,1,.07-.21,12.08,12.08,0,0,0,.78-1.69L40,73.66a1.35,1.35,0,0,0,.08-.24l.29-.93c.21-.63.22-.39.61-.66l1.7-.78a2,2,0,0,1-.36.6c-.09.11-.09,0-.19.16s-.17.24-.28.36-.24.17-.26.42c-.26,0-.31.34-.6.7l-.57.7c-.1.16-.3.34-.32.54-.18,0-.2.07-.26.23a1.21,1.21,0,0,0,.07.82c.1.22.18.52.42.62s.24,0,.37,0,.06,0,.16,0,0,0,.16-.08.31,0,.48,0a1.78,1.78,0,0,1-.23.67l-.5,1.39a1.66,1.66,0,0,0,0,1.38c.09.15.06.24.18.4a1.18,1.18,0,0,0,1.1.26,4.25,4.25,0,0,0,.88-.06,1.46,1.46,0,0,1,.42,0,2.58,2.58,0,0,0,.85-.28,1,1,0,0,1,.18-.09,5.92,5.92,0,0,0,.72-.23A14.24,14.24,0,0,1,46.5,79a2.28,2.28,0,0,0,.39-.06,3,3,0,0,1,.42-.09c.26,0,.11-.09.32-.1s0,0,.15,0l.93-.06.72.23c.22.09.16-.07.5.13a1.14,1.14,0,0,1,.27.31c.06.11.27.32.27.41s0,0-.06.13a.64.64,0,0,1,0,.07l0,.09a.66.66,0,0,0-.06.12c-.11.23-.1.32-.25.61a1,1,0,0,0-.08.24c-.05.12-.13.23-.2.38A9.18,9.18,0,0,1,48.89,83l-.63.82-.06.07a2.87,2.87,0,0,1-.62.7c-.35.3-.51.72-.94,1-.24.14-.09.15-.28.31A3.13,3.13,0,0,1,46,86l-.56.34-.09,0a2.37,2.37,0,0,1-1.6,0,.26.26,0,0,1-.1,0l-.78-.3c-.19-.06-.19-.12-.38-.21s-.54-.15-.67-.37l-.1-.22a.28.28,0,0,0,0-.08l-.17-.14a2.69,2.69,0,0,0-.26-.33l-.48-.43c-.11-.09-.08,0-.13-.18l.49-.06c.29-.08.18.07.46,0l.51-.08L42.3,84l.09,0c.13-.1,0-.08.2-.07s.24-.08.38-.12l.1,0h0l.1,0c.16-.08.19-.19.34-.33l.6-.48c0-.47,0-.52-.28-.81l-.81-.5h0l-.07,0c-.11,0-.15-.11-.3-.12l-.89.07a2.16,2.16,0,0,0-.65.48l0,0L41,82c-.15.06-.3.06-.32.26-.34,0-.21,0-.4.1s-.15,0-.35.07a10.13,10.13,0,0,0-1.58.4l-.92.15c-.21,0-.28.38-.2.55s0,0,.06.13c.08.31.1.25.33.44s.2.33.89.33c.2,0,.16-.09.5-.1a2.08,2.08,0,0,0,.51-.07c.32,0,.09.15.41.11s.23-.12.52-.12c0,.2,0,.25.22.37a2.36,2.36,0,0,1,.68.76l.07.15a1.06,1.06,0,0,0,0,.19l.08.15c.37.65.4.61,1.06,1.1l.59.35a6,6,0,0,0,1.73.35l2.21-1.07.35-.34a2.66,2.66,0,0,0,.46-.39l.84-.88a.83.83,0,0,0,.13-.18c.11-.14.23-.2.34-.33l.06-.08.14-.17.59-.86.06-.07.15-.18a5.32,5.32,0,0,0,.57-.95l.3-.52c.07-.18,0-.06.1-.21s.22-.2.3-.29,0-.22.15-.44.11-.08.15-.39a3,3,0,0,0,.09-.77c0-.73,0-.41-.34-1a.84.84,0,0,0-.49-.37c-.26-.09-.34-.28-.61-.29,0,.12,0,0-.09.1-.39-.34-.39-.1-.79-.17-.72-.12-.52,0-.83,0-.06,0-.12,0-.21-.05A5.07,5.07,0,0,0,47.4,78c-.36.18-.59.15-.89.28l-.82.22c-.23,0-.18.1-.37.17L44,79c-.2,0-.25.06-.43.11l-.2.07-.26.06-1.12,0c0-.13-.06-.13-.08-.24v-.55s0,0,0,0a2.58,2.58,0,0,1,.5-1.26l.5-.54a7.19,7.19,0,0,0,.54-1.08c0-.09,0,0,0-.22s0-.06-.08-.19a1.44,1.44,0,0,0-.7-.51c-.15-.05-.1,0-.25-.07s-.06-.09-.19-.11-.1,0-.27,0-.17,0-.26,0,0,.06-.23.12c0-.22.09-.16.18-.28a0,0,0,0,0,0,0l0,0A10.28,10.28,0,0,1,42.58,73a4.91,4.91,0,0,1,.6-.8c.19-.15.22-.32.42-.48s0,0,.13-.1,0-.05.1-.16.11,0,.22-.23l.36-.54c.16-.21.39-.46-.16-.73a1.19,1.19,0,0,0-.87,0c-.1.06-.14.14-.24.18s-.14,0-.26.14,0,.1-.18.23c-.4.27-.86.4-1.27.67a2.1,2.1,0,0,1-.8.41l.25-.56c.12-.31.32-.92.47-1.2l.29-.57a2.2,2.2,0,0,1,.15-.26l.07-.11,0-.06c.12-.21.19-.45.33-.66s.51-1.11.68-1.39l.82-2.11a1.61,1.61,0,0,1,.47-.53l.05,0L44.3,64c.29-.32.66-.51.75-1a1.33,1.33,0,0,0,.06-.83c-.11-.37-.07-.45-.48-.65-.21-.11-.14,0-.35,0s0-.12-.24-.07-.14.07-.26.1a2.44,2.44,0,0,0-.31.06c-.54.16-.31.24-.62.51l-.28.57a.79.79,0,0,1-.24.4l-1,.71-.11.07-.41.31,0,0-1.55,1.29a.8.8,0,0,1-.79.21l0,0-.36-.14a1.91,1.91,0,0,0-.6-.16c-.21,0-.12-.07-.29-.12"/><path class="cls-1" d="M6.16,7.53c0-.3-.07-.45-.08-.66,0-.4-.1-.36-.34-.68-.09-.14-.28-.37-.5-.23s0,.12,0,.26L5,7.73a13.74,13.74,0,0,1-.1,1.43c0,.21,0,.29,0,.44s0,0-.06.28c0,.63,0,1.28,0,1.91s0,.82,0,1.25a5.36,5.36,0,0,1-.09,1.77c-.19.6-.08.54,0,1.2s.25.35.28.72.31.35.46.5.37.14.67.15c.06,0,.18,0,.31,0s0-.07,0-.17.15-.27.13-.5v-.17l0-.17c-.07-.36.06-.16.06-.3s0-.08,0-.23.07,0,.07-.27-.08-.19-.12-.33,0-.28-.08-.38,0-.23-.08-.37a2,2,0,0,1-.08-.77,9.92,9.92,0,0,1,.07-3.35c0-.18.26-.27.42-.64l.4-.95,0,0,.17-.48A4.6,4.6,0,0,1,8.16,7l1.3-1.56c.26-.24.27-.37.51-.54a3.17,3.17,0,0,0,.46-.6c.2-.23.4-.31.57-.53a1.22,1.22,0,0,1,.24-.27l0,0c.12-.12.11-.18.24-.26l0,0h0l.62-.34a1,1,0,0,1,.35-.15,6.67,6.67,0,0,1,1.31-.35c-.1.41,0,.22,0,.35s-.08.32-.08.46a3.18,3.18,0,0,1,0,.77c-.14.66,0,.37,0,.68a2.73,2.73,0,0,0-.1.6c0,.52-.11.29,0,.93,0,.29,0,.14-.07.38s0,.14,0,.28-.06,0-.06.12.1.11.05.31-.05-.09-.05.14v1.2c0,.2,0,.23,0,.35s0,.16,0,.35.11,0,0,.3a2.55,2.55,0,0,0,0,.91c0,.51,0,1.05,0,1.55,0,.18.08,0,.1.35,0,.16,0,.33,0,.5l.07.79a3.67,3.67,0,0,0,0,.88l0,1.9a2.39,2.39,0,0,0,0,.44l0,.63c-.06.24,0-.22,0,.06,0,.12,0,.07.07.25s-.11.31-.17.52c-.12.44.17.45-.65.38-.34,0-.29-.13-.88-.31L9.54,17.13a1.42,1.42,0,0,1-.48-.43,2.67,2.67,0,0,0,1.29-.42l.1-.05.12-.05A.84.84,0,0,0,11,16c0-.2-.13-.41-.17-.62s0,0,0-.23-.1-.15-.17-.33,0-.25-.15-.36a1.48,1.48,0,0,0-.68-.36c0-1.11.2-.24.2-1.11.16-.08.18,0,.2-.25.38,0,.39-.34.62-.57a1,1,0,0,0,.35-.51l0-.64c0-.18-.07-.21-.07-.33a.73.73,0,0,0,0-.38c-.1-.36-.15-.17-.32-.38l-.23-.23c-.37-.23-.36-.25-.75-.18l-.21,0c-.19.06,0,.07-.17.07s0-.21-.38,0-.06.24-.53.24V10c-.34,0-.29.21-.52.38a.7.7,0,0,0-.16.14c-.34.35-.51.07-.79.4a1,1,0,0,0-.16.45c0,.33.95.83,1,.83.21,0,.35-.17.35.35,0,.16,0,.15-.08.27-.11.29,0,0,0,.23a1.5,1.5,0,0,1-.07.27l-.22.83c-.28,1.4-.12,1.09.22,1.94.06.14.19.21.32.38s.07.11.21.14c0,.4-.29,1,.45,1,0,.22,0,.09.11.19a3.64,3.64,0,0,0,.63.37,4.37,4.37,0,0,1,.43.22c.25.23,0,.29.34.32,0,.37.1.34.35.45s.25.22.44.42.3.15.48.32l.35.25a2.92,2.92,0,0,1,.65.4,1.43,1.43,0,0,0,.45.25l0,0a.05.05,0,0,1,0,0l.32.12c.1.06.13.13.25.21l.27.13a1.45,1.45,0,0,0,.78.12c.15,0,.13-.1.25-.2s.45-.11.87-.44l.13-.22s0,0,0,0l.16-.83a1.47,1.47,0,0,1,.05-.66,5.73,5.73,0,0,0-.09-1.3c-.05-.32-.16-.3-.16-.51s0,0,0-.2a2.55,2.55,0,0,0-.14-.72c0-.17.1-.07.1-.25s-.09,0-.1-.4L16,14.46c-.08-.34-.1-1-.19-1.34l-.07-.42c0-.15,0-.27-.06-.44s0-.32-.05-.46a2.73,2.73,0,0,1-.14-.86,11.12,11.12,0,0,1-.13-1.73V7.7a13.55,13.55,0,0,1,.09-2l.16-1.73c0-.12,0-.08,0-.2a2.62,2.62,0,0,1,.14-.88c.07-.19,0-.25,0-.5s0,0,.07-.23,0-.17.06-.3A1.58,1.58,0,0,1,16,1.57c0-.11,0-.16.08-.26a1.73,1.73,0,0,1-.36-.44,1.07,1.07,0,0,0-.25-.35L15.34.45c-.1-.11-.13-.21-.27-.28a.79.79,0,0,0-.92,0c-.3.1-.14-.08-.35.15a2.56,2.56,0,0,1-.91.59c-.14.07-.24.07-.36.14l-.6.31A3.49,3.49,0,0,0,11,2l-.08.07-.15.11-.13.12-.1.1,0,0c-.1.09,0,0-.13.12-.3.32-.45.34-.67.58l-.52.54a9.2,9.2,0,0,1-.68.72c-.11.11-.12.16-.23.27A2.15,2.15,0,0,0,8,4.9l-.77,1a1,1,0,0,1-.1.16l-.62.88c-.11.16-.2.54-.39.61"/><path class="cls-1" d="M16.35,59.13v.13h-.1c0-.12,0-.07.1-.13Zm-2.23,1.08s0,0,0,0Zm-2.08,2c.39.08.21.06.35,0-.05-.16-.05-.14-.25-.18s-.06,0-.1.18Zm-.39.4c.25.11.14,0,.34-.36a.53.53,0,0,0-.34.36Zm.64-.63c.16.1,0,.08.25.09,0-.19.06-.13.25-.22v-.32c-.25,0,0,0-.23.11s-.19,0-.27.34Zm3.07-3,.06-.18c0,.07.06-.1,0,.08s0,0-.08.1ZM9.17,45.41c0,.19,0,.07,0,.22l0,.41c0,.18.08.18.1.26v0c0,.1,0,0,0,.24v1L9.06,48c-.07.18,0,.08-.08.09s-.2-.15-.2.09.07,0,.09.27c-.31-.06-.32-.19-.34.15s0,.16-.34.31l0,0c-.24.13,0,.09-.28.11v.14h.5c-.6.47-1.85.31-2.42.36l-1.1,0c-.3,0-.36,0-.64,0l-.12-.26C4,49.12,4,49.15,4,49a4.28,4.28,0,0,1,.59-.73c.4-.33.75-.75,1-1s.17-.2.34-.33L7.8,45.51c.11-.1.85-.6,1.16-.88s.18-.05.24.48c0,.26,0,.08,0,.3ZM3,48.75c0-.23.11-.27.27-.39l1.94-1.83c.43-.47.27-.2.58-.47.16-.14.16-.21.34-.33s.28-.18.42-.29l1.79-1.3c.31-.2.12-.19.32-.3l.07,0L9,43.7c0,.22-.16.23-.33.33s-.17.18-.38.33l-1.16.88L7,45.38l-1.15.94c-.22.16-.48.46-.91.79S3.32,48.61,3,48.75ZM6,36.84c0-.12.08,0,0,0s0,.13,0,0Zm.2-.23c0-.18.11-.23.25-.31a.35.35,0,0,1-.25.31Zm1.14-.81c-.06.15.11.07-.15.09a.54.54,0,0,1,.15-.09Zm.62-.4h0Zm8.94-5.06c.35,0,.29.54.58,1l.18.6a4.94,4.94,0,0,1,.2.58,1.47,1.47,0,0,1,.08.3l.2,1c.14.29.17,0,.27.53a1.94,1.94,0,0,1,.16,1.41c0,.11-.05.1-.11.21l-.11.22c-.09.18,0,.19-.12.34-.25.37-.09.12-.27.57-.12.28-.18.1-.35.27s0,.21-.25.4l-.66.66-.1-2a3.85,3.85,0,0,0,0-.66,2.5,2.5,0,0,1,0-.29c0-.14.07-.09.07-.27l-.05-4c0-.22-.05-.86.3-.86Zm-1.59-.22c0,.36.06.57,0,.88s.07.18.07.25-.08.19-.07.41l0,2.43c0,.39.1.71.1,1.13,0,.17-.07,0-.1.27l.25.09c-.13.33,0-.2-.17.56a6.85,6.85,0,0,0,0,.75c0,.3.09.54.06.67a1.44,1.44,0,0,0-.06.68c0,1.19,0,1-.73,1.5-.15.1,0,0-.19.1a1.61,1.61,0,0,0-.32.25l-.36.2a2.8,2.8,0,0,0-.67.39l0,0-.31.21-.08.06-.55.32c-.37.23-.91.75-1.34,1-.15.08-.25.15-.27.33.42-.2.43-.44.74-.45,0,.25-.12.19-.3.31s-.62.51-.73.47-.08-.76-.09-.92l.05-1a5.4,5.4,0,0,0,0-.69c0-.26.61-.5.62-1.1a4.31,4.31,0,0,0-.1-.45c-.14-.81,0-.52-.44-1a.62.62,0,0,1-.14-.19.41.41,0,0,0-.43-.24c-.17,0-.33.38-.46.53s0,.06-.13.2l-.33.64c-.1.19-.06,0-.07.3s-.07.2-.17.48-.1.28-.38.37c-.08,0-.1.08-.15.13s-.43.13-.44.46H7.44c-.08-.25-.52-.1-.89-.18a1.37,1.37,0,0,1-.06-.55,2.24,2.24,0,0,0,0-.31c0-.25.08-.17.2-.36L6.8,39l0,0,0,0a1.54,1.54,0,0,0,.23-.37l.08-.11A1.47,1.47,0,0,1,7.49,38l.12-.12c.06-.1,0-.08.11-.22a1.66,1.66,0,0,1,.55-.57c.14-.11.31-.11.48-.24a5.77,5.77,0,0,0,1.18-1.19c.05-.09.21-.16.31-.26l.75-.75c.21-.17.28-.07.39-.37.19-.52.24-.41,0-.79a.47.47,0,0,0,0-.58l-.39-.46-1.09,0c.14-.33.55,0,.78-.29s-.05-.05.28-.37a.51.51,0,0,0,.12-.2l.15-.41c.16-.36,0-.27-.07-.54s0,.06,0-.16l-.13-.32c-.08-.19-.13-.05-.17-.29s.12-.52-.47-.53c0-.23,0-.44-.3-.45,0-.44-.36-.28-.74-.41a3.06,3.06,0,0,0-.89-.25c-.28,0-.08.11-.37.06s-.29.1-.34.18l-.17.12c-.12,0-.11,0-.14.12s.17.11-.17.32c0,.17,0,0,.07.16a.17.17,0,0,1,0,.06c.19.36.1.53.44.9l.4.59c.21.32.54.24.54.72,0,.05-.07.07-.12.16s0,.13-.08.19a1.71,1.71,0,0,1-.64.55.34.34,0,0,0-.24.36.57.57,0,0,0,.51-.16,1.51,1.51,0,0,1,.28-.15c.55.26.23.13.49.13h.7c0,.11,0,.07-.09.15s-.06,0-.17.07c-.3.1-.16.16-.4.31a3.63,3.63,0,0,1-.74.46c-.2.07-.09,0-.26.21L8,33.8l-.17.07c-.2.07-.11.16-.4.22,0,.19,0,.18-.05.31-.26-.06,0,0-.25-.18l-.54.45-.26.14c-.31.19-.21,0-.53.19s-.3.13-.3.4c.15.05.07-.1.1.13-.3.13-.2-.16-.45.18-.2-.06-.1-.08-.3-.09s-.1.09-.12.2l0,.16c-.24.23,0-.3-.49.09-.15.12-.08,0-.1.18H4v.18c-.21,0-.22-.09-.42.07s-.25.3-.48.36.06,0-.16,0L2.67,37,2.6,37a5.81,5.81,0,0,1-.78.37,1.93,1.93,0,0,1-1.14,0,3,3,0,0,0-.52,0c-.08.26-.3.53,0,.93a3,3,0,0,0,.92.86c.3.06.26,0,.49-.06l.6-.06c.06-.12,0,0,0-.23.2,0,0,0,.14.06s.14,0,.22,0h0l.49-.2c.18-.06.14,0,.2-.22.47,0,.44.08.39-.14h.15c0,.24,0,.07.05.14,0-.61.29.07.3-.45h.15c-.05.19-.12.12.1.13v-.36c.23,0,.1,0,.1.27.22-.11.19-.13.19-.36a1.61,1.61,0,0,0,.33,0l.22-.1c-.09-.12,0-.1-.2-.14.13-.16.23-.14.25.09.17,0,.14-.06.26-.16s.52-.29.61-.44.05-.13.07-.17.16-.06.3,0l-.06-.26c.25,0,.21.05.21-.23a1.5,1.5,0,0,0,.24,0v.23c.26-.06.38-.26.6-.36V35.8c.21,0,.44-.13.44.23,0,.19-.36.52-.44.72a.44.44,0,0,1-.08.15.5.5,0,0,0-.12.39c-.18,0-.19.05-.26.17l-.21.31a3.58,3.58,0,0,1-.21.39l-.07.07a12.06,12.06,0,0,0-.86,1.52L5.61,40l-.25.54a1.29,1.29,0,0,0-.09.88,4.41,4.41,0,0,0,.14.47.79.79,0,0,0,.14.18,2.72,2.72,0,0,0,.87.43l.28.06c.14,0,0,.07.17,0s.38-.23.54-.21,0,0,.13.05c.09-.31.48-.28.68-.51s0-.1.26-.29a.59.59,0,0,1,.44-.19c0,.69.1,1.33.1,2,0,.15-.17.2-.29.28a.49.49,0,0,0-.13.1l-.48.33c-.34.29-.73.5-1.07.79l-.32.25c-.08.07-.11.11-.2.18l-.1.08L5,46.58l0,0,0,0,0,0,0,0L4.54,47c-.13.12-.27.3-.39.41l-.88.73c-.53.48-.31.52-1,.64-.17,0-.15,0-.21.18-.26.71.3.48.31,1a.88.88,0,0,0,.08.46c.16.34.45.26.81.26l.63-.19a.89.89,0,0,1,.6-.27,5.5,5.5,0,0,0,.61,0,6.62,6.62,0,0,1,2.51,0h0l.14,0c.19,0,.06,0,.31-.08.44-.11.42.25,1.17,0l.15-.05a1.14,1.14,0,0,0,.36-.26l.07-.07a1.37,1.37,0,0,0,.22-.3,3.41,3.41,0,0,0,.2-.76,2.54,2.54,0,0,0,0-.48c0-.19.1-.24.1-.4s-.05-.16,0-.42,0-.34,0-.51V45.7a6.89,6.89,0,0,0-.17-1.16l-.06-.35c0-.41,0-.55.34-.73a.67.67,0,0,0,.14-.09l1-.65,0,0a1.82,1.82,0,0,0,.46-.34c.15-.15.07-.06.22-.12l.18-.11,0,0,.92-.6c.19-.17.32-.17.5-.31l.07-.07.1-.05c.13-.07.14-.16.34-.2s.08.06.33-.17.58-.3.52,0,0,.18,0,.37,0,.13,0,.43c-.27.07-.1.23-.05.41-.19,0-.14.05-.18.28a4,4,0,0,0,0,.49,3.76,3.76,0,0,0-.1.85c.15-.1,0-.07.19-.18a6,6,0,0,0-.1.95L15,44.06c0,.37-.13.39-.13.57,0,.42.22.59,0,1l-.19.46c-.16.27,0,.28,0,.4s0,0,0,.19.12.21.12.38-.17.13.25.57c.2.21.19.43.78.56l.34.14,0,0,.27.29,0,0a2.18,2.18,0,0,1,.17.21l.26.49a1,1,0,0,1,.07.57c0,.2.09.4.09.68v3.25c0,.39-.2.75-.2,1.12.14,0,.08,0,.2.1-.19.25-.05.48-.18.78s-.06.49-.22.75-.35.9-.64,1.36l-.07.11,0,0c-.08.14-.1.27-.23.37l0,0c-.25.17-.26,0-.45.27s-.22.23-.29.5a.75.75,0,0,0,.24-.09c0,.17,0,.12-.13.24l-.16.26c-.16-.11-.08,0-.1-.18-.25.12-.28.12-.35.4.23,0,0-.07.3-.09a1.12,1.12,0,0,1-.24.37c-.11.12-.2.23-.06.35-.23,0-.19,0-.25.14h-.14c0-.11,0-.26-.15-.15s0,0,.05.28h-.1c0-.23,0-.12-.1-.22a3,3,0,0,0-.49.46c-.12.12-.13.21-.25.31l-.2.09c0,.15,0,.1.15.18a.54.54,0,0,0,.26-.16l.42-.44c.12-.11.14-.06.26-.17V61c-.28,0-.12.07-.22.22s-.53.36-.2.36.39-.32.53-.42l.21-.22c.15-.25.29-.14.48-.29l0,0c.17-.18.18-.36.49-.36,0-.17,0-.06-.1-.23.14,0,.24,0,.29,0a.33.33,0,0,0,.3-.3,1.89,1.89,0,0,1,.11-.25c.59.05.64-.09.94-.5l-.16-.17c.28,0,.34-.16.51-.32a.88.88,0,0,0,.19-.32l.19-.46c.06-.1,0,0,.09-.14a.67.67,0,0,0,.19-.27.62.62,0,0,1,.06-.18c.11-.28,0-.63.32-.71a4.68,4.68,0,0,1,.09-1c0-.2-.05-.11,0-.32l0-.59c0-.12,0-.23,0-.34s0-.07,0-.29.12,0,0-.71a7.31,7.31,0,0,1,.06-.74,1.07,1.07,0,0,0,0-.23c0-.12,0-.09,0-.26V50.78c0-.26-.12-.1-.06-.41a1.78,1.78,0,0,0-.08-1,4.5,4.5,0,0,0-.54-1.4l-.52-.66a1.63,1.63,0,0,0-.2-.17c-.47-.38-.18-.8-.82-1.19,0-.23,0-.06.09-.27-.29-.15-.19-.23-.19-.54a7.38,7.38,0,0,0,.2-1,3.42,3.42,0,0,1,0-.59v-.68c0-.25,0,0,.07-.21s0,.05,0-.19.08-.14.08-.27-.08-.09-.08-.27.1-.1.1-.18c0-.29-.16-.23-.05-.64.05-.2,0-.2,0-.36.15-.52,0-.85.44-1.28l.15-.13c.2-.15.24-.3.45-.45s.08-.11.19-.23,0,0,.08-.06.08,0,.14-.19c.15-.32,0-.1.27-.29l.52-.62a.66.66,0,0,0,.09-.19l.68-1.63a1,1,0,0,0,.07-.52,1.39,1.39,0,0,0,0-.15c0-.4.08-.2-.28-.79l-.05-.09c-.26-.52-.2-.11-.37-.79l-.2-.72c-.05-.19-.05-.36-.1-.54L18,30.29a1.22,1.22,0,0,0-.14-.51,2.41,2.41,0,0,0-.32-.57l-.44-.62c-.18-.2-.3-.08-.5-.18a1.71,1.71,0,0,0-.69-.32c-.14.24-.06.31-.14.5s-.36.19-.36.94a1.27,1.27,0,0,1-.1.59"/></g></g></svg>