<svg xmlns="http://www.w3.org/2000/svg" viewBox="0 0 282.58 101.05"><defs><style>.cls-1{fill:#b5b5b6;}.cls-1,.cls-2{fill-rule:evenodd;}.cls-2{fill:#9f9fa0;}</style></defs><g id="图层_2" data-name="图层 2"><g id="图层_1-2" data-name="图层 1"><path class="cls-1" d="M121.76,56.49c-.79.33-2,1.13-2.07,1.85A13.13,13.13,0,0,1,125.41,56c1.73-.35,3.43-.46,4.71-.6,11.36-1.26,23.86.15,35.49,1.46a141.94,141.94,0,0,0-31.73-2.33c-4.57.2-9.25.74-12.12,2ZM0,88.87H158.56V86.62l-.12-.06s-8.7-4.2-26.34-5.53h-18l0,0,0,0c4.32,1.72,9.33,5.65,11.14,7.13h-6.62a55.25,55.25,0,0,0-8.2-7.21H76.5a54.2,54.2,0,0,0-8.2,7.21H61.68c1.81-1.48,6.82-5.41,11.13-7.13l0,0,0,0H64.34v-7.8h1.51v7.29H75.5V73.23h1.72v7.29h9.65V73.23H88.6v7.29h9.65V73.23H100v7.29h9.65V72.7H64.39l-4.3-2.09h58.3V62.67l-.68-.5a8.68,8.68,0,0,1-1.64-1.55l-5.18,9.72h-.37l-5.58-10.49L99.36,70.34H99L93.56,60.15h-.31L87.82,70.34h-.37L81.87,59.85,76.29,70.34h-.37L70.33,59.85,64.75,70.34l-.28-.15h-5.3V80.82h-.89l-.92,0c-19.4,1.08-28.92,5.69-28.95,5.7l-.12.06v1.62H23V86.6a58,58,0,0,1,7.25-2.79c2.49-.78,5-1.41,7.45-1.94l1.7-.36.1-.14-.14-.11-1.73.2c-15.51,1.79-24.27,5.08-24.3,5.09l-.14,0v1.64H8V87A113.39,113.39,0,0,1,30.7,81.29c1.27-.18,2.49-.37,3.76-.5,7.24-.74,14.09-.67,21.48-.88.83,0,1.46,0,1.81,0V70.4H52.58v9.13H51.15V70.4H46v9.22l-1.44,0V70.4H39.39v9.5L38,80V70.4H32.8v10h0c-.72.08-1.45.18-2.17.28l-.11,0V20.87H64.26v6.41h1.37v1.53H64.26v4.53h1.37v1.54H64.26v3.26h1.37v1.54H64.26V43h1.37v1.53H64.26v3.27h1.37v1.53H64.26v3.27h1.37v1.54H64.26v3.27h1.37v1.53H64.26v3.27h1.37v1.53H64.26V68.6h.94L68,63.28V10.57l-3.23.62v-.34h-.55v3.64h0v5.44h-.42V11.4l-1,.2C62.09,9,61.3,6.35,60.5,3.73c4.17-.79,8.42-1.43,12.59-1.91L74,9.62l-.82.11V9.36h-.55v54l3.45,6.47.33-.61V21.24l.19-.09a.52.52,0,0,0,.23-.21V68.39l3.77-7.09V22.36l.26-.07.16-.11V60.51l.64-1.2h.37l2.77,5.2V20.71a.91.91,0,0,0,.42-.3V65.29l2.4,4.5L89,67.2V19.86l.27-.17.15-.1V66.41l3.77-7.09V20l.42-.06V59.39l3.78,7.1v-44c.29-.09.35-.39.34-.81v0l.07,0V67.27l1.34,2.52,2.44-4.57V21.32a4.21,4.21,0,0,0,.42-.12V64.43l2.73-5.12h.37l.67,1.27V21a1.68,1.68,0,0,0,.4-.05h0V61.37L110,68.46V22.7a1.19,1.19,0,0,0,.4-.07h0V69.25l.29.54,3.49-6.55V9.36h-.55v.37l-.82-.11.93-7.8c4.17.48,8.42,1.12,12.59,1.91L124,11.6l-1-.2v.43h0v8.1h-.42V10.85H122v.34l-3.23-.62V11h0V52.83c.82-.4,1.64-.72,2.36-1,.47-.17.94-.35,1.42-.51v-2h-1.38V47.75h1.38V44.48h-1.38V43h1.38V39.68h-1.38V38.14h1.38V34.88h-1.38V33.34h1.38V28.81h-1.38V27.28h1.38V20.87h33.76V44.05L157,44V20.24h-16.4V17.85h6.78L151.28,10,151,9.83c-1.28-.59-2.64-1.1-4-1.58a113.54,113.54,0,0,0-11.25-3.37A175.91,175.91,0,0,0,93.42,0,175.88,175.88,0,0,0,51.1,4.88,112.75,112.75,0,0,0,39.85,8.25c-1.33.48-2.69,1-4,1.58l-.49.21,4.1,7.81h6.78v2.39H29.87V80.78a113.63,113.63,0,0,0-22.3,5.67l-.21.08v0H0Zm282.58,0V86.56h-40c-.9-1.1-3-2.18-6.87-3.18-13-3.39-37.57-5.91-44.41-6.25l11.67-4V69.38H164V64.73h5.21c2.35,1.09,4.72,2.29,7.08,3.61h28v6c9.94.16,22.06,1.11,31.95,3.33a74,74,0,0,1,14.29-5.55H222.56l1-.61h5.57V68.1c-16-.57-29.72-5-44-8.65l1.1.23c11.48,2.35,29.06,6.19,41.45,6.86a67.65,67.65,0,0,0,9.93-.16c4.3-.43,8.75-1.77,8.72-3.56,0-2-5.19-4.44-6.69-5.12-3.45-1.58-7.36-2.9-9.71-3.71-3.54-1.21-6.91-2.25-9.35-3a158.33,158.33,0,0,0-20.9-4.45,151.79,151.79,0,0,0-17.57-1.51c-4.94-.12-7.8.09-7.8.09a219.46,219.46,0,0,0-31.69,3.67c-2.31.46-13.85,2.94-20.49,5.42-2.91,1.1-4.43,2.12-4.56,3.09-.34,2.56,5.08,4.65,7.15,5.14l1.61,6.08h.78l-1.65-7.08c-.24-1-.31-1.47.51-2.18a9.14,9.14,0,0,1,2.38-1.43l2.53,11.5H120.49V74.3h2v.49h-8.58v3.65h24.85l11.84-6.56h18.6l-10,6.43c6.61.26,32,.4,32.27,7.68a4.17,4.17,0,0,1-1.33,2.88ZM138.93,6.69l-4.2,10.23H140V14.23h-3.67l.26-.63h4v3.32h6.07l3.27-6.31a85.34,85.34,0,0,0-11-3.92Zm-91,0Q50,11.81,52.12,16.92H46.9V14.23h3.67l-.26-.63h-4v3.32H40.2l-3.27-6.31a85.18,85.18,0,0,1,11-3.92Zm.61-.18c3.64-1,7.46-1.91,11.36-2.67q1.2,4,2.38,7.9l-1.65.38v-.4h-.55v.53h0v7.68h-.42V12.35c-1.08.27-2.15.54-3.23.83v-.31h-.54v7.06h-.63v-3H52.8l-1.1-2.69h3.54V13.6h-3.8L48.52,6.51Zm25.2-4.76c4.5-.51,8.92-.84,13.07-1,.08,2.57.17,5.13.26,7.7l-1.26.06V8.13h-.55v5.69a1,1,0,0,0-.42.06V8.55c-1.08.07-2.15.15-3.23.24V8.48H81v11.2a4.38,4.38,0,0,1-.42.28V8.87c-1.08.1-2.15.2-3.22.33V8.88h-.55v4.54a1.13,1.13,0,0,0-.42-.17V9.31l-1.79.23q-.45-3.9-.92-7.79Zm13.69-1h.07q3-.09,5.94-.09t6,.09h.06l-.26,7.69-1.34-.05v4.71a.75.75,0,0,0-.42-.12v-5h-.55v.41c-1.07,0-2.15,0-3.23,0v9.51a1.66,1.66,0,0,1-.3.22l-.12.07V8.3c-1.07,0-2.15,0-3.22,0V7.93h-.55v6.69H89V8.36l-1.34.05L87.41.72Zm12.65,0c4.15.17,8.56.5,13.07,1l-.92,7.79-1.79-.23v3.5h-.13l-.09.06a.87.87,0,0,0-.2.12V8.88h-.55V9.2c-1.07-.13-2.15-.23-3.23-.33v10a2.42,2.42,0,0,0-.42-.24V8.48h-.54v.31c-1.08-.09-2.15-.17-3.23-.24v5.37l0,0-.06.1a1.09,1.09,0,0,0-.18.78,1.09,1.09,0,0,0,.27.88v1.75l-.34.18-.08.06V8.13h-.55V8.5L99.8,8.44ZM127,3.84c3.89.76,7.72,1.65,11.36,2.67l-2.92,7.09h-3.8v.63h3.54l-1.1,2.69h-2.44v3H131V12.87h-.54v.31c-1.08-.29-2.15-.56-3.23-.83v.44h0v7.14h-.42V11.72h-.55v.4l-1.66-.38ZM108.75,16.77h0a2.71,2.71,0,0,0,.8-.11.78.78,0,0,0,0-.43c-.11-.28-.65-.92-1-.93l-.06,0a1.34,1.34,0,0,0,.35,1,1.51,1.51,0,0,0-.09.38ZM78.66,19.34l0-.1c.14-.34.39-.67.51-1a2.09,2.09,0,0,1,.12-.4c.19-.27.74-.32.85-.65A.5.5,0,0,0,80,16.7l-.22-.09c-.07-.14.13-.39.17-.48.28-.55.06-1.64-.55-1.64-.14.08-.37.24-.41.42s0,.26,0,.39c-.13.42-.3.92-.46,1.32a4,4,0,0,1-.26.69,1.81,1.81,0,0,1-.54.49l-.15.06,0,.13a.59.59,0,0,0,.29.08c.1.17,0,.35-.11.51-.16.41-.75,1.35-.23,1.73a.42.42,0,0,0,.41.06l.59-.23c.37-.11,1-.11,1.09-.49a.29.29,0,0,0-.07-.24c-.27-.42-.51,0-.85-.07Zm4.65-.51a.27.27,0,0,0-.28-.14l-.13,0c-.2.1-.14.49-.33.59l-.18,0c-.15.07-.34.16-.5.25-.39.23-.74.53-1.12.76l-.4.21-.2.18c-.12.06-.26.06-.34.15a.64.64,0,0,0,.9.69,3.81,3.81,0,0,0,.73-.94,1.18,1.18,0,0,1,.34,0,2.18,2.18,0,0,1,.85-.08c.22,0,.54.11.63-.05s0-.74,0-1,.12-.44,0-.59Zm-1.24,1.3c-.12-.11.4-.43.49-.48.34,0-.26.58-.49.48Zm2.61-1.21c-.17-.23-.28-.53-.69-.53l-.06.06a1,1,0,0,0,0,.46c0,.15-.07.26,0,.36l.1.16a1.28,1.28,0,0,0,.48.61c.31,0,.69-.3.54-.66a1.92,1.92,0,0,0-.33-.46Zm-8.52-5.3c-.33.18-.15.54-.08.85s0,.36,0,.54a10.67,10.67,0,0,0-.25,2.52c0,.26,0,.52,0,.79a4.47,4.47,0,0,1,.06,1.15c-.07.23-.33.32-.46.49a3.88,3.88,0,0,1-1,1c-.38.27-.76.49-.84,1,.09.15.1.14.29.21s.16.13.31.1c.36-.08,1-.91,1.13-1.22.09-.14.1-.33.18-.45s.26-.52.48-.46.23.43.48.29.21-.49.16-.71-.14-.55-.19-.86,0-.29,0-.47l0-.36a12.77,12.77,0,0,1,.32-1.87,12.63,12.63,0,0,0,.51-1.28c0-.16-.06-.26-.09-.36-.13-.45-.4-.93-1-.93Zm-1.71,5.65c.06.49-.46.9-.32,1.27l.18,0a3,3,0,0,0,.41-.46l.13-.23c.28-.22.62-.36.79-.7,0-.42-.65-.74-1.09-.73l-.43.12c-.28.46.28.36.33.71Zm11-5c-.51-.22-.83.29-1.09.17s-.13-.23-.28-.28l-.57,0a1.87,1.87,0,0,0-.5-.08l-.18.17c0,.49.4.48.56.79v.07a2.79,2.79,0,0,1-.44.29c-.18.12-.36.31-.55.42s-.48.17-.57.39l0,.09a.67.67,0,0,0,.29.15,4.81,4.81,0,0,0,1-.23c.16-.07.27-.26.39-.37a3.74,3.74,0,0,1,.8-.47c.25-.13.39-.36.72-.44l.3.05c.1-.09.42-.34.34-.55s-.1-.11-.19-.14Zm-1.21,2.66a1.64,1.64,0,0,1,.59-.73c.15-.25-.12-.54-.37-.54s-.28.23-.45.33l-1,.6c-.13.07-.49.19-.56.3V17c.4.25.64-.19,1-.17a.29.29,0,0,1-.1.36,4,4,0,0,0-.9.88h0l-.19-.29c-.09-.12-.2-.16-.27-.31s-.43,0-.51.15a3.88,3.88,0,0,0,.3.76l.06.29.38.18c.25,0,.27-.17.37-.34s.23,0,.35-.06l.39-.29.46-.2a1.59,1.59,0,0,0,.48-.68c0-.11,0-.18,0-.31Zm7.36.18-.18.13c-.16.1-.35.15-.5.24L89.77,18h0c0-.09.19-.55.25-.67l.32-.66a3.79,3.79,0,0,0,.6-1c.11-.38-.54-.74-.9-.73A3,3,0,0,1,88.8,15h-.49l-.3.16c-.16.28.63,1.12,1,1,.25-.05.36-.31.55-.41h.07c.07.18-.09.38-.15.51a6.31,6.31,0,0,0-.31,1.31c0,.16-.12.38,0,.5s-.65.37-.85.47a16,16,0,0,1-1.56.71c-.32.12-1,.26-1.09.52,0,.35.64.82,1.08.55.76-.46,1.53-.89,2.28-1.37.2-.12.67-.52.92-.52h0v0a1,1,0,0,0-.25.25l.07.07c.34-.16.72-.36,1.08-.5l.34-.06a2.33,2.33,0,0,0,1.07-.59c0-.26-.41-.67-.73-.59Zm14.54,2.18a3,3,0,0,0-.85-.46c-.17-.06-.22-.19-.5-.19l-.22.06c-.2.32.14.52.27.71s.1.36.2.55.68.32,1.1.24c.16-.24.16-.27.09-.58a1,1,0,0,0-.09-.33Zm5.78,0c-.06,0-.12-.11-.24-.08-.28.08-.51.56-.89.46-.12-.24.26-.37.18-.68s-.62-.36-1-.4l-.06,0c-.22.58.21.45.35.71s-.11.28-.13.4,0,.21,0,.29c-.21.13-.46.23-.69.37l-.12.11c-.2.1-.5.05-.65.19v0a1.19,1.19,0,0,0,1,.24l.58-.29.06.06c0,.09,0,.21-.06.29-.24.81-.92.1-1.48.34v0c0,.37,1.07.69,1.51.52s.84-.5.74-1c0-.19-.16-.44-.2-.59a.35.35,0,0,1,.2-.16H111c0,.1-.07.13-.09.23.16,0,.24-.13.34-.2a2.11,2.11,0,0,1,.4-.26,2.8,2.8,0,0,0,.58-.22c.06-.29-.17-.38-.37-.47Zm.46-3.25c-.2.11-.17.4-.49.41h0c-.06-.31.26-.57.4-.77l.13-.26.13-.1,0-.15a2.72,2.72,0,0,0,.44-.66.87.87,0,0,0-.07-.52,1.07,1.07,0,0,0-.75,0l-.13.3.14.23c0,.16-.09.28-.14.38a6.54,6.54,0,0,1-.5,1l0,0a1.14,1.14,0,0,1,0-.52c-.06-.13-.32-.17-.34-.24l0-.15a.37.37,0,0,0-.3-.51l0-.12c.3-.29.38-.62,0-.91a.61.61,0,0,0-.47-.2l-.16.12c-.07.19.15.26.1.43l-.3.63c-.13.16-.51.12-.67.31v.06c.08.12.28.11.34.23v0c-.06.16-.23.26-.33.38v.15h.11l.35-.21.3-.09c.08-.06.06-.14.18-.16h0c.08.17-.14.53-.22.64a2.55,2.55,0,0,0-.51.06.84.84,0,0,0,0,.27c.1.05.22.07.26.17.08.26-.37.67-.4.91l0,0c.22.08.81-.46.91-.59.35,0,.39,0,.61-.14H111c.07.07.19.18.15.32s-.36.22-.54.3c-.33.15-1.28.84-1.69.74,0-.1,0-.27,0-.39-.12-.38-.45-1-.91-1-.16.16,0,.34.1.51.16.67,0,.75.64,1V18l-.23.14v.07a1.56,1.56,0,0,0,.94.08c.43-.31.83-.63,1.3-.92l.3-.2h.15c.14-.06.41-.32.59-.27l0,0c-.07.52-1.19,1.1-1.55,1.47v0l0,0a4.3,4.3,0,0,0,1-.41l.54-.11a3.12,3.12,0,0,0,1.24-1.15c.06-.09.18-.12.23-.22.13-.33-.55-.78-.92-.59Zm-1.43.1-.11-.06a.43.43,0,0,1,.15-.48H111a.37.37,0,0,1-.1.54Zm-3.52,2.49-.21.13a2.33,2.33,0,0,1,0,.28c-.09.22-.37.54-.28.82s.4.4.61.34c.39-.17.62-1.59-.07-1.57Zm-7.21-3.69c-.15-.26-.44-.24-.71-.14a1.73,1.73,0,0,0-.43.3c-.31.19-.63.36-.94.54-.11.07-.57.37-.63.25a.71.71,0,0,1,.11-.57l.35-.1a2.8,2.8,0,0,0,1.35-1.13.81.81,0,0,0-.78-.46,1.83,1.83,0,0,0-.66.36c-.23,0,0-.6-.52-.61a.89.89,0,0,0-.18.77l0,.19c0,.18-.29.38-.41.51h-.08c-.16-.36-.15-.84-.67-.67-.07.13,0,.24,0,.43l-.12.33c0,.12,0,.26-.05.35-.19.29-.75.26-1,.46-.08.3.43.63.77.57.16,0,.21-.11.35-.14s.26.31.52.26.16-.1.29-.1h0l0,.11a5.33,5.33,0,0,1-1,.57c-.46.26-1,.51-1.39.79-.27.18-.52.43-.8.6s-1.05.49-1,.85l.06.09a1,1,0,0,0,.47,0l.62-.1c.43-.16.66-.55,1-.8l.5-.34c.18-.11.33-.36.59-.37l0,0c-.08.29-.22.44,0,.73.37.08.42-.33.62-.49a2,2,0,0,1,.45-.27c.06,0,.11-.08.21-.05l0,0c0,.09-.14.09-.22.12-.06.33-.15.48-.41.59s-.21.05-.27.17v.07c.19.2.27.06.46.18l.06.07,0,.1-.36.11c-.12.32.24.32.35.52v.08l-.34.23c-.09.22.43.4.18.67a5.57,5.57,0,0,1-1.07.38c-.11,0-.2-.05-.29,0-.46.29.3.85.57.87.18-.17.11-.46.33-.58a1.77,1.77,0,0,1,.71.32l.18.21c.53.1.21-.4.34-.65a2.89,2.89,0,0,1,1-.51c.22-.38-.25-.74-.49-.83-.28.14-.17.7-.46.85H97.4l0,0a2.47,2.47,0,0,1,.25-1.31c.08-.19.3-.46.26-.73l-.06-.33-.23-.11-.19-.32h0l.14,0,.07-.06c0-.15-.07-.28,0-.4l.17-.13a2.78,2.78,0,0,0,.86-.73.51.51,0,0,0-.68-.35c-.08,0-.11.11-.23.16h0v-.06a4.26,4.26,0,0,1,.86-.49l.24,0,.44-.2c.24-.08.35,0,.56-.12s.55-.29.39-.57Zm-2.08-.79h0c.1.2-.33.5-.44.63h-.06c-.23-.37.29-.5.47-.63Zm-1.33,6.94a.47.47,0,0,1-.38.1l-.08-.1c0-.2.18-.26.3-.35h.1a.65.65,0,0,1,.06.34Zm-.09-5.8c0-.1.18-.15.27-.21h0c.09.15-.07.3-.17.37h-.11l0-.16Zm.07.63,0,0,0,0,0-.13,0,0h.07v.16Zm-.18,1.57-.08-.07c-.1-.35.47-.7.71-.78s.17,0,.32-.06l.11.07c0,.16-.89.76-1.06.84ZM105.3,16a.42.42,0,0,0-.59-.13c-.3.19-.43.56-.75.74-.09,0-.17.2-.31.12s0-.32,0-.47a5.88,5.88,0,0,0,0-1.11c-.06-.32-.93-.86-1.25-.91l-.09,0c-.35.59.07.81.24,1.22a5.5,5.5,0,0,1,.15,2c-.09.19-.58.41-.77.54a8.68,8.68,0,0,1-1.4.81l-.62.25c-.15,0-.26,0-.37,0-.15.71.17,1,.85.76a2.89,2.89,0,0,0,1-.77,6.14,6.14,0,0,1,1-.77l.08,0c.13.2,0,.52-.13.72a2.35,2.35,0,0,1-1.33,1.22c-.31.1-.76,0-.89.27l0,.08a3,3,0,0,0,1,0l.23,0a2.22,2.22,0,0,0,1.63-1.1,1.69,1.69,0,0,0,.27-.47c.1-.4.13-.77.25-1.13,0-.13,0-.29,0-.38a1.68,1.68,0,0,1,.57-.4l.33-.27c.16-.11.33-.2.48-.32s.43-.3.33-.59ZM72.23,62.53l-1.71-3.22h-.37l-1.69,3.18v-52h0V10H69v.36c1.08-.19,2.15-.36,3.23-.52V62.53Zm43.56-2.28-1.17,2.21V9.88c1.08.16,2.15.33,3.23.52V10h.54v43c-1.67.9-3.2,2.15-3.44,4a4.52,4.52,0,0,0,.84,3.24ZM85.24,16.5l-.09.26-.08.12-.11,0-.14.14v1.37l.18.26c.09.11.17.19.24.29Zm29.38,47.68-.42.79v5.22h.42Zm-8.4-1.08-.42-.79v7.88h.42ZM102,66.16l-.42.79v3.24H102ZM97.83,69l-.42-.79v2h.42Zm-4.2-7.88-.23-.43-.19.36v9.14h.42Zm-4.19,7-.42.79v1.26h.42ZM85.24,67l-.42-.78v4h.42ZM81,62.24l-.42.79v7.16H81Zm-4.19,7.88,0,.07h0Zm-4.2-5.07-.42-.79v5.93h.42Zm-4.19-.83L68,65v5.18h.42Zm-2.83,5.3-.35.67h.35Zm-6.46-45.6H57.36v6.72h1.81Zm-2.2,0H55.15v6.72H57Zm-2.21,0H53v6.72h1.81Zm-2.2,0H50.74v6.72h1.82Zm6.61,42H55.62v2.57h3.55Zm-17.11,0H38.5v2.57h3.56V65.89Zm5.7,0H44.21v2.57h3.55V65.89Zm5.71,0H49.91v2.57h3.56V65.89Zm-17.12,0H32.8v2.57h3.55Zm.58-4.25H32.8v2.57h4.13Zm0-4.8H32.8v2.57h4.13Zm0-4.8H32.8V54.6h4.13Zm0-4.81H32.8V49.8h4.13Zm0-4.8H32.8V45h4.13Zm0-4.8H32.8V40.2h4.13Zm11.12,24H39.62v2.57h8.43Zm0-4.8H39.62v2.57h8.43Zm0-4.8H39.62V54.6h8.43Zm0-4.81H39.62V49.8h8.43Zm0-4.8H39.62V45h8.43Zm0-4.8H39.62V40.2h8.43Zm11.12,24H50.74v2.57h8.43Zm0-4.8H50.74v2.57h8.43Zm0-4.8H50.74V54.6h8.43Zm0-4.81H50.74V49.8h8.43Zm0-4.8H50.74V45h8.43Zm0-4.8H50.74V40.2h8.43ZM36.93,32.82H32.8v2.57h4.13Zm11.12,0H39.62v2.57h8.43Zm11.12,0H50.74v2.57h8.43Zm-22.24-8.9H35.06v6.72h1.87Zm-2.26,0H32.8v6.72h1.87Zm13.38,0H46.24v6.72h1.81Zm-2.2,0H44v6.72h1.82Zm-2.21,0H41.83v6.72h1.81Zm-2.2,0H39.62v6.72h1.82Zm86.23,0h1.82v6.72h-1.82Zm2.21,0h1.81v6.72h-1.81Zm2.21,0h1.81v6.72h-1.81Zm2.2,0h1.81v6.72h-1.81Zm15.63,18.51h4.13v1.91c-1.38.18-2.76.37-4.13.58Zm0-4.8h4.13V40.2h-4.13Zm-11.12,4.8h8.43V45H138.8Zm0-4.8h8.43V40.2H138.8Zm-11.13,9.6h8.43v.37c-2.33.55-4.65,1.13-6.93,1.75l-1.5.41Zm0-4.8h8.43V45h-8.43Zm0-4.8h8.43V40.2h-8.43Zm22.25-4.81h4.13v2.57h-4.13Zm-11.12,0h8.43v2.57H138.8Zm-11.13,0h8.43v2.57h-8.43Zm22.25-8.9h1.87v6.72h-1.87Zm2.26,0h1.87v6.72h-1.87Zm-13.38,0h1.81v6.72H138.8Zm2.2,0h1.82v6.72H141Zm2.21,0H145v6.72h-1.81Zm2.2,0h1.82v6.72h-1.82ZM133.59,56.65l2.56,12.73h-4.63l-2.34-11.84a18.83,18.83,0,0,1,4.41-.89Zm6.52,0,2.33,12.69H137l-2.41-12.8c.65,0,1.34-.06,2.08,0,1.09,0,2.25.06,3.49.16Zm11.78-4.79a69.65,69.65,0,0,1,26.34-5.78c13.74-.15,26.42,5,37.22,13.32-6-6.41-14.47-10.37-22.78-13a128.46,128.46,0,0,1,19.14,6,116.88,116.88,0,0,1,18.82,9.74c-7.88-7-18.28-11.55-29.2-14.45A125.81,125.81,0,0,1,239,60.89a84.4,84.4,0,0,0-20.18-9.76c5.68,1.71,12.13,3.6,17.56,5.85,1.93.8,5.93,2.49,7.13,4.08.65.87.5,1.74-1.65,2.32-4.34,1.17-13.63,1.18-15.75,1.08-12.17-.6-29.43-3.73-40.7-5.81-5.47-1-12.69-2.21-20.1-3.26a189.46,189.46,0,0,0-25.14-2.11,70.08,70.08,0,0,0-17.78,2c7.76-3,22.57-6.59,33.92-8.16a81.37,81.37,0,0,0-13.8,4.24c5.91-1.54,11.39-3.66,24.27-5.09a41.94,41.94,0,0,0-14.91,5.66ZM148.69,58c2.78.58,5.57,1.29,8.63,2.24l.66,5.17h.67l-.48-4.91c2.34.74,4.72,1.61,7.14,2.59h12.45v.54H160.24l1,1v4.79H144a1,1,0,0,1-1-.83l-1.95-11.77c2,.2,4.27.52,6.62,1l1.3,8.36.76-.09Z"/><path class="cls-2" d="M11.36,98.73v.16h.22a2.37,2.37,0,0,0,.49,0,1.07,1.07,0,0,0,.32-.12l.17-.21a.71.71,0,0,0,.06-.31.85.85,0,0,0-.05-.3l-.16-.21a.81.81,0,0,0-.28-.12,2.39,2.39,0,0,0-.42,0h-.23l-.09,0,0,.06v1.08Zm0,1.71v.11h0l0,.06h0l.1,0h.33a1.18,1.18,0,0,0,.4-.05.78.78,0,0,0,.29-.14h0a.66.66,0,0,0,.17-.23.79.79,0,0,0,.06-.32.84.84,0,0,0-.06-.33h0a.67.67,0,0,0-.19-.22.86.86,0,0,0-.32-.14,2,2,0,0,0-.46,0h-.35v1.25Zm-1.19.46v-.15h.05a.9.9,0,0,0,.25,0l.14-.06.06-.12,0-.22v-2.4l0-.23-.06-.11-.14-.07a1.56,1.56,0,0,0-.26,0h0v-.2h1.76a2.37,2.37,0,0,1,.57.06,1.35,1.35,0,0,1,.44.18.75.75,0,0,1,.27.29.81.81,0,0,1,.1.39.87.87,0,0,1-.05.28l-.15.24a.87.87,0,0,1-.23.19l-.17.08.24.09a.84.84,0,0,1,.28.2.64.64,0,0,1,.18.27.88.88,0,0,1,.06.33,1.21,1.21,0,0,1-.1.48.82.82,0,0,1-.31.33,1.33,1.33,0,0,1-.51.2,3.69,3.69,0,0,1-.71.06H10.17Zm3.78,0v-.15H14a.9.9,0,0,0,.25,0l.14-.06h0l.06-.12h0a.65.65,0,0,0,0-.22v-2.4l0-.22-.06-.12-.14-.07a1.56,1.56,0,0,0-.26,0h0v-.2H17.1v0l0,.79v.06H17v0a1,1,0,0,0-.08-.27l-.11-.16h0l-.19-.08h0a1.35,1.35,0,0,0-.31,0h-1l-.06,0h0l0,0v1.2H16l.33,0,.18-.07h0l.09-.13a1.2,1.2,0,0,0,0-.23v0h.2V99.7h-.2v0a.85.85,0,0,0-.05-.25l-.08-.13h0l-.18-.07a1.48,1.48,0,0,0-.33,0h-.83v0h0v1.31h0l0,.07h0l.05,0,.12,0h.83a2.52,2.52,0,0,0,.43,0,.82.82,0,0,0,.28-.1h0l.2-.2a2.1,2.1,0,0,0,.18-.34l0,0,0,0,.1,0,0,0v0l-.29.88v0H14Zm3.92,0v-.15h.05a.9.9,0,0,0,.25,0l.13-.06.07-.12h0a.69.69,0,0,0,0-.22v-2.4l0-.22-.07-.12-.14-.07a.83.83,0,0,0-.24,0h-.05v-.2h1.72v.2h-.05l-.25,0h0l-.14.07-.06.12,0,.22v2.4l0,.22.07.12h0l.14.06a.78.78,0,0,0,.24,0h.05v.2H17.87Zm4.3-3.57v.15h0a.9.9,0,0,0-.25,0l-.13.07-.07.13a.9.9,0,0,0,0,.25v1.91a1.89,1.89,0,0,1-.07.5.89.89,0,0,1-.19.36h0a.7.7,0,0,1-.31.23,1.08,1.08,0,0,1-.42.08,1.1,1.1,0,0,1-.27,0l-.22-.11h0l-.15-.17-.05-.21,0-.11h0l.06-.09.09,0,.11,0,.11,0h0l.1,0h0l.08.08.06.11h0v0l.09.15h0l.09,0h.09l.05,0,0-.08h0V98a1.47,1.47,0,0,0,0-.25l-.07-.14h0l-.14-.06a1,1,0,0,0-.26,0h-.05v-.2h1.72Zm.46,3.57v-.15h0a1,1,0,0,0,.26,0l.13-.06.07-.12h0a1.27,1.27,0,0,0,0-.22v-2.4l0-.22-.07-.12-.14-.07a.85.85,0,0,0-.25,0h0v-.2h1.72v.2H24.3l-.25,0h0l-.14.07-.06.12,0,.22v2.4l0,.22.06.12h0l.14.06a.9.9,0,0,0,.25,0h.05v.2H22.63Zm3-.6a.78.78,0,0,0,0,.24l.05.11h0l.14.06.26,0h0v.2H24.79v-.2h0l.26,0,.13-.06h0l.06-.11a.82.82,0,0,0,0-.24V97.81l-.09-.13-.11-.1h0L25,97.51l-.15,0h0v-.2h1v0l2,2.44V97.93a1.44,1.44,0,0,0,0-.24l-.06-.11-.14-.06a1.31,1.31,0,0,0-.25,0h0v-.2h1.37v.2h0l-.26,0-.13.06-.06.11h0a.82.82,0,0,0,0,.24v3H28l-2.34-2.79Zm7,.29a3,3,0,0,1-.35.19,2.79,2.79,0,0,1-.37.14h0a2.34,2.34,0,0,1-.38.09h0a2.6,2.6,0,0,1-.4,0,2.64,2.64,0,0,1-.81-.13,2,2,0,0,1-.64-.39,1.65,1.65,0,0,1-.41-.6h0a1.87,1.87,0,0,1-.14-.76,2,2,0,0,1,.14-.78,1.66,1.66,0,0,1,.42-.63,1.84,1.84,0,0,1,.65-.41,2.29,2.29,0,0,1,.81-.14,2,2,0,0,1,.34,0,2,2,0,0,1,.35.09l.26.08h0l.09,0h0l0,0h0l0,0,0-.08v0h.18v0l.05,1.1v0h-.19l0,0a1.74,1.74,0,0,0-.21-.41h0a.91.91,0,0,0-.24-.27,1.14,1.14,0,0,0-.31-.16,1.68,1.68,0,0,0-.4,0,1.43,1.43,0,0,0-.56.11,1.21,1.21,0,0,0-.43.33h0a1.53,1.53,0,0,0-.28.52,2.19,2.19,0,0,0-.09.66,2.31,2.31,0,0,0,.09.67,1.55,1.55,0,0,0,.29.52,1.31,1.31,0,0,0,.44.33,1.4,1.4,0,0,0,.56.1h.23l.21-.06.19-.08.14-.1v-.95a.82.82,0,0,0,0-.24l0-.1h0l-.13,0-.29,0h0v-.2h1.62v.2h0l-.21,0h0l-.11,0,0,.1,0,.21v1.07Zm1.85-3.16v-.15H36.2v.2h0a.78.78,0,0,0-.24,0l-.13.07-.06.14a1.06,1.06,0,0,0,0,.27v1.53a2.12,2.12,0,0,0,.06.54,1,1,0,0,0,.18.37.81.81,0,0,0,.3.21,1.2,1.2,0,0,0,.44.07,1.27,1.27,0,0,0,.46-.07.93.93,0,0,0,.35-.23,1.23,1.23,0,0,0,.21-.37,1.61,1.61,0,0,0,.07-.51V98a.93.93,0,0,0,0-.26l-.07-.15h0l-.14-.08h0a.78.78,0,0,0-.24,0h0v-.2h1.36v.2h0l-.21,0h0l-.12.08-.07.15a1,1,0,0,0,0,.26v1.47a1.63,1.63,0,0,1-.39,1.18,1.35,1.35,0,0,1-.49.3,1.91,1.91,0,0,1-.66.1l-.37,0-.33-.08a.9.9,0,0,1-.28-.13l-.23-.17h0l-.15-.2-.11-.24h0c0-.09,0-.19-.06-.31s0-.24,0-.38V98.18a3.84,3.84,0,0,0,0-.39A.5.5,0,0,0,35,97.6h0l-.14-.09a.85.85,0,0,0-.25,0h0Zm5.35,2.87a1.44,1.44,0,0,0,0,.24l.06.11.14.06a1.31,1.31,0,0,0,.25,0h0v.2H39v-.2h0a1.31,1.31,0,0,0,.25,0l.14-.06.06-.11a1.44,1.44,0,0,0,0-.24V97.81l-.09-.13-.11-.1h0l-.13-.07h0l-.14,0h0v-.2h1v0l2,2.44V97.93a.78.78,0,0,0,0-.24L42,97.58l-.13-.06a1.31,1.31,0,0,0-.25,0h0v-.2h1.38v.2h0l-.26,0-.13.06-.06.11h0a.82.82,0,0,0,0,.24v3h-.2l-2.33-2.79Zm3.44.6v-.15h0a.93.93,0,0,0,.26,0l.13-.06.07-.12h0a.72.72,0,0,0,0-.22v-2.4l0-.22-.07-.12-.14-.07a.85.85,0,0,0-.25,0h0v-.2H45v.2H45l-.25,0h0l-.14.07-.06.12,0,.22v2.4l0,.22.07.12h0l.13.06a.9.9,0,0,0,.25,0H45v.2H43.31Zm4,.11L46.07,98.1a2.86,2.86,0,0,0-.16-.31l-.13-.19-.13-.09-.16,0h-.05v-.2h1.61v.2h0l-.22,0-.11,0,0,0h0l0,.06a.74.74,0,0,0,.06.2c0,.11.09.25.17.43s.18.42.31.72l.46,1,.9-2,0-.09,0-.1h0l0-.07h0v0l0-.07h0l0,0h0l-.11,0-.19,0h0v-.2h1.17v.2h0l-.12,0-.1.07-.1.15c0,.07-.08.16-.13.26h0l-1.35,3v0h-.17Zm2.36-.11v-.15h0a.9.9,0,0,0,.25,0l.14-.06h0l.06-.12h0a.65.65,0,0,0,0-.22v-2.4l0-.22-.06-.12L50,97.51a1.56,1.56,0,0,0-.26,0h0v-.2h3.15v0l0,.79v.06h-.2v0a1,1,0,0,0-.08-.27l-.11-.16h0l-.19-.08h0a1.35,1.35,0,0,0-.31,0H51l-.06,0h0l0,0v1.17h0v0h.82l.34,0,.17-.07h0l.09-.13a1.2,1.2,0,0,0,0-.23v0h.2V99.7h-.2v0a1.45,1.45,0,0,0,0-.25l-.09-.13h0l-.18-.07a1.48,1.48,0,0,0-.33,0h-.82v1.33h0l0,.07h0l0,0,.12,0h.83a2.52,2.52,0,0,0,.43,0,.82.82,0,0,0,.28-.1h0l.2-.2A1.53,1.53,0,0,0,53,100l0,0,0,0,.1,0,0,0v0l-.28.88v0H49.7ZM54.83,99v0l0,0,0,0h.05a2.29,2.29,0,0,0,.55-.05,1,1,0,0,0,.36-.13.52.52,0,0,0,.2-.24.73.73,0,0,0,.07-.35A.79.79,0,0,0,56,98l-.16-.21a.83.83,0,0,0-.3-.13,1.89,1.89,0,0,0-.44,0H55l-.08,0h0l0,.06V99Zm-1.19,1.94v-.15h.11l.22,0,.12-.06.06-.14a.75.75,0,0,0,0-.23V97.88a.41.41,0,0,0-.09-.31l-.15-.06a.88.88,0,0,0-.26,0h0v-.2H55.5a2.17,2.17,0,0,1,.54.06,1,1,0,0,1,.41.19h0a.69.69,0,0,1,.25.31.91.91,0,0,1,.09.41.93.93,0,0,1-.06.34.84.84,0,0,1-.18.28,1.27,1.27,0,0,1-.29.21l-.32.12.56.7.43.49a2.2,2.2,0,0,0,.29.27l.18.09h0v.2h-.89l-.34-.38q-.16-.18-.33-.39l-.33-.42-.33-.43h-.38v0h0v.93a1.4,1.4,0,0,0,0,.23l.07.13.14.07a.75.75,0,0,0,.23,0h.09v.2H53.64Zm4.44.09-.2-1.16v0h.2v0a2.15,2.15,0,0,0,.21.4,1.05,1.05,0,0,0,.25.3h0a1,1,0,0,0,.28.18.72.72,0,0,0,.29.06l.25,0,.2-.12.13-.19.05-.24,0-.17-.09-.17-.16-.16h0l-.23-.16h0l-.55-.33h0L58.36,99a2.28,2.28,0,0,1-.22-.23,1.23,1.23,0,0,1-.12-.26.88.88,0,0,1,0-.29.92.92,0,0,1,.07-.38h0a.9.9,0,0,1,.23-.32.94.94,0,0,1,.35-.2,1.23,1.23,0,0,1,.44-.07l.23,0,.25.07h0l.19.06.08,0h0l0,0,0,0h0v-.1h.17v0l.12,1.08v.06H60v0a1.82,1.82,0,0,0-.18-.37,1,1,0,0,0-.21-.27l-.25-.17a.64.64,0,0,0-.28,0l-.22,0h0l-.18.11-.11.15h0l0,.2,0,.16.08.15.15.14a1.53,1.53,0,0,0,.23.17h0l.62.36h0a3.66,3.66,0,0,1,.33.23,1.2,1.2,0,0,1,.22.24,1,1,0,0,1,.12.25,1,1,0,0,1,0,.3,1.23,1.23,0,0,1-.08.44,1,1,0,0,1-.25.34h0a1,1,0,0,1-.38.21,1.44,1.44,0,0,1-.49.08l-.25,0-.26-.06-.2,0h-.13l0,0h0l0,0V101h-.17ZM61,100.9v-.15h0a.85.85,0,0,0,.25,0l.14-.06.06-.12h0a.69.69,0,0,0,0-.22v-2.4l0-.22-.06-.12-.14-.07h0a.9.9,0,0,0-.25,0h0v-.2h1.72v.2h0l-.25,0h0l-.14.07-.07.12,0,.22v2.4l0,.22.07.12h0l.14.06a.9.9,0,0,0,.25,0h0v.2H61Zm2.94,0v-.15h0a.63.63,0,0,0,.41-.09l.06-.14a1,1,0,0,0,0-.27V97.61h0v0h-.25a1.66,1.66,0,0,0-.42,0,.48.48,0,0,0-.25.1l-.14.19a1.45,1.45,0,0,0-.07.34v0h-.2v-.05l0-.91v0h3.33v1h-.2v0a1,1,0,0,0-.07-.34l-.12-.2a.6.6,0,0,0-.26-.09,2.29,2.29,0,0,0-.5,0h-.18v0h0v2.61a1.26,1.26,0,0,0,0,.3l.06.14.14,0a1,1,0,0,0,.27,0h.05v.2H63.89Zm4,0v-.15H68a.54.54,0,0,0,.36-.09h0l.07-.12,0-.19v-1L67.3,97.75l-.11-.12h0l-.11-.08h0l-.14,0-.16,0h0v-.2h1.75v.2h0l-.19,0-.12,0,0,0h0v0l0,.08h0l.06.11h0L69,99l.68-1.06h0l.09-.13h0l0-.08,0,0h0v-.07h0l0,0-.11,0-.18,0h0v-.2h1.21v.2h0l-.14,0-.12.06h0l-.12.12-.15.2-1,1.43v1.07l0,.17h0l.07.11h0l.14,0a.85.85,0,0,0,.25,0h0v.2H67.94Zm-.64-3.15h0m5.57,1.36a2.84,2.84,0,0,0,.08.69,1.62,1.62,0,0,0,.25.51,1.05,1.05,0,0,0,.37.33,1.1,1.1,0,0,0,.49.1,1.13,1.13,0,0,0,.49-.1,1.05,1.05,0,0,0,.37-.33,1.62,1.62,0,0,0,.25-.51h0a2.84,2.84,0,0,0,.08-.69,2.73,2.73,0,0,0-.08-.67,1.67,1.67,0,0,0-.25-.52,1,1,0,0,0-.37-.32,1.14,1.14,0,0,0-.49-.11,1.1,1.1,0,0,0-.49.11,1,1,0,0,0-.37.32,1.67,1.67,0,0,0-.25.52,2.73,2.73,0,0,0-.08.67Zm-.71,0a2.34,2.34,0,0,1,.13-.77,1.68,1.68,0,0,1,.39-.61,1.75,1.75,0,0,1,.61-.4h0a2.07,2.07,0,0,1,.77-.13,2.11,2.11,0,0,1,.77.13,1.75,1.75,0,0,1,.61.4,1.68,1.68,0,0,1,.39.61,2.34,2.34,0,0,1,.13.77,2.47,2.47,0,0,1-.13.79,1.87,1.87,0,0,1-.39.61,1.72,1.72,0,0,1-.61.39,2.11,2.11,0,0,1-.77.14,2.07,2.07,0,0,1-.77-.14,1.72,1.72,0,0,1-.61-.39h0a1.87,1.87,0,0,1-.39-.61,2.47,2.47,0,0,1-.13-.79Zm4.33,1.79v-.15h0a1.56,1.56,0,0,0,.26,0h0l.14-.06.06-.11a1.4,1.4,0,0,0,0-.23v-2.4l0-.22-.06-.12-.14-.07h0l-.25,0h-.05v-.21h3.06v0l0,.85v0h-.2v0a1.07,1.07,0,0,0-.09-.3h0l-.12-.17-.2-.09a1.51,1.51,0,0,0-.32,0h-.89l-.06,0,0,.06v1.19h.57a1.58,1.58,0,0,0,.34,0l.18-.07.08-.13a.75.75,0,0,0,0-.23v0h.21v1.36h-.2v0a1,1,0,0,0,0-.27h0l-.08-.14-.17-.07a1.62,1.62,0,0,0-.34,0H77.7v1.07a.75.75,0,0,0,0,.23l.07.12.15.07h0a1.12,1.12,0,0,0,.27,0h0v.2H76.49Zm5.27,0v-.15h0a.6.6,0,0,0,.4-.09l.07-.14a1.87,1.87,0,0,0,0-.27V97.61h0v0H82a1.8,1.8,0,0,0-.43,0,.45.45,0,0,0-.24.1l-.14.19a1.42,1.42,0,0,0-.08.34v0H81v-.05l0-.91v0h3.34v1h-.2v0a1.35,1.35,0,0,0-.07-.34l-.13-.2a.55.55,0,0,0-.26-.09,2.19,2.19,0,0,0-.49,0H83v0h0v2.61a2.36,2.36,0,0,0,0,.3l.07.14.14,0a1,1,0,0,0,.27,0h0v.2H81.76Zm2.88,0v-.15h0a1,1,0,0,0,.26,0l.13-.06h0l.07-.12h0a1.18,1.18,0,0,0,0-.22v-2.4l0-.22-.07-.12L85,97.51a1.7,1.7,0,0,0-.26,0h0v-.2H87.8v0l0,.79v.06h-.2v0a1.46,1.46,0,0,0-.08-.27l-.11-.16h0l-.19-.08h0a1.45,1.45,0,0,0-.32,0h-1l0,0h0l0,0,0,.13v1.07h.82l.34,0,.18-.07.08-.13a.53.53,0,0,0,0-.23v0h.2V99.7h-.2v0a.87.87,0,0,0,0-.25l-.08-.13h0L87,99.2a1.58,1.58,0,0,0-.34,0h-.82v0h0v1.16l0,.15h0l0,.07h0l.05,0,.11,0h.84a2.63,2.63,0,0,0,.43,0,.91.91,0,0,0,.28-.1h0l.2-.2A1.53,1.53,0,0,0,88,100l0,0,0,0,.1,0,0,0v0l-.28.88v0H84.64ZM92,100l.09.1,0,0,0,0a1.59,1.59,0,0,1-.32.36,1.78,1.78,0,0,1-.36.27A1.56,1.56,0,0,1,91,101a1.76,1.76,0,0,1-.46.06,2.36,2.36,0,0,1-.78-.13,1.77,1.77,0,0,1-.61-.39h0a1.87,1.87,0,0,1-.39-.61,2.07,2.07,0,0,1-.13-.77,2.11,2.11,0,0,1,.14-.77,1.86,1.86,0,0,1,1-1,2.16,2.16,0,0,1,.78-.14l.33,0a1.51,1.51,0,0,1,.34.08l.26.07.11,0h0l0,0,0,0v-.1h.19v0L92,98.43v0h-.19v0a2,2,0,0,0-.19-.42h0a1.08,1.08,0,0,0-.26-.3h0a1.06,1.06,0,0,0-.33-.18,1.23,1.23,0,0,0-.39-.06,1.19,1.19,0,0,0-.54.11,1.1,1.1,0,0,0-.42.33,1.53,1.53,0,0,0-.28.52,2.29,2.29,0,0,0-.09.66,2.17,2.17,0,0,0,.09.65,1.58,1.58,0,0,0,.28.51,1.31,1.31,0,0,0,.41.34,1.27,1.27,0,0,0,.52.11,1.45,1.45,0,0,0,.37,0,1.61,1.61,0,0,0,.33-.12,1.37,1.37,0,0,0,.3-.21,2.83,2.83,0,0,0,.3-.3l0,0Zm.43.86v-.15h0a.9.9,0,0,0,.25,0l.14-.06.06-.12,0-.22v-2.4l0-.22-.07-.12-.14-.07a.85.85,0,0,0-.25,0h0v-.2h1.71v.2h0a1.56,1.56,0,0,0-.26,0l-.13.07-.07.12,0,.22v1h0l0,0,0,0h1.67v-1l0-.22-.07-.12h0l-.13-.07-.25,0h0v-.2h1.72v.2h0a.85.85,0,0,0-.25,0l-.14.06h0l-.07.12,0,.23v2.4l0,.21.07.13.14.06h0a.9.9,0,0,0,.25,0h0v.2H94.83v-.2h0a.9.9,0,0,0,.25,0l.13-.06h0l.07-.12,0-.22V99.24H93.65l0,0h0v1l0,.22.07.12h0l.13.06a.9.9,0,0,0,.25,0h.05v.2H92.44Zm5.34-.6a.82.82,0,0,0,0,.24l.06.11.13.06.26,0h0v.2H96.91v-.2h0a1.31,1.31,0,0,0,.25,0l.14-.06h0l.06-.11a1.44,1.44,0,0,0,0-.24V97.81l-.1-.13-.11-.1h0l-.12-.07-.15,0h0v-.2h1l0,0,2,2.44V97.93a.82.82,0,0,0,0-.24l-.06-.11-.13-.06-.26,0h0v-.2h1.38v.2h0l-.25,0-.14.06-.06.11a1.44,1.44,0,0,0,0,.24v3h-.19l-2.33-2.79ZM102,99.11a2.42,2.42,0,0,0,.08.69,1.41,1.41,0,0,0,.24.51,1.08,1.08,0,0,0,.38.33,1.06,1.06,0,0,0,.48.1,1,1,0,0,0,.87-.43,1.6,1.6,0,0,0,.24-.51,2.42,2.42,0,0,0,.08-.69,2.32,2.32,0,0,0-.08-.67,1.66,1.66,0,0,0-.24-.52,1.05,1.05,0,0,0-.38-.32h0a1.07,1.07,0,0,0-.49-.11,1.05,1.05,0,0,0-.86.43,1.46,1.46,0,0,0-.24.52,2.32,2.32,0,0,0-.08.67Zm-.71,0a2.11,2.11,0,0,1,.13-.77,1.46,1.46,0,0,1,.39-.61,1.62,1.62,0,0,1,.6-.4,2.38,2.38,0,0,1,1.55,0,1.62,1.62,0,0,1,.6.4,1.46,1.46,0,0,1,.39.61,2.11,2.11,0,0,1,.13.77,2.22,2.22,0,0,1-.13.79,1.7,1.7,0,0,1-1,1,2.22,2.22,0,0,1-1.55,0,1.6,1.6,0,0,1-.6-.39h0a1.59,1.59,0,0,1-.39-.61,2.22,2.22,0,0,1-.13-.79Zm4.33,1.79v-.15h.07a.75.75,0,0,0,.23,0l.13-.07h0l.06-.14a.93.93,0,0,0,0-.26V97.93a.81.81,0,0,0,0-.25l-.06-.12h0l-.13-.06-.25,0h0v-.2h1.72v.2h-.07a.75.75,0,0,0-.23,0l-.13.07-.07.13,0,.22v2.4l0,.19,0,.08h0l.09,0h0l.17,0h.62a1.23,1.23,0,0,0,.35-.05.79.79,0,0,0,.28-.12h0l.22-.22h0a1.33,1.33,0,0,0,.18-.31v0H109l0,.06-.3.94v0h-3Zm4.4-1.79a2.4,2.4,0,0,0,.09.69,1.41,1.41,0,0,0,.24.51,1.08,1.08,0,0,0,.38.33,1.06,1.06,0,0,0,.48.1,1.1,1.1,0,0,0,.49-.1,1.18,1.18,0,0,0,.38-.33,1.6,1.6,0,0,0,.24-.51h0a2.84,2.84,0,0,0,.08-.69,2.73,2.73,0,0,0-.08-.67,1.66,1.66,0,0,0-.24-.52,1.14,1.14,0,0,0-.38-.32h0a1.1,1.1,0,0,0-.49-.11,1.05,1.05,0,0,0-.86.43,1.46,1.46,0,0,0-.24.52,2.31,2.31,0,0,0-.09.67Zm-.71,0a2.34,2.34,0,0,1,.13-.77,1.58,1.58,0,0,1,.4-.61,1.62,1.62,0,0,1,.6-.4,2.11,2.11,0,0,1,.77-.13,2.07,2.07,0,0,1,.77.13,1.66,1.66,0,0,1,.61.4,1.68,1.68,0,0,1,.39.61,2.11,2.11,0,0,1,.13.77,2.22,2.22,0,0,1-.13.79,1.72,1.72,0,0,1-.39.61,1.64,1.64,0,0,1-.61.39,2.07,2.07,0,0,1-.77.14,2.11,2.11,0,0,1-.77-.14,1.6,1.6,0,0,1-.6-.39h0a1.75,1.75,0,0,1-.4-.61,2.47,2.47,0,0,1-.13-.79Zm8,1.48a3,3,0,0,1-.35.19,2.35,2.35,0,0,1-.37.14h0a2.34,2.34,0,0,1-.38.09,2.6,2.6,0,0,1-.4,0,2.64,2.64,0,0,1-.81-.13,2,2,0,0,1-.64-.39,1.65,1.65,0,0,1-.41-.6h0a1.87,1.87,0,0,1-.14-.76,2,2,0,0,1,.14-.78,1.66,1.66,0,0,1,.42-.63,1.84,1.84,0,0,1,.65-.41,2.29,2.29,0,0,1,.81-.14,2,2,0,0,1,.34,0,2,2,0,0,1,.35.09h0l.26.08.1,0h0l0,0h0l0,0,0-.08v0h.17v0l0,1.1v0H117v0a1.74,1.74,0,0,0-.21-.41.91.91,0,0,0-.24-.27h0a1.14,1.14,0,0,0-.31-.16,1.62,1.62,0,0,0-.4,0,1.43,1.43,0,0,0-.56.11,1.21,1.21,0,0,0-.43.33h0a1.53,1.53,0,0,0-.28.52,2.19,2.19,0,0,0-.09.66,2.31,2.31,0,0,0,.09.67,1.55,1.55,0,0,0,.29.52,1.31,1.31,0,0,0,.44.33,1.4,1.4,0,0,0,.56.1h.23l.21-.06.19-.08.15-.1v-.95a.78.78,0,0,0,0-.24l0-.1h0l-.13,0-.29,0h0v-.2h1.62v.2h0l-.21,0h0l-.11,0,0,.1,0,.21v1.07Zm1.5.31v-.15h.07a.54.54,0,0,0,.36-.09h0l.07-.12,0-.19v-1l-1.16-1.63-.11-.12-.11-.08h0l-.14,0-.16,0h0v-.2h1.75v.2h0l-.19,0-.12,0,0,0v0l0,.08h0l.06.11h0l.82,1.17.68-1.06h0l.09-.13,0-.08,0,0h0v-.07l0,0h0l-.11,0h0l-.18,0h0v-.2h1.21v.2h0l-.14,0-.12.06h0l-.12.12-.15.2-1,1.43v1.07l0,.17.06.11h0l.15,0a.85.85,0,0,0,.25,0h0v.2h-1.72Zm-.64-3.15h0"/></g></g></svg>