<svg xmlns="http://www.w3.org/2000/svg" viewBox="0 0 128.29 54.55"><defs><style>.cls-1{fill:#b5b5b6;fill-rule:evenodd;}</style></defs><g id="图层_2" data-name="图层 2"><g id="图层_1-2" data-name="图层 1"><path class="cls-1" d="M35,11.81l1,7.4-.7.08L34.1,11.63c-2.15-.42-4.19-.71-6.07-.9,2.86,16.36-1.13,10.53,18.46,11.55v-4.4L45.58,17H61.21v-.49c-5.69.24-12.39.2-17.52-2.38l.44,4.51-.62,0-.6-4.73a78.55,78.55,0,0,0-7.91-2ZM53.83,24.57h-17l-10.86,6H0l3.15-.77V27.24H11v-.45H9.15V22.28h9.47L16.3,11.74c-5,1.49-1.43,6.3-1.13,9.8h-.72L13,16C-12.93,7.53,49.56,0,58.42.09,77.84-.69,99.27,3.57,118.3,11.57c16.5,7.31-5.63,8.8-11,8.11-11.83-.66-28-4.27-39-6.5,13.09,3.3,25.67,7.4,40.34,7.93v3.07h-5.11l-.87.56h25.59a68.19,68.19,0,0,0-13.09,5.09c-9.07-2-20.17-2.9-29.29-3V21.33H60.27c-3.4-2.1-7.2-3.94-11.25-3.31v4.26H84.77v3.48l-10.7,3.62c5.59,1.22,40.79,1.55,47.48,9.76C110.3,53,47.23,54.17,27.6,54.55c27.75-2.65,78.68-22.33,17.08-24.08ZM37.93,6.26A38.14,38.14,0,0,1,51.59,1.08c-11.8,1.3-16.82,3.24-22.23,4.66A74.51,74.51,0,0,1,42,1.85C31.6,3.29,18,6.54,10.91,9.33c31.71-6.42,63.41,7,95.06,8.44,32.3.51,7.45-8.39-6.68-12.21a77.28,77.28,0,0,1,18.5,8.93,115.51,115.51,0,0,0-34.45-12c10,2.66,19.53,6.88,26.76,13.24-3.19-2.85-25-13.08-34.79-14.45,7.61,2.37,15.41,6,20.87,11.88C79.8-.24,57.11-2.45,37.93,6.26ZM27.14,10.65a36.68,36.68,0,0,0-5.11-.1l2.21,11.73h5Zm-6,0a17.2,17.2,0,0,0-4,.82l2.15,10.85h4.24Zm-10.84-.15c12-3.47,27-1.8,40.19.35C36.82,9.88,21,6.21,8.42,12.16c0-.66,1.17-1.39,1.9-1.7"/></g></g></svg>