<svg xmlns="http://www.w3.org/2000/svg" viewBox="0 0 201.34 69.1"><defs><style>.cls-1,.cls-2{fill:#b5b5b6;}.cls-1{fill-rule:evenodd;}</style></defs><g id="图层_2" data-name="图层 2"><g id="图层_1-2" data-name="图层 1"><path class="cls-1" d="M102.3,5.2l-3.27,8h4.07V11.07h-2.86l.21-.49h3.14v2.58h4.72l2.54-4.91a67.09,67.09,0,0,0-8.55-3Zm-70.77,0,3.27,8H30.74V11.07h2.85l-.2-.49H30.25v2.58H25.53L23,8.25A66.93,66.93,0,0,1,31.53,5.2ZM32,5.06c2.83-.8,5.8-1.49,8.84-2.07.61,2.05,1.23,4.09,1.85,6.14l-1.29.29V9.11H41v.42h0v6h-.33V9.61c-.84.2-1.68.41-2.51.64V10h-.43V15.5h-.49V13.16H35.33l-.86-2.09h2.75v-.49H34.27Q33.15,7.82,32,5.06ZM41.32,2.9c3.24-.62,6.54-1.11,9.79-1.49l.72,6.07-.64.09V7.28h-.42V49.23l2.68,5c.72-.31,0-37.28.25-37.76a.91.91,0,0,0,.33-.22V53.18L57,47.66V17.39a.82.82,0,0,0,.33-.14v29.8l.5-.93h.29l2.15,4v-34a.78.78,0,0,0,.33-.24c.38,2.17-1.33,38.27,1.86,38.4l1.07-2V15.44a3.7,3.7,0,0,0,.33-.21V51.64l2.94-5.51V15.56l.32-.06V46.18L70,51.7V17.49c.24-.06.27-.34.27-.66l0,0V52.31l1,2c3.27-.39,1.49-35.41,1.89-37.69l.33-.1V50.1l2.12-4H76l.52,1V16.32l.33-.05V47.72l2.94,5.52V17.65a.79.79,0,0,0,.32-.06c.22.42-.41,36.4.23,36.68l2.71-5.09V7.28h-.43v.29L82,7.48l.72-6.07c3.24.38,6.54.87,9.79,1.49L90.67,9l-.75-.16V15.5H89.6V9.61h0V8.44h-.43V8.7c-.83-.17-1.67-.33-2.51-.48v.33h0V49.26l2.17,4.08h.77V49.52H88.53V48.33H89.6V45.79H88.53V44.6H89.6V42.05H88.53V40.86H89.6V38.32H88.53V37.13H89.6V34.59H88.53v-1.2H89.6V30.85H88.53V29.66H89.6V27.12H88.53V25.93H89.6V22.4H88.53V21.21H89.6v-5h26.24V62.74c-.59-.09-1.18-.16-1.78-.23V54.74h-4V62.2l-1.11-.07V54.74h-4v7.2l-1.12,0V54.74h-4v7.11H98.68v-7.1h-4v7.37c13.15,0,26.31.76,38.69,5.51v1h-4V67.34A95.63,95.63,0,0,0,109,63.19l-.11.08.07.11a56.4,56.4,0,0,1,12.75,4v1.27h-4.11V67.35c.66.05-10.44-4.28-24-4.51V54.58H89.4l-.22.11-4.34-8.15L80.5,54.69h-.29l-4.34-8.15-4.34,8.15h-.29L67,46.77h-.24l-4.22,7.92h-.29l-4.34-8.15-4.34,8.15H53.3L49,46.54l-4.34,8.15-.22-.11H40.29v8.26c-13.51.21-24.8,4.58-24,4.51v1.26H12.15V67.34a56.56,56.56,0,0,1,12.75-4l.08-.11-.11-.08A95.82,95.82,0,0,0,4.52,67.34v1.27h-4v-1C12.87,62.87,26,62.1,39.17,62.11V54.74h-4v7.1H34.05V54.74H30v7.17l-1.11,0v-7.2h-4v7.39l-1.11.07V54.74h-4v7.77c-.59.07-1.18.14-1.78.23V16.23H44.24v5h1.07V22.4H44.24v3.53h1.07v1.19H44.24v2.54h1.07v1.19H44.24v2.54h1.07v1.2H44.24v2.54h1.07v1.19H44.24v2.54h1.07v1.19H44.24V44.6h1.07v1.19H44.24v2.54h1.07v1.19H44.24v3.82H45l2.21-4.14v-41c-.84.15-1.68.31-2.51.48V8.44h-.43v2.83h0V15.5h-.33V9.19h0V8.86L43.17,9c-.62-2-1.23-4.08-1.85-6.12ZM51.59,1.36C55.1,1,58.53.7,61.76.58c.06,2,.13,4,.2,6l-1,.05V6.32h-.42v4.42a1.26,1.26,0,0,0-.33,0V6.65c-.84,0-1.68.11-2.51.18V6.59h-.43V15.3l-.33.22V6.9c-.83.07-1.67.16-2.5.25V6.9H54v3.54a1,1,0,0,0-.33-.14V7.24l-1.39.17-.72-6ZM62.24.56q4.68-.14,9.35,0l-.2,6-1,0v.92h0v2.75a.53.53,0,0,0-.32-.1V6.17h-.43v.31c-.83,0-1.67,0-2.51,0v7.4c-.06,0-.26.19-.32.22V6.45q-1.26,0-2.52,0V6.17h-.42v5.2h-.33V6.5l-1,0-.21-6ZM66.92,0C51.67.11,36,1.92,21.79,7.81L25,13.88h5.27v1.86H17.5V62.81A88.15,88.15,0,0,0,0,67.28V69.1H133.83V67.28a87.8,87.8,0,0,0-17.5-4.47V15.74H103.59V13.88h5.27l3-6.12C97.77,1.91,82.11.11,66.92,0Zm5.16.58c3.22.12,6.66.38,10.16.78l-.72,6.05-1.39-.17V10c-.11,0-.23.1-.32.15V6.9h-.43v.25c-.83-.09-1.67-.18-2.51-.25v7.76l-.33-.18V6.59h-.42v.24c-.84-.07-1.67-.13-2.51-.18v4.18h0a1.17,1.17,0,0,0,0,1.37v1.36a3.08,3.08,0,0,0-.33.18V6.32h-.43v.29l-1-.05ZM93,3c3,.58,6,1.27,8.83,2.07l-2.26,5.52h-3v.49h2.75l-.85,2.09h-1.9V15.5h-.49V10H95.7v.24c-.84-.23-1.67-.44-2.51-.64v.33h0V15.5h-.33V9.11h-.43v.31l-1.28-.29ZM78.83,13h0a2.39,2.39,0,0,0,.63-.09c.12-.41-.4-1-.79-1.05l-.05,0a1,1,0,0,0,.27.8,1.32,1.32,0,0,0-.07.3Zm-23.4,2,0-.08a5.88,5.88,0,0,0,.49-1.09c.31-.21,1.11-.66.4-.95.2-.49.44-1.56-.3-1.65-.72.61-.34,2.2-1.42,2.62V14a.44.44,0,0,0,.22.06c-.11.67-1.07,2.34.51,1.61.94,0,1.19-.95.13-.62Zm3.62-.4c-.3-.38-.43.2-.57.37-.79.22-1.39.92-2.13,1.23,0,1,1.07.46,1.27-.19,1.51-.25,1.51.37,1.43-1.41Zm-1,1c-.1-.08.31-.33.38-.37.26,0-.2.45-.38.37Zm2-.93c-.14-.19-.22-.42-.54-.42l0,0A1.19,1.19,0,0,0,60,15.58c.54,0,.53-.59.17-.86Zm-6.63-4.13a19.4,19.4,0,0,0-.23,4.55c-.42.79-1.5,1.07-1.79,2,.91.91,1.26-1.19,1.86-1.42.09.06.18.34.38.23.26-1-.28-2.3.21-3.32.4-.67.63-1.84-.43-2ZM52.16,15c.05.38-.35.69-.24,1l.14,0c.3-.42.71-.7,1-1.08,0-.46-.77-.7-1.18-.48-.22.36.21.28.25.56Zm8.54-3.9c-.39-.16-.64.23-.84.14-.2-.33-.69-.22-1.06-.31l-.14.14c0,.41.38.37.45.66-.35.35-1,.52-1.23.93,1,.52,1.73-1.15,2.71-1,.07-.08.32-.27.26-.43l-.15-.12Zm-.94,2.07a1.27,1.27,0,0,1,.46-.56c.15-1-1.57.41-1.88.59.3.19.49-.15.8-.13,0,.43-.62.57-.78,1h0a4.32,4.32,0,0,0-.36-.46c-.18,0-.34,0-.4.11,0,.29.25.52.28.82.23.16.5.19.58-.13.52-.17,1.39-.51,1.31-1.2Zm5.72.14a8.13,8.13,0,0,1-1.4.66h0c0-.8,1.81-2.14.21-2.38-.41.24-1.12,0-1.55.24a.73.73,0,0,0,1.3.48c-.07.55-.49,1.2-.37,1.81-.68.61-2,.77-2.72,1.32.73,1.36,2.36-.85,3.32-1.05h0v0l-.19.19,0,.05c.52-.31,3-.83,1.37-1.35ZM76.79,15c-.3-.19-.81-.58-1.22-.46-.16.25.11.4.21.55a.72.72,0,0,0,1,.62c.18-.21.08-.48,0-.71Zm4.49,0-.18-.06c-.22.06-.4.43-.69.35.22-.57.13-.82-.64-.84l0,0c-.17.45.16.35.27.55s-.15.36-.12.54a4.64,4.64,0,0,1-1.14.52v0a1,1,0,0,0,1.25,0l0,.05c0,.85-.68.35-1.2.49.34.92,2.34.35,1.59-.8l.15-.12h.05l-.07.18a7,7,0,0,1,1-.53c.05-.22-.13-.29-.29-.36Zm.36-2.53c-.15.08-.15.35-.4.31,0-.35.33-.63.51-.88s.55-.64.31-1a.82.82,0,0,0-.58,0l-.1.24c.26.39-.25.91-.42,1.26a.82.82,0,0,1,0-.41c-.47-.18,0-.56-.47-.69l0-.1c.39-.31.13-.84-.36-.85l-.12.08a.91.91,0,0,1-.16.83c-.09.14-.47.08-.52.29.37.17.25.26,0,.5,0,0,0,.1,0,.11h.07c.22-.15.48-.22.66-.36.06.14-.11.41-.17.5a1.62,1.62,0,0,0-.4,0l0,.21.2.13c.06.2-.29.52-.32.71.19.12.65-.34.74-.44.28,0,.31,0,.47-.11h.05c.49.35-1.31,1.05-1.62,1.06,0-.41-.28-1-.75-1.08.06.45,0,1,.58,1.15V14l-.18.11v0c1,.48,1.68-1,2.58-1,0,.41-.92.85-1.2,1.14v0h0c.77,0,3.59-1.78,1.61-1.92Zm-1.11.08-.09,0a.34.34,0,0,1,.12-.37h0a.29.29,0,0,1-.08.42Zm-2.74,1.93-.16.11c-.11.41-.58,1.08.21,1.11.31-.13.49-1.23,0-1.22Zm-5.61-2.87c-.62-.58-1.45.8-2.1.74-.11-.72,1.25-.67,1.41-1.4-.18-.45-.82-.41-1.12-.08-.18,0,0-.46-.41-.47-.29.31,0,.9-.44,1.14h-.06c-.13-.27-.12-.65-.52-.51,0,.79-.16,1-1,1.21,0,.39.59.57.87.34a.49.49,0,0,0,.64.12l0,.09c-.89.7-2.85,1.2-3.22,2.25,1.09.15,1.62-.92,2.49-1.28l0,0c-.07.23-.18.34,0,.57.42,0,.49-.63,1-.63l0,0-.17.1c0,.44-.42.37-.54.64.15.18.28,0,.4.19v.08l-.29.09c-.1.28.28.24.29.47l-.27.18c-.06.17.33.31.14.52a2.66,2.66,0,0,1-1.06.3c-.35.21.24.65.45.67.14-.13.08-.36.25-.45a1.12,1.12,0,0,1,.7.41c.41.08.16-.31.26-.5a2.29,2.29,0,0,1,.81-.41c.17-.29-.19-.57-.38-.64-.23.11-.12.64-.42.67l0,0c-.15-.75.55-1.15.35-1.84l-.17-.08L70,13.84h0l.11,0,.06,0c-.15-.5.63-.58.8-1,0-.34-.49-.35-.73-.15v0c.25-.14.53-.45.86-.35.34-.27,1.14-.1,1.07-.7ZM70.57,11h0c.07.16-.27.39-.35.49h0c-.18-.29.23-.39.37-.49Zm-1,5.39a.32.32,0,0,1-.29.08l-.07-.08c0-.15.15-.19.24-.27h.08a.41.41,0,0,1,0,.26Zm-.07-4.51.22-.15h0c.07.11,0,.22-.13.28h-.09l0-.13Zm.06.49,0,0,0,0v-.09l0,0h.06v.12Zm-.14,1.22-.06-.05c0-.41.5-.6.8-.65l.08.06c0,.12-.69.58-.82.64Zm6.77-1.16c-.38-.5-.73.3-1,.47-.71.46.43-1.6-1.23-1.84l-.07,0c-.27.46,0,.63.19.95.75,1.65-1,2.49-2.34,2.82,0,1.67,1.7-.32,2.28-.61H74c.14,1.07-1.11,1.46-1.83,1.72l0,.06c1.61.34,2.59-1,2.63-2.38.36-.46,1.31-.58,1.33-1.23ZM50.44,48.62l-1.33-2.5h-.29L47.5,48.59V8.16h0V7.81h.43v.28c.83-.15,1.67-.28,2.51-.41V48.62Zm35.89,0L85,46.12H84.7l-1.3,2.44V7.68c.84.13,1.67.26,2.51.41V7.81h.42V48.64ZM60.56,12.83a1.3,1.3,0,0,1-.14.29.43.43,0,0,0-.19.14v1.07a4.46,4.46,0,0,0,.33.43ZM41,54.9l3.35,1.63H89.5l3.34-1.63Zm47.79-.32-.25-.47v.47Zm-2.12-4L86.33,50v4.59h.33Zm-3.26-.69c-.54.28-.27,4.17-.33,4.67h.33Zm-6.53-.85-.33-.61v6.13h.33Zm-3.26,2.39c-.49.36-.3,2.61-.33,3.13h.33Zm-3.27,2.21L70,53v1.54h.32Zm-3.26-6.13-.18-.34-.14.28v7.11h.32ZM63.82,53a2.41,2.41,0,0,0-.33,1.6h.33Zm-3.26-.87-.33-.61v3.08h.33Zm-3.27-3.72c-.54.1-.27,5.79-.33,6.19h.33ZM54,54.52l0,.06h0Zm-3.26-3.94L50.44,50v4.62h.33Zm-3.27-.65c-.54.29-.27,4.15-.32,4.65h.32Zm-2.19,4.12-.28.53h.28Zm21.61,8.56H63.17V56.94H61.83v5.67H54.32V56.94H53v5.67H45.47V56.94H44.3V63h6.58l0,0,0,0a39.32,39.32,0,0,0-8.66,5.54h5.15A42.7,42.7,0,0,1,53.76,63H80.08a42.3,42.3,0,0,1,6.37,5.6H91.6a38.84,38.84,0,0,0-8.66-5.54l0,0,0,0h6.57V56.94H88.36v5.67h-7.5V56.94H79.52v5.67H72V56.94H70.67v5.67Zm-26.63-44H38.88v5.22h1.41Zm-1.72,0H37.16v5.22h1.41Zm-1.71,0H35.45v5.22h1.41Zm-1.72,0H33.73v5.22h1.41Zm5.15,32.64H37.52v2h2.77ZM27,51.24H24.21v2H27v-2Zm4.43,0H28.65v2h2.76v-2Zm4.44,0H33.08v2h2.77v-2Zm-13.31,0H19.77v2h2.77ZM23,47.93H19.77v2H23Zm0-3.74H19.77v2H23Zm0-3.73H19.77v2H23Zm0-3.73H19.77v2H23ZM23,33H19.77v2H23Zm0-3.73H19.77v2H23Zm8.65,18.67H25.08v2h6.56Zm0-3.74H25.08v2h6.56Zm0-3.73H25.08v2h6.56Zm0-3.73H25.08v2h6.56Zm0-3.74H25.08v2h6.56Zm0-3.73H25.08v2h6.56Zm8.65,18.67H33.73v2h6.56Zm0-3.74H33.73v2h6.56Zm0-3.73H33.73v2h6.56Zm0-3.73H33.73v2h6.56Zm0-3.74H33.73v2h6.56Zm0-3.73H33.73v2h6.56ZM23,25.52H19.77v2H23Zm8.65,0H25.08v2h6.56Zm8.65,0H33.73v2h6.56ZM23,18.6H21.53v5.22H23Zm-1.76,0H19.77v5.22h1.46Zm10.41,0H30.23v5.22h1.41Zm-1.72,0H28.51v5.22h1.41Zm-1.71,0H26.8v5.22h1.41Zm-1.72,0H25.08v5.22h1.41Zm67.06,0H95v5.22H93.55Zm1.71,0h1.42v5.22H95.26Zm1.72,0h1.41v5.22H97Zm1.71,0h1.41v5.22H98.69ZM93.55,51.24h2.76v2H93.55Zm13.31,0h2.76v2h-2.76v-2Zm-4.44,0h2.77v2h-2.77v-2Zm-4.43,0h2.76v2H98v-2Zm13.31,0h2.76v2H111.3Zm-.45-3.31h3.21v2h-3.21Zm0-3.74h3.21v2h-3.21Zm0-3.73h3.21v2h-3.21Zm0-3.73h3.21v2h-3.21Zm0-3.74h3.21v2h-3.21Zm0-3.73h3.21v2h-3.21ZM102.2,47.93h6.55v2H102.2Zm0-3.74h6.55v2H102.2Zm0-3.73h6.55v2H102.2Zm0-3.73h6.55v2H102.2Zm0-3.74h6.55v2H102.2Zm0-3.73h6.55v2H102.2ZM93.55,47.93h6.55v2H93.55Zm0-3.74h6.55v2H93.55Zm0-3.73h6.55v2H93.55Zm0-3.73h6.55v2H93.55Zm0-3.74h6.55v2H93.55Zm0-3.73h6.55v2H93.55Zm17.3-3.74h3.21v2h-3.21Zm-8.65,0h6.55v2H102.2Zm-8.65,0h6.55v2H93.55Zm17.3-6.92h1.45v5.22h-1.45Zm1.76,0h1.45v5.22h-1.45Zm-10.41,0h1.41v5.22H102.2Zm1.71,0h1.41v5.22h-1.41Zm1.72,0H107v5.22h-1.41Zm1.71,0h1.41v5.22h-1.41Z"/><rect class="cls-2" x="9.01" y="68.61" width="192.33" height="0.49"/></g></g></svg>